
<svg xmlns="http://www.w3.org/2000/svg" version="1.1" xmlns:xlink="http://www.w3.org/1999/xlink" preserveAspectRatio="none" x="0px" y="0px" width="153px" height="153px" viewBox="0 0 153 153">
<defs>
<g id="Layer2_0_FILL">
<path fill="#C9EE95" stroke="none" d="
M 151.5 76.5
Q 151.5 45.45 129.5 23.45 107.55 1.5 76.5 1.5 45.45 1.5 23.45 23.45 1.5 45.45 1.5 76.5 1.5 107.55 23.45 129.5 45.45 151.5 76.5 151.5 107.55 151.5 129.5 129.5 151.5 107.55 151.5 76.5 Z"/>
</g>

<g id="Layer1_0_FILL">
<path fill="#144162" stroke="none" d="
M 83.65 37.65
Q 83.65 34.9 81.7 33 79.8 31.05 77.05 31.05 74.35 31.05 72.4 33 70.5 34.95 70.5 37.65 70.5 39.75 71.75 41.5 72.95 43.15 74.85 43.85
L 74.85 57.5
Q 72.05 57.8 69.45 58.9 66.9 59.95 64.75 61.7
L 51.15 48.05
Q 52.95 45.35 52.95 42.05 52.95 37.5 49.75 34.3 46.55 31.05 42 31.05 37.5 31.05 34.25 34.3 31.05 37.5 31.05 42.05 31.05 46.55 34.25 49.75 37.5 53 42 53 45.35 53 48.05 51.15
L 61.65 64.75
Q 59.95 66.95 58.9 69.45 57.8 72.05 57.45 74.9
L 43.85 74.9
Q 43.15 72.95 41.45 71.75 39.75 70.5 37.65 70.5 34.9 70.5 33 72.45 31.05 74.35 31.05 77.1 31.05 79.8 33 81.75 34.9 83.65 37.65 83.65 39.75 83.65 41.45 82.4 43.15 81.2 43.85 79.25
L 57.45 79.25
Q 57.8 82.1 58.9 84.7 59.95 87.2 61.65 89.4
L 48.05 103
Q 45.35 101.15 42 101.15 37.5 101.15 34.25 104.4 31.05 107.6 31.05 112.15 31.05 116.65 34.25 119.85 37.5 123.1 42 123.1 46.55 123.1 49.75 119.85 52.95 116.65 52.95 112.15 52.95 108.8 51.15 106.1
L 64.75 92.5
Q 66.9 94.2 69.45 95.25 72.05 96.35 74.85 96.65
L 74.85 110.3
Q 72.95 111 71.75 112.7 70.5 114.4 70.5 116.5 70.5 119.25 72.4 121.15 74.35 123.1 77.05 123.1 79.8 123.1 81.7 121.15 83.65 119.25 83.65 116.5 83.65 114.4 82.4 112.7 81.2 111 79.25 110.3
L 79.25 96.65
Q 82.1 96.35 84.7 95.25 87.2 94.2 89.35 92.5
L 102.95 106.1
Q 101.15 108.8 101.15 112.15 101.15 116.65 104.35 119.85 107.6 123.1 112.1 123.1 116.65 123.1 119.85 119.85 123.05 116.65 123.05 112.15 123.05 107.6 119.85 104.4 116.65 101.15 112.1 101.15 108.8 101.15 106.05 103
L 92.45 89.4
Q 94.2 87.2 95.25 84.7 96.35 82.1 96.65 79.25
L 110.3 79.25
Q 111 81.2 112.65 82.4 114.4 83.65 116.5 83.65 119.2 83.65 121.15 81.75 123.05 79.8 123.05 77.1 123.05 74.35 121.15 72.45 119.2 70.5 116.5 70.5 114.4 70.5 112.65 71.75 111 72.95 110.3 74.9
L 96.65 74.9
Q 96.35 72.05 95.25 69.45 94.2 66.95 92.45 64.75
L 106.05 51.15
Q 108.8 53 112.1 53 116.65 53 119.85 49.75 123.05 46.55 123.05 42.05 123.05 37.5 119.85 34.3 116.65 31.05 112.1 31.05 107.6 31.05 104.35 34.3 101.15 37.5 101.15 42.05 101.15 45.35 103 48.05
L 89.35 61.7
Q 87.2 59.95 84.7 58.9 82.1 57.8 79.25 57.5
L 79.25 43.85
Q 81.2 43.15 82.4 41.5 83.65 39.75 83.65 37.65 Z"/>
</g>

<g id="Layer1_1_MEMBER_0_FILL">
<path fill="#C9EE95" stroke="none" d="
M 524.7 81.8
Q 524.7 53.7 504.85 33.85 485 14 456.95 14 428.85 14 409 33.85 389.15 53.7 389.15 81.8 389.15 109.85 409 129.7 428.85 149.55 456.95 149.55 485 149.55 504.85 129.7 524.7 109.85 524.7 81.8 Z"/>
</g>

<g id="Layer1_1_MEMBER_1_FILL">
<path fill="#C9EE95" stroke="none" d="
M 528.2 182.45
Q 513.2 167.45 492.2 167.45
L 422.2 167.45
Q 401.2 167.45 386.25 182.45 371.25 197.45 371.25 218.45
L 371.25 260.45 542.6 260.45 542.6 218.4 543.2 218.4
Q 543.2 197.4 528.2 182.45 Z"/>
</g>

<g id="Layer1_2_MEMBER_0_FILL">
<path fill="#C9EE95" stroke="none" d="
M 524.7 81.8
Q 524.7 53.7 504.85 33.85 485 14 456.95 14 428.85 14 409 33.85 389.15 53.7 389.15 81.8 389.15 109.85 409 129.7 428.85 149.55 456.95 149.55 485 149.55 504.85 129.7 524.7 109.85 524.7 81.8 Z"/>
</g>

<g id="Layer1_2_MEMBER_1_FILL">
<path fill="#C9EE95" stroke="none" d="
M 528.2 182.45
Q 513.2 167.45 492.2 167.45
L 422.2 167.45
Q 401.2 167.45 386.25 182.45 371.25 197.45 371.25 218.45
L 371.25 260.45 542.6 260.45 542.6 218.4 543.2 218.4
Q 543.2 197.4 528.2 182.45 Z"/>
</g>

<g id="Layer1_3_MEMBER_0_FILL">
<path fill="#C9EE95" stroke="none" d="
M 524.7 81.8
Q 524.7 53.7 504.85 33.85 485 14 456.95 14 428.85 14 409 33.85 389.15 53.7 389.15 81.8 389.15 109.85 409 129.7 428.85 149.55 456.95 149.55 485 149.55 504.85 129.7 524.7 109.85 524.7 81.8 Z"/>
</g>

<g id="Layer1_3_MEMBER_1_FILL">
<path fill="#C9EE95" stroke="none" d="
M 528.2 182.45
Q 513.2 167.45 492.2 167.45
L 422.2 167.45
Q 401.2 167.45 386.25 182.45 371.25 197.45 371.25 218.45
L 371.25 260.45 542.6 260.45 542.6 218.4 543.2 218.4
Q 543.2 197.4 528.2 182.45 Z"/>
</g>

<g id="Layer1_4_MEMBER_0_FILL">
<path fill="#C9EE95" stroke="none" d="
M 524.7 81.8
Q 524.7 53.7 504.85 33.85 485 14 456.95 14 428.85 14 409 33.85 389.15 53.7 389.15 81.8 389.15 109.85 409 129.7 428.85 149.55 456.95 149.55 485 149.55 504.85 129.7 524.7 109.85 524.7 81.8 Z"/>
</g>

<g id="Layer1_4_MEMBER_1_FILL">
<path fill="#C9EE95" stroke="none" d="
M 528.2 182.45
Q 513.2 167.45 492.2 167.45
L 422.2 167.45
Q 401.2 167.45 386.25 182.45 371.25 197.45 371.25 218.45
L 371.25 260.45 542.6 260.45 542.6 218.4 543.2 218.4
Q 543.2 197.4 528.2 182.45 Z"/>
</g>

<g id="Layer1_5_MEMBER_0_FILL">
<path fill="#C9EE95" stroke="none" d="
M 524.7 81.8
Q 524.7 53.7 504.85 33.85 485 14 456.95 14 428.85 14 409 33.85 389.15 53.7 389.15 81.8 389.15 109.85 409 129.7 428.85 149.55 456.95 149.55 485 149.55 504.85 129.7 524.7 109.85 524.7 81.8 Z"/>
</g>

<g id="Layer1_5_MEMBER_1_FILL">
<path fill="#C9EE95" stroke="none" d="
M 528.2 182.45
Q 513.2 167.45 492.2 167.45
L 422.2 167.45
Q 401.2 167.45 386.25 182.45 371.25 197.45 371.25 218.45
L 371.25 260.45 542.6 260.45 542.6 218.4 543.2 218.4
Q 543.2 197.4 528.2 182.45 Z"/>
</g>
</defs>

<g transform="matrix( 1, 0, 0, 1, 0,0) ">
<use xlink:href="#Layer2_0_FILL"/>
</g>

<g transform="matrix( 1, 0, 0, 1, 0,0) ">
<use xlink:href="#Layer1_0_FILL"/>
</g>

<g transform="matrix( 0.099853515625, 0, 0, 0.099853515625, 31.45,63.05) ">
<use xlink:href="#Layer1_1_MEMBER_0_FILL"/>
</g>

<g transform="matrix( 0.099853515625, 0, 0, 0.099853515625, 31.45,63.05) ">
<use xlink:href="#Layer1_1_MEMBER_1_FILL"/>
</g>

<g transform="matrix( 0.06500244140625, 0, 0, 0.06500244140625, 12,32.05) ">
<use xlink:href="#Layer1_2_MEMBER_0_FILL"/>
</g>

<g transform="matrix( 0.06500244140625, 0, 0, 0.06500244140625, 12,32.05) ">
<use xlink:href="#Layer1_2_MEMBER_1_FILL"/>
</g>

<g transform="matrix( 0.0649871826171875, 0, 0, 0.0649871826171875, 82.75,32) ">
<use xlink:href="#Layer1_3_MEMBER_0_FILL"/>
</g>

<g transform="matrix( 0.0649871826171875, 0, 0, 0.0649871826171875, 82.75,32) ">
<use xlink:href="#Layer1_3_MEMBER_1_FILL"/>
</g>

<g transform="matrix( 0.0649871826171875, 0, 0, 0.0649871826171875, 12,102.4) ">
<use xlink:href="#Layer1_4_MEMBER_0_FILL"/>
</g>

<g transform="matrix( 0.0649871826171875, 0, 0, 0.0649871826171875, 12,102.4) ">
<use xlink:href="#Layer1_4_MEMBER_1_FILL"/>
</g>

<g transform="matrix( 0.064971923828125, 0, 0, 0.064971923828125, 82.7,102.35) ">
<use xlink:href="#Layer1_5_MEMBER_0_FILL"/>
</g>

<g transform="matrix( 0.064971923828125, 0, 0, 0.064971923828125, 82.7,102.35) ">
<use xlink:href="#Layer1_5_MEMBER_1_FILL"/>
</g>
</svg>
