<?xml version="1.0" encoding="utf-8"?>
<!-- Generator: Adobe Illustrator 24.3.0, SVG Export Plug-In . SVG Version: 6.00 Build 0)  -->
<svg version="1.1" id="Camada_1" xmlns="http://www.w3.org/2000/svg" xmlns:xlink="http://www.w3.org/1999/xlink" x="0px" y="0px"
	 viewBox="0 0 80 80" style="enable-background:new 0 0 80 80;" xml:space="preserve">
<style type="text/css">
	.st0{fill:none;stroke:#0C486C;stroke-width:2.5896;stroke-miterlimit:10;}
	.st1{fill:#0C486C;}
	.st2{fill:#CFF09F;}
</style>
<g>
	<circle class="st0" cx="185.5" cy="144.4" r="37.2"/>
	<g>
		<path class="st1" d="M185.5,119.4c-13.8,0-25,11.2-25,25c0,13.8,11.2,25,25,25c13.8,0,25-11.2,25-25
			C210.5,130.6,199.3,119.4,185.5,119.4z M185.5,123c11.9,0,21.4,9.6,21.4,21.4c0,11.9-9.6,21.4-21.4,21.4
			c-11.9,0-21.4-9.6-21.4-21.4C164,132.5,173.6,123,185.5,123L185.5,123z M185.4,130.1c-1,0-1.8,0.8-1.8,1.8v0v0v17.9v0
			c0,1,0.8,1.8,1.8,1.8c1,0,1.8-0.8,1.8-1.8v0v0v-17.9v0C187.3,130.9,186.5,130.1,185.4,130.1L185.4,130.1L185.4,130.1L185.4,130.1z
			 M185.5,155.1L185.5,155.1c-1,0-1.8,0.8-1.8,1.8c0,1,0.8,1.8,1.8,1.8h0h0h0c1,0,1.8-0.8,1.8-1.8
			C187.3,155.9,186.5,155.1,185.5,155.1L185.5,155.1L185.5,155.1z"/>
	</g>
</g>
<g>
	<path class="st2" d="M47.8,34c-1.5,0-3-0.6-4.1-1.7c-1.1-1.1-1.7-2.6-1.7-4.1c0-1.5,0.6-3,1.7-4.1c1.1-1.1,2.6-1.7,4.1-1.7
		c1.5,0,3,0.6,4.1,1.7c1.1,1.1,1.7,2.6,1.7,4.1c0,1.5-0.6,3-1.7,4.1C50.8,33.4,49.4,34,47.8,34L47.8,34z M47.8,24.6
		c-1,0-1.9,0.4-2.5,1s-1,1.6-1,2.5c0,0.9,0.4,1.9,1,2.5c0.7,0.7,1.6,1,2.5,1c0.9,0,1.9-0.4,2.5-1c0.7-0.7,1-1.6,1-2.5
		c0-1-0.4-1.9-1-2.5C49.7,25,48.8,24.6,47.8,24.6z M48.6,41.7l-1.6,0c-0.6,0-1.2-0.3-1.6-0.7c-0.4-0.4-0.7-1-0.8-1.6l-0.4-1.5
		c-0.2-0.1-0.5-0.2-0.7-0.3l-1.4,0.9v0C41.6,38.8,41,39,40.5,39c-0.7,0-1.3-0.2-1.8-0.7l-1.1-1.1c-0.4-0.5-0.6-1-0.7-1.7
		c0-0.6,0.2-1.2,0.5-1.7l0.9-1.5c-0.1-0.1-0.1-0.3-0.2-0.4l-1.6-0.4l0,0c-0.6-0.1-1.2-0.4-1.6-0.8c-0.4-0.4-0.7-1-0.7-1.6v-1.6
		c0-0.6,0.3-1.2,0.7-1.7c0.4-0.5,1-0.8,1.6-0.9l1.5-0.3c0.1-0.2,0.1-0.3,0.2-0.5l-0.9-1.5v0c-0.4-0.5-0.6-1.1-0.5-1.7
		c0-0.6,0.3-1.2,0.7-1.6l1.1-1.1c0.5-0.4,1.1-0.6,1.7-0.7c0.6,0,1.2,0.1,1.8,0.5l1.4,0.9c0.2-0.1,0.5-0.2,0.7-0.3l0.4-1.5
		c0.1-0.6,0.4-1.2,0.8-1.6c0.4-0.4,1-0.7,1.6-0.7h1.6c0.6,0,1.2,0.3,1.7,0.7c0.5,0.4,0.8,1,0.9,1.6l0.3,1.5c0.2,0.1,0.4,0.2,0.6,0.3
		l1.3-0.8v0c0.5-0.3,1.1-0.5,1.6-0.5c0.7,0,1.3,0.2,1.8,0.7l1.1,1.1c0.4,0.5,0.6,1,0.7,1.7c0,0.6-0.2,1.2-0.5,1.7L57.3,24
		c0.1,0.2,0.2,0.4,0.3,0.6l1.5,0.3c0.6,0.1,1.2,0.4,1.6,0.9c0.4,0.5,0.7,1.1,0.7,1.7v1.6c0,0.6-0.3,1.2-0.7,1.6
		c-0.4,0.4-1,0.7-1.6,0.8L57.5,32l-0.2,0.5l0.8,1.4l0,0c0.4,0.5,0.5,1.1,0.5,1.7c0,0.6-0.3,1.2-0.7,1.7l-1.1,1.1
		c-0.5,0.5-1.1,0.7-1.8,0.7c-0.6,0-1.2-0.2-1.7-0.5l-1.3-0.8l-0.6,0.2l-0.3,1.6l0,0c-0.1,0.6-0.4,1.2-0.9,1.6
		C49.8,41.5,49.2,41.7,48.6,41.7L48.6,41.7z M47.1,39.5h1.6c0.1,0,0.3-0.2,0.4-0.5l0.5-2.1h0c0.1-0.5,0.4-0.8,0.9-1
		c0.4-0.1,0.8-0.3,1.2-0.5c0.4-0.2,0.9-0.2,1.3,0.1l1.8,1.1c0.2,0.1,0.5,0.2,0.6,0.1l1.1-1.1l0,0c0-0.2-0.1-0.4-0.2-0.6l-1.1-1.8
		c-0.2-0.4-0.3-0.9,0-1.3c0.2-0.4,0.4-0.8,0.5-1.2c0.1-0.4,0.5-0.8,0.9-0.9l2.1-0.5v0c0.2,0,0.4-0.1,0.6-0.3v-1.5
		c-0.1-0.2-0.3-0.3-0.5-0.4l-2.1-0.5c-0.5-0.1-0.8-0.5-1-0.9c-0.1-0.4-0.3-0.8-0.5-1.2c-0.2-0.4-0.2-0.9,0-1.3l1.1-1.8
		c0.1-0.2,0.2-0.4,0.2-0.6l-1.1-1.1c-0.2-0.1-0.4,0-0.6,0.1l-1.8,1.2v0c-0.4,0.3-0.9,0.3-1.3,0c-0.4-0.2-0.8-0.4-1.2-0.5
		c-0.4-0.2-0.8-0.5-0.9-1L49,17.4h0c0-0.2-0.2-0.4-0.4-0.5H47c-0.2,0.1-0.3,0.3-0.3,0.5l-0.5,2c-0.1,0.4-0.5,0.8-0.9,0.9
		c-0.5,0.1-0.9,0.3-1.3,0.6c-0.4,0.2-0.9,0.2-1.3-0.1l-1.8-1.2v0c-0.2-0.1-0.4-0.2-0.6-0.1l-1.1,1.1c0,0.2,0.1,0.4,0.2,0.6l1.2,1.9
		v0c0.2,0.4,0.3,0.9,0,1.3c-0.2,0.4-0.3,0.8-0.5,1.2c-0.1,0.5-0.5,0.8-1,0.9l-2,0.5c-0.2,0-0.4,0.2-0.5,0.4V29
		c0.1,0.2,0.3,0.3,0.5,0.3l2.1,0.5c0.4,0.1,0.8,0.4,0.9,0.9c0.1,0.4,0.3,0.7,0.4,1.1c0.2,0.4,0.2,0.9,0,1.3L39.3,35l0,0
		c-0.1,0.2-0.2,0.4-0.2,0.6l1.1,1.1c0.1,0.1,0.4,0,0.6-0.1l1.9-1.2c0.4-0.3,0.9-0.3,1.3-0.1c0.4,0.2,0.9,0.4,1.3,0.6
		c0.4,0.1,0.8,0.5,0.9,0.9l0.5,2C46.8,39.1,46.9,39.4,47.1,39.5L47.1,39.5z M38.6,77.9c-0.8,0-1.4-0.6-1.5-1.4
		c-0.3-3.7-2.4-3.8-2.8-3.8h-0.2c0,0-2.5-0.1-9.2,1c-3,0.5-5.4,0-7-1.3h0c-1.1-0.9-1.9-2.1-2.1-3.6l-2-12.3
		c-0.5-0.2-1.4-0.4-2.8-0.8l0,0c-1.4-0.3-2.5-1.2-3.2-2.5c-0.5-1.4-0.5-3,0.2-4.3c3.8-7.7,4.3-12.5,4.3-12.5
		c1-17.2,9.3-28.1,23.5-30.7c12.5-2.3,24.7,3.8,30.3,11c7.8,10,5.7,24.3,2.3,31.4c-3.6,7.7-3.6,9.3-3.6,10c0,1.2,0.1,16,0.1,16.1
		l0,0c0,0.4-0.1,0.8-0.4,1.1c-0.3,0.3-0.7,0.4-1.1,0.4c-0.4,0-0.8-0.2-1.1-0.4c-0.3-0.3-0.4-0.7-0.4-1c0-0.6-0.1-15-0.1-16.2
		c0-1.5,0.3-3.6,3.9-11.3c3-6.4,5-19.3-2-28.3c-5.1-6.5-16.1-12-27.4-9.9c-12.7,2.3-20.2,12.3-21.1,28c0,0.3-0.5,5.4-4.6,13.6h0
		c-0.2,0.5-0.3,1.1-0.1,1.7c0.3,0.4,0.7,0.7,1.2,0.8c4.3,1.2,4.8,1.4,4.9,2.5l2.1,13.1l0,0c0,0,0,0.1,0,0.1c0.1,0.7,0.5,1.3,1,1.7
		c1,0.7,2.6,1,4.7,0.6c6.5-1,9.2-1,9.7-1c1.3,0,2.6,0.4,3.6,1.3c1.5,1.4,2.3,3.3,2.3,5.3c0,0.4-0.1,0.8-0.3,1.1
		c-0.3,0.3-0.6,0.5-1,0.5L38.6,77.9z M13.6,55.4c0,0.1,0,0.2,0,0.3C13.6,55.6,13.6,55.5,13.6,55.4z"/>
</g>
</svg>
