<?xml version="1.0" encoding="utf-8"?>
<!-- Generator: Adobe Illustrator 24.3.0, SVG Export Plug-In . SVG Version: 6.00 Build 0)  -->
<svg version="1.1" id="Camada_1" xmlns="http://www.w3.org/2000/svg" xmlns:xlink="http://www.w3.org/1999/xlink" x="0px" y="0px"
	 viewBox="0 0 80 80" style="enable-background:new 0 0 80 80;" xml:space="preserve">
<style type="text/css">
	.st0{fill:none;stroke:#0C486C;stroke-width:2.5896;stroke-miterlimit:10;}
	.st1{fill:#0C486C;}
</style>
<g>
	<circle class="st0" cx="40.6" cy="40.6" r="37.2"/>
	<g>
		<path class="st1" d="M28.1,38.9L28.1,38.9c-1,0-1.8,0.8-1.8,1.8c0,1,0.8,1.8,1.8,1.8h0h25h0c1,0,1.8-0.8,1.8-1.8
			c0-1-0.8-1.8-1.8-1.8h0H28.1z"/>
		<path class="st1" d="M42.4,28.1L42.4,28.1c0-1-0.8-1.8-1.8-1.8c-1,0-1.8,0.8-1.8,1.8v0v0v25v0c0,1,0.8,1.8,1.8,1.8
			c1,0,1.8-0.8,1.8-1.8v0v0V28.1z"/>
		<path class="st1" d="M40.6,15.6c-13.8,0-25,11.2-25,25s11.2,25,25,25c13.8,0,25-11.2,25-25S54.4,15.6,40.6,15.6L40.6,15.6z
			 M40.6,19.2c11.9,0,21.4,9.6,21.4,21.4s-9.6,21.4-21.4,21.4c-11.9,0-21.4-9.6-21.4-21.4C19.2,28.8,28.7,19.2,40.6,19.2L40.6,19.2z
			"/>
	</g>
</g>
</svg>
