<?xml version="1.0" encoding="utf-8"?>
<!-- Generator: Adobe Illustrator 24.3.0, SVG Export Plug-In . SVG Version: 6.00 Build 0)  -->
<svg version="1.1" id="Camada_1" xmlns="http://www.w3.org/2000/svg" xmlns:xlink="http://www.w3.org/1999/xlink" x="0px" y="0px"
	 viewBox="0 0 143 48.5" style="enable-background:new 0 0 143 48.5;" xml:space="preserve">
<style type="text/css">
	.st0{fill:#CFF09F;}
	.st1{fill:#0C486C;}
</style>
<g>
	<path class="st0" d="M128.2,39.7H23.7c-8.2,0-14.9-6.7-14.9-14.9v0c0-8.2,6.7-14.9,14.9-14.9h104.5c8.2,0,14.9,6.7,14.9,14.9v0
		C143.1,33,136.4,39.7,128.2,39.7z"/>
	<circle class="st0" cx="24.4" cy="24.4" r="24.1"/>
	<g>
		<path class="st1" d="M80.8,28h3.5v1.3h-5.1v-8.7h1.6V28z"/>
		<path class="st1" d="M87.3,29.3h-1.6v-8.7h1.6V29.3z"/>
		<path class="st1" d="M90.2,20.6c0,0,0.1,0,0.1,0c0,0,0.1,0,0.1,0.1c0,0,0.1,0.1,0.1,0.1l4.6,5.8c0-0.1,0-0.3,0-0.4s0-0.3,0-0.4
			v-5.3h1.4v8.7h-0.8c-0.1,0-0.2,0-0.3-0.1s-0.2-0.1-0.2-0.2l-4.5-5.8c0,0.1,0,0.3,0,0.4s0,0.2,0,0.3v5.3h-1.4v-8.7h0.8
			C90.1,20.6,90.2,20.6,90.2,20.6z"/>
		<path class="st1" d="M99.9,24.3h0.4c0.2,0,0.3,0,0.4-0.1c0.1,0,0.2-0.1,0.3-0.2l2.4-3c0.1-0.1,0.2-0.2,0.3-0.3
			c0.1,0,0.2-0.1,0.4-0.1h1.4l-2.9,3.6c-0.1,0.1-0.2,0.2-0.3,0.3s-0.2,0.1-0.3,0.2c0.1,0,0.3,0.1,0.4,0.2c0.1,0.1,0.2,0.2,0.3,0.3
			l3,4.1h-1.4c-0.2,0-0.3,0-0.4-0.1c-0.1-0.1-0.2-0.1-0.2-0.2l-2.5-3.2c-0.1-0.1-0.2-0.2-0.3-0.2c-0.1,0-0.2-0.1-0.4-0.1h-0.5v3.8
			h-1.6v-8.7h1.6V24.3z"/>
	</g>
	<g>
		<path class="st1" d="M18.1,22.3c-0.2,0-0.4-0.1-0.5-0.2c-0.3-0.4-0.6-0.9-0.9-1.3c0,0,0,0,0,0c-0.8-1.9-0.6-4,0.5-5.7
			c1.1-1.7,3-2.7,5-2.7s3.9,1,5,2.6c1.1,1.7,1.4,3.8,0.6,5.7c0,0,0,0,0,0c-0.2,0.5-0.5,0.9-0.8,1.4c-0.2,0.3-0.7,0.3-1,0.1
			c-0.3-0.2-0.3-0.7-0.1-1c0.2-0.3,0.4-0.7,0.6-1.1c0.6-1.4,0.4-3.1-0.5-4.4c-0.9-1.3-2.3-2-3.9-2c-1.6,0-3,0.8-3.8,2.1
			c-0.8,1.3-1,2.9-0.4,4.4c0.2,0.4,0.4,0.7,0.7,1c0.2,0.2,0.2,0.5,0.1,0.7C18.6,22.1,18.4,22.3,18.1,22.3L18.1,22.3z M18.6,25.5
			L18.6,25.5c0.2-0.3,0.1-0.8-0.3-0.9c-0.6-0.4-1.5-1.3-1.8-1.7v0c-1-1.3-1.6-2.9-1.6-4.6c0-2.3,1.1-4.5,2.9-5.8
			c1.8-1.4,4.2-1.8,6.4-1.2c2.2,0.6,4,2.3,4.8,4.4c0.8,2.1,0.6,4.6-0.7,6.5c-0.2,0.3-0.1,0.7,0.2,1c0.3,0.2,0.7,0.1,1-0.2
			c1.1-1.8,1.6-4,1.2-6.1c-0.4-2.1-1.5-4-3.1-5.3c-1.7-1.3-3.8-2-5.9-1.9c-2.1,0.1-4.2,1-5.7,2.5s-2.4,3.5-2.5,5.7
			c-0.1,2.1,0.6,4.2,1.9,5.9c0.1,0.1,1.2,1.5,2.2,2c0.2,0.1,0.3,0.1,0.5,0.1C18.3,25.8,18.5,25.7,18.6,25.5L18.6,25.5z M15.2,26.4
			c0.1-0.1,0.2-0.3,0.2-0.5c0-0.2-0.1-0.4-0.2-0.5c-1.8-1.8-2.8-4.1-3-6.6c-0.1-2.5,0.7-5,2.3-6.9c1.6-1.9,3.9-3.2,6.4-3.5
			c2.5-0.3,5,0.3,7,1.7c2,1.4,3.5,3.6,4,6.1c0.5,2.4,0.1,5-1.2,7.2c-0.1,0.2-0.1,0.3-0.1,0.5c0,0.2,0.2,0.3,0.3,0.4
			c0.3,0.2,0.8,0.1,0.9-0.2c1.5-2.5,1.9-5.4,1.3-8.2c-0.6-2.8-2.2-5.3-4.6-6.9c-2.3-1.6-5.2-2.4-8-2c-2.8,0.4-5.4,1.8-7.2,4
			c-1.8,2.2-2.8,5-2.6,7.8c0.1,2.8,1.3,5.5,3.4,7.5c0.1,0.1,0.3,0.2,0.5,0.2C14.9,26.6,15.1,26.5,15.2,26.4L15.2,26.4z M33.4,28.4
			l0,6.3c0,2.7-1.7,7.2-8.1,7.2c-5.7,0-8.8-7.4-10.3-11l-0.1-0.3l0,0c-0.3-0.5-0.3-1.1-0.1-1.7c0.2-0.6,0.6-1,1.1-1.3
			c0.5-0.3,1.2-0.4,1.8-0.2c0.6,0.2,1.1,0.5,1.4,1c0,0,0,0,0,0l0.8,1.3l0-11.4h0c0-0.6,0.2-1.2,0.7-1.7c0.4-0.4,1-0.6,1.5-0.6h0h0
			c0.6,0,1.1,0.2,1.5,0.6c0.5,0.4,0.7,1,0.7,1.7v5.4c1.1-0.4,2.5,0,2.9,1.1c0.3-0.1,0.6-0.2,1-0.2c0.5,0,1,0.2,1.4,0.5
			c0.4,0.3,0.7,0.8,0.7,1.3c0.3-0.1,0.6-0.1,0.8-0.1C32.3,26.3,33.4,27,33.4,28.4L33.4,28.4z M32.1,28.4c0-0.7-0.7-0.7-0.8-0.7
			c-0.1,0-0.8,0-0.8,0.7c0,0,0,0.1,0,0.1l0,2.7c0,0.4-0.3,0.7-0.7,0.7h0c-0.4,0-0.7-0.3-0.7-0.7l0-4.4h0c0,0,0-0.1,0-0.1
			C29,26.3,28.6,26,28.2,26s-0.7,0.4-0.7,0.8c0,0,0,0.1,0,0.1l0,3.1h0c0,0.4-0.3,0.7-0.7,0.7h0c-0.4,0-0.7-0.3-0.7-0.7l0-3.2
			c0,0,0-0.1,0-0.1v-1c0-0.7-0.7-0.7-0.9-0.7c-0.1,0-0.9,0-0.9,0.7v2.9c0,0.4-0.3,0.7-0.7,0.7c-0.4,0-0.7-0.3-0.7-0.7V18.3
			c0-0.2-0.1-0.5-0.2-0.6c-0.2-0.2-0.4-0.3-0.6-0.2h0c-0.2,0-0.5,0.1-0.6,0.2c-0.2,0.2-0.2,0.4-0.2,0.6l0,13.8
			c0,0.3-0.2,0.6-0.5,0.7c-0.3,0.1-0.6,0-0.8-0.3l-2.1-3.3c-0.2-0.3-0.5-0.5-0.9-0.5c-0.2,0-0.3,0-0.5,0.1c-0.2,0.1-0.4,0.3-0.4,0.6
			c-0.1,0.2,0,0.5,0.1,0.7l0.1,0.3c1.4,3.3,4.3,10.2,9.1,10.2c6.5,0,6.7-5.3,6.7-5.9L32.1,28.4z"/>
	</g>
</g>
</svg>
