
<svg xmlns="http://www.w3.org/2000/svg" version="1.1" xmlns:xlink="http://www.w3.org/1999/xlink" preserveAspectRatio="none" x="0px" y="0px" width="95px" height="95px" viewBox="0 0 95 95">
<defs>
<g id="Layer1_0_MEMBER_0_FILL">
<path fill="#C9EE95" stroke="none" d="
M 151.5 76.5
Q 151.5 45.45 129.5 23.45 107.55 1.5 76.5 1.5 45.45 1.5 23.45 23.45 1.5 45.45 1.5 76.5 1.5 107.55 23.45 129.5 45.45 151.5 76.5 151.5 107.55 151.5 129.5 129.5 151.5 107.55 151.5 76.5 Z"/>
</g>

<g id="Layer1_0_MEMBER_1_FILL">
<path fill="#144162" stroke="none" d="
M 83 37
Q 83 34.25 81.05 32.35 79.15 30.4 76.4 30.4 73.7 30.4 71.75 32.35 69.85 34.3 69.85 37 69.85 39.1 71.1 40.85 72.3 42.5 74.2 43.2
L 74.2 56.85
Q 71.4 57.15 68.8 58.25 66.25 59.3 64.1 61.05
L 50.5 47.4
Q 52.3 44.7 52.3 41.4 52.3 36.85 49.1 33.65 45.9 30.4 41.35 30.4 36.85 30.4 33.6 33.65 30.4 36.85 30.4 41.4 30.4 45.9 33.6 49.1 36.85 52.35 41.35 52.35 44.7 52.35 47.4 50.5
L 61 64.1
Q 59.3 66.3 58.25 68.8 57.15 71.4 56.8 74.25
L 43.2 74.25
Q 42.5 72.3 40.8 71.1 39.1 69.85 37 69.85 34.25 69.85 32.35 71.8 30.4 73.7 30.4 76.45 30.4 79.15 32.35 81.1 34.25 83 37 83 39.1 83 40.8 81.75 42.5 80.55 43.2 78.6
L 56.8 78.6
Q 57.15 81.45 58.25 84.05 59.3 86.55 61 88.75
L 47.4 102.35
Q 44.7 100.5 41.35 100.5 36.85 100.5 33.6 103.75 30.4 106.95 30.4 111.5 30.4 116 33.6 119.2 36.85 122.45 41.35 122.45 45.9 122.45 49.1 119.2 52.3 116 52.3 111.5 52.3 108.15 50.5 105.45
L 64.1 91.85
Q 66.25 93.55 68.8 94.6 71.4 95.7 74.2 96
L 74.2 109.65
Q 72.3 110.35 71.1 112.05 69.85 113.75 69.85 115.85 69.85 118.6 71.75 120.5 73.7 122.45 76.4 122.45 79.15 122.45 81.05 120.5 83 118.6 83 115.85 83 113.75 81.75 112.05 80.55 110.35 78.6 109.65
L 78.6 96
Q 81.45 95.7 84.05 94.6 86.55 93.55 88.7 91.85
L 102.3 105.45
Q 100.5 108.15 100.5 111.5 100.5 116 103.7 119.2 106.95 122.45 111.45 122.45 116 122.45 119.2 119.2 122.4 116 122.4 111.5 122.4 106.95 119.2 103.75 116 100.5 111.45 100.5 108.15 100.5 105.4 102.35
L 91.8 88.75
Q 93.55 86.55 94.6 84.05 95.7 81.45 96 78.6
L 109.65 78.6
Q 110.35 80.55 112 81.75 113.75 83 115.85 83 118.55 83 120.5 81.1 122.4 79.15 122.4 76.45 122.4 73.7 120.5 71.8 118.55 69.85 115.85 69.85 113.75 69.85 112 71.1 110.35 72.3 109.65 74.25
L 96 74.25
Q 95.7 71.4 94.6 68.8 93.55 66.3 91.8 64.1
L 105.4 50.5
Q 108.15 52.35 111.45 52.35 116 52.35 119.2 49.1 122.4 45.9 122.4 41.4 122.4 36.85 119.2 33.65 116 30.4 111.45 30.4 106.95 30.4 103.7 33.65 100.5 36.85 100.5 41.4 100.5 44.7 102.35 47.4
L 88.7 61.05
Q 86.55 59.3 84.05 58.25 81.45 57.15 78.6 56.85
L 78.6 43.2
Q 80.55 42.5 81.75 40.85 83 39.1 83 37
M 104.65 39.65
L 109.9 39.65 109.9 34.5 113.25 34.5 113.25 39.65 118.5 39.65 118.5 43 113.25 43 113.25 48.25 109.9 48.25 109.9 43 104.65 43 104.65 39.65
M 88.4 73.7
L 88.4 79.4 79.45 79.4 79.45 88.3 73.8 88.3 73.8 79.4 64.85 79.4 64.85 73.7 73.8 73.7 73.8 64.9 79.45 64.9 79.45 73.7 88.4 73.7
M 42.7 39.65
L 47.95 39.65 47.95 43 42.7 43 42.7 48.25 39.35 48.25 39.35 43 34.1 43 34.1 39.65 39.35 39.65 39.35 34.5 42.7 34.5 42.7 39.65
M 42.7 104.8
L 42.7 109.95 47.95 109.95 47.95 113.3 42.7 113.3 42.7 118.55 39.35 118.55 39.35 113.3 34.1 113.3 34.1 109.95 39.35 109.95 39.35 104.8 42.7 104.8
M 113.25 109.95
L 118.5 109.95 118.5 113.3 113.25 113.3 113.25 118.55 109.9 118.55 109.9 113.3 104.65 113.3 104.65 109.95 109.9 109.95 109.9 104.8 113.25 104.8 113.25 109.95 Z"/>
</g>
</defs>

<g transform="matrix( 0.633331298828125, 0, 0, 0.633331298828125, 0.55,0.55) ">
<use xlink:href="#Layer1_0_MEMBER_0_FILL"/>
</g>

<g transform="matrix( 0.633331298828125, 0, 0, 0.633331298828125, 0.6,0.6) ">
<use xlink:href="#Layer1_0_MEMBER_1_FILL"/>
</g>
</svg>
