<?xml version="1.0" encoding="utf-8"?>
<!-- Generator: Adobe Illustrator 24.3.0, SVG Export Plug-In . SVG Version: 6.00 Build 0)  -->
<svg version="1.1" id="Camada_1" xmlns="http://www.w3.org/2000/svg" xmlns:xlink="http://www.w3.org/1999/xlink" x="0px" y="0px"
	 viewBox="0 0 80 80" style="enable-background:new 0 0 80 80;" xml:space="preserve">
<style type="text/css">
	.st0{fill:none;stroke:#CFF09F;stroke-width:2.5896;stroke-miterlimit:10;}
	.st1{fill:#CFF09F;}
</style>
<g>
	<circle class="st0" cx="40.6" cy="40.6" r="37.2"/>
	<g>
		<g>
			<path class="st1" d="M60.6,26.9C60.6,26.8,60.6,26.8,60.6,26.9c0-0.1,0-0.1-0.1-0.2c0,0,0,0,0,0c0-0.1-0.1-0.1-0.1-0.2L49.9,15.9
				c-0.1-0.1-0.1-0.1-0.2-0.1c0,0,0,0,0,0c-0.1,0-0.1-0.1-0.2-0.1c0,0,0,0,0,0c-0.1,0-0.1,0-0.2,0H24.8c-2.3,0-4.2,1.9-4.2,4.2v41.5
				c0,2.3,1.9,4.2,4.2,4.2h31.6c2.3,0,4.2-1.9,4.2-4.2V27C60.6,27,60.6,26.9,60.6,26.9L60.6,26.9z M50.1,18.5l7.7,7.7l-5.1,0
				c-1.4,0-2.6-1.2-2.6-2.6L50.1,18.5z M56.4,64H24.8c-1.4,0-2.6-1.2-2.6-2.6V19.9c0-1.4,1.2-2.6,2.6-2.6h23.6v6.3
				c0,2.3,1.9,4.2,4.2,4.2H59v33.6C59,62.8,57.8,64,56.4,64L56.4,64z"/>
			<path class="st1" d="M27.8,24.7h15.5c0.5,0,0.8-0.4,0.8-0.8s-0.4-0.8-0.8-0.8l-15.5,0c-0.5,0-0.8,0.4-0.8,0.8
				C27,24.4,27.3,24.7,27.8,24.7z"/>
			<path class="st1" d="M53.4,31.4H27.8c-0.5,0-0.8,0.4-0.8,0.8c0,0.5,0.4,0.8,0.8,0.8h25.6c0.5,0,0.8-0.4,0.8-0.8
				C54.2,31.8,53.9,31.4,53.4,31.4L53.4,31.4z"/>
			<path class="st1" d="M53.4,48.2H27.8c-0.5,0-0.8,0.4-0.8,0.8s0.4,0.8,0.8,0.8h25.6c0.5,0,0.8-0.4,0.8-0.8S53.9,48.2,53.4,48.2
				L53.4,48.2z"/>
			<path class="st1" d="M53.4,56.5H27.8c-0.5,0-0.8,0.4-0.8,0.8s0.4,0.8,0.8,0.8h25.6c0.5,0,0.8-0.4,0.8-0.8
				C54.2,56.9,53.9,56.5,53.4,56.5L53.4,56.5z"/>
		</g>
		<g>
			<path class="st1" d="M28.1,38.2v0.7h-2.2v1.4h1.7V41h-1.7v1.4h2.2v0.7H25v-5H28.1z"/>
			<path class="st1" d="M30.1,40.6l-1.6-2.4h0.9c0.1,0,0.1,0,0.1,0c0,0,0.1,0,0.1,0.1l1.1,1.8c0,0,0-0.1,0-0.1c0,0,0-0.1,0-0.1
				l1-1.6c0.1-0.1,0.1-0.1,0.2-0.1H33l-1.6,2.4l1.6,2.6h-0.9c-0.1,0-0.1,0-0.1,0c0,0-0.1-0.1-0.1-0.1l-1.2-1.9c0,0,0,0.1,0,0.1
				c0,0,0,0,0,0.1L29.5,43c0,0-0.1,0.1-0.1,0.1c0,0-0.1,0-0.1,0h-0.9L30.1,40.6z"/>
			<path class="st1" d="M36.7,38.2v0.7h-2.2v1.4h1.7V41h-1.7v1.4h2.2v0.7h-3.1v-5H36.7z"/>
			<path class="st1" d="M40.1,41.3c0,0.1,0.1,0.2,0.1,0.2c0-0.1,0.1-0.2,0.1-0.2c0-0.1,0.1-0.2,0.1-0.2l1.5-2.8c0,0,0-0.1,0.1-0.1
				s0,0,0.1,0c0,0,0.1,0,0.1,0c0,0,0.1,0,0.1,0h0.7v5h-0.8v-3.2c0-0.1,0-0.1,0-0.2c0-0.1,0-0.1,0-0.2l-1.5,2.8
				c0,0.1-0.1,0.1-0.1,0.1c-0.1,0-0.1,0.1-0.2,0.1h-0.1c-0.1,0-0.1,0-0.2-0.1c-0.1,0-0.1-0.1-0.1-0.1l-1.5-2.8c0,0.1,0,0.1,0,0.2
				c0,0.1,0,0.1,0,0.2v3.2h-0.8v-5h0.7c0,0,0.1,0,0.1,0c0,0,0.1,0,0.1,0c0,0,0,0,0.1,0c0,0,0,0,0.1,0.1l1.5,2.8
				C40,41.1,40.1,41.2,40.1,41.3z"/>
			<path class="st1" d="M44.8,41.4v1.7h-0.9v-5h1.6c0.3,0,0.6,0,0.9,0.1c0.2,0.1,0.4,0.2,0.6,0.3c0.2,0.1,0.3,0.3,0.4,0.5
				c0.1,0.2,0.1,0.4,0.1,0.6c0,0.2,0,0.5-0.1,0.7c-0.1,0.2-0.2,0.4-0.4,0.5c-0.2,0.1-0.4,0.3-0.6,0.3c-0.2,0.1-0.5,0.1-0.8,0.1H44.8
				z M44.8,40.7h0.7c0.2,0,0.3,0,0.4-0.1c0.1,0,0.2-0.1,0.3-0.2c0.1-0.1,0.1-0.2,0.2-0.3c0-0.1,0.1-0.2,0.1-0.4c0-0.1,0-0.3-0.1-0.4
				s-0.1-0.2-0.2-0.3C46.2,39,46.1,39,46,38.9s-0.3-0.1-0.4-0.1h-0.7V40.7z"/>
			<path class="st1" d="M49.1,42.4h2v0.8h-2.9v-5h0.9V42.4z"/>
			<path class="st1" d="M56.2,40.6c0,0.4-0.1,0.7-0.2,1c-0.1,0.3-0.3,0.6-0.5,0.8c-0.2,0.2-0.5,0.4-0.8,0.5c-0.3,0.1-0.7,0.2-1,0.2
				c-0.4,0-0.7-0.1-1-0.2c-0.3-0.1-0.6-0.3-0.8-0.5c-0.2-0.2-0.4-0.5-0.5-0.8c-0.1-0.3-0.2-0.6-0.2-1c0-0.4,0.1-0.7,0.2-1
				c0.1-0.3,0.3-0.6,0.5-0.8c0.2-0.2,0.5-0.4,0.8-0.5c0.3-0.1,0.7-0.2,1-0.2c0.4,0,0.7,0.1,1,0.2c0.3,0.1,0.6,0.3,0.8,0.5
				c0.2,0.2,0.4,0.5,0.5,0.8C56.2,39.9,56.2,40.3,56.2,40.6z M55.3,40.6c0-0.3,0-0.5-0.1-0.7c-0.1-0.2-0.2-0.4-0.3-0.6
				s-0.3-0.3-0.5-0.3s-0.4-0.1-0.7-0.1c-0.2,0-0.5,0-0.7,0.1s-0.4,0.2-0.5,0.3c-0.1,0.2-0.2,0.3-0.3,0.6c-0.1,0.2-0.1,0.5-0.1,0.7
				c0,0.3,0,0.5,0.1,0.7c0.1,0.2,0.2,0.4,0.3,0.5c0.1,0.2,0.3,0.3,0.5,0.3c0.2,0.1,0.4,0.1,0.7,0.1c0.2,0,0.5,0,0.7-0.1
				c0.2-0.1,0.4-0.2,0.5-0.3c0.1-0.1,0.2-0.3,0.3-0.5C55.2,41.2,55.3,40.9,55.3,40.6z"/>
		</g>
	</g>
</g>
</svg>
