<?xml version="1.0" encoding="utf-8"?>
<!-- Generator: Adobe Illustrator 24.3.0, SVG Export Plug-In . SVG Version: 6.00 Build 0)  -->
<svg version="1.1" id="Camada_1" xmlns="http://www.w3.org/2000/svg" xmlns:xlink="http://www.w3.org/1999/xlink" x="0px" y="0px"
	 viewBox="0 0 80 80" style="enable-background:new 0 0 80 80;" xml:space="preserve">
<style type="text/css">
	.st0{fill:none;stroke:#CFF09F;stroke-width:2.5896;stroke-miterlimit:10;}
	.st1{fill:#CFF09F;}
</style>
<g>
	<circle class="st0" cx="40" cy="40" r="37.2"/>
	<g>
		<path class="st1" d="M66,42.7L59,30.2c0.6-0.2,1.1-0.6,1.5-1.2c0.4-0.7,0.5-1.5,0.2-2.2c-1.9-5.6-6.5-9.1-12.1-9.1
			c-1.9,0-3.9,0.4-5.9,1.3l0-3.8c0-1.6-1.3-2.9-2.9-2.9c-1.6,0-2.9,1.3-2.9,2.9v3.8c-2-0.9-4-1.3-6-1.3c-5.6,0-10.2,3.5-12.1,9.2
			c-0.2,0.7-0.1,1.5,0.3,2.2c0.3,0.6,0.8,1,1.5,1.2l-7.1,12.4c-0.5,0-0.8,0.4-0.8,0.9c0,2.4,0.9,4.5,2.6,5.9c1.6,1.3,3.7,2,6.1,2
			c5.2,0,8.8-3.3,8.8-7.9c0-0.2-0.1-0.5-0.3-0.6c-0.2-0.2-0.4-0.3-0.6-0.3h0l-7.1-12.4c0.8-0.3,1.5-0.9,1.7-1.7
			C25,25,27.6,23,30.9,23c1.9,0,4,0.7,6,2l0,28.4h-3.6c-0.5,0-0.8,0.5-0.8,0.9v2.4h-3.8c-0.5,0-0.9,0.4-0.9,0.8v3.8
			c0,0.5,0.4,0.9,0.9,0.9h22.2c0.5,0,0.9-0.4,0.9-0.9v-3.8c0-0.5-0.4-0.8-0.9-0.8h-3.8v-2.4c0-0.5-0.3-0.9-0.8-0.9h-3.6V25.1
			c2-1.3,4.1-1.9,5.9-1.9c3.3,0,5.8,2,7,5.4v0c0.3,0.8,0.9,1.5,1.8,1.7l-7.1,12.4h0c-0.2,0-0.5,0.1-0.6,0.3
			c-0.2,0.2-0.3,0.4-0.3,0.6c0,2.4,0.9,4.5,2.6,5.9c1.6,1.3,3.7,2,6.1,2c5.2,0,8.8-3.3,8.8-7.9C66.9,43.1,66.5,42.7,66,42.7L66,42.7
			z M38.6,15.2c0-0.6,0.5-1.1,1.1-1.1c0.6,0,1.1,0.5,1.1,1.1v4.7c-0.3,0.2-0.7,0.4-1.1,0.6v0c-0.4-0.2-0.7-0.5-1.1-0.7L38.6,15.2z
			 M21.3,49.7c-2,0-3.7-0.6-5-1.6c-1.1-0.9-1.8-2.2-1.9-3.7h13.9C27.9,48,24.6,49.7,21.3,49.7L21.3,49.7z M15.5,42.7l5.9-10.3
			l5.9,10.3H15.5z M49.9,60.6H29.5v-2h20.4V60.6z M45.3,56.8H34.2v-1.6h11.1V56.8z M38.6,53.4V26.2c0.7,0.3,1.4,0.3,2.2,0v27.3
			L38.6,53.4z M48.5,21.3c-2.6,0-5.5,1.1-8.3,3.1h0c-0.3,0.2-0.8,0.2-1.1,0c-2.8-2.1-5.7-3.2-8.3-3.2c-4.1,0-7.3,2.5-8.6,6.7h0
			c-0.1,0.4-0.6,0.7-1,0.6l0,0c-0.3,0-0.5-0.2-0.6-0.4c-0.1-0.2-0.2-0.5-0.1-0.7c0.8-2.4,2.2-4.5,4-5.9c1.8-1.4,4-2.1,6.4-2.1
			c2.7,0,5.5,1,8.4,2.9c0.3,0.2,0.7,0.2,1,0c2.8-1.8,5.7-2.8,8.3-2.8h0c2.3,0,4.6,0.7,6.4,2.1c1.8,1.4,3.2,3.4,4,5.8h0
			c0.1,0.2,0.1,0.5-0.1,0.7c-0.2,0.3-0.5,0.5-0.9,0.5c-0.4,0-0.7-0.3-0.8-0.6C55.8,23.8,52.6,21.3,48.5,21.3L48.5,21.3z M58.1,32.4
			L64,42.7H52.3L58.1,32.4z M58.1,49.7c-2,0-3.7-0.6-5-1.6c-1.1-0.9-1.8-2.2-1.9-3.7l13.9,0C64.6,48,61.3,49.7,58.1,49.7L58.1,49.7z
			"/>
	</g>
</g>
</svg>
