
<svg xmlns="http://www.w3.org/2000/svg" version="1.1" xmlns:xlink="http://www.w3.org/1999/xlink" preserveAspectRatio="none" x="0px" y="0px" width="95px" height="95px" viewBox="0 0 95 95">
<defs>
<g id="Layer1_0_MEMBER_0_FILL">
<path fill="#C9EE95" stroke="none" d="
M 151.5 76.5
Q 151.5 45.45 129.5 23.45 107.55 1.5 76.5 1.5 45.45 1.5 23.45 23.45 1.5 45.45 1.5 76.5 1.5 107.55 23.45 129.5 45.45 151.5 76.5 151.5 107.55 151.5 129.5 129.5 151.5 107.55 151.5 76.5 Z"/>
</g>

<g id="Layer1_0_MEMBER_1_FILL">
<path fill="#144162" stroke="none" d="
M 551.25 122.55
Q 551.15 119.1 548.95 116.65
L 461.45 20.4
Q 458.85 17.55 455 17.55
L 175 17.55
Q 169.75 17.55 164.95 19.55 160.1 21.5 156.4 25.2 152.7 28.9 150.75 33.75 148.75 38.55 148.75 43.8
L 148.75 516.3
Q 148.75 521.5 150.75 526.35 152.7 531.15 156.4 534.85 160.15 538.55 164.95 540.55 169.75 542.55 175 542.55
L 525 542.55
Q 530.2 542.55 535.05 540.55 539.85 538.55 543.55 534.85 547.25 531.15 549.25 526.35 551.25 521.5 551.25 516.3
L 551.25 122.55
M 498.75 192.55
Q 502.35 192.55 504.95 195.1 507.5 197.65 507.5 201.3 507.5 204.9 504.95 207.5 502.35 210.05 498.75 210.05
L 376.25 210.05
Q 372.6 210.05 370.05 207.5 367.5 204.9 367.5 201.3 367.5 197.65 370.05 195.1 372.6 192.55 376.25 192.55
L 498.75 192.55
M 504.95 172.5
Q 502.35 175.05 498.75 175.05
L 376.25 175.05
Q 372.6 175.05 370.05 172.5 367.5 169.9 367.5 166.3 367.5 162.65 370.05 160.1 372.6 157.55 376.25 157.55
L 498.75 157.55
Q 502.35 157.55 504.95 160.1 507.5 162.65 507.5 166.3 507.5 169.9 504.95 172.5
M 325.85 111.65
Q 333.25 119.05 337.25 128.7 341.25 138.35 341.25 148.8 341.25 154.3 340.15 159.35 339.5 162.45 337.05 164.4 334.55 166.4 331.4 166.3
L 288.75 166.3
Q 285.1 166.3 282.55 163.75 280 161.15 280 157.55
L 280 105.05
Q 280 101.4 282.55 98.85 285.1 96.3 288.75 96.3 299.2 96.3 308.8 100.3 318.45 104.25 325.85 111.65
M 466.3 111.25
Q 463.75 108.65 463.75 105.05
L 463.75 48.95 522.7 113.8 472.5 113.8
Q 468.85 113.8 466.3 111.25
M 370.05 230.1
Q 372.6 227.55 376.25 227.55
L 498.75 227.55
Q 502.35 227.55 504.95 230.1 507.5 232.65 507.5 236.3 507.5 239.9 504.95 242.5 502.35 245.05 498.75 245.05
L 376.25 245.05
Q 372.6 245.05 370.05 242.5 367.5 239.9 367.5 236.3 367.5 232.65 370.05 230.1
M 367.5 332.55
L 402.5 332.55
Q 406.1 332.55 408.65 335.1 411.25 337.7 411.25 341.3
L 411.25 455.05
Q 411.25 458.6 408.65 461.2 406.05 463.8 402.5 463.8
L 367.5 463.8
Q 363.85 463.8 361.3 461.25 358.75 458.65 358.75 455.05
L 358.75 341.3
Q 358.75 337.65 361.3 335.1 363.85 332.55 367.5 332.55
M 338.65 370.1
Q 341.2 372.65 341.2 376.3
L 341.2 455.05
Q 341.2 458.65 338.65 461.2 336.05 463.8 332.45 463.8
L 297.45 463.8
Q 293.85 463.8 291.3 461.25 288.7 458.65 288.7 455.05
L 288.7 376.3
Q 288.7 372.65 291.3 370.1 293.85 367.55 297.45 367.55
L 332.45 367.55
Q 336.1 367.55 338.65 370.1
M 478.65 300.1
Q 481.25 302.7 481.25 306.3
L 481.25 455.05
Q 481.25 458.6 478.65 461.2 476.05 463.8 472.5 463.8
L 437.5 463.8
Q 433.85 463.8 431.3 461.25 428.75 458.65 428.75 455.05
L 428.75 306.3
Q 428.75 302.65 431.3 300.1 433.85 297.55 437.5 297.55
L 472.5 297.55
Q 476.1 297.55 478.65 300.1
M 204.25 134.3
Q 214.05 124.45 226.95 119.1 239.8 113.8 253.7 113.8 257.35 113.8 259.9 116.35 262.45 118.9 262.45 122.55
L 262.45 183.8 314.3 183.8
Q 318.25 183.7 320.95 186.75 323.6 189.8 323.05 193.75 320.5 211.45 309.8 225.8 299.1 240.15 282.85 247.55 266.55 255 248.75 253.7 230.9 252.4 215.85 242.75 200.8 233.1 192.25 217.35 183.7 201.65 183.7 183.8 183.7 169.85 189.05 157 194.4 144.15 204.25 134.3
M 227.45 393.8
L 262.45 393.8
Q 266.1 393.8 268.65 396.35 271.2 398.9 271.2 402.55
L 271.2 455.05
Q 271.2 458.65 268.65 461.2 266.05 463.8 262.45 463.8
L 227.45 463.8
Q 223.85 463.8 221.3 461.25 218.7 458.65 218.7 455.05
L 218.7 402.55
Q 218.7 398.9 221.3 396.35 223.85 393.8 227.45 393.8 Z"/>
</g>
</defs>

<g transform="matrix( 0.633331298828125, 0, 0, 0.633331298828125, 0.55,0.55) ">
<use xlink:href="#Layer1_0_MEMBER_0_FILL"/>
</g>

<g transform="matrix( 0.1206817626953125, 0, 0, 0.1206207275390625, 9.5,15.2) ">
<use xlink:href="#Layer1_0_MEMBER_1_FILL"/>
</g>
</svg>
