<?xml version="1.0" encoding="utf-8"?>
<!-- Generator: Adobe Illustrator 24.3.0, SVG Export Plug-In . SVG Version: 6.00 Build 0)  -->
<svg version="1.1" id="Camada_1" xmlns="http://www.w3.org/2000/svg" xmlns:xlink="http://www.w3.org/1999/xlink" x="0px" y="0px"
	 viewBox="0 0 155 155" style="enable-background:new 0 0 155 155;" xml:space="preserve">
<style type="text/css">
	.st0{fill:#CFF09F;}
	.st1{fill:none;stroke:#CFF09F;stroke-width:5;stroke-miterlimit:10;}
	.st2{fill:#07354C;}
</style>
<g>
	<g>
		<circle class="st0" cx="77.5" cy="77.8" r="64.2"/>
		<g>
			<path class="st1" d="M99.1,8.1c-26.6-8-56.9,0.8-76.2,23.1s-22.6,53.1-11,78.3"/>
			<path class="st1" d="M56,147.6c26.6,8,56.9-0.8,76.2-23.1s22.6-53.1,11-78.3"/>
		</g>
	</g>
	<g>
		<path class="st2" d="M63.5,100.2h13.2V62.2c0-1.5,0-3,0.1-4.6l-9.4,7.8c-0.4,0.3-0.8,0.6-1.2,0.7c-0.4,0.1-0.8,0.2-1.2,0.2
			c-0.6,0-1.1-0.1-1.6-0.4c-0.5-0.3-0.9-0.5-1.1-0.9l-3.5-4.8l19.8-16.9h9.1v56.8h11.7v8.3h-36V100.2z"/>
	</g>
</g>
</svg>
