<?xml version="1.0" encoding="utf-8"?>
<!-- Generator: Adobe Illustrator 24.3.0, SVG Export Plug-In . SVG Version: 6.00 Build 0)  -->
<svg version="1.1" id="Camada_1" xmlns="http://www.w3.org/2000/svg" xmlns:xlink="http://www.w3.org/1999/xlink" x="0px" y="0px"
	 viewBox="0 0 100 100" style="enable-background:new 0 0 100 100;" xml:space="preserve">
<style type="text/css">
	.st0{fill:none;stroke:#CFF09F;stroke-width:2.5896;stroke-miterlimit:10;}
	.st1{fill:#CFF09F;}
	.st2{fill:#0C486C;}
</style>
<g>
	<circle class="st0" cx="50" cy="43" r="37.2"/>
	<g>
		<path class="st1" d="M76,45.7L69,33.2c0.6-0.2,1.1-0.6,1.5-1.2c0.4-0.7,0.5-1.5,0.2-2.2c-1.9-5.6-6.5-9.1-12.1-9.1
			c-1.9,0-3.9,0.4-5.9,1.3l0-3.8c0-1.6-1.3-2.9-2.9-2.9c-1.6,0-2.9,1.3-2.9,2.9v3.8c-2-0.9-4-1.3-6-1.3c-5.6,0-10.2,3.5-12.1,9.2
			c-0.2,0.7-0.1,1.5,0.3,2.2c0.3,0.6,0.8,1,1.5,1.2l-7.1,12.4c-0.5,0-0.8,0.4-0.8,0.9c0,2.4,0.9,4.5,2.6,5.9c1.6,1.3,3.7,2,6.1,2
			c5.2,0,8.8-3.3,8.8-7.9c0-0.2-0.1-0.5-0.3-0.6c-0.2-0.2-0.4-0.3-0.6-0.3h0l-7.1-12.4c0.8-0.3,1.5-0.9,1.7-1.7
			C35,28,37.6,26,40.9,26c1.9,0,4,0.7,6,2l0,28.4h-3.6c-0.5,0-0.8,0.5-0.8,0.9v2.4h-3.8c-0.5,0-0.9,0.4-0.9,0.8v3.8
			c0,0.5,0.4,0.9,0.9,0.9h22.2c0.5,0,0.9-0.4,0.9-0.9v-3.8c0-0.5-0.4-0.8-0.9-0.8h-3.8v-2.4c0-0.5-0.3-0.9-0.8-0.9h-3.6V28.1
			c2-1.3,4.1-1.9,5.9-1.9c3.3,0,5.8,2,7,5.4v0c0.3,0.8,0.9,1.5,1.8,1.7l-7.1,12.4h0c-0.2,0-0.5,0.1-0.6,0.3
			c-0.2,0.2-0.3,0.4-0.3,0.6c0,2.4,0.9,4.5,2.6,5.9c1.6,1.3,3.7,2,6.1,2c5.2,0,8.8-3.3,8.8-7.9C76.9,46.1,76.5,45.7,76,45.7L76,45.7
			z M48.6,18.2c0-0.6,0.5-1.1,1.1-1.1c0.6,0,1.1,0.5,1.1,1.1v4.7c-0.3,0.2-0.7,0.4-1.1,0.6v0c-0.4-0.2-0.7-0.5-1.1-0.7L48.6,18.2z
			 M31.3,52.7c-2,0-3.7-0.6-5-1.6c-1.1-0.9-1.8-2.2-1.9-3.7h13.9C37.9,51,34.6,52.7,31.3,52.7L31.3,52.7z M25.5,45.7l5.9-10.3
			l5.9,10.3H25.5z M59.9,63.6H39.5v-2h20.4V63.6z M55.3,59.8H44.2v-1.6h11.1V59.8z M48.6,56.4V29.2c0.7,0.3,1.4,0.3,2.2,0v27.3
			L48.6,56.4z M58.5,24.3c-2.6,0-5.5,1.1-8.3,3.1h0c-0.3,0.2-0.8,0.2-1.1,0c-2.8-2.1-5.7-3.2-8.3-3.2c-4.1,0-7.3,2.5-8.6,6.7h0
			c-0.1,0.4-0.6,0.7-1,0.6l0,0c-0.3,0-0.5-0.2-0.6-0.4c-0.1-0.2-0.2-0.5-0.1-0.7c0.8-2.4,2.2-4.5,4-5.9c1.8-1.4,4-2.1,6.4-2.1
			c2.7,0,5.5,1,8.4,2.9c0.3,0.2,0.7,0.2,1,0c2.8-1.8,5.7-2.8,8.3-2.8h0c2.3,0,4.6,0.7,6.4,2.1c1.8,1.4,3.2,3.4,4,5.8h0
			c0.1,0.2,0.1,0.5-0.1,0.7c-0.2,0.3-0.5,0.5-0.9,0.5c-0.4,0-0.7-0.3-0.8-0.6C65.8,26.8,62.6,24.3,58.5,24.3L58.5,24.3z M68.1,35.4
			L74,45.7H62.3L68.1,35.4z M68.1,52.7c-2,0-3.7-0.6-5-1.6c-1.1-0.9-1.8-2.2-1.9-3.7l13.9,0C74.6,51,71.3,52.7,68.1,52.7L68.1,52.7z
			"/>
	</g>
</g>
<path class="st1" d="M91,93.2H8c-3.8,0-6.8-3.1-6.8-6.8v0c0-3.8,3.1-6.8,6.8-6.8h83c3.8,0,6.8,3.1,6.8,6.8v0
	C97.8,90.1,94.8,93.2,91,93.2z"/>
<g>
	<path class="st2" d="M9.2,89h3.1v1.6h-5v-8.4h1.9V89z"/>
	<path class="st2" d="M20.3,82.2v1.5h-3.4v2h2.6v1.4h-2.6v2h3.4v1.5h-5.4v-8.4H20.3z"/>
	<path class="st2" d="M27.1,89.2c0.3,0,0.5,0,0.7-0.1c0.2,0,0.4-0.1,0.6-0.2v-1.3h-0.8c-0.1,0-0.2,0-0.3-0.1
		c-0.1-0.1-0.1-0.1-0.1-0.2v-1.1h3v3.5c-0.2,0.2-0.4,0.3-0.7,0.4c-0.2,0.1-0.5,0.2-0.7,0.3c-0.3,0.1-0.5,0.1-0.8,0.2
		c-0.3,0-0.6,0.1-1,0.1c-0.6,0-1.2-0.1-1.7-0.3c-0.5-0.2-1-0.5-1.4-0.9c-0.4-0.4-0.7-0.8-0.9-1.4c-0.2-0.5-0.3-1.1-0.3-1.7
		c0-0.6,0.1-1.2,0.3-1.7s0.5-1,0.9-1.4c0.4-0.4,0.9-0.7,1.4-0.9c0.5-0.2,1.2-0.3,1.8-0.3c0.3,0,0.7,0,1,0.1s0.6,0.1,0.8,0.2
		c0.3,0.1,0.5,0.2,0.7,0.4c0.2,0.1,0.4,0.3,0.6,0.4l-0.6,0.9c-0.1,0.1-0.1,0.1-0.2,0.2c-0.1,0-0.2,0.1-0.2,0.1c-0.1,0-0.2,0-0.4-0.1
		c-0.2-0.1-0.3-0.2-0.4-0.2c-0.1-0.1-0.3-0.1-0.4-0.2s-0.3-0.1-0.4-0.1c-0.2,0-0.3,0-0.5,0c-0.4,0-0.7,0.1-1,0.2
		c-0.3,0.1-0.5,0.3-0.7,0.5c-0.2,0.2-0.4,0.5-0.5,0.8c-0.1,0.3-0.2,0.7-0.2,1.1c0,0.4,0.1,0.8,0.2,1.2c0.1,0.3,0.3,0.6,0.5,0.9
		c0.2,0.2,0.5,0.4,0.8,0.5C26.4,89.1,26.8,89.2,27.1,89.2z"/>
	<path class="st2" d="M35.2,90.6h-2v-8.4h2V90.6z"/>
	<path class="st2" d="M43.2,83.9C43.1,84,43,84.1,43,84.1c-0.1,0-0.1,0.1-0.2,0.1c-0.1,0-0.2,0-0.3-0.1s-0.2-0.1-0.3-0.2
		c-0.1-0.1-0.3-0.1-0.4-0.2c-0.2-0.1-0.4-0.1-0.6-0.1c-0.4,0-0.6,0.1-0.8,0.2S40,84.2,40,84.5c0,0.2,0.1,0.3,0.2,0.4
		s0.2,0.2,0.4,0.3c0.2,0.1,0.4,0.2,0.6,0.2c0.2,0.1,0.5,0.1,0.7,0.2c0.2,0.1,0.5,0.2,0.7,0.3s0.4,0.3,0.6,0.4
		c0.2,0.2,0.3,0.4,0.4,0.6c0.1,0.2,0.2,0.5,0.2,0.9c0,0.4-0.1,0.8-0.2,1.1c-0.1,0.3-0.3,0.6-0.6,0.9c-0.3,0.3-0.6,0.4-0.9,0.6
		c-0.4,0.1-0.8,0.2-1.3,0.2c-0.3,0-0.5,0-0.8-0.1c-0.3-0.1-0.5-0.1-0.8-0.2c-0.3-0.1-0.5-0.2-0.7-0.3c-0.2-0.1-0.4-0.3-0.6-0.4
		l0.6-0.9c0-0.1,0.1-0.1,0.2-0.2c0.1,0,0.2-0.1,0.2-0.1c0.1,0,0.2,0,0.3,0.1c0.1,0.1,0.2,0.2,0.4,0.2s0.3,0.2,0.5,0.2
		c0.2,0.1,0.4,0.1,0.7,0.1c0.4,0,0.6-0.1,0.8-0.2c0.2-0.2,0.3-0.4,0.3-0.7c0-0.2-0.1-0.4-0.2-0.5c-0.1-0.1-0.2-0.2-0.4-0.3
		c-0.2-0.1-0.4-0.2-0.6-0.2c-0.2-0.1-0.5-0.1-0.7-0.2c-0.2-0.1-0.5-0.2-0.7-0.3c-0.2-0.1-0.4-0.3-0.6-0.4c-0.2-0.2-0.3-0.4-0.4-0.7
		s-0.2-0.6-0.2-1c0-0.3,0.1-0.6,0.2-0.9s0.3-0.6,0.6-0.8c0.2-0.2,0.5-0.4,0.9-0.6c0.4-0.1,0.8-0.2,1.2-0.2c0.3,0,0.5,0,0.8,0.1
		c0.2,0,0.5,0.1,0.7,0.2c0.2,0.1,0.4,0.2,0.6,0.3c0.2,0.1,0.4,0.2,0.5,0.4L43.2,83.9z"/>
	<path class="st2" d="M48.4,89h3.1v1.6h-5v-8.4h1.9V89z"/>
	<path class="st2" d="M61.9,90.6h-1.5c-0.2,0-0.3,0-0.4-0.1c-0.1-0.1-0.2-0.2-0.2-0.3l-0.5-1.5h-3.2l-0.5,1.5c0,0.1-0.1,0.2-0.2,0.3
		c-0.1,0.1-0.2,0.1-0.4,0.1h-1.5l3.2-8.4h2L61.9,90.6z M56.6,87.4h2.3l-0.8-2.3c0-0.1-0.1-0.3-0.2-0.5c-0.1-0.2-0.1-0.4-0.2-0.6
		c-0.1,0.2-0.1,0.5-0.2,0.7s-0.1,0.4-0.2,0.5L56.6,87.4z"/>
	<path class="st2" d="M66.9,91.8c0.1,0,0.1,0,0.2,0c0.1,0,0.1,0,0.2,0c0.1,0,0.2,0,0.2-0.1c0,0,0.1-0.1,0.1-0.1
		c0-0.1-0.1-0.1-0.2-0.2c-0.1,0-0.3-0.1-0.6-0.1l0.2-0.7c-0.5-0.1-1-0.2-1.5-0.5c-0.4-0.2-0.8-0.5-1.1-0.9c-0.3-0.4-0.5-0.8-0.7-1.3
		c-0.2-0.5-0.2-1-0.2-1.6c0-0.6,0.1-1.2,0.3-1.7s0.5-1,0.9-1.4c0.4-0.4,0.8-0.7,1.4-0.9c0.5-0.2,1.1-0.3,1.8-0.3
		c0.3,0,0.6,0,0.9,0.1c0.3,0.1,0.5,0.1,0.8,0.2c0.2,0.1,0.5,0.2,0.7,0.4s0.4,0.3,0.5,0.5l-0.7,0.9c0,0.1-0.1,0.1-0.1,0.1
		c-0.1,0-0.1,0.1-0.2,0.1c-0.1,0-0.1,0-0.2,0c-0.1,0-0.1-0.1-0.2-0.1s-0.1-0.1-0.2-0.1c-0.1-0.1-0.2-0.1-0.3-0.1
		c-0.1,0-0.2-0.1-0.4-0.1c-0.2,0-0.3,0-0.5,0c-0.4,0-0.7,0.1-1,0.2c-0.3,0.1-0.5,0.3-0.8,0.5c-0.2,0.2-0.4,0.5-0.5,0.8
		s-0.2,0.7-0.2,1.1c0,0.4,0.1,0.8,0.2,1.1c0.1,0.3,0.3,0.6,0.5,0.8c0.2,0.2,0.4,0.4,0.7,0.5c0.3,0.1,0.6,0.2,0.9,0.2
		c0.2,0,0.3,0,0.5,0c0.1,0,0.3,0,0.4-0.1c0.1,0,0.2-0.1,0.4-0.2c0.1-0.1,0.2-0.2,0.3-0.3c0,0,0.1-0.1,0.1-0.1c0.1,0,0.1,0,0.2,0
		c0,0,0.1,0,0.1,0c0,0,0.1,0,0.1,0.1l0.8,0.8c-0.3,0.4-0.7,0.7-1.1,0.9c-0.4,0.2-0.9,0.4-1.5,0.4l0,0.2c0.2,0,0.3,0.1,0.4,0.2
		s0.2,0.1,0.3,0.2c0.1,0.1,0.1,0.2,0.1,0.2c0,0.1,0,0.2,0,0.3c0,0.1,0,0.3-0.1,0.4c-0.1,0.1-0.2,0.2-0.3,0.3
		c-0.1,0.1-0.3,0.1-0.5,0.2c-0.2,0-0.4,0.1-0.6,0.1c-0.2,0-0.3,0-0.4,0c-0.1,0-0.3,0-0.4-0.1l0.2-0.5C66.7,91.8,66.8,91.8,66.9,91.8
		z"/>
	<path class="st2" d="M81.1,90.6h-1.5c-0.2,0-0.3,0-0.4-0.1c-0.1-0.1-0.2-0.2-0.2-0.3l-0.5-1.5h-3.2l-0.5,1.5c0,0.1-0.1,0.2-0.2,0.3
		c-0.1,0.1-0.2,0.1-0.4,0.1h-1.5l3.2-8.4h2L81.1,90.6z M77.5,80.6c0.1,0,0.1,0,0.2-0.1c0.1,0,0.1-0.1,0.1-0.2h1c0,0.2,0,0.4-0.1,0.6
		s-0.1,0.3-0.2,0.4c-0.1,0.1-0.2,0.2-0.4,0.3c-0.1,0.1-0.3,0.1-0.5,0.1c-0.1,0-0.3,0-0.4-0.1c-0.1,0-0.3-0.1-0.4-0.1
		s-0.2-0.1-0.3-0.1c-0.1,0-0.2-0.1-0.3-0.1c-0.1,0-0.1,0-0.2,0.1s-0.1,0.1-0.1,0.2h-1c0-0.2,0-0.4,0.1-0.6c0.1-0.2,0.1-0.3,0.2-0.4
		c0.1-0.1,0.2-0.2,0.4-0.3s0.3-0.1,0.5-0.1c0.1,0,0.3,0,0.4,0.1s0.3,0.1,0.4,0.1c0.1,0,0.2,0.1,0.3,0.1
		C77.4,80.6,77.5,80.6,77.5,80.6z M75.7,87.4H78l-0.8-2.3c0-0.1-0.1-0.3-0.2-0.5s-0.1-0.4-0.2-0.6c-0.1,0.2-0.1,0.5-0.2,0.7
		c-0.1,0.2-0.1,0.4-0.2,0.5L75.7,87.4z"/>
	<path class="st2" d="M91.4,86.4c0,0.6-0.1,1.2-0.3,1.7c-0.2,0.5-0.5,1-0.9,1.4c-0.4,0.4-0.8,0.7-1.4,0.9c-0.5,0.2-1.1,0.3-1.8,0.3
		s-1.2-0.1-1.8-0.3c-0.5-0.2-1-0.5-1.4-0.9c-0.4-0.4-0.7-0.8-0.9-1.4c-0.2-0.5-0.3-1.1-0.3-1.7c0-0.6,0.1-1.2,0.3-1.7
		c0.2-0.5,0.5-1,0.9-1.4c0.4-0.4,0.8-0.7,1.4-0.9c0.5-0.2,1.1-0.3,1.8-0.3s1.2,0.1,1.8,0.3c0.5,0.2,1,0.5,1.4,0.9
		c0.4,0.4,0.7,0.8,0.9,1.4S91.4,85.8,91.4,86.4z M89.4,86.4c0-0.4-0.1-0.8-0.2-1.1c-0.1-0.3-0.3-0.6-0.5-0.8
		c-0.2-0.2-0.4-0.4-0.7-0.5c-0.3-0.1-0.6-0.2-1-0.2c-0.4,0-0.7,0.1-1,0.2c-0.3,0.1-0.5,0.3-0.7,0.5c-0.2,0.2-0.4,0.5-0.5,0.8
		c-0.1,0.3-0.2,0.7-0.2,1.1c0,0.4,0.1,0.8,0.2,1.1c0.1,0.3,0.3,0.6,0.5,0.8c0.2,0.2,0.4,0.4,0.7,0.5c0.3,0.1,0.6,0.2,1,0.2
		c0.4,0,0.7-0.1,1-0.2c0.3-0.1,0.5-0.3,0.7-0.5c0.2-0.2,0.4-0.5,0.5-0.8C89.4,87.2,89.4,86.8,89.4,86.4z"/>
</g>
</svg>
