<?xml version="1.0" encoding="utf-8"?>
<!-- Generator: Adobe Illustrator 24.3.0, SVG Export Plug-In . SVG Version: 6.00 Build 0)  -->
<svg version="1.1" id="Camada_1" xmlns="http://www.w3.org/2000/svg" xmlns:xlink="http://www.w3.org/1999/xlink" x="0px" y="0px"
	 viewBox="0 0 100 100" style="enable-background:new 0 0 100 100;" xml:space="preserve">
<style type="text/css">
	.st0{fill:#CFF09F;}
	.st1{fill:none;stroke:#CFF09F;stroke-width:2.5896;stroke-miterlimit:10;}
	.st2{fill:#0C486C;}
</style>
<g>
	<path class="st0" d="M54.1,36.2c-1.2,0-2.4-0.5-3.3-1.4c-0.9-0.9-1.4-2-1.4-3.3c0-1.2,0.5-2.4,1.4-3.3c0.9-0.9,2-1.4,3.3-1.4
		c1.2,0,2.4,0.5,3.3,1.4c0.9,0.9,1.4,2,1.4,3.3c0,1.2-0.5,2.4-1.4,3.3C56.5,35.8,55.3,36.2,54.1,36.2L54.1,36.2z M54.1,28.8
		c-0.8,0-1.5,0.3-2,0.8s-0.8,1.3-0.8,2c0,0.8,0.3,1.5,0.8,2c0.5,0.5,1.3,0.8,2,0.8c0.8,0,1.5-0.3,2-0.8c0.5-0.5,0.8-1.3,0.8-2
		c0-0.8-0.3-1.5-0.8-2C55.6,29.1,54.9,28.8,54.1,28.8z M54.8,42.4l-1.3,0c-0.5,0-0.9-0.2-1.3-0.6c-0.4-0.3-0.6-0.8-0.7-1.3l-0.3-1.2
		c-0.2-0.1-0.4-0.2-0.6-0.2l-1.1,0.7v0c-0.4,0.3-0.8,0.4-1.3,0.4c-0.5,0-1-0.2-1.4-0.6L46,38.8c-0.3-0.4-0.5-0.8-0.5-1.3
		c0-0.5,0.1-1,0.4-1.4l0.7-1.2c-0.1-0.1-0.1-0.2-0.1-0.4l-1.3-0.3l0,0c-0.5-0.1-0.9-0.3-1.3-0.7c-0.3-0.4-0.5-0.8-0.6-1.3v-1.3
		c0-0.5,0.2-1,0.6-1.3c0.3-0.4,0.8-0.6,1.3-0.7l1.2-0.3c0.1-0.1,0.1-0.3,0.2-0.4l-0.7-1.2v0c-0.3-0.4-0.4-0.9-0.4-1.3
		c0-0.5,0.2-0.9,0.5-1.3l0.9-0.9c0.4-0.3,0.9-0.5,1.3-0.5c0.5,0,1,0.1,1.4,0.4l1.1,0.7c0.2-0.1,0.4-0.2,0.6-0.2l0.3-1.2
		c0.1-0.5,0.3-0.9,0.7-1.2c0.4-0.3,0.8-0.5,1.3-0.6h1.3c0.5,0,1,0.2,1.3,0.6c0.4,0.3,0.6,0.8,0.7,1.3l0.3,1.2
		c0.2,0.1,0.3,0.1,0.5,0.2l1.1-0.7v0c0.4-0.3,0.8-0.4,1.3-0.4c0.5,0,1,0.2,1.4,0.6l0.9,0.9c0.3,0.4,0.5,0.8,0.5,1.3
		c0,0.5-0.1,1-0.4,1.4l-0.7,1.1c0.1,0.2,0.2,0.3,0.2,0.5l1.2,0.3c0.5,0.1,0.9,0.3,1.3,0.7c0.3,0.4,0.5,0.8,0.5,1.3v1.3
		c0,0.5-0.2,0.9-0.6,1.3c-0.3,0.4-0.8,0.6-1.3,0.7l-1.2,0.3l-0.2,0.4l0.7,1.1l0,0c0.3,0.4,0.4,0.9,0.4,1.4c0,0.5-0.2,0.9-0.5,1.3
		l-0.9,0.9c-0.4,0.4-0.9,0.6-1.4,0.6c-0.5,0-0.9-0.1-1.3-0.4l-1.1-0.7l-0.5,0.2l-0.3,1.2l0,0c-0.1,0.5-0.3,0.9-0.7,1.3
		C55.7,42.2,55.2,42.4,54.8,42.4L54.8,42.4z M53.5,40.6h1.2c0.1,0,0.3-0.2,0.3-0.4l0.4-1.7h0c0.1-0.4,0.4-0.7,0.7-0.8
		c0.3-0.1,0.7-0.2,1-0.4c0.3-0.2,0.7-0.1,1,0l1.4,0.9c0.2,0.1,0.4,0.2,0.5,0.1l0.9-0.9l0,0c0-0.2-0.1-0.3-0.2-0.5l-0.9-1.5
		c-0.2-0.3-0.2-0.7,0-1c0.2-0.3,0.3-0.6,0.4-0.9c0.1-0.3,0.4-0.6,0.8-0.7l1.6-0.4v0c0.2,0,0.3-0.1,0.5-0.2v-1.2
		c-0.1-0.2-0.2-0.3-0.4-0.3l-1.6-0.4c-0.4-0.1-0.7-0.4-0.8-0.7c-0.1-0.3-0.2-0.7-0.4-1c-0.2-0.3-0.2-0.7,0-1l0.9-1.5
		c0.1-0.1,0.2-0.3,0.2-0.5L60,24.8c-0.2,0-0.3,0-0.5,0.1l-1.4,0.9v0c-0.3,0.2-0.7,0.2-1.1,0c-0.3-0.2-0.6-0.3-1-0.4
		c-0.3-0.1-0.6-0.4-0.7-0.8L55,23.1h0c0-0.2-0.1-0.3-0.3-0.4h-1.3c-0.1,0.1-0.2,0.3-0.2,0.4l-0.4,1.6c-0.1,0.4-0.4,0.6-0.7,0.7
		c-0.4,0.1-0.7,0.3-1,0.4c-0.3,0.2-0.7,0.1-1.1-0.1l-1.5-0.9v0c-0.1-0.1-0.3-0.1-0.5-0.1l-0.9,0.9c0,0.2,0.1,0.3,0.2,0.5l0.9,1.5v0
		c0.2,0.3,0.2,0.7,0,1c-0.1,0.3-0.3,0.6-0.4,0.9c-0.1,0.4-0.4,0.6-0.8,0.7l-1.6,0.4c-0.2,0-0.3,0.1-0.4,0.3v1.3
		c0.1,0.1,0.3,0.2,0.4,0.2l1.7,0.4c0.4,0.1,0.6,0.4,0.8,0.7c0.1,0.3,0.2,0.6,0.4,0.9c0.2,0.3,0.1,0.7,0,1l-0.9,1.5l0,0
		c-0.1,0.1-0.2,0.3-0.1,0.5l0.9,0.9c0.1,0.1,0.3,0,0.5-0.1l1.5-0.9c0.3-0.2,0.7-0.2,1.1,0c0.3,0.2,0.7,0.3,1.1,0.5
		c0.4,0.1,0.6,0.4,0.7,0.7l0.4,1.6C53.3,40.4,53.4,40.5,53.5,40.6L53.5,40.6z M46.8,71.2c-0.6,0-1.1-0.5-1.2-1.1c-0.2-3-1.9-3-2.3-3
		h-0.1c0,0-2-0.1-7.3,0.8c-2.4,0.4-4.3,0-5.6-1h0c-0.9-0.7-1.5-1.7-1.7-2.8L27,54.1c-0.4-0.1-1.1-0.3-2.3-0.7l0,0
		c-1.1-0.2-2-1-2.5-2c-0.4-1.1-0.4-2.4,0.1-3.4c3-6.1,3.4-9.9,3.4-10c0.8-13.7,7.4-22.4,18.7-24.5c9.9-1.8,19.7,3,24.1,8.8
		c6.2,8,4.5,19.3,1.9,25c-2.9,6.1-2.9,7.4-2.9,8c0,0.9,0.1,12.7,0.1,12.9l0,0c0,0.3-0.1,0.6-0.3,0.8c-0.2,0.2-0.5,0.4-0.8,0.4
		c-0.3,0-0.6-0.1-0.8-0.3s-0.3-0.5-0.4-0.8c0-0.5-0.1-11.9-0.1-12.9c0-1.2,0.2-2.9,3.1-9c2.4-5.1,4-15.4-1.6-22.5
		c-4-5.2-12.8-9.5-21.8-7.9c-10.1,1.8-16.1,9.8-16.8,22.3c0,0.2-0.4,4.3-3.6,10.8h0c-0.2,0.4-0.2,0.9-0.1,1.4c0.2,0.4,0.6,0.6,1,0.7
		c3.4,1,3.8,1.1,3.9,2L31,63.6l0,0c0,0,0,0.1,0,0.1c0.1,0.5,0.4,1,0.8,1.3c0.8,0.6,2.1,0.8,3.7,0.5c5.2-0.8,7.3-0.8,7.7-0.8
		c1.1,0,2.1,0.3,2.9,1c1.2,1.1,1.8,2.6,1.8,4.2c0,0.3-0.1,0.6-0.3,0.9C47.5,71,47.2,71.2,46.8,71.2L46.8,71.2z M26.9,53.3
		c0,0.1,0,0.1,0,0.2C26.9,53.4,26.9,53.3,26.9,53.3z"/>
</g>
<g>
	<circle class="st1" cx="50" cy="43" r="37.2"/>
</g>
<path class="st0" d="M91,93.2H8c-3.8,0-6.8-3.1-6.8-6.8v0c0-3.8,3.1-6.8,6.8-6.8h83c3.8,0,6.8,3.1,6.8,6.8v0
	C97.8,90.1,94.8,93.2,91,93.2z"/>
<g>
	<path class="st2" d="M7.3,88v2.8H5.4v-8.4h3c0.6,0,1.1,0.1,1.5,0.2c0.4,0.1,0.8,0.3,1,0.6c0.3,0.2,0.5,0.5,0.6,0.9
		c0.1,0.3,0.2,0.7,0.2,1.1c0,0.4-0.1,0.8-0.2,1.1c-0.1,0.3-0.3,0.6-0.6,0.9c-0.3,0.2-0.6,0.4-1,0.6C9.4,88,8.9,88,8.3,88H7.3z
		 M7.3,86.6h1c0.5,0,0.9-0.1,1.1-0.4c0.2-0.2,0.3-0.6,0.3-1c0-0.2,0-0.4-0.1-0.5s-0.1-0.3-0.3-0.4C9.3,84.1,9.1,84.1,9,84
		s-0.4-0.1-0.6-0.1h-1V86.6z"/>
	<path class="st2" d="M19.9,90.8h-1.5c-0.2,0-0.3,0-0.4-0.1c-0.1-0.1-0.2-0.2-0.2-0.3l-0.5-1.5h-3.2l-0.5,1.5c0,0.1-0.1,0.2-0.2,0.3
		c-0.1,0.1-0.2,0.1-0.4,0.1h-1.5l3.2-8.4h2L19.9,90.8z M14.5,87.6h2.3L16,85.3c0-0.1-0.1-0.3-0.2-0.5c-0.1-0.2-0.1-0.4-0.2-0.6
		c-0.1,0.2-0.1,0.5-0.2,0.7c-0.1,0.2-0.1,0.4-0.2,0.5L14.5,87.6z"/>
	<path class="st2" d="M22.9,87.7v3.1h-1.9v-8.4h2.7c0.6,0,1.1,0.1,1.5,0.2c0.4,0.1,0.8,0.3,1,0.5c0.3,0.2,0.5,0.5,0.6,0.8
		s0.2,0.6,0.2,1c0,0.3,0,0.5-0.1,0.8c-0.1,0.2-0.2,0.5-0.3,0.7c-0.1,0.2-0.3,0.4-0.5,0.5s-0.4,0.3-0.7,0.4c0.1,0.1,0.3,0.1,0.4,0.2
		c0.1,0.1,0.2,0.2,0.3,0.4l1.8,2.9H26c-0.3,0-0.6-0.1-0.7-0.4L23.9,88c-0.1-0.1-0.1-0.2-0.2-0.2c-0.1,0-0.2-0.1-0.3-0.1H22.9z
		 M22.9,86.4h0.8c0.3,0,0.5,0,0.7-0.1c0.2-0.1,0.3-0.2,0.5-0.3c0.1-0.1,0.2-0.3,0.3-0.4s0.1-0.3,0.1-0.5c0-0.4-0.1-0.7-0.4-0.9
		c-0.2-0.2-0.6-0.3-1.1-0.3h-0.8V86.4z"/>
	<path class="st2" d="M36.8,90.8h-1.5c-0.2,0-0.3,0-0.4-0.1c-0.1-0.1-0.2-0.2-0.2-0.3l-0.5-1.5h-3.2l-0.5,1.5c0,0.1-0.1,0.2-0.2,0.3
		c-0.1,0.1-0.2,0.1-0.4,0.1h-1.5l3.2-8.4h2L36.8,90.8z M31.4,87.6h2.3l-0.8-2.3c0-0.1-0.1-0.3-0.2-0.5c-0.1-0.2-0.1-0.4-0.2-0.6
		c-0.1,0.2-0.1,0.5-0.2,0.7c-0.1,0.2-0.1,0.4-0.2,0.5L31.4,87.6z"/>
	<path class="st2" d="M42.3,87.7v3.1h-1.9v-8.4h2.7c0.6,0,1.1,0.1,1.5,0.2c0.4,0.1,0.8,0.3,1,0.5c0.3,0.2,0.5,0.5,0.6,0.8
		s0.2,0.6,0.2,1c0,0.3,0,0.5-0.1,0.8c-0.1,0.2-0.2,0.5-0.3,0.7c-0.1,0.2-0.3,0.4-0.5,0.5s-0.4,0.3-0.7,0.4c0.1,0.1,0.3,0.1,0.4,0.2
		c0.1,0.1,0.2,0.2,0.3,0.4l1.8,2.9h-1.8c-0.3,0-0.6-0.1-0.7-0.4L43.4,88c-0.1-0.1-0.1-0.2-0.2-0.2c-0.1,0-0.2-0.1-0.3-0.1H42.3z
		 M42.3,86.4h0.8c0.3,0,0.5,0,0.7-0.1c0.2-0.1,0.3-0.2,0.5-0.3c0.1-0.1,0.2-0.3,0.3-0.4s0.1-0.3,0.1-0.5c0-0.4-0.1-0.7-0.4-0.9
		c-0.2-0.2-0.6-0.3-1.1-0.3h-0.8V86.4z"/>
	<path class="st2" d="M53.8,82.4v1.5h-3.4v2H53v1.4h-2.6v2h3.4v1.5h-5.4v-8.4H53.8z"/>
	<path class="st2" d="M60.7,82.4v1.5h-3.4v2.1h2.9v1.5h-2.9v3.3h-2v-8.4H60.7z"/>
	<path class="st2" d="M64,89.3h3.1v1.6h-5v-8.4H64V89.3z"/>
	<path class="st2" d="M73.8,82.4v1.5h-3.4v2H73v1.4h-2.6v2h3.4v1.5h-5.4v-8.4H73.8z"/>
	<path class="st2" d="M81.3,82.4V84H79v6.8H77V84h-2.4v-1.5H81.3z"/>
	<path class="st2" d="M84.6,90.8h-2v-8.4h2V90.8z"/>
	<path class="st2" d="M88.5,87.7v3.1h-1.9v-8.4h2.7c0.6,0,1.1,0.1,1.5,0.2c0.4,0.1,0.8,0.3,1,0.5c0.3,0.2,0.5,0.5,0.6,0.8
		c0.1,0.3,0.2,0.6,0.2,1c0,0.3,0,0.5-0.1,0.8c-0.1,0.2-0.2,0.5-0.3,0.7c-0.1,0.2-0.3,0.4-0.5,0.5s-0.4,0.3-0.7,0.4
		c0.1,0.1,0.3,0.1,0.4,0.2c0.1,0.1,0.2,0.2,0.3,0.4l1.8,2.9h-1.8c-0.3,0-0.6-0.1-0.7-0.4L89.6,88c-0.1-0.1-0.1-0.2-0.2-0.2
		s-0.2-0.1-0.3-0.1H88.5z M88.5,86.4h0.8c0.3,0,0.5,0,0.7-0.1c0.2-0.1,0.3-0.2,0.5-0.3c0.1-0.1,0.2-0.3,0.3-0.4s0.1-0.3,0.1-0.5
		c0-0.4-0.1-0.7-0.4-0.9c-0.2-0.2-0.6-0.3-1.1-0.3h-0.8V86.4z"/>
</g>
</svg>
