<?xml version="1.0" encoding="utf-8"?>
<!-- Generator: Adobe Illustrator 24.3.0, SVG Export Plug-In . SVG Version: 6.00 Build 0)  -->
<svg version="1.1" id="Camada_1" xmlns="http://www.w3.org/2000/svg" xmlns:xlink="http://www.w3.org/1999/xlink" x="0px" y="0px"
	 viewBox="0 0 100 100" style="enable-background:new 0 0 100 100;" xml:space="preserve">
<style type="text/css">
	.st0{fill:#CFF09F;}
	.st1{fill:none;stroke:#CFF09F;stroke-width:2.5896;stroke-miterlimit:10;}
	.st2{fill:#0C486C;}
</style>
<g>
	<path class="st0" d="M34.2,38.7h22.2c0.5,0,1-0.4,1-1c0-0.5-0.4-1-1-1H34.2c-0.5,0-1,0.4-1,1C33.2,38.3,33.6,38.7,34.2,38.7z
		 M34.2,33.2h22.2c0.5,0,1-0.4,1-1c0-0.5-0.4-1-1-1H34.2c-0.5,0-1,0.4-1,1C33.2,32.7,33.6,33.2,34.2,33.2z M34.2,43.7h18.2
		c0.5,0,1-0.4,1-1c0-0.5-0.4-1-1-1H34.2c-0.5,0-1,0.4-1,1C33.2,43.3,33.6,43.7,34.2,43.7z M45.8,46.7H34.2c-0.5,0-1,0.4-1,1
		c0,0.5,0.4,1,1,1h11.7c0.5,0,1-0.4,1-1C46.8,47.1,46.4,46.7,45.8,46.7z M42.6,51.7h-8.4c-0.5,0-1,0.4-1,1c0,0.5,0.4,1,1,1h8.4
		c0.5,0,1-0.4,1-1C43.6,52.1,43.1,51.7,42.6,51.7L42.6,51.7z M60.9,66c-0.3,0-0.6,0.2-0.8,0.4h-1.8c-0.2-0.3-0.5-0.4-0.8-0.4
		c-0.5,0-1,0.4-1,1v0.4c0,0.5,0.4,1,1,1h3.4c0.5,0,1-0.4,1-1V67C61.9,66.5,61.4,66,60.9,66L60.9,66z M59.1,47.5
		c-4.4,0-7.7,3.1-7.7,7.3c0,2.2,1,3.6,1.9,4.9c0,0,0,0,0,0c0.7,1,1.4,2,2,3.6c0,0.2,0.3,1.2,0.4,1.6c0.1,0.5,0.5,0.8,1,0.8h0l2.4,0
		l2.4,0h0c0.5,0,0.9-0.3,1-0.8c0.1-0.4,0.4-1.4,0.4-1.5c0,0,0,0,0,0c0.6-1.6,1.4-2.6,2-3.6c0,0,0,0,0,0c0.9-1.3,1.9-2.6,1.9-4.9
		C66.9,50.7,63.5,47.5,59.1,47.5L59.1,47.5z M63.4,58.6C63.4,58.6,63.4,58.6,63.4,58.6c-0.7,1-1.6,2.2-2.3,4.1c0,0,0,0,0,0.1
		c0,0.1-0.2,0.6-0.3,1l-1.6,0l-1.6,0c-0.1-0.4-0.2-0.9-0.3-1c0,0,0-0.1,0-0.1c-0.7-1.8-1.6-3-2.3-4c0,0,0,0,0,0
		c-0.9-1.2-1.5-2.1-1.5-3.7c0-3,2.5-5.3,5.8-5.3c3.3,0,5.8,2.3,5.8,5.3C64.9,56.5,64.3,57.3,63.4,58.6L63.4,58.6z M62.6,44.7V27.9
		c0-0.3-0.1-0.5-0.3-0.7l-9.3-9.3c-0.2-0.2-0.4-0.3-0.7-0.3H28.9c-0.5,0-1,0.4-1,1v45.2c0,0.5,0.4,1,1,1h18.2
		c2.4,4.2,6.9,7.1,12,7.1c7.6,0,13.8-6.2,13.8-13.8C72.9,51.6,68.5,46.2,62.6,44.7L62.6,44.7z M53.4,20.9l5.9,6h-5.9V20.9z
		 M46.2,62.7H29.9V19.5h21.5v8.3c0,0.5,0.4,1,1,1h8.3v15.5c-0.5-0.1-1-0.1-1.5-0.1c-7.6,0-13.8,6.2-13.8,13.8
		C45.4,59.7,45.7,61.2,46.2,62.7L46.2,62.7z M59.1,69.8c-6.5,0-11.8-5.3-11.8-11.8c0-6.5,5.3-11.8,11.8-11.8
		c6.5,0,11.8,5.3,11.8,11.8C70.9,64.5,65.6,69.8,59.1,69.8z"/>
</g>
<circle class="st1" cx="50.4" cy="43.6" r="37.2"/>
<path class="st0" d="M73.4,93.2h-46c-3.8,0-6.8-3.1-6.8-6.8v0c0-3.8,3.1-6.8,6.8-6.8h46c3.8,0,6.8,3.1,6.8,6.8v0
	C80.2,90.1,77.2,93.2,73.4,93.2z"/>
<g>
	<path class="st2" d="M41.2,86.2c0,0.6-0.1,1.2-0.3,1.7c-0.2,0.5-0.5,1-0.9,1.4s-0.9,0.7-1.4,0.9c-0.6,0.2-1.2,0.3-1.9,0.3h-3.4
		v-8.7h3.4c0.7,0,1.3,0.1,1.9,0.3c0.6,0.2,1,0.5,1.4,0.9s0.7,0.8,0.9,1.4C41.1,85,41.2,85.6,41.2,86.2z M39.1,86.2
		c0-0.4-0.1-0.8-0.2-1.2c-0.1-0.3-0.3-0.6-0.5-0.9c-0.2-0.2-0.5-0.4-0.8-0.6c-0.3-0.1-0.6-0.2-1-0.2h-1.4V89h1.4
		c0.4,0,0.7-0.1,1-0.2c0.3-0.1,0.6-0.3,0.8-0.6s0.4-0.5,0.5-0.9C39.1,87,39.1,86.6,39.1,86.2z"/>
	<path class="st2" d="M46.2,90.6h-2v-8.7h2V90.6z"/>
	<path class="st2" d="M55.5,88.3c0,0,0.1,0,0.1,0c0,0,0.1,0,0.1,0.1l0.8,0.8c-0.4,0.5-0.8,0.8-1.3,1c-0.5,0.2-1.2,0.4-1.9,0.4
		c-0.7,0-1.3-0.1-1.8-0.3c-0.5-0.2-1-0.5-1.3-0.9c-0.4-0.4-0.6-0.9-0.8-1.4c-0.2-0.5-0.3-1.1-0.3-1.8c0-0.7,0.1-1.3,0.3-1.8
		c0.2-0.5,0.5-1,0.9-1.4c0.4-0.4,0.9-0.7,1.4-0.9c0.6-0.2,1.2-0.3,1.9-0.3c0.3,0,0.6,0,0.9,0.1c0.3,0.1,0.6,0.1,0.8,0.2
		c0.3,0.1,0.5,0.2,0.7,0.4c0.2,0.1,0.4,0.3,0.6,0.5L56,83.8c0,0.1-0.1,0.1-0.2,0.2c-0.1,0-0.1,0.1-0.3,0.1c-0.1,0-0.1,0-0.2,0
		c-0.1,0-0.1-0.1-0.2-0.1c-0.1,0-0.2-0.1-0.2-0.2c-0.1-0.1-0.2-0.1-0.3-0.1c-0.1,0-0.3-0.1-0.4-0.1c-0.2,0-0.3,0-0.6,0
		c-0.4,0-0.7,0.1-1,0.2c-0.3,0.1-0.6,0.3-0.8,0.6c-0.2,0.2-0.4,0.5-0.5,0.9s-0.2,0.7-0.2,1.2c0,0.4,0.1,0.8,0.2,1.2
		c0.1,0.3,0.3,0.6,0.5,0.9c0.2,0.2,0.5,0.4,0.7,0.5c0.3,0.1,0.6,0.2,0.9,0.2c0.2,0,0.4,0,0.5,0c0.2,0,0.3,0,0.4-0.1
		c0.1,0,0.3-0.1,0.4-0.2c0.1-0.1,0.2-0.2,0.4-0.3c0,0,0.1-0.1,0.2-0.1C55.4,88.3,55.4,88.3,55.5,88.3z"/>
	<path class="st2" d="M67.4,90.6h-1.6c-0.2,0-0.3,0-0.4-0.1c-0.1-0.1-0.2-0.2-0.2-0.3l-0.5-1.5h-3.3l-0.5,1.5c0,0.1-0.1,0.2-0.2,0.3
		c-0.1,0.1-0.3,0.1-0.4,0.1h-1.6l3.4-8.7h2.1L67.4,90.6z M61.8,87.2h2.4l-0.8-2.4c-0.1-0.2-0.1-0.3-0.2-0.5
		c-0.1-0.2-0.1-0.4-0.2-0.7c-0.1,0.2-0.1,0.5-0.2,0.7s-0.1,0.4-0.2,0.5L61.8,87.2z"/>
</g>
</svg>
