<?xml version="1.0" encoding="utf-8"?>
<!-- Generator: Adobe Illustrator 24.3.0, SVG Export Plug-In . SVG Version: 6.00 Build 0)  -->
<svg version="1.1" id="Camada_1" xmlns="http://www.w3.org/2000/svg" xmlns:xlink="http://www.w3.org/1999/xlink" x="0px" y="0px"
	 viewBox="0 0 155 155" style="enable-background:new 0 0 155 155;" xml:space="preserve">
<style type="text/css">
	.st0{fill:#CFF09F;}
	.st1{fill:none;stroke:#CFF09F;stroke-width:5;stroke-miterlimit:10;}
	.st2{fill:#07354C;}
</style>
<g>
	<g>
		<circle class="st0" cx="77.5" cy="77.5" r="64.2"/>
		<g>
			<path class="st1" d="M99,7.7c-26.6-8-56.9,0.8-76.2,23.1s-22.6,53.1-11,78.3"/>
			<path class="st1" d="M56,147.3c26.6,8,56.9-0.8,76.2-23.1s22.6-53.1,11-78.3"/>
		</g>
	</g>
	<g>
		<path class="st2" d="M79.1,42.4c3,0,5.7,0.4,8.1,1.3c2.4,0.9,4.5,2,6.2,3.6s3,3.3,3.9,5.3c0.9,2,1.4,4.2,1.4,6.6
			c0,2.1-0.2,3.9-0.7,5.5c-0.5,1.6-1.1,2.9-2,4.1s-2,2.2-3.2,3c-1.3,0.8-2.7,1.5-4.3,2c3.9,1.2,6.8,3.1,8.7,5.6
			c1.9,2.5,2.9,5.7,2.9,9.5c0,3.2-0.6,6.1-1.8,8.6c-1.2,2.5-2.8,4.6-4.9,6.3c-2,1.7-4.4,3-7.1,3.8c-2.7,0.9-5.5,1.3-8.5,1.3
			c-3.3,0-6.1-0.4-8.6-1.1c-2.4-0.7-4.5-1.9-6.3-3.3c-1.8-1.5-3.3-3.3-4.6-5.4s-2.3-4.6-3.2-7.4l4.9-2c0.8-0.4,1.7-0.5,2.6-0.5
			c0.8,0,1.5,0.2,2.1,0.5c0.6,0.3,1.1,0.8,1.4,1.4c0.5,1,1.1,2.1,1.8,3.1c0.6,1,1.4,1.9,2.3,2.7s2,1.4,3.2,1.9
			c1.2,0.5,2.7,0.7,4.3,0.7c1.9,0,3.5-0.3,5-0.9c1.4-0.6,2.6-1.4,3.5-2.4c0.9-1,1.7-2.1,2.1-3.3s0.7-2.4,0.7-3.7
			c0-1.6-0.2-3-0.5-4.3c-0.3-1.3-1-2.4-2.1-3.3c-1.1-0.9-2.6-1.6-4.5-2.1c-2-0.5-4.6-0.8-7.9-0.8v-8c2.7,0,5-0.2,6.8-0.7
			c1.8-0.5,3.2-1.1,4.3-2c1.1-0.9,1.8-1.9,2.2-3.1c0.4-1.2,0.6-2.5,0.6-4c0-3.1-0.8-5.4-2.5-7c-1.7-1.6-4-2.4-6.9-2.4
			c-2.6,0-4.8,0.7-6.6,2.1c-1.7,1.4-3,3.2-3.6,5.4c-0.4,1.1-0.9,2-1.5,2.5s-1.5,0.7-2.5,0.7c-0.5,0-1,0-1.5-0.1l-5.8-1
			c0.4-3.1,1.3-5.9,2.6-8.2s2.9-4.3,4.8-5.9c1.9-1.6,4.2-2.8,6.7-3.6C73.5,42.8,76.2,42.4,79.1,42.4z"/>
	</g>
</g>
</svg>
