
<svg xmlns="http://www.w3.org/2000/svg" version="1.1" xmlns:xlink="http://www.w3.org/1999/xlink" preserveAspectRatio="none" x="0px" y="0px" width="153px" height="153px" viewBox="0 0 153 153">
<defs>
<g id="Layer2_0_FILL">
<path fill="#C9EE95" stroke="none" d="
M 151.5 76.5
Q 151.5 45.45 129.5 23.45 107.55 1.5 76.5 1.5 45.45 1.5 23.45 23.45 1.5 45.45 1.5 76.5 1.5 107.55 23.45 129.5 45.45 151.5 76.5 151.5 107.55 151.5 129.5 129.5 151.5 107.55 151.5 76.5 Z"/>
</g>

<g id="Layer1_0_MEMBER_0_FILL">
<path fill="#144162" stroke="none" d="
M 217.25 189.85
L 209.3 171.65 194.8 291.4 123.7 291.4
Q 122.3 291.4 121.35 292.4 120.35 293.35 120.35 294.75 120.35 296.15 121.35 297.1 122.3 298.1 123.7 298.1
L 294.7 298.1
Q 296.1 298.1 297.05 297.1 298.05 296.15 298.05 294.75 298.05 293.35 297.05 292.4 296.1 291.4 294.7 291.4
L 222.8 291.4 217.25 189.85
M 214.35 132.85
Q 213.15 130.35 210.55 129.4 207.9 128.45 205.4 129.65 202.9 130.8 201.95 133.45 201 136.05 202.2 138.55
L 236.65 211.25
Q 237.85 213.75 240.45 214.7 243.1 215.65 245.6 214.45 248.1 213.3 249.05 210.7 250 208.05 248.8 205.55
L 214.35 132.85
M 201.6 70.6
Q 199.75 75.8 202.1 80.85
L 279.45 243.95
Q 281.8 248.95 287.05 250.85 292.25 252.7 297.3 250.35 302.3 248 304.2 242.75 306.05 237.55 303.7 232.5
L 226.35 69.4
Q 224 64.4 218.75 62.5 213.55 60.65 208.5 63 203.5 65.35 201.6 70.6 Z"/>
</g>

<g id="Layer1_0_MEMBER_1_FILL">
<path fill="#144162" stroke="none" d="
M 538.5 440.75
Q 541.3 440.75 543.25 438.8 545.2 436.85 545.2 434.05 545.2 431.25 543.25 429.25 541.3 427.3 538.5 427.3
L 415.75 427.3
Q 412.95 427.3 411 429.25 409.05 431.25 409.05 434.05 409.05 436.85 411 438.8 413 440.75 415.75 440.75
L 538.5 440.75
M 577.65 195.85
Q 575.7 193.9 572.9 193.9 570.1 193.9 568.15 195.85 566.15 197.85 566.15 200.6
L 566.15 393.95
Q 566.15 396.7 568.15 398.7 570.1 400.65 572.9 400.65 575.7 400.65 577.65 398.7 579.6 396.75 579.6 393.95
L 579.6 200.6
Q 579.6 197.85 577.65 195.85 Z"/>
</g>

<g id="Layer1_0_MEMBER_2_FILL">
<path fill="#144162" stroke="none" d="
M 519.05 129.25
Q 512.5 129.25 506.7 132.25 501.1 135.1 497.35 140.2
L 409.4 242.35 363.9 242.4
Q 352.8 242.4 344.95 250.25 337.1 258.1 337.1 269.2 337.1 280.3 344.95 288.15 352.8 296 363.9 296
L 420.7 295.95
Q 426.7 296.15 432.2 293.8 437.9 291.4 442 286.7
L 492.15 228.45 492.15 355.15 358.4 355.15
Q 347.25 355.15 339.4 363.05 331.5 370.9 331.5 382.05 331.5 385.15 332.15 387.9
L 358.8 537.8
Q 360.75 548.75 369.85 555.15 378.95 561.55 389.9 559.65 400.9 557.75 407.3 548.6 413.7 539.5 411.8 528.55
L 390.5 408.95 519.05 408.95
Q 530.2 408.95 538.05 401.05 545.95 393.2 545.95 382.05
L 545.95 156.15
Q 545.95 145 538.05 137.1 530.2 129.25 519.05 129.25
M 554.45 20
Q 538.85 4 516.8 4 494.75 4 479.15 20 463.55 35.95 463.55 58.5 463.55 81.05 479.15 97.05 494.75 113 516.8 113 538.85 113 554.45 97.05 570 81.1 570 58.5 570 35.95 554.45 20 Z"/>
</g>
</defs>

<g transform="matrix( 1, 0, 0, 1, 0,0) ">
<use xlink:href="#Layer2_0_FILL"/>
</g>

<g transform="matrix( -0.1867523193359375, 0, 0, 0.1866302490234375, 142.85,24.1) ">
<use xlink:href="#Layer1_0_MEMBER_0_FILL"/>
</g>

<g transform="matrix( -0.1867523193359375, 0, 0, 0.1866302490234375, 142.85,24.1) ">
<use xlink:href="#Layer1_0_MEMBER_1_FILL"/>
</g>

<g transform="matrix( -0.1867523193359375, 0, 0, 0.1866302490234375, 142.85,24.1) ">
<use xlink:href="#Layer1_0_MEMBER_2_FILL"/>
</g>
</svg>
