<?xml version="1.0" encoding="utf-8"?>
<!-- Generator: Adobe Illustrator 24.3.0, SVG Export Plug-In . SVG Version: 6.00 Build 0)  -->
<svg version="1.1" id="Camada_1" xmlns="http://www.w3.org/2000/svg" xmlns:xlink="http://www.w3.org/1999/xlink" x="0px" y="0px"
	 viewBox="0 0 80 80" style="enable-background:new 0 0 80 80;" xml:space="preserve">
<style type="text/css">
	.st0{fill:#CFF09F;}
</style>
<g>
	<path class="st0" d="M19.3,33.1h28.3c0.7,0,1.3-0.6,1.3-1.3s-0.6-1.3-1.3-1.3H19.3c-0.7,0-1.3,0.6-1.3,1.3
		C18.1,32.5,18.6,33.1,19.3,33.1z M19.3,26h28.3c0.7,0,1.3-0.6,1.3-1.3s-0.6-1.3-1.3-1.3H19.3c-0.7,0-1.3,0.6-1.3,1.3
		C18.1,25.5,18.6,26,19.3,26z M19.3,39.4h23.2c0.7,0,1.3-0.6,1.3-1.3s-0.6-1.3-1.3-1.3H19.3c-0.7,0-1.3,0.6-1.3,1.3
		C18.1,38.9,18.6,39.4,19.3,39.4z M34.2,43.3H19.3c-0.7,0-1.3,0.6-1.3,1.3c0,0.7,0.6,1.3,1.3,1.3h14.9c0.7,0,1.3-0.6,1.3-1.3
		C35.4,43.8,34.9,43.3,34.2,43.3z M30,49.6H19.3c-0.7,0-1.3,0.6-1.3,1.3c0,0.7,0.6,1.3,1.3,1.3H30c0.7,0,1.3-0.6,1.3-1.3
		C31.3,50.2,30.7,49.6,30,49.6L30,49.6z M53.3,67.9c-0.4,0-0.8,0.2-1.1,0.6H50c-0.2-0.3-0.6-0.6-1.1-0.6c-0.7,0-1.3,0.6-1.3,1.3v0.6
		c0,0.7,0.6,1.3,1.3,1.3h4.4c0.7,0,1.3-0.6,1.3-1.3v-0.6C54.6,68.5,54,67.9,53.3,67.9L53.3,67.9z M51.1,44.3c-5.6,0-9.8,4-9.8,9.3
		c0,2.9,1.2,4.6,2.4,6.2c0,0,0,0,0,0c0.9,1.2,1.8,2.5,2.6,4.5c0.1,0.2,0.4,1.5,0.5,2c0.1,0.6,0.6,1,1.2,1h0l3.1,0l3.1,0h0
		c0.6,0,1.1-0.4,1.2-1c0.1-0.5,0.4-1.8,0.5-2c0,0,0,0,0,0c0.8-2,1.7-3.4,2.6-4.5c0,0,0,0,0,0c1.2-1.6,2.4-3.4,2.4-6.2
		C61,48.3,56.8,44.3,51.1,44.3L51.1,44.3z M56.5,58.4C56.5,58.4,56.5,58.4,56.5,58.4c-0.9,1.3-2,2.8-2.9,5.2c0,0,0,0.1,0,0.1
		c0,0.2-0.2,0.7-0.3,1.3l-2.1,0l-2.1,0c-0.1-0.6-0.3-1.1-0.4-1.3c0,0,0-0.1,0-0.1c-0.9-2.3-2-3.9-2.9-5.1c0,0,0,0,0,0
		c-1.1-1.6-2-2.7-2-4.8c0-3.9,3.2-6.8,7.3-6.8c4.2,0,7.3,2.9,7.3,6.8C58.5,55.7,57.7,56.8,56.5,58.4L56.5,58.4z M55.6,40.7V19.2
		c0-0.3-0.1-0.6-0.4-0.9L43.4,6.5c-0.2-0.2-0.6-0.4-0.9-0.4H12.6c-0.7,0-1.3,0.6-1.3,1.3v57.6c0,0.7,0.6,1.3,1.3,1.3h23.3
		c3,5.4,8.7,9,15.3,9c9.7,0,17.5-7.9,17.5-17.5C68.7,49.5,63.1,42.7,55.6,40.7L55.6,40.7z M43.8,10.4l7.5,7.6h-7.5V10.4z M34.7,63.7
		H13.8V8.6h27.4v10.6c0,0.7,0.6,1.3,1.3,1.3h10.5v19.7c-0.6-0.1-1.3-0.1-1.9-0.1c-9.7,0-17.5,7.9-17.5,17.5
		C33.6,59.8,34,61.8,34.7,63.7L34.7,63.7z M51.1,72.7c-8.3,0-15-6.7-15-15c0-8.3,6.7-15,15-15c8.3,0,15,6.7,15,15
		C66.2,65.9,59.4,72.7,51.1,72.7z"/>
</g>
</svg>
