
<svg xmlns="http://www.w3.org/2000/svg" version="1.1" xmlns:xlink="http://www.w3.org/1999/xlink" preserveAspectRatio="none" x="0px" y="0px" width="95px" height="95px" viewBox="0 0 95 95">
<defs>
<g id="Layer1_0_MEMBER_0_FILL">
<path fill="#C9EE95" stroke="none" d="
M 151.5 76.5
Q 151.5 45.45 129.5 23.45 107.55 1.5 76.5 1.5 45.45 1.5 23.45 23.45 1.5 45.45 1.5 76.5 1.5 107.55 23.45 129.5 45.45 151.5 76.5 151.5 107.55 151.5 129.5 129.5 151.5 107.55 151.5 76.5 Z"/>
</g>

<g id="Layer1_0_MEMBER_1_MEMBER_0_FILL">
<path fill="#144162" stroke="none" d="
M 226.2 178.6
L 226.2 178.55
Q 233.4 178.55 240.1 175.8 246.75 173.05 251.85 167.9 257 162.8 259.75 156.15 262.5 149.45 262.5 142.25
L 262.5 77.5 149.65 178.6 226.2 178.6
M 536.65 270.1
L 496.95 230.4 359.1 368.55 345.6 421.7 398.85 408.25 536.65 270.1
M 571.5 228.4
Q 571.5 225.1 570.25 222.05 569 219.05 566.65 216.7
L 550.35 200.4
Q 545.4 195.7 538.65 195.7 531.9 195.7 526.95 200.4
L 515.5 211.85 555.2 251.55 566.65 240.1
Q 569 237.75 570.25 234.75 571.5 231.7 571.5 228.4
M 436.6 64.05
Q 429.9 61.3 422.7 61.25
L 288.75 61.25 288.75 142.3
Q 288.75 154.75 284 166.25 279.2 177.75 270.4 186.55 261.6 195.35 250.1 200.1 238.6 204.85 226.2 204.85
L 128.45 204.85 128.45 462.5
Q 128.45 469.7 131.25 476.4 134 483.05 139.1 488.15 144.2 493.25 150.9 496.05 157.55 498.8 164.75 498.8
L 422.7 498.8
Q 429.9 498.8 436.6 496.05 443.25 493.25 448.35 488.15 453.45 483.05 456.25 476.4 459 469.7 459 462.5
L 459 385.15 414.8 429.35
Q 412.25 431.9 408.75 432.8
L 330.65 452.55
Q 327.3 453.4 323.95 452.5 320.6 451.6 318.15 449.15 315.7 446.7 314.8 443.35 313.9 440.05 314.7 436.65
L 334.55 358.6
Q 335.45 355.2 338 352.55
L 459 231.5 459 97.55
Q 459 90.35 456.25 83.7 453.45 77 448.35 71.9 443.25 66.8 436.6 64.05 Z"/>
</g>
</defs>

<g transform="matrix( 0.633331298828125, 0, 0, 0.633331298828125, 0.55,0.55) ">
<use xlink:href="#Layer1_0_MEMBER_0_FILL"/>
</g>

<g transform="matrix( 0.135772705078125, 0, 0, 0.13580322265625, 6.3,10.1) ">
<use xlink:href="#Layer1_0_MEMBER_1_MEMBER_0_FILL"/>
</g>
</svg>
