<?xml version="1.0" encoding="utf-8"?>
<!-- Generator: Adobe Illustrator 24.3.0, SVG Export Plug-In . SVG Version: 6.00 Build 0)  -->
<svg version="1.1" id="Camada_1" xmlns="http://www.w3.org/2000/svg" xmlns:xlink="http://www.w3.org/1999/xlink" x="0px" y="0px"
	 viewBox="0 0 100 100" style="enable-background:new 0 0 100 100;" xml:space="preserve">
<style type="text/css">
	.st0{fill:none;stroke:#CFF09F;stroke-width:2.5896;stroke-miterlimit:10;}
	.st1{fill:#CFF09F;}
	.st2{fill:#0C486C;}
</style>
<g>
	<circle class="st0" cx="50.6" cy="42.6" r="37.2"/>
	<g>
		<g>
			<path class="st1" d="M70.6,28.9C70.6,28.8,70.6,28.8,70.6,28.9c0-0.1,0-0.1-0.1-0.2c0,0,0,0,0,0c0-0.1-0.1-0.1-0.1-0.2L59.9,17.9
				c-0.1-0.1-0.1-0.1-0.2-0.1c0,0,0,0,0,0c-0.1,0-0.1-0.1-0.2-0.1c0,0,0,0,0,0c-0.1,0-0.1,0-0.2,0H34.8c-2.3,0-4.2,1.9-4.2,4.2v41.5
				c0,2.3,1.9,4.2,4.2,4.2h31.6c2.3,0,4.2-1.9,4.2-4.2V29C70.6,29,70.6,28.9,70.6,28.9L70.6,28.9z M60.1,20.5l7.7,7.7l-5.1,0
				c-1.4,0-2.6-1.2-2.6-2.6L60.1,20.5z M66.4,66H34.8c-1.4,0-2.6-1.2-2.6-2.6V21.9c0-1.4,1.2-2.6,2.6-2.6h23.6v6.3
				c0,2.3,1.9,4.2,4.2,4.2H69v33.6C69,64.8,67.8,66,66.4,66L66.4,66z"/>
			<path class="st1" d="M37.8,26.7h15.5c0.5,0,0.8-0.4,0.8-0.8s-0.4-0.8-0.8-0.8l-15.5,0c-0.5,0-0.8,0.4-0.8,0.8
				C37,26.4,37.3,26.7,37.8,26.7z"/>
			<path class="st1" d="M63.4,33.4H37.8c-0.5,0-0.8,0.4-0.8,0.8c0,0.5,0.4,0.8,0.8,0.8h25.6c0.5,0,0.8-0.4,0.8-0.8
				C64.2,33.8,63.9,33.4,63.4,33.4L63.4,33.4z"/>
			<path class="st1" d="M63.4,50.2H37.8c-0.5,0-0.8,0.4-0.8,0.8s0.4,0.8,0.8,0.8h25.6c0.5,0,0.8-0.4,0.8-0.8S63.9,50.2,63.4,50.2
				L63.4,50.2z"/>
			<path class="st1" d="M63.4,58.5H37.8c-0.5,0-0.8,0.4-0.8,0.8s0.4,0.8,0.8,0.8h25.6c0.5,0,0.8-0.4,0.8-0.8
				C64.2,58.9,63.9,58.5,63.4,58.5L63.4,58.5z"/>
		</g>
		<g>
			<path class="st1" d="M38.1,40.2v0.7h-2.2v1.4h1.7V43h-1.7v1.4h2.2v0.7H35v-5H38.1z"/>
			<path class="st1" d="M40.1,42.6l-1.6-2.4h0.9c0.1,0,0.1,0,0.1,0c0,0,0.1,0,0.1,0.1l1.1,1.8c0,0,0-0.1,0-0.1c0,0,0-0.1,0-0.1
				l1-1.6c0.1-0.1,0.1-0.1,0.2-0.1H43l-1.6,2.4l1.6,2.6h-0.9c-0.1,0-0.1,0-0.1,0c0,0-0.1-0.1-0.1-0.1l-1.2-1.9c0,0,0,0.1,0,0.1
				c0,0,0,0,0,0.1L39.5,45c0,0-0.1,0.1-0.1,0.1c0,0-0.1,0-0.1,0h-0.9L40.1,42.6z"/>
			<path class="st1" d="M46.7,40.2v0.7h-2.2v1.4h1.7V43h-1.7v1.4h2.2v0.7h-3.1v-5H46.7z"/>
			<path class="st1" d="M50.1,43.3c0,0.1,0.1,0.2,0.1,0.2c0-0.1,0.1-0.2,0.1-0.2c0-0.1,0.1-0.2,0.1-0.2l1.5-2.8c0,0,0-0.1,0.1-0.1
				s0,0,0.1,0c0,0,0.1,0,0.1,0c0,0,0.1,0,0.1,0h0.7v5h-0.8v-3.2c0-0.1,0-0.1,0-0.2c0-0.1,0-0.1,0-0.2l-1.5,2.8
				c0,0.1-0.1,0.1-0.1,0.1c-0.1,0-0.1,0.1-0.2,0.1h-0.1c-0.1,0-0.1,0-0.2-0.1c-0.1,0-0.1-0.1-0.1-0.1l-1.5-2.8c0,0.1,0,0.1,0,0.2
				c0,0.1,0,0.1,0,0.2v3.2h-0.8v-5h0.7c0,0,0.1,0,0.1,0c0,0,0.1,0,0.1,0c0,0,0,0,0.1,0c0,0,0,0,0.1,0.1l1.5,2.8
				C50,43.1,50.1,43.2,50.1,43.3z"/>
			<path class="st1" d="M54.8,43.4v1.7h-0.9v-5h1.6c0.3,0,0.6,0,0.9,0.1c0.2,0.1,0.4,0.2,0.6,0.3c0.2,0.1,0.3,0.3,0.4,0.5
				c0.1,0.2,0.1,0.4,0.1,0.6c0,0.2,0,0.5-0.1,0.7c-0.1,0.2-0.2,0.4-0.4,0.5c-0.2,0.1-0.4,0.3-0.6,0.3c-0.2,0.1-0.5,0.1-0.8,0.1H54.8
				z M54.8,42.7h0.7c0.2,0,0.3,0,0.4-0.1c0.1,0,0.2-0.1,0.3-0.2c0.1-0.1,0.1-0.2,0.2-0.3c0-0.1,0.1-0.2,0.1-0.4c0-0.1,0-0.3-0.1-0.4
				s-0.1-0.2-0.2-0.3C56.2,41,56.1,41,56,40.9s-0.3-0.1-0.4-0.1h-0.7V42.7z"/>
			<path class="st1" d="M59.1,44.4h2v0.8h-2.9v-5h0.9V44.4z"/>
			<path class="st1" d="M66.2,42.6c0,0.4-0.1,0.7-0.2,1c-0.1,0.3-0.3,0.6-0.5,0.8c-0.2,0.2-0.5,0.4-0.8,0.5c-0.3,0.1-0.7,0.2-1,0.2
				c-0.4,0-0.7-0.1-1-0.2c-0.3-0.1-0.6-0.3-0.8-0.5c-0.2-0.2-0.4-0.5-0.5-0.8c-0.1-0.3-0.2-0.6-0.2-1c0-0.4,0.1-0.7,0.2-1
				c0.1-0.3,0.3-0.6,0.5-0.8c0.2-0.2,0.5-0.4,0.8-0.5c0.3-0.1,0.7-0.2,1-0.2c0.4,0,0.7,0.1,1,0.2c0.3,0.1,0.6,0.3,0.8,0.5
				c0.2,0.2,0.4,0.5,0.5,0.8C66.2,41.9,66.2,42.3,66.2,42.6z M65.3,42.6c0-0.3,0-0.5-0.1-0.7c-0.1-0.2-0.2-0.4-0.3-0.6
				s-0.3-0.3-0.5-0.3s-0.4-0.1-0.7-0.1c-0.2,0-0.5,0-0.7,0.1s-0.4,0.2-0.5,0.3c-0.1,0.2-0.2,0.3-0.3,0.6c-0.1,0.2-0.1,0.5-0.1,0.7
				c0,0.3,0,0.5,0.1,0.7c0.1,0.2,0.2,0.4,0.3,0.5c0.1,0.2,0.3,0.3,0.5,0.3c0.2,0.1,0.4,0.1,0.7,0.1c0.2,0,0.5,0,0.7-0.1
				c0.2-0.1,0.4-0.2,0.5-0.3c0.1-0.1,0.2-0.3,0.3-0.5C65.2,43.2,65.3,42.9,65.3,42.6z"/>
		</g>
	</g>
</g>
<path class="st1" d="M83,92.2H17c-3.8,0-6.8-3.1-6.8-6.8v0c0-3.8,3.1-6.8,6.8-6.8h66c3.8,0,6.8,3.1,6.8,6.8v0
	C89.8,89.1,86.8,92.2,83,92.2z"/>
<g>
	<path class="st2" d="M21.9,80.8v1.6h-3.6v2H21v1.5h-2.7V88h3.6v1.6h-5.6v-8.7H21.9z"/>
	<path class="st2" d="M27,85.1l-2.7-4.2h2c0.1,0,0.2,0,0.3,0.1s0.1,0.1,0.2,0.2l1.7,2.9c0-0.1,0-0.1,0.1-0.2c0,0,0.1-0.1,0.1-0.1
		l1.5-2.6c0.1-0.2,0.2-0.3,0.4-0.3h1.9L29.8,85l2.8,4.6h-2c-0.1,0-0.2,0-0.3-0.1c-0.1-0.1-0.1-0.1-0.2-0.2l-1.8-3.1
		c0,0.1-0.1,0.2-0.1,0.2l-1.6,2.8c0,0.1-0.1,0.2-0.2,0.2c-0.1,0.1-0.2,0.1-0.3,0.1h-1.9L27,85.1z"/>
	<path class="st2" d="M40.8,80.8v1.6h-3.6v2h2.7v1.5h-2.7V88h3.6v1.6h-5.6v-8.7H40.8z"/>
	<path class="st2" d="M48.4,86c0.1,0.2,0.1,0.3,0.2,0.5c0.1-0.2,0.1-0.3,0.2-0.5c0.1-0.2,0.2-0.3,0.2-0.5l2.2-4.4
		c0-0.1,0.1-0.1,0.1-0.2s0.1-0.1,0.1-0.1c0.1,0,0.1,0,0.2,0c0.1,0,0.1,0,0.2,0h1.5v8.7h-1.8v-5c0-0.2,0-0.5,0-0.8l-2.3,4.5
		c-0.1,0.1-0.2,0.2-0.3,0.3c-0.1,0.1-0.3,0.1-0.4,0.1h-0.3c-0.2,0-0.3,0-0.4-0.1c-0.1-0.1-0.2-0.2-0.3-0.3l-2.3-4.5
		c0,0.1,0,0.3,0,0.4c0,0.1,0,0.3,0,0.4v5h-1.8v-8.7h1.5c0.1,0,0.2,0,0.2,0s0.1,0,0.2,0c0.1,0,0.1,0.1,0.1,0.1s0.1,0.1,0.1,0.2
		l2.2,4.4C48.3,85.7,48.4,85.9,48.4,86z"/>
	<path class="st2" d="M58.8,86.6v2.9h-2v-8.7h3.1c0.6,0,1.1,0.1,1.6,0.2c0.4,0.1,0.8,0.3,1.1,0.6s0.5,0.6,0.6,0.9
		c0.1,0.3,0.2,0.7,0.2,1.1c0,0.4-0.1,0.8-0.2,1.2c-0.1,0.4-0.4,0.7-0.6,0.9s-0.7,0.5-1.1,0.6c-0.4,0.1-1,0.2-1.6,0.2H58.8z
		 M58.8,85.1h1.1c0.5,0,0.9-0.1,1.1-0.4c0.2-0.3,0.3-0.6,0.3-1.1c0-0.2,0-0.4-0.1-0.5c-0.1-0.2-0.2-0.3-0.3-0.4s-0.3-0.2-0.5-0.3
		c-0.2-0.1-0.4-0.1-0.7-0.1h-1.1V85.1z"/>
	<path class="st2" d="M68.3,88h3.2v1.6h-5.3v-8.7h2V88z"/>
	<path class="st2" d="M82.4,85.2c0,0.6-0.1,1.2-0.3,1.8s-0.5,1-0.9,1.4c-0.4,0.4-0.9,0.7-1.4,0.9c-0.6,0.2-1.2,0.3-1.9,0.3
		c-0.7,0-1.3-0.1-1.9-0.3c-0.6-0.2-1-0.5-1.4-0.9c-0.4-0.4-0.7-0.9-0.9-1.4s-0.3-1.1-0.3-1.8s0.1-1.2,0.3-1.8c0.2-0.5,0.5-1,0.9-1.4
		c0.4-0.4,0.9-0.7,1.4-0.9c0.6-0.2,1.2-0.3,1.9-0.3c0.7,0,1.3,0.1,1.9,0.3c0.6,0.2,1,0.5,1.4,0.9c0.4,0.4,0.7,0.9,0.9,1.4
		S82.4,84.6,82.4,85.2z M80.4,85.2c0-0.4-0.1-0.8-0.2-1.2c-0.1-0.3-0.3-0.6-0.5-0.9c-0.2-0.2-0.5-0.4-0.8-0.6
		c-0.3-0.1-0.7-0.2-1-0.2c-0.4,0-0.7,0.1-1,0.2c-0.3,0.1-0.6,0.3-0.8,0.6c-0.2,0.2-0.4,0.5-0.5,0.9s-0.2,0.7-0.2,1.2
		c0,0.4,0.1,0.8,0.2,1.2s0.3,0.6,0.5,0.9c0.2,0.2,0.5,0.4,0.8,0.5s0.7,0.2,1,0.2c0.4,0,0.7-0.1,1-0.2s0.6-0.3,0.8-0.5
		s0.4-0.5,0.5-0.9C80.3,86,80.4,85.6,80.4,85.2z"/>
</g>
</svg>
