
<svg xmlns="http://www.w3.org/2000/svg" version="1.1" xmlns:xlink="http://www.w3.org/1999/xlink" preserveAspectRatio="none" x="0px" y="0px" width="153px" height="153px" viewBox="0 0 153 153">
<defs>
<g id="Layer2_0_FILL">
<path fill="#C9EE95" stroke="none" d="
M 151.5 76.5
Q 151.5 45.45 129.5 23.45 107.55 1.5 76.5 1.5 45.45 1.5 23.45 23.45 1.5 45.45 1.5 76.5 1.5 107.55 23.45 129.5 45.45 151.5 76.5 151.5 107.55 151.5 129.5 129.5 151.5 107.55 151.5 76.5 Z"/>
</g>

<g id="Layer1_0_MEMBER_0_FILL">
<path fill="#144162" stroke="none" d="
M 373.15 88.25
Q 353.95 66.3 327 54.55 298.2 42 262.6 42 213.6 42 179.15 63.65 151.6 80.95 134.6 111.2 122.4 132.85 116.75 158.8 113.9 171.75 113.5 180.4 109.4 180.4 111.85 308.2 113.05 372.1 115.1 436 115.35 452.3 121.65 467.35 127.95 482.4 139.4 494.05 150.85 505.7 165.75 512.25 180.7 518.85 196.95 519.4 213.25 520 228.6 514.5 243.95 508.95 256.2 498.15 273.45 483.05 280.7 461.4 285.55 446.9 287.45 421.7 289.6 393.35 291.8 384 296.4 364.45 309.15 353.05 318.8 344.4 341.2 326.3 361.7 309.05 374.05 294.5 410.05 252.2 410.1 195.75 410.2 164.65 400.9 137.25 391.4 109.15 373.15 88.25
M 329.95 133.95
Q 343.05 147.65 349.9 165.35 356.75 183.05 356.35 202
L 316.35 201.95
Q 316.75 190.95 312.95 180.65 309.15 170.3 301.65 162.2 294.2 154.1 284.2 149.5 274.2 144.85 263.2 144.4 252.15 144.9 242.15 149.5 232.15 154.15 224.7 162.25 217.2 170.35 213.4 180.7 209.6 191 209.95 202.05
L 209.95 244.4
Q 220.8 249.25 229.85 257.1 238.8 264.9 245.2 275 251.55 285.05 254.8 296.55 258 308 257.75 319.9 258.85 335.1 254 349.55 249.1 364 239.1 375.45 229.05 386.9 215.35 393.6 201.7 400.3 186.45 401.25
L 169.45 401.25 169.45 361.25 183.05 361.25
Q 190.75 361 197.7 357.6 204.65 354.2 209.65 348.3 214.65 342.4 216.75 334.95 218.9 327.5 217.85 319.85 218.05 312.6 215.8 305.75 213.6 298.85 209.2 293.1 204.8 287.35 198.75 283.4 192.7 279.45 185.65 277.7
L 170 274 170 202
Q 169.6 183.05 176.45 165.4 183.35 147.7 196.45 134 209.55 120.25 226.9 112.6 244.25 104.9 263.2 104.4 282.2 104.9 299.5 112.55 316.85 120.25 329.95 133.95 Z"/>
</g>

<g id="Layer1_0_MEMBER_1_FILL">
<path fill="#144162" stroke="none" d="
M 563.85 338.4
Q 557.1 337.25 551.5 341.2 517.15 365.35 494.5 400.5 471.05 436.85 463.55 479.85 458.75 507.8 461.2 535.8 461.85 542.65 467.1 547 472.35 551.4 479.15 550.75 485.95 550.15 490.3 544.9 494.7 539.65 494.1 532.85 491.95 509.2 496.1 485.5 502.4 449.15 522.25 418.35 541.45 388.6 570.5 368.15 576.1 364.25 577.25 357.5 578.4 350.75 574.5 345.15 570.55 339.55 563.85 338.4 Z"/>
</g>

<g id="Layer1_0_MEMBER_2_FILL">
<path fill="#144162" stroke="none" d="
M 540.3 296.6
Q 536.35 291 529.65 289.85 522.9 288.65 517.3 292.6 473.45 323.45 444.55 368.35 414.6 414.8 405.05 469.65 398.85 505.45 402.05 541.15 402.65 547.95 407.9 552.3 413.15 556.7 419.95 556.1 426.75 555.5 431.1 550.25 435.5 545 434.9 538.2 432.1 506.8 437.55 475.3 445.95 427.05 472.3 386.2 497.7 346.75 536.3 319.6 541.9 315.65 543.05 308.95 544.25 302.2 540.3 296.6 Z"/>
</g>

<g id="Layer1_0_MEMBER_3_FILL">
<path fill="#144162" stroke="none" d="
M 483.15 244
Q 429.75 281.55 394.55 336.15 358.1 392.7 346.5 459.5 338.95 503 342.85 546.45 343.45 553.25 348.7 557.6 353.95 562 360.75 561.4 367.55 560.8 371.9 555.55 376.3 550.3 375.7 543.5 372.2 504.4 379 465.15 389.45 404.95 422.3 354.05 454.05 304.85 502.15 271 507.75 267.05 508.9 260.35 510.1 253.6 506.15 248 502.2 242.4 495.5 241.25 488.75 240.05 483.15 244 Z"/>
</g>
</defs>

<g transform="matrix( 1, 0, 0, 1, 0,0) ">
<use xlink:href="#Layer2_0_FILL"/>
</g>

<g transform="matrix( 0.192474365234375, 0, 0, 0.192596435546875, 10.25,18.4) ">
<use xlink:href="#Layer1_0_MEMBER_0_FILL"/>
</g>

<g transform="matrix( 0.192474365234375, 0, 0, 0.192596435546875, 10.25,18.4) ">
<use xlink:href="#Layer1_0_MEMBER_1_FILL"/>
</g>

<g transform="matrix( 0.192474365234375, 0, 0, 0.192596435546875, 10.25,18.4) ">
<use xlink:href="#Layer1_0_MEMBER_2_FILL"/>
</g>

<g transform="matrix( 0.192474365234375, 0, 0, 0.192596435546875, 10.25,18.4) ">
<use xlink:href="#Layer1_0_MEMBER_3_FILL"/>
</g>
</svg>
