
<svg xmlns="http://www.w3.org/2000/svg" version="1.1" xmlns:xlink="http://www.w3.org/1999/xlink" preserveAspectRatio="none" x="0px" y="0px" width="95px" height="95px" viewBox="0 0 95 95">
<defs>
<g id="Layer1_0_MEMBER_0_FILL">
<path fill="#C9EE95" stroke="none" d="
M 151.5 76.5
Q 151.5 45.45 129.5 23.45 107.55 1.5 76.5 1.5 45.45 1.5 23.45 23.45 1.5 45.45 1.5 76.5 1.5 107.55 23.45 129.5 45.45 151.5 76.5 151.5 107.55 151.5 129.5 129.5 151.5 107.55 151.5 76.5 Z"/>
</g>

<g id="Layer1_0_MEMBER_1_FILL">
<path fill="#144162" stroke="none" d="
M 116.05 75.5
L 120.3 78.8 124.5 73.4 78.7 36.85
Q 77.75 36.05 76.5 36.05 75.3 36.05 74.35 36.85
L 28.5 73.4 32.75 78.8 37 75.5 37 113.55
Q 36.95 114.2 37.2 114.85 37.45 115.5 37.95 116 38.45 116.5 39.1 116.75 39.7 117 40.4 116.95
L 112.65 116.95
Q 113.35 117 113.95 116.75 114.6 116.5 115.1 116 115.6 115.5 115.85 114.85 116.1 114.2 116.05 113.55
L 116.05 75.5
M 90.7 83.8
L 90.7 90.65 79.95 90.65 79.95 101.4 73.1 101.4 73.1 90.65 62.35 90.65 62.35 83.8 73.1 83.8 73.1 73.2 79.95 73.2 79.95 83.8 90.7 83.8 Z"/>
</g>
</defs>

<g transform="matrix( 0.633331298828125, 0, 0, 0.633331298828125, -0.95,-0.95) ">
<use xlink:href="#Layer1_0_MEMBER_0_FILL"/>
</g>

<g transform="matrix( 0.633331298828125, 0, 0, 0.633331298828125, -0.95,-2.8) ">
<use xlink:href="#Layer1_0_MEMBER_1_FILL"/>
</g>
</svg>
