
<svg xmlns="http://www.w3.org/2000/svg" version="1.1" xmlns:xlink="http://www.w3.org/1999/xlink" preserveAspectRatio="none" x="0px" y="0px" width="95px" height="95px" viewBox="0 0 95 95">
<defs>
<g id="Layer2_0_MEMBER_0_FILL">
<path fill="#C9EE95" stroke="none" d="
M 151.5 76.5
Q 151.5 45.45 129.5 23.45 107.55 1.5 76.5 1.5 45.45 1.5 23.45 23.45 1.5 45.45 1.5 76.5 1.5 107.55 23.45 129.5 45.45 151.5 76.5 151.5 107.55 151.5 129.5 129.5 151.5 107.55 151.5 76.5 Z"/>
</g>

<g id="Layer2_0_MEMBER_1_MEMBER_0_FILL">
<path fill="#144162" stroke="none" d="
M 266.55 81.8
Q 266.55 53.7 246.7 33.85 226.85 14 198.8 14 170.7 14 150.85 33.85 131 53.7 131 81.8 131 109.85 150.85 129.7 170.7 149.55 198.8 149.55 226.85 149.55 246.7 129.7 266.55 109.85 266.55 81.8 Z"/>
</g>

<g id="Layer2_0_MEMBER_1_MEMBER_1_FILL">
<path fill="#144162" stroke="none" d="
M 234.05 167.45
L 164.05 167.45
Q 143.05 167.45 128.1 182.45 113.1 197.45 113.1 218.45
L 113.1 312.5
Q 113.1 323 119.55 331.35 125.95 339.65 136.05 342.2
L 141.1 343.3
Q 146.15 344.6 149.2 348.45 152.3 352.3 152.3 357.3
L 152.3 520.25
Q 152.3 530.85 159.7 538.4 167.25 546.05 178.05 546.05
L 220.6 546.05
Q 231.2 546.05 238.75 538.65 246.4 531.1 246.4 520.25
L 246.4 357.85
Q 246.4 352.8 249.45 349 252.55 345.1 257.6 343.85
L 262.6 342.75
Q 272.7 340.25 279.15 331.9 285.6 323.55 285.6 313.05
L 285.6 218.4
Q 285.15 197.35 270.1 182.45 255 167.45 234.05 167.45 Z"/>
</g>

<g id="Layer2_0_MEMBER_1_MEMBER_2_FILL">
<path fill="#144162" stroke="none" d="
M 524.7 81.8
Q 524.7 53.7 504.85 33.85 485 14 456.95 14 428.85 14 409 33.85 389.15 53.7 389.15 81.8 389.15 109.85 409 129.7 428.85 149.55 456.95 149.55 485 149.55 504.85 129.7 524.7 109.85 524.7 81.8 Z"/>
</g>

<g id="Layer2_0_MEMBER_1_MEMBER_3_FILL">
<path fill="#144162" stroke="none" d="
M 528.2 182.45
Q 513.2 167.45 492.2 167.45
L 422.2 167.45
Q 401.2 167.45 386.25 182.45 371.25 197.45 371.25 218.45
L 371.25 260.45 542.6 260.45 542.6 218.4 543.2 218.4
Q 543.2 197.4 528.2 182.45 Z"/>
</g>

<g id="Layer2_0_MEMBER_1_MEMBER_4_FILL">
<path fill="#144162" stroke="none" d="
M 353.35 286.2
Q 342.75 286.2 335.2 293.6 327.55 301.15 327.55 311.95
L 327.55 520.85
Q 327.55 531.45 335 539 342.5 546.6 353.35 546.6
L 561.65 546.6
Q 572.25 546.6 579.8 539.2 587.4 531.65 587.4 520.85
L 587.4 311.4
Q 587 300.9 579.3 293.55 571.6 286.2 561.1 286.2
L 353.35 286.2 Z"/>
</g>
</defs>

<g transform="matrix( 0.633331298828125, 0, 0, 0.633331298828125, 0.55,0.55) ">
<use xlink:href="#Layer2_0_MEMBER_0_FILL"/>
</g>

<g transform="matrix( 0.1129302978515625, 0, 0, 0.1129302978515625, 9.4,17.3) ">
<use xlink:href="#Layer2_0_MEMBER_1_MEMBER_0_FILL"/>
</g>

<g transform="matrix( 0.1129302978515625, 0, 0, 0.1129302978515625, 9.4,17.3) ">
<use xlink:href="#Layer2_0_MEMBER_1_MEMBER_1_FILL"/>
</g>

<g transform="matrix( 0.1129302978515625, 0, 0, 0.1129302978515625, 9.4,17.3) ">
<use xlink:href="#Layer2_0_MEMBER_1_MEMBER_2_FILL"/>
</g>

<g transform="matrix( 0.1129302978515625, 0, 0, 0.1129302978515625, 9.4,17.3) ">
<use xlink:href="#Layer2_0_MEMBER_1_MEMBER_3_FILL"/>
</g>

<g transform="matrix( 0.1129302978515625, 0, 0, 0.1129302978515625, 9.4,17.3) ">
<use xlink:href="#Layer2_0_MEMBER_1_MEMBER_4_FILL"/>
</g>
</svg>
