
<svg xmlns="http://www.w3.org/2000/svg" version="1.1" xmlns:xlink="http://www.w3.org/1999/xlink" preserveAspectRatio="none" x="0px" y="0px" width="153px" height="153px" viewBox="0 0 153 153">
<defs>
<g id="Layer2_0_FILL">
<path fill="#C9EE95" stroke="none" d="
M 151.5 76.5
Q 151.5 45.45 129.5 23.45 107.55 1.5 76.5 1.5 45.45 1.5 23.45 23.45 1.5 45.45 1.5 76.5 1.5 107.55 23.45 129.5 45.45 151.5 76.5 151.5 107.55 151.5 129.5 129.5 151.5 107.55 151.5 76.5 Z"/>
</g>

<g id="Layer1_0_MEMBER_0_FILL">
<path fill="#144162" stroke="none" d="
M 358.75 61.35
L 358.65 61.25 157.8 61.25
Q 151.95 61.25 147.1 63.4 139.75 66.6 135.45 73.25 131.25 79.75 131.25 87.5
L 131.25 472.15
Q 131.25 478.15 133.35 482.9 136.55 490.25 143.25 494.55 149.75 498.75 157.5 498.75
L 454.65 498.75
Q 460.5 498.75 465.35 496.65 472.7 493.45 477.05 486.75 481.25 480.25 481.25 472.5
L 481.25 466.45 481.2 466.35 470.3 455.45 470.2 455.45
Q 457.1 462.1 442.8 465.5 428.5 468.95 413.8 468.95 384.2 469 357.75 455.8 331.3 442.6 313.55 418.95 295.8 395.25 290.5 366.2 285.25 337.05 293.55 308.7 301.9 280.3 322 258.65 342.15 237 369.85 226.65 397.55 216.35 426.9 219.5 456.25 222.6 481.1 238.55 481.25 238.7 481.25 238.45
L 481.25 183.85 481.15 183.75 358.8 183.75 358.75 183.7 358.75 61.35 Z"/>
</g>

<g id="Layer1_0_MEMBER_1_FILL">
<path fill="#144162" stroke="none" d="
M 376.35 61.4
Q 376.25 61.3 376.25 61.5
L 376.25 166.2 376.3 166.25 481 166.25
Q 481.2 166.25 481.1 166.15
L 376.35 61.4 Z"/>
</g>

<g id="Layer1_0_MEMBER_2_FILL">
<path fill="#144162" stroke="none" d="
M 451.55 243.2
Q 433.3 236.3 413.8 236.25 396.8 236.25 380.6 241.55 376.45 242.85 371.85 244.75 366.75 246.8 362.45 249.15 357.7 251.75 353.7 254.55 336.4 266.15 324.65 283.6 321.4 288.35 319.2 292.35 316.85 296.85 314.85 301.75 313.1 305.75 311.65 310.5 306.25 326.65 306.25 343.85
L 306.25 349.75
Q 306.6 357.75 308.3 365.75 309.4 371.05 310.9 375.85 313.35 383.75 316.7 390.45 317.65 392.5 319.05 395.1 321.45 399.45 324.45 403.85 327.1 407.8 330.65 412.1 332.5 414.4 334.05 416.05
L 337.3 419.45
Q 338.65 420.85 341.35 423.35 346.9 428.55 353.7 433.15 357.7 435.95 362.45 438.55 366.65 440.9 369.35 442.05 378.05 446.05 387.75 448.4
L 391.6 449.3 392.5 449.3
Q 394.35 449.7 395.4 449.8
L 402 450.75
Q 403.2 450.75 405.55 451.05 405.8 451.15 406.05 451.05
L 413.7 451.05
Q 423.65 451.05 433.7 449.15 437.25 448.45 441.35 447.4 458.25 442.9 472.9 433.2 473 433.1 473 433.2
L 481.25 441.9 531.65 492.35
Q 535.25 495.95 539.95 497.65 544.75 499.45 549.7 498.9 556.4 498.15 561.5 493.75 566.5 489.4 568.25 483 569.75 477.4 568.25 471.8 566.75 466.2 562.65 462.05
L 562.45 462.05 503.55 403.2
Q 503.45 403.1 503.55 403.1 514.25 386.75 518.6 367.8 522.9 348.75 520.3 329.45 517.65 310.15 508.45 292.95 499.2 275.75 484.5 262.9 469.85 250.05 451.55 243.2
M 419.25 266.85
Q 438.85 268.3 455.4 278.9 471.9 289.55 481.3 306.85 490.7 324.1 490.7 343.75 490.65 363.4 481.25 380.65 475.85 390.5 468.1 398.15 454.2 412.05 435.3 417.55 416.45 423.1 397.25 418.9 378.05 414.7 363.2 401.85 348.35 388.95 341.5 370.5 334.65 352.05 337.5 332.65 340.3 313.2 352.1 297.45 363.9 281.75 381.75 273.6 399.65 265.45 419.25 266.85 Z"/>
</g>
</defs>

<g transform="matrix( 1, 0, 0, 1, 0,0) ">
<use xlink:href="#Layer2_0_FILL"/>
</g>

<g transform="matrix( 0.193695068359375, 0, 0, 0.193695068359375, 16.45,22.25) ">
<use xlink:href="#Layer1_0_MEMBER_0_FILL"/>
</g>

<g transform="matrix( 0.193695068359375, 0, 0, 0.193695068359375, 16.45,22.25) ">
<use xlink:href="#Layer1_0_MEMBER_1_FILL"/>
</g>

<g transform="matrix( 0.193695068359375, 0, 0, 0.193695068359375, 16.45,22.25) ">
<use xlink:href="#Layer1_0_MEMBER_2_FILL"/>
</g>
</svg>
