
<svg xmlns="http://www.w3.org/2000/svg" version="1.1" xmlns:xlink="http://www.w3.org/1999/xlink" preserveAspectRatio="none" x="0px" y="0px" width="95px" height="95px" viewBox="0 0 95 95">
<defs>
<g id="Layer1_0_MEMBER_0_FILL">
<path fill="#C9EE95" stroke="none" d="
M 151.5 76.5
Q 151.5 45.45 129.5 23.45 107.55 1.5 76.5 1.5 45.45 1.5 23.45 23.45 1.5 45.45 1.5 76.5 1.5 107.55 23.45 129.5 45.45 151.5 76.5 151.5 107.55 151.5 129.5 129.5 151.5 107.55 151.5 76.5 Z"/>
</g>

<g id="Layer1_0_MEMBER_1_MEMBER_0_FILL">
<path fill="#144162" stroke="none" d="
M 350 173.05
Q 340.7 173.05 334.15 179.6 327.6 186.2 327.6 195.45 327.6 204.75 334.15 211.3 340.7 217.85 350 217.85 359.25 217.85 365.8 211.3 372.35 204.75 372.35 195.45 372.35 186.2 365.8 179.6 359.25 173.05 350 173.05 Z"/>
</g>

<g id="Layer1_0_MEMBER_1_MEMBER_1_FILL">
<path fill="#144162" stroke="none" d="
M 382.8 232.1
Q 375.85 225.15 366.2 225.15
L 333.2 225.15
Q 323.55 225.15 316.6 232.1 309.65 239 309.65 248.65
L 309.65 295.7
Q 309.65 304.1 315 310.55 320.3 316.95 328.7 318.65
L 328.7 370.2
Q 328.7 377.35 333.8 382.45 338.95 387.55 346.05 387.55
L 353.35 387.55
Q 360.5 387.55 365.6 382.45 370.7 377.35 370.7 370.2
L 370.7 318.65
Q 378.8 317 384.2 310.55 389.75 304 389.75 295.7
L 389.75 248.65
Q 389.75 239 382.8 232.1 Z"/>
</g>

<g id="Layer1_0_MEMBER_1_MEMBER_2_FILL">
<path fill="#144162" stroke="none" d="
M 158.85 38.85
Q 154.75 34.75 148.95 34.75 143.15 34.75 139.05 38.85 134.95 42.95 134.95 48.75 134.95 54.55 139.05 58.65 143.15 62.75 148.95 62.75 154.75 62.75 158.85 58.65 162.95 54.55 162.95 48.75 162.95 42.95 158.85 38.85 Z"/>
</g>

<g id="Layer1_0_MEMBER_1_MEMBER_3_FILL">
<path fill="#144162" stroke="none" d="
M 174.15 81.8
Q 173.75 75.55 169.3 71.35 164.95 67.2 159 67.2
L 138.85 67.2
Q 132.95 67.2 128.9 71.35 124.85 75.55 124.85 81.8
L 124.85 110.9
Q 124.85 115.95 128.2 120 131.6 124.1 136.6 124.9
L 136.6 156.25
Q 136.6 160.55 139.6 163.7 142.75 166.9 147.25 166.9
L 151.75 166.9
Q 156.05 166.9 159.2 163.9 162.4 160.75 162.4 156.25
L 162.4 124.9
Q 167.4 124.1 170.8 120 174.15 115.95 174.15 110.9
L 174.15 81.8 Z"/>
</g>

<g id="Layer1_0_MEMBER_1_MEMBER_4_FILL">
<path fill="#144162" stroke="none" d="
M 158.85 183.3
Q 154.75 179.2 148.95 179.2 143.15 179.2 139.05 183.3 134.95 187.4 134.95 193.2 134.95 199 139.05 203.1 143.15 207.2 148.95 207.2 154.75 207.2 158.85 203.1 162.95 199 162.95 193.2 162.95 187.45 158.85 183.3 Z"/>
</g>

<g id="Layer1_0_MEMBER_1_MEMBER_5_FILL">
<path fill="#144162" stroke="none" d="
M 128.9 215.2
Q 124.85 219.25 124.85 225.15
L 124.85 254.25
Q 124.85 259.35 128.2 263.35 131.6 267.45 136.6 268.25
L 136.6 299.65
Q 136.6 303.95 139.6 307.05 142.75 310.25 147.25 310.25
L 151.75 310.25
Q 156.05 310.25 159.2 307.25 162.4 304.15 162.4 299.65
L 162.4 267.7
Q 167.4 266.9 170.8 262.8 174.15 258.75 174.15 253.7
L 174.15 224.6
Q 173.75 219.4 169.3 215.35 164.75 211.15 159 211.15
L 138.85 211.15
Q 132.95 211.15 128.9 215.2 Z"/>
</g>

<g id="Layer1_0_MEMBER_1_MEMBER_6_FILL">
<path fill="#144162" stroke="none" d="
M 158.85 327.25
Q 154.75 323.15 148.95 323.15 143.15 323.15 139.05 327.25 134.95 331.35 134.95 337.15 134.95 342.95 139.05 347.05 143.15 351.15 148.95 351.15 154.75 351.15 158.85 347.05 162.95 342.95 162.95 337.15 162.95 331.35 158.85 327.25 Z"/>
</g>

<g id="Layer1_0_MEMBER_1_MEMBER_7_FILL">
<path fill="#144162" stroke="none" d="
M 128.9 359.7
Q 124.85 363.75 124.85 369.65
L 124.85 398.75
Q 124.85 403.8 128.2 407.85 131.6 411.95 136.6 412.75
L 136.6 444.1
Q 136.6 448.4 139.6 451.55 142.75 454.75 147.25 454.75
L 151.75 454.75
Q 156.05 454.75 159.2 451.75 162.4 448.6 162.4 444.1
L 162.4 412.75
Q 167.4 411.9 170.8 407.85 174.15 403.8 174.15 398.75
L 174.15 369.65
Q 173.75 363.8 169.3 359.7 164.9 355.65 159 355.65
L 138.85 355.65
Q 132.95 355.65 128.9 359.7 Z"/>
</g>

<g id="Layer1_0_MEMBER_1_MEMBER_8_FILL">
<path fill="#144162" stroke="none" d="
M 220.6 119.3
Q 220.6 113.5 216.5 109.4 212.4 105.3 206.6 105.3 200.8 105.3 196.7 109.4 192.6 113.5 192.6 119.3 192.6 125.1 196.7 129.2 200.8 133.3 206.6 133.3 212.4 133.3 216.5 129.2 220.6 125.1 220.6 119.3 Z"/>
</g>

<g id="Layer1_0_MEMBER_1_MEMBER_9_FILL">
<path fill="#144162" stroke="none" d="
M 220.6 407.15
Q 220.6 401.35 216.5 397.25 212.4 393.15 206.6 393.15 200.8 393.15 196.7 397.25 192.6 401.35 192.6 407.15 192.6 412.95 196.7 417.05 200.8 421.15 206.6 421.15 212.4 421.15 216.5 417.05 220.6 412.95 220.6 407.15 Z"/>
</g>

<g id="Layer1_0_MEMBER_1_MEMBER_10_FILL">
<path fill="#144162" stroke="none" d="
M 216.7 425.6
L 216.7 425.65 196.55 425.65
Q 190.65 425.65 186.6 429.7 182.55 433.75 182.55 439.65
L 182.55 468.75
Q 182.55 473.8 185.9 477.85 189.3 481.95 194.3 482.75
L 194.3 514.1
Q 194.3 518.4 197.3 521.55 200.45 524.75 204.95 524.75
L 209.4 524.75
Q 213.7 524.75 216.85 521.75 220.05 518.6 220.05 514.1
L 220.05 482.2
Q 225.1 481.35 228.45 477.3 231.8 473.25 231.8 468.2
L 231.8 439.05
Q 230.95 433.45 226.8 429.6 222.45 425.6 216.7 425.6 Z"/>
</g>

<g id="Layer1_0_MEMBER_1_MEMBER_11_FILL">
<path fill="#144162" stroke="none" d="
M 277.75 48.75
Q 277.75 42.95 273.65 38.85 269.55 34.75 263.75 34.75 257.95 34.75 253.85 38.85 249.75 42.95 249.75 48.75 249.75 54.55 253.85 58.65 257.95 62.75 263.75 62.75 269.55 62.75 273.65 58.65 277.75 54.55 277.75 48.75 Z"/>
</g>

<g id="Layer1_0_MEMBER_1_MEMBER_12_FILL">
<path fill="#144162" stroke="none" d="
M 392.55 48.75
Q 392.55 42.95 388.45 38.85 384.35 34.75 378.55 34.75 372.75 34.75 368.65 38.85 364.55 42.95 364.55 48.75 364.55 54.55 368.65 58.65 372.75 62.75 378.55 62.75 384.35 62.75 388.45 58.65 392.55 54.55 392.55 48.75 Z"/>
</g>

<g id="Layer1_0_MEMBER_1_MEMBER_13_FILL">
<path fill="#144162" stroke="none" d="
M 450.2 119.3
Q 450.2 113.5 446.1 109.4 442 105.3 436.2 105.3 430.4 105.3 426.3 109.4 422.2 113.5 422.2 119.3 422.2 125.1 426.3 129.2 430.4 133.3 436.2 133.3 442 133.3 446.1 129.2 450.2 125.1 450.2 119.3 Z"/>
</g>

<g id="Layer1_0_MEMBER_1_MEMBER_14_FILL">
<path fill="#144162" stroke="none" d="
M 507.35 48.75
Q 507.35 42.95 503.25 38.85 499.15 34.75 493.35 34.75 487.55 34.75 483.45 38.85 479.35 42.95 479.35 48.75 479.35 54.55 483.45 58.65 487.55 62.75 493.35 62.75 499.15 62.75 503.25 58.65 507.35 54.55 507.35 48.75 Z"/>
</g>

<g id="Layer1_0_MEMBER_1_MEMBER_15_FILL">
<path fill="#144162" stroke="none" d="
M 513.85 71.3
Q 509.65 67.2 503.4 67.2
L 483.25 67.2
Q 477.35 67.2 473.3 71.35 469.25 75.55 469.25 81.8
L 469.25 110.9
Q 469.25 115.65 472.35 119.5 475.55 123.5 480.45 124.35
L 480.45 155.7
Q 480.45 160 483.45 163.15 486.6 166.35 491.1 166.35
L 495.6 166.35
Q 499.9 166.35 503 163.35 506.2 160.2 506.2 155.7
L 506.2 124.35
Q 511.25 123.5 514.65 119.45 518 115.4 518 110.35
L 518 81.2
Q 518 75.3 513.85 71.3 Z"/>
</g>

<g id="Layer1_0_MEMBER_1_MEMBER_16_FILL">
<path fill="#144162" stroke="none" d="
M 565 119.3
Q 565 113.5 560.9 109.4 556.8 105.3 551 105.3 545.2 105.3 541.1 109.4 537 113.5 537 119.3 537 125.1 541.1 129.2 545.2 133.3 551 133.3 556.8 133.3 560.9 129.2 565 125.1 565 119.3 Z"/>
</g>

<g id="Layer1_0_MEMBER_1_MEMBER_17_FILL">
<path fill="#144162" stroke="none" d="
M 540.95 137.2
Q 535.05 137.2 531 141.3 526.95 145.35 526.95 151.2
L 526.95 180.35
Q 526.95 185.4 530.3 189.45 533.65 193.5 538.7 194.35
L 538.7 225.7
Q 538.7 230 541.7 233.15 544.85 236.35 549.35 236.35
L 553.8 236.35
Q 558.1 236.35 561.25 233.35 564.45 230.2 564.45 225.7
L 564.45 193.8
Q 569.5 192.95 572.85 188.9 576.2 184.85 576.2 179.8
L 576.2 150.65
Q 575.35 145.35 571.2 141.4 566.75 137.2 561.1 137.2
L 540.95 137.2 Z"/>
</g>

<g id="Layer1_0_MEMBER_1_MEMBER_18_FILL">
<path fill="#144162" stroke="none" d="
M 565 263.25
Q 565 257.45 560.9 253.35 556.8 249.25 551 249.25 545.2 249.25 541.1 253.35 537 257.45 537 263.25 537 269.05 541.1 273.15 545.25 277.25 551 277.25 556.8 277.25 560.9 273.15 565 269.05 565 263.25 Z"/>
</g>

<g id="Layer1_0_MEMBER_1_MEMBER_19_FILL">
<path fill="#144162" stroke="none" d="
M 576.2 295.7
Q 575.35 289.7 571.2 285.75 566.9 281.7 561.1 281.7
L 540.95 281.7
Q 535.05 281.7 531 285.75 526.95 289.8 526.95 295.7
L 526.95 324.85
Q 526.95 329.9 530.3 333.95 533.65 338 538.7 338.85
L 538.7 370.2
Q 538.7 374.5 541.7 377.65 544.85 380.85 549.35 380.85
L 553.8 380.85
Q 558.1 380.85 561.25 377.85 564.45 374.7 564.45 370.2
L 564.45 338.85
Q 569.5 338 572.85 333.95 576.2 329.9 576.2 324.85
L 576.2 295.7 Z"/>
</g>

<g id="Layer1_0_MEMBER_1_MEMBER_20_FILL">
<path fill="#144162" stroke="none" d="
M 565 407.15
Q 565 401.35 560.9 397.25 556.8 393.15 551 393.15 545.2 393.15 541.1 397.25 537 401.35 537 407.15 537 412.95 541.1 417.05 545.2 421.15 551 421.15 556.8 421.15 560.9 417.05 565 412.95 565 407.15 Z"/>
</g>

<g id="Layer1_0_MEMBER_1_MEMBER_21_FILL">
<path fill="#144162" stroke="none" d="
M 503.3 183.3
Q 499.2 179.25 493.35 179.25 489.55 179.25 484.95 182.05 494.05 193.85 499.5 205.55 503 203.8 505.1 200.65 507.35 197.3 507.35 193.25 507.35 187.35 503.3 183.3 Z"/>
</g>

<g id="Layer1_0_MEMBER_1_MEMBER_22_FILL">
<path fill="#144162" stroke="none" d="
M 358.5 71.95
Q 354.45 76.1 354.45 82.35
L 354.45 113.7
Q 375.9 112.95 399.25 120.45 403.2 115.45 403.2 110.9
L 403.2 81.8
Q 403.2 75.9 399.05 71.85 394.85 67.8 388.6 67.8
L 368.45 67.8
Q 362.5 67.8 358.5 71.95 Z"/>
</g>

<g id="Layer1_0_MEMBER_1_MEMBER_23_FILL">
<path fill="#144162" stroke="none" d="
M 456.2 141.85
Q 452 137.8 445.75 137.8
L 436.8 137.8
Q 446.5 142.95 460.3 154.6
L 460.3 151.8
Q 460.3 145.85 456.2 141.85 Z"/>
</g>

<g id="Layer1_0_MEMBER_1_MEMBER_24_FILL">
<path fill="#144162" stroke="none" d="
M 503.4 211.15
L 502.3 211.15
Q 512.9 233.9 516.3 261 517.2 259.2 517.55 257.85 517.95 256.25 517.95 254.25
L 517.95 225.15
Q 517.95 219.2 513.85 215.2 509.65 211.15 503.4 211.15 Z"/>
</g>

<g id="Layer1_0_MEMBER_1_MEMBER_25_FILL">
<path fill="#144162" stroke="none" d="
M 333.75 113.7
Q 332.05 109.9 328.55 107.6 325.05 105.3 320.85 105.3 315.35 105.3 311.3 109 307.25 112.75 306.85 118.2 321.85 114.45 333.75 113.7 Z"/>
</g>

<g id="Layer1_0_MEMBER_1_MEMBER_26_FILL">
<path fill="#144162" stroke="none" d="
M 296.8 438.5
L 296.75 438.5 296.75 468.75
Q 296.75 473.8 300.1 477.85 303.5 481.95 308.55 482.75
L 308.55 514.1
Q 308.55 518.4 311.55 521.55 314.65 524.75 319.2 524.75
L 323.65 524.75
Q 327.95 524.75 331.1 521.75 334.3 518.6 334.3 514.1
L 334.3 482.2
Q 339.3 481.35 342.7 477.3 346.05 473.25 346.05 468.2
L 346.05 446.35
Q 323.35 447.05 296.8 438.5 Z"/>
</g>

<g id="Layer1_0_MEMBER_1_MEMBER_27_FILL">
<path fill="#144162" stroke="none" d="
M 253.65 67.2
Q 247.75 67.2 243.7 71.35 239.65 75.55 239.65 81.8
L 239.65 110.9
Q 239.65 115.65 242.75 119.5 245.95 123.5 250.85 124.35
L 250.85 145.05
Q 260.8 137.25 276.6 129.4
L 276.6 124.35
Q 281.65 123.5 285.05 119.45 288.4 115.4 288.4 110.35
L 288.4 81.2
Q 288.4 75.3 284.25 71.3 280.05 67.2 273.8 67.2
L 253.65 67.2 Z"/>
</g>

<g id="Layer1_0_MEMBER_1_MEMBER_28_FILL">
<path fill="#144162" stroke="none" d="
M 263.5 423.25
Q 259.25 420.6 250.85 415
L 250.85 444.65
Q 250.85 448.95 253.85 452.1 257 455.3 261.5 455.3
L 266 455.3
Q 270.3 455.3 273.4 452.3 276.6 449.2 276.6 444.65
L 276.6 430.65
Q 270.65 427.7 263.5 423.25 Z"/>
</g>

<g id="Layer1_0_MEMBER_1_MEMBER_29_FILL">
<path fill="#144162" stroke="none" d="
M 226.6 141.85
Q 222.4 137.8 216.15 137.8
L 196 137.8
Q 190.1 137.8 186.05 141.85 182 145.9 182 151.8
L 182 180.9
Q 181.95 185.9 185.35 189.8 188.6 193.6 193.75 194.9
L 193.75 220.65
Q 206.2 188.35 230.7 163
L 230.7 151.8
Q 230.7 145.85 226.6 141.85 Z"/>
</g>

<g id="Layer1_0_MEMBER_1_MEMBER_30_FILL">
<path fill="#144162" stroke="none" d="
M 183.1 290.65
Q 181.95 294.2 181.95 295.7
L 181.95 324.85
Q 181.95 329.85 185.05 333.75 188.1 337.6 193.15 338.85 184.75 315.95 183.1 290.65 Z"/>
</g>

<g id="Layer1_0_MEMBER_1_MEMBER_31_FILL">
<path fill="#144162" stroke="none" d="
M 193.75 370.2
Q 193.75 374.5 196.75 377.65 199.85 380.85 204.4 380.85
L 208.85 380.85
Q 212.75 380.85 215 378.6 201.35 360.7 193.75 339.4
L 193.75 370.2 Z"/>
</g>

<g id="Layer1_0_MEMBER_1_MEMBER_32_FILL">
<path fill="#144162" stroke="none" d="
M 575.65 439.6
Q 575.65 433.7 571.55 429.7 567.35 425.6 561.1 425.6
L 540.95 425.6
Q 535.05 425.6 531 429.7 526.95 433.75 526.95 439.6
L 526.95 448.6 563.9 486.1 563.9 482.75
Q 568.9 481.9 572.3 477.85 575.65 473.8 575.65 468.75
L 575.65 439.6 Z"/>
</g>

<g id="Layer1_0_MEMBER_1_MEMBER_33_FILL">
<path fill="#144162" stroke="none" d="
M 503.4 355.65
L 498.95 355.65
Q 486.8 378.95 471.5 394.25
L 506.2 428.4 506.2 412.2
Q 511.25 411.35 514.65 407.3 518 403.25 518 398.2
L 518 369.65
Q 518 363.75 513.85 359.7 509.65 355.65 503.4 355.65 Z"/>
</g>

<g id="Layer1_0_MEMBER_1_MEMBER_34_FILL">
<path fill="#144162" stroke="none" d="
M 460.85 438.5
L 446.85 425.65 425.55 425.65
Q 419.7 425.65 415.65 429.7 411.55 433.75 411.55 439.65
L 411.55 468.75
Q 411.55 473.8 414.9 477.85 418.3 481.95 423.35 482.75
L 423.35 514.1
Q 423.35 518.4 426.35 521.55 429.45 524.75 434 524.75
L 438.45 524.75
Q 442.75 524.75 445.9 521.75 449.1 518.6 449.1 514.1
L 449.1 482.2
Q 454.1 481.35 457.5 477.3 460.85 473.25 460.85 468.2
L 460.85 438.5 Z"/>
</g>

<g id="Layer1_0_MEMBER_1_MEMBER_35_FILL">
<path fill="#144162" stroke="none" d="
M 463.25 166.75
Q 441.05 144.6 412.3 132.45 382.55 119.85 349.95 119.85 317.35 119.85 287.6 132.45 258.85 144.6 236.7 166.75 214.55 188.95 202.4 217.7 189.8 247.45 189.8 280.05 189.8 312.65 202.4 342.4 214.55 371.15 236.7 393.3 258.85 415.45 287.6 427.6 317.35 440.2 349.95 440.2 375.3 440.2 399.05 432.55 422.25 425.1 441.8 411.05
L 549.35 518.6
Q 553.25 522.5 559.4 522.5 562.15 522.5 564.65 521.6 567.5 520.6 569.5 518.6 572.85 515.2 573.2 510.35 573.55 505.4 570.6 501.25
L 463.1 393.7
Q 485.3 371.5 497.55 342.55 510.15 312.65 510.15 280.05 510.15 247.45 497.55 217.7 485.4 188.95 463.25 166.75
M 350 147.85
Q 376.8 147.85 401.35 158.25 425.05 168.3 443.4 186.65 461.7 204.95 471.75 228.65 482.15 253.2 482.15 280 482.15 306.85 471.75 331.4 461.7 355.1 443.4 373.4 425.05 391.75 401.35 401.8 376.8 412.2 350 412.2 323.15 412.2 298.6 401.8 274.9 391.75 256.6 373.4 238.25 355.1 228.2 331.4 217.8 306.85 217.8 280 217.8 253.2 228.2 228.65 238.25 204.95 256.6 186.65 274.9 168.3 298.6 158.25 323.15 147.85 350 147.85 Z"/>
</g>
</defs>

<g transform="matrix( 0.633331298828125, 0, 0, 0.633331298828125, -0.95,-0.95) ">
<use xlink:href="#Layer1_0_MEMBER_0_FILL"/>
</g>

<g transform="matrix( 0.13592529296875, 0, 0, 0.136016845703125, -0.15,9.45) ">
<use xlink:href="#Layer1_0_MEMBER_1_MEMBER_0_FILL"/>
</g>

<g transform="matrix( 0.13592529296875, 0, 0, 0.136016845703125, -0.15,9.45) ">
<use xlink:href="#Layer1_0_MEMBER_1_MEMBER_1_FILL"/>
</g>

<g transform="matrix( 0.13592529296875, 0, 0, 0.136016845703125, -0.15,9.45) ">
<use xlink:href="#Layer1_0_MEMBER_1_MEMBER_2_FILL"/>
</g>

<g transform="matrix( 0.13592529296875, 0, 0, 0.136016845703125, -0.15,9.45) ">
<use xlink:href="#Layer1_0_MEMBER_1_MEMBER_3_FILL"/>
</g>

<g transform="matrix( 0.13592529296875, 0, 0, 0.136016845703125, -0.15,9.45) ">
<use xlink:href="#Layer1_0_MEMBER_1_MEMBER_4_FILL"/>
</g>

<g transform="matrix( 0.13592529296875, 0, 0, 0.136016845703125, -0.15,9.45) ">
<use xlink:href="#Layer1_0_MEMBER_1_MEMBER_5_FILL"/>
</g>

<g transform="matrix( 0.13592529296875, 0, 0, 0.136016845703125, -0.15,9.45) ">
<use xlink:href="#Layer1_0_MEMBER_1_MEMBER_6_FILL"/>
</g>

<g transform="matrix( 0.13592529296875, 0, 0, 0.136016845703125, -0.15,9.45) ">
<use xlink:href="#Layer1_0_MEMBER_1_MEMBER_7_FILL"/>
</g>

<g transform="matrix( 0.13592529296875, 0, 0, 0.136016845703125, -0.15,9.45) ">
<use xlink:href="#Layer1_0_MEMBER_1_MEMBER_8_FILL"/>
</g>

<g transform="matrix( 0.13592529296875, 0, 0, 0.136016845703125, -0.15,9.45) ">
<use xlink:href="#Layer1_0_MEMBER_1_MEMBER_9_FILL"/>
</g>

<g transform="matrix( 0.13592529296875, 0, 0, 0.136016845703125, -0.15,9.45) ">
<use xlink:href="#Layer1_0_MEMBER_1_MEMBER_10_FILL"/>
</g>

<g transform="matrix( 0.13592529296875, 0, 0, 0.136016845703125, -0.15,9.45) ">
<use xlink:href="#Layer1_0_MEMBER_1_MEMBER_11_FILL"/>
</g>

<g transform="matrix( 0.13592529296875, 0, 0, 0.136016845703125, -0.15,9.45) ">
<use xlink:href="#Layer1_0_MEMBER_1_MEMBER_12_FILL"/>
</g>

<g transform="matrix( 0.13592529296875, 0, 0, 0.136016845703125, -0.15,9.45) ">
<use xlink:href="#Layer1_0_MEMBER_1_MEMBER_13_FILL"/>
</g>

<g transform="matrix( 0.13592529296875, 0, 0, 0.136016845703125, -0.15,9.45) ">
<use xlink:href="#Layer1_0_MEMBER_1_MEMBER_14_FILL"/>
</g>

<g transform="matrix( 0.13592529296875, 0, 0, 0.136016845703125, -0.15,9.45) ">
<use xlink:href="#Layer1_0_MEMBER_1_MEMBER_15_FILL"/>
</g>

<g transform="matrix( 0.13592529296875, 0, 0, 0.136016845703125, -0.15,9.45) ">
<use xlink:href="#Layer1_0_MEMBER_1_MEMBER_16_FILL"/>
</g>

<g transform="matrix( 0.13592529296875, 0, 0, 0.136016845703125, -0.15,9.45) ">
<use xlink:href="#Layer1_0_MEMBER_1_MEMBER_17_FILL"/>
</g>

<g transform="matrix( 0.13592529296875, 0, 0, 0.136016845703125, -0.15,9.45) ">
<use xlink:href="#Layer1_0_MEMBER_1_MEMBER_18_FILL"/>
</g>

<g transform="matrix( 0.13592529296875, 0, 0, 0.136016845703125, -0.15,9.45) ">
<use xlink:href="#Layer1_0_MEMBER_1_MEMBER_19_FILL"/>
</g>

<g transform="matrix( 0.13592529296875, 0, 0, 0.136016845703125, -0.15,9.45) ">
<use xlink:href="#Layer1_0_MEMBER_1_MEMBER_20_FILL"/>
</g>

<g transform="matrix( 0.13592529296875, 0, 0, 0.136016845703125, -0.15,9.45) ">
<use xlink:href="#Layer1_0_MEMBER_1_MEMBER_21_FILL"/>
</g>

<g transform="matrix( 0.13592529296875, 0, 0, 0.136016845703125, -0.15,9.45) ">
<use xlink:href="#Layer1_0_MEMBER_1_MEMBER_22_FILL"/>
</g>

<g transform="matrix( 0.13592529296875, 0, 0, 0.136016845703125, -0.15,9.45) ">
<use xlink:href="#Layer1_0_MEMBER_1_MEMBER_23_FILL"/>
</g>

<g transform="matrix( 0.13592529296875, 0, 0, 0.136016845703125, -0.15,9.45) ">
<use xlink:href="#Layer1_0_MEMBER_1_MEMBER_24_FILL"/>
</g>

<g transform="matrix( 0.13592529296875, 0, 0, 0.136016845703125, -0.15,9.45) ">
<use xlink:href="#Layer1_0_MEMBER_1_MEMBER_25_FILL"/>
</g>

<g transform="matrix( 0.13592529296875, 0, 0, 0.136016845703125, -0.15,9.45) ">
<use xlink:href="#Layer1_0_MEMBER_1_MEMBER_26_FILL"/>
</g>

<g transform="matrix( 0.13592529296875, 0, 0, 0.136016845703125, -0.15,9.45) ">
<use xlink:href="#Layer1_0_MEMBER_1_MEMBER_27_FILL"/>
</g>

<g transform="matrix( 0.13592529296875, 0, 0, 0.136016845703125, -0.15,9.45) ">
<use xlink:href="#Layer1_0_MEMBER_1_MEMBER_28_FILL"/>
</g>

<g transform="matrix( 0.13592529296875, 0, 0, 0.136016845703125, -0.15,9.45) ">
<use xlink:href="#Layer1_0_MEMBER_1_MEMBER_29_FILL"/>
</g>

<g transform="matrix( 0.13592529296875, 0, 0, 0.136016845703125, -0.15,9.45) ">
<use xlink:href="#Layer1_0_MEMBER_1_MEMBER_30_FILL"/>
</g>

<g transform="matrix( 0.13592529296875, 0, 0, 0.136016845703125, -0.15,9.45) ">
<use xlink:href="#Layer1_0_MEMBER_1_MEMBER_31_FILL"/>
</g>

<g transform="matrix( 0.13592529296875, 0, 0, 0.136016845703125, -0.15,9.45) ">
<use xlink:href="#Layer1_0_MEMBER_1_MEMBER_32_FILL"/>
</g>

<g transform="matrix( 0.13592529296875, 0, 0, 0.136016845703125, -0.15,9.45) ">
<use xlink:href="#Layer1_0_MEMBER_1_MEMBER_33_FILL"/>
</g>

<g transform="matrix( 0.13592529296875, 0, 0, 0.136016845703125, -0.15,9.45) ">
<use xlink:href="#Layer1_0_MEMBER_1_MEMBER_34_FILL"/>
</g>

<g transform="matrix( 0.13592529296875, 0, 0, 0.136016845703125, -0.15,9.45) ">
<use xlink:href="#Layer1_0_MEMBER_1_MEMBER_35_FILL"/>
</g>
</svg>
