<?xml version="1.0" encoding="utf-8"?>
<!-- Generator: Adobe Illustrator 24.3.0, SVG Export Plug-In . SVG Version: 6.00 Build 0)  -->
<svg version="1.1" id="Camada_1" xmlns="http://www.w3.org/2000/svg" xmlns:xlink="http://www.w3.org/1999/xlink" x="0px" y="0px"
	 viewBox="0 0 100 100" style="enable-background:new 0 0 100 100;" xml:space="preserve">
<style type="text/css">
	.st0{fill:#0C486C;}
	.st1{fill:none;stroke:#0C486C;stroke-width:2.5896;stroke-miterlimit:10;}
	.st2{fill:#CFF09F;}
</style>
<g>
	<path class="st0" d="M40.7,40.2c-0.3,0-0.7-0.1-0.9-0.4c-0.6-0.7-1.1-1.5-1.5-2.3c0,0,0,0,0-0.1c-1.4-3.3-1.1-7,0.8-10
		c1.9-3,5.2-4.8,8.8-4.8s6.9,1.7,8.9,4.7c2,2.9,2.4,6.7,1,10c0,0,0,0,0,0.1c-0.4,0.8-0.9,1.6-1.5,2.4c-0.4,0.5-1.2,0.6-1.7,0.1
		c-0.5-0.4-0.6-1.2-0.1-1.7c0.4-0.6,0.8-1.2,1.1-1.9c1-2.5,0.7-5.4-0.8-7.7c-1.5-2.3-4.1-3.6-6.8-3.6c-2.7,0-5.3,1.4-6.8,3.7
		c-1.5,2.3-1.7,5.2-0.7,7.7c0.3,0.6,0.7,1.2,1.1,1.8c0.3,0.4,0.4,0.9,0.2,1.3C41.6,39.9,41.2,40.2,40.7,40.2L40.7,40.2z M41.6,45.9
		L41.6,45.9c0.3-0.6,0.1-1.3-0.5-1.7c-1.1-0.6-2.7-2.4-3.2-3v0c-1.8-2.3-2.8-5.1-2.8-8c0-4,1.9-7.9,5.1-10.3
		c3.2-2.4,7.4-3.2,11.3-2.1c3.9,1.1,7,4,8.5,7.8c1.4,3.8,1,8-1.1,11.4c-0.4,0.6-0.2,1.3,0.4,1.7c0.6,0.4,1.3,0.2,1.7-0.4
		c2-3.2,2.8-7,2.2-10.7c-0.6-3.7-2.6-7.1-5.5-9.4c-2.9-2.4-6.6-3.5-10.4-3.3c-3.8,0.2-7.3,1.8-10,4.5c-2.7,2.7-4.2,6.2-4.5,10
		c-0.2,3.8,1,7.5,3.3,10.4c0.2,0.3,2.1,2.6,3.9,3.6c0.3,0.2,0.6,0.2,0.9,0.1C41.2,46.4,41.4,46.1,41.6,45.9L41.6,45.9z M35.7,47.4
		c0.2-0.2,0.4-0.5,0.3-0.9c0-0.3-0.1-0.6-0.4-0.9c-3.1-3.1-5-7.3-5.2-11.7c-0.2-4.4,1.2-8.7,4.1-12.1c2.8-3.4,6.8-5.6,11.2-6.2
		c4.4-0.6,8.8,0.5,12.4,3.1c3.6,2.5,6.1,6.3,7,10.7c0.9,4.3,0.2,8.8-2,12.6C63,42.4,62.9,42.7,63,43c0.1,0.3,0.3,0.6,0.6,0.7
		c0.6,0.3,1.3,0.2,1.7-0.4c2.6-4.3,3.4-9.5,2.3-14.4c-1.1-4.9-3.9-9.2-8-12.1c-4.1-2.9-9.1-4.1-14.1-3.5c-5,0.7-9.5,3.2-12.8,7
		c-3.2,3.9-4.9,8.8-4.6,13.8c0.2,5,2.4,9.8,6,13.3c0.2,0.2,0.5,0.4,0.9,0.3C35.2,47.8,35.5,47.7,35.7,47.4L35.7,47.4z M67.8,51
		l0,11.1c0,4.7-3,12.7-14.2,12.7c-10.1,0-15.6-13.1-18.2-19.4l-0.2-0.5l0,0c-0.4-0.9-0.5-2-0.2-3c0.3-1,1-1.8,1.9-2.3
		c0.9-0.5,2-0.6,3.1-0.4c1,0.3,1.9,0.9,2.5,1.8c0,0,0,0,0,0l1.5,2.3l0-20.1h0c0-1.1,0.4-2.2,1.2-3c0.7-0.6,1.7-1,2.7-1h0h0
		c1,0,1.9,0.3,2.7,1c0.8,0.8,1.3,1.8,1.2,3v9.4c1.9-0.7,4.3,0,5.2,2c0.5-0.2,1.1-0.4,1.7-0.4c0.9,0,1.8,0.3,2.5,0.9
		c0.7,0.6,1.2,1.4,1.3,2.3c0.5-0.2,1-0.3,1.5-0.3C65.8,47.3,67.8,48.5,67.8,51L67.8,51z M65.3,51c0-1.2-1.2-1.3-1.4-1.3
		s-1.4,0.1-1.4,1.3c0,0,0,0.1,0,0.1l0,4.7c0,0.7-0.5,1.2-1.2,1.2h0c-0.7,0-1.2-0.5-1.2-1.2l0-7.7h0c0-0.1,0-0.1,0-0.2
		c-0.1-0.7-0.8-1.2-1.5-1.2c-0.7,0.1-1.3,0.7-1.3,1.4c0,0,0,0.1,0,0.1l0,5.5h0c0,0.7-0.5,1.2-1.2,1.2h0c-0.7,0-1.2-0.5-1.2-1.2
		l0-5.7c0-0.1,0-0.1,0-0.2v-1.8c0-1.2-1.3-1.3-1.5-1.3c-0.3,0-1.5,0.1-1.5,1.3v5.2c0,0.7-0.5,1.2-1.2,1.2c-0.7,0-1.2-0.5-1.2-1.2
		V33.3c0-0.4-0.1-0.8-0.4-1.1c-0.3-0.3-0.7-0.4-1.1-0.4h0c-0.4,0-0.8,0.1-1.1,0.4c-0.3,0.3-0.4,0.7-0.4,1.1l0,24.3
		c0,0.5-0.4,1-0.9,1.2c-0.5,0.2-1.1-0.1-1.4-0.5l-3.7-5.8c-0.3-0.6-0.9-0.9-1.6-0.9c-0.3,0-0.6,0.1-0.8,0.2c-0.4,0.2-0.7,0.6-0.8,1
		c-0.1,0.4-0.1,0.9,0.2,1.2l0.2,0.5c2.4,5.8,7.5,17.9,16,17.9c11.5,0,11.8-9.2,11.8-10.3L65.3,51z"/>
</g>
<circle class="st1" cx="49" cy="44.2" r="37.2"/>
<path class="st0" d="M81.5,93.7h-63c-3.8,0-6.8-3.1-6.8-6.8v0c0-3.8,3.1-6.8,6.8-6.8h63c3.8,0,6.8,3.1,6.8,6.8v0
	C88.3,90.6,85.3,93.7,81.5,93.7z"/>
<g>
	<path class="st2" d="M34.3,89.6h3.2v1.6h-5.3v-8.7h2V89.6z"/>
	<path class="st2" d="M42.5,91.2h-2v-8.7h2V91.2z"/>
	<path class="st2" d="M47.2,82.5c0.1,0,0.1,0,0.2,0c0,0,0.1,0.1,0.1,0.1s0.1,0.1,0.1,0.2l4.2,5.2c0-0.2,0-0.3,0-0.5s0-0.3,0-0.4
		v-4.6h1.8v8.7h-1.1c-0.2,0-0.3,0-0.4-0.1c-0.1,0-0.2-0.1-0.3-0.3l-4.1-5.2c0,0.2,0,0.3,0,0.4c0,0.1,0,0.3,0,0.4v4.7h-1.8v-8.7H47
		C47.1,82.4,47.2,82.4,47.2,82.5z"/>
	<path class="st2" d="M58.8,86h0.3c0.3,0,0.5-0.1,0.6-0.3l2-2.9c0.1-0.2,0.2-0.3,0.4-0.3c0.1-0.1,0.3-0.1,0.5-0.1h1.8L61.8,86
		c-0.1,0.1-0.2,0.2-0.3,0.3s-0.2,0.2-0.3,0.2c0.2,0.1,0.3,0.1,0.4,0.2s0.2,0.2,0.3,0.4l2.6,4.1h-1.8c-0.1,0-0.2,0-0.3,0
		c-0.1,0-0.2,0-0.2-0.1c-0.1,0-0.1-0.1-0.2-0.1s-0.1-0.1-0.1-0.2l-2-3c-0.1-0.1-0.2-0.2-0.3-0.2c-0.1,0-0.3-0.1-0.4-0.1h-0.5v3.7h-2
		v-8.7h2V86z"/>
</g>
</svg>
