<?xml version="1.0" encoding="utf-8"?>
<!-- Generator: Adobe Illustrator 24.3.0, SVG Export Plug-In . SVG Version: 6.00 Build 0)  -->
<svg version="1.1" id="Camada_1" xmlns="http://www.w3.org/2000/svg" xmlns:xlink="http://www.w3.org/1999/xlink" x="0px" y="0px"
	 viewBox="0 0 143 48.5" style="enable-background:new 0 0 143 48.5;" xml:space="preserve">
<style type="text/css">
	.st0{fill:#CFF09F;}
	.st1{fill:#0C486C;}
</style>
<g>
	<path class="st0" d="M128.2,39.5H23.7c-8.2,0-14.9-6.7-14.9-14.9v0c0-8.2,6.7-14.9,14.9-14.9h104.5c8.2,0,14.9,6.7,14.9,14.9v0
		C143.1,32.8,136.4,39.5,128.2,39.5z"/>
	<circle class="st0" cx="24.4" cy="24.2" r="24.1"/>
	<g>
		<path class="st1" d="M36.5,26.5c-0.5,0-0.9,0.5-0.9,0.9v6.1c0,1.1-0.7,1.9-1.6,1.9H14.8c-0.9,0-1.6-0.9-1.6-1.9v-6.1
			c0-0.5-0.5-0.9-0.9-0.9c-0.5,0-0.9,0.5-0.9,0.9l0,6.1c0,2.2,1.6,3.9,3.5,3.9h19c1.9,0,3.5-1.7,3.5-3.9v-6.1
			C37.5,27,37,26.5,36.5,26.5L36.5,26.5z"/>
		<path class="st1" d="M23.4,31.5c0.2,0.2,0.5,0.4,0.8,0.4c0.2,0,0.5-0.1,0.7-0.3l6.6-6.6c0.4-0.4,0.4-1,0-1.4c-0.4-0.4-1-0.4-1.4,0
			l-5,5V12c0-0.5-0.5-0.9-0.9-0.9c-0.5,0-0.9,0.5-0.9,0.9v16.6l-5.1-5.1c-0.4-0.4-1-0.4-1.4,0c-0.4,0.4-0.4,1,0,1.4L23.4,31.5z"/>
	</g>
	<g>
		<path class="st1" d="M62.5,24.7c0,0.6-0.1,1.2-0.3,1.8c-0.2,0.5-0.5,1-0.9,1.4c-0.4,0.4-0.8,0.7-1.4,0.9S58.7,29,58.1,29h-3.3
			v-8.7h3.3c0.7,0,1.3,0.1,1.8,0.3s1,0.5,1.4,0.9s0.7,0.8,0.9,1.4C62.4,23.5,62.5,24.1,62.5,24.7z M60.8,24.7c0-0.5-0.1-0.9-0.2-1.3
			s-0.3-0.7-0.5-1c-0.2-0.3-0.5-0.5-0.9-0.6c-0.3-0.1-0.7-0.2-1.1-0.2h-1.7v6.1h1.7c0.4,0,0.8-0.1,1.1-0.2c0.3-0.1,0.6-0.3,0.9-0.6
			c0.2-0.3,0.4-0.6,0.5-1S60.8,25.2,60.8,24.7z"/>
		<path class="st1" d="M72.1,24.7c0,0.6-0.1,1.2-0.3,1.8s-0.5,1-0.9,1.4c-0.4,0.4-0.8,0.7-1.4,0.9c-0.5,0.2-1.1,0.3-1.8,0.3
			c-0.7,0-1.3-0.1-1.8-0.3c-0.5-0.2-1-0.5-1.4-0.9c-0.4-0.4-0.7-0.9-0.9-1.4s-0.3-1.1-0.3-1.8c0-0.6,0.1-1.2,0.3-1.8s0.5-1,0.9-1.4
			c0.4-0.4,0.8-0.7,1.4-0.9s1.1-0.3,1.8-0.3c0.7,0,1.3,0.1,1.8,0.3s1,0.5,1.4,0.9c0.4,0.4,0.7,0.9,0.9,1.4S72.1,24.1,72.1,24.7z
			 M70.4,24.7c0-0.5-0.1-0.9-0.2-1.3s-0.3-0.7-0.5-1c-0.2-0.3-0.5-0.5-0.9-0.6s-0.7-0.2-1.1-0.2s-0.8,0.1-1.1,0.2s-0.6,0.3-0.9,0.6
			s-0.4,0.6-0.5,1s-0.2,0.8-0.2,1.3s0.1,0.9,0.2,1.3s0.3,0.7,0.5,1c0.2,0.3,0.5,0.5,0.9,0.6c0.3,0.1,0.7,0.2,1.1,0.2
			s0.8-0.1,1.1-0.2c0.3-0.1,0.6-0.3,0.9-0.6c0.2-0.3,0.4-0.6,0.5-1S70.4,25.2,70.4,24.7z"/>
		<path class="st1" d="M72.5,20.4h1.4c0.1,0,0.3,0,0.4,0.1c0.1,0.1,0.2,0.2,0.2,0.3l1.5,5.2c0,0.1,0.1,0.3,0.1,0.4s0.1,0.3,0.1,0.5
			c0-0.2,0.1-0.3,0.1-0.5s0.1-0.3,0.1-0.4l1.7-5.2c0-0.1,0.1-0.2,0.2-0.3c0.1-0.1,0.2-0.1,0.3-0.1H79c0.1,0,0.3,0,0.3,0.1
			s0.2,0.2,0.2,0.3l1.7,5.2c0.1,0.3,0.2,0.5,0.2,0.9c0-0.2,0.1-0.3,0.1-0.4c0-0.1,0.1-0.3,0.1-0.4l1.5-5.2c0-0.1,0.1-0.2,0.2-0.3
			c0.1-0.1,0.2-0.1,0.3-0.1h1.3L82.2,29h-1.5l-1.9-5.9c0-0.1,0-0.2-0.1-0.2c0-0.1-0.1-0.2-0.1-0.3c0,0.1,0,0.2-0.1,0.3
			s-0.1,0.2-0.1,0.2L76.7,29h-1.5L72.5,20.4z"/>
		<path class="st1" d="M86.9,20.4c0,0,0.1,0,0.1,0s0.1,0,0.1,0.1c0,0,0.1,0.1,0.1,0.1l4.6,5.8c0-0.1,0-0.3,0-0.4c0-0.1,0-0.3,0-0.4
			v-5.3h1.4V29h-0.8c-0.1,0-0.2,0-0.3-0.1s-0.2-0.1-0.2-0.2L87.3,23c0,0.1,0,0.3,0,0.4s0,0.2,0,0.3V29h-1.4v-8.7h0.8
			C86.8,20.4,86.9,20.4,86.9,20.4z"/>
		<path class="st1" d="M96.6,27.7h3.5V29H95v-8.7h1.6V27.7z"/>
		<path class="st1" d="M109,24.7c0,0.6-0.1,1.2-0.3,1.8s-0.5,1-0.9,1.4c-0.4,0.4-0.8,0.7-1.4,0.9c-0.5,0.2-1.1,0.3-1.8,0.3
			c-0.7,0-1.3-0.1-1.8-0.3c-0.5-0.2-1-0.5-1.4-0.9c-0.4-0.4-0.7-0.9-0.9-1.4s-0.3-1.1-0.3-1.8c0-0.6,0.1-1.2,0.3-1.8s0.5-1,0.9-1.4
			c0.4-0.4,0.8-0.7,1.4-0.9s1.1-0.3,1.8-0.3c0.7,0,1.3,0.1,1.8,0.3s1,0.5,1.4,0.9c0.4,0.4,0.7,0.9,0.9,1.4S109,24.1,109,24.7z
			 M107.3,24.7c0-0.5-0.1-0.9-0.2-1.3s-0.3-0.7-0.5-1c-0.2-0.3-0.5-0.5-0.9-0.6s-0.7-0.2-1.1-0.2s-0.8,0.1-1.1,0.2s-0.6,0.3-0.9,0.6
			s-0.4,0.6-0.5,1s-0.2,0.8-0.2,1.3s0.1,0.9,0.2,1.3s0.3,0.7,0.5,1c0.2,0.3,0.5,0.5,0.9,0.6c0.3,0.1,0.7,0.2,1.1,0.2
			s0.8-0.1,1.1-0.2c0.3-0.1,0.6-0.3,0.9-0.6c0.2-0.3,0.4-0.6,0.5-1S107.3,25.2,107.3,24.7z"/>
		<path class="st1" d="M117.6,29h-1.2c-0.1,0-0.3,0-0.3-0.1s-0.2-0.2-0.2-0.3l-0.6-1.8h-3.6l-0.6,1.8c0,0.1-0.1,0.2-0.2,0.3
			c-0.1,0.1-0.2,0.1-0.3,0.1h-1.3l3.4-8.7h1.6L117.6,29z M112,25.8h2.8l-1.1-2.9c0-0.1-0.1-0.3-0.2-0.5c-0.1-0.2-0.1-0.4-0.2-0.6
			c-0.1,0.2-0.1,0.4-0.2,0.6c-0.1,0.2-0.1,0.3-0.2,0.5L112,25.8z"/>
		<path class="st1" d="M126.2,24.7c0,0.6-0.1,1.2-0.3,1.8c-0.2,0.5-0.5,1-0.9,1.4c-0.4,0.4-0.8,0.7-1.4,0.9s-1.1,0.3-1.8,0.3h-3.3
			v-8.7h3.3c0.7,0,1.3,0.1,1.8,0.3s1,0.5,1.4,0.9s0.7,0.8,0.9,1.4C126.1,23.5,126.2,24.1,126.2,24.7z M124.5,24.7
			c0-0.5-0.1-0.9-0.2-1.3s-0.3-0.7-0.5-1c-0.2-0.3-0.5-0.5-0.9-0.6c-0.3-0.1-0.7-0.2-1.1-0.2h-1.7v6.1h1.7c0.4,0,0.8-0.1,1.1-0.2
			c0.3-0.1,0.6-0.3,0.9-0.6c0.2-0.3,0.4-0.6,0.5-1S124.5,25.2,124.5,24.7z"/>
	</g>
</g>
</svg>
