<?xml version="1.0" encoding="utf-8"?>
<!-- Generator: Adobe Illustrator 24.3.0, SVG Export Plug-In . SVG Version: 6.00 Build 0)  -->
<svg version="1.1" id="Camada_1" xmlns="http://www.w3.org/2000/svg" xmlns:xlink="http://www.w3.org/1999/xlink" x="0px" y="0px"
	 viewBox="0 0 80 80" style="enable-background:new 0 0 80 80;" xml:space="preserve">
<style type="text/css">
	.st0{fill:none;stroke:#0C486C;stroke-width:2.5896;stroke-miterlimit:10;}
	.st1{fill:#0C486C;}
</style>
<g>
	<circle class="st0" cx="185.5" cy="144.4" r="37.2"/>
	<g>
		<path class="st1" d="M185.5,119.4c-13.8,0-25,11.2-25,25c0,13.8,11.2,25,25,25c13.8,0,25-11.2,25-25
			C210.5,130.6,199.3,119.4,185.5,119.4z M185.5,123c11.9,0,21.4,9.6,21.4,21.4c0,11.9-9.6,21.4-21.4,21.4
			c-11.9,0-21.4-9.6-21.4-21.4C164,132.5,173.6,123,185.5,123L185.5,123z M185.4,130.1c-1,0-1.8,0.8-1.8,1.8v0v0v17.9v0
			c0,1,0.8,1.8,1.8,1.8c1,0,1.8-0.8,1.8-1.8v0v0v-17.9v0C187.3,130.9,186.5,130.1,185.4,130.1L185.4,130.1L185.4,130.1L185.4,130.1z
			 M185.5,155.1L185.5,155.1c-1,0-1.8,0.8-1.8,1.8c0,1,0.8,1.8,1.8,1.8h0h0h0c1,0,1.8-0.8,1.8-1.8
			C187.3,155.9,186.5,155.1,185.5,155.1L185.5,155.1L185.5,155.1z"/>
	</g>
</g>
<g>
	<circle class="st0" cx="40.6" cy="40.6" r="37.2"/>
	<g>
		<path class="st1" d="M40.6,15.6c-13.8,0-25,11.2-25,25s11.2,25,25,25s25-11.2,25-25S54.4,15.6,40.6,15.6z M40.6,19.2
			c11.9,0,21.4,9.6,21.4,21.4c0,11.9-9.6,21.4-21.4,21.4c-11.9,0-21.4-9.6-21.4-21.4C19.2,28.8,28.7,19.2,40.6,19.2L40.6,19.2z
			 M40.6,26.3c-1,0-1.8,0.8-1.8,1.8v0v0V46v0c0,1,0.8,1.8,1.8,1.8c1,0,1.8-0.8,1.8-1.8v0v0V28.1v0C42.4,27.1,41.6,26.3,40.6,26.3
			L40.6,26.3L40.6,26.3L40.6,26.3z M40.6,51.4L40.6,51.4c-1,0-1.8,0.8-1.8,1.8c0,1,0.8,1.8,1.8,1.8h0h0h0c1,0,1.8-0.8,1.8-1.8
			C42.4,52.2,41.6,51.4,40.6,51.4L40.6,51.4L40.6,51.4z"/>
	</g>
</g>
</svg>
