<?xml version="1.0" encoding="utf-8"?>
<!-- Generator: Adobe Illustrator 24.3.0, SVG Export Plug-In . SVG Version: 6.00 Build 0)  -->
<svg version="1.1" id="Camada_1" xmlns="http://www.w3.org/2000/svg" xmlns:xlink="http://www.w3.org/1999/xlink" x="0px" y="0px"
	 viewBox="0 0 100 100" style="enable-background:new 0 0 100 100;" xml:space="preserve">
<style type="text/css">
	.st0{fill:none;stroke:#0C486C;stroke-width:2.5896;stroke-miterlimit:10;}
	.st1{fill:#0C486C;}
	.st2{fill:#CFF09F;}
</style>
<g>
	<circle class="st0" cx="50.6" cy="41.6" r="37.2"/>
	<g>
		<path class="st1" d="M50.6,16.6c-13.8,0-25,11.2-25,25s11.2,25,25,25s25-11.2,25-25S64.4,16.6,50.6,16.6z M50.6,20.2
			c11.9,0,21.4,9.6,21.4,21.4c0,11.9-9.6,21.4-21.4,21.4c-11.9,0-21.4-9.6-21.4-21.4C29.2,29.8,38.7,20.2,50.6,20.2L50.6,20.2z
			 M50.6,27.3c-1,0-1.8,0.8-1.8,1.8v0v0V47v0c0,1,0.8,1.8,1.8,1.8c1,0,1.8-0.8,1.8-1.8v0v0V29.1v0C52.4,28.1,51.6,27.3,50.6,27.3
			L50.6,27.3L50.6,27.3L50.6,27.3z M50.6,52.4L50.6,52.4c-1,0-1.8,0.8-1.8,1.8c0,1,0.8,1.8,1.8,1.8h0h0h0c1,0,1.8-0.8,1.8-1.8
			C52.4,53.2,51.6,52.4,50.6,52.4L50.6,52.4L50.6,52.4z"/>
	</g>
</g>
<path class="st1" d="M91.7,91.4h-83c-3.8,0-6.8-3.1-6.8-6.8v0c0-3.8,3.1-6.8,6.8-6.8h83c3.8,0,6.8,3.1,6.8,6.8v0
	C98.5,88.3,95.5,91.4,91.7,91.4z"/>
<g>
	<path class="st2" d="M7.8,88.9h-2v-8.7h2V88.9z"/>
	<path class="st2" d="M15.3,85.4c0.1,0.2,0.1,0.3,0.2,0.5c0.1-0.2,0.1-0.3,0.2-0.5c0.1-0.2,0.2-0.3,0.2-0.5l2.2-4.4
		c0-0.1,0.1-0.1,0.1-0.2s0.1-0.1,0.1-0.1c0.1,0,0.1,0,0.2,0s0.1,0,0.2,0h1.5v8.7h-1.8v-5c0-0.2,0-0.5,0-0.8l-2.3,4.5
		c-0.1,0.1-0.2,0.2-0.3,0.3C16,88,15.8,88,15.7,88h-0.3c-0.2,0-0.3,0-0.4-0.1c-0.1-0.1-0.2-0.2-0.3-0.3l-2.3-4.5c0,0.1,0,0.3,0,0.4
		c0,0.1,0,0.3,0,0.4v5h-1.8v-8.7h1.5c0.1,0,0.2,0,0.2,0s0.1,0,0.2,0c0.1,0,0.1,0.1,0.1,0.1s0.1,0.1,0.1,0.2l2.2,4.4
		C15.2,85,15.2,85.2,15.3,85.4z"/>
	<path class="st2" d="M25.1,86v2.9h-2v-8.7h3.1c0.6,0,1.1,0.1,1.6,0.2c0.4,0.1,0.8,0.3,1.1,0.6s0.5,0.6,0.6,0.9
		c0.1,0.3,0.2,0.7,0.2,1.1c0,0.4-0.1,0.8-0.2,1.2c-0.1,0.4-0.4,0.7-0.6,0.9c-0.3,0.3-0.7,0.5-1.1,0.6c-0.4,0.1-1,0.2-1.6,0.2H25.1z
		 M25.1,84.4h1.1c0.5,0,0.9-0.1,1.1-0.4s0.3-0.6,0.3-1.1c0-0.2,0-0.4-0.1-0.5s-0.2-0.3-0.3-0.4c-0.1-0.1-0.3-0.2-0.5-0.3
		c-0.2-0.1-0.4-0.1-0.7-0.1h-1.1V84.4z"/>
	<path class="st2" d="M40.6,84.5c0,0.6-0.1,1.2-0.3,1.8c-0.2,0.5-0.5,1-0.9,1.4c-0.4,0.4-0.9,0.7-1.4,0.9C37.3,88.9,36.7,89,36,89
		s-1.3-0.1-1.9-0.3c-0.6-0.2-1-0.5-1.4-0.9c-0.4-0.4-0.7-0.9-0.9-1.4c-0.2-0.5-0.3-1.1-0.3-1.8s0.1-1.2,0.3-1.8
		c0.2-0.5,0.5-1,0.9-1.4c0.4-0.4,0.9-0.7,1.4-0.9c0.6-0.2,1.2-0.3,1.9-0.3s1.3,0.1,1.9,0.3s1,0.5,1.4,0.9c0.4,0.4,0.7,0.9,0.9,1.4
		C40.5,83.3,40.6,83.9,40.6,84.5z M38.5,84.5c0-0.4-0.1-0.8-0.2-1.2s-0.3-0.6-0.5-0.9c-0.2-0.2-0.5-0.4-0.8-0.6
		c-0.3-0.1-0.7-0.2-1-0.2c-0.4,0-0.7,0.1-1,0.2c-0.3,0.1-0.6,0.3-0.8,0.6c-0.2,0.2-0.4,0.5-0.5,0.9c-0.1,0.3-0.2,0.7-0.2,1.2
		c0,0.4,0.1,0.8,0.2,1.2c0.1,0.3,0.3,0.6,0.5,0.9c0.2,0.2,0.5,0.4,0.8,0.5c0.3,0.1,0.7,0.2,1,0.2c0.4,0,0.7-0.1,1-0.2
		c0.3-0.1,0.6-0.3,0.8-0.5s0.4-0.5,0.5-0.9S38.5,84.9,38.5,84.5z"/>
	<path class="st2" d="M44.8,85.7v3.2h-2v-8.7h2.8c0.6,0,1.2,0.1,1.6,0.2c0.4,0.1,0.8,0.3,1.1,0.5c0.3,0.2,0.5,0.5,0.6,0.8
		c0.1,0.3,0.2,0.7,0.2,1c0,0.3,0,0.6-0.1,0.8c-0.1,0.3-0.2,0.5-0.3,0.7s-0.3,0.4-0.6,0.6c-0.2,0.2-0.5,0.3-0.8,0.4
		c0.1,0.1,0.3,0.2,0.4,0.3c0.1,0.1,0.2,0.2,0.3,0.4l1.9,3h-1.8c-0.3,0-0.6-0.1-0.7-0.4L45.9,86c-0.1-0.1-0.1-0.2-0.2-0.2
		s-0.2-0.1-0.4-0.1H44.8z M44.8,84.3h0.8c0.3,0,0.5,0,0.7-0.1c0.2-0.1,0.4-0.2,0.5-0.3s0.2-0.3,0.3-0.4c0.1-0.2,0.1-0.3,0.1-0.5
		c0-0.4-0.1-0.7-0.4-0.9s-0.6-0.3-1.2-0.3h-0.8V84.3z"/>
	<path class="st2" d="M57.9,80.1v1.6h-2.5v7.1h-2v-7.1H51v-1.6H57.9z"/>
	<path class="st2" d="M67.1,88.9h-1.6c-0.2,0-0.3,0-0.4-0.1c-0.1-0.1-0.2-0.2-0.2-0.3l-0.5-1.5H61l-0.5,1.5c0,0.1-0.1,0.2-0.2,0.3
		c-0.1,0.1-0.3,0.1-0.4,0.1h-1.6l3.4-8.7h2.1L67.1,88.9z M61.5,85.5h2.4l-0.8-2.4C63,83,63,82.8,62.9,82.6c-0.1-0.2-0.1-0.4-0.2-0.7
		c-0.1,0.2-0.1,0.5-0.2,0.7s-0.1,0.4-0.2,0.5L61.5,85.5z"/>
	<path class="st2" d="M70.3,80.2c0.1,0,0.1,0,0.2,0c0,0,0.1,0.1,0.1,0.1s0.1,0.1,0.1,0.2l4.2,5.2c0-0.2,0-0.3,0-0.5s0-0.3,0-0.4
		v-4.6h1.8v8.7h-1.1c-0.2,0-0.3,0-0.4-0.1c-0.1,0-0.2-0.1-0.3-0.3l-4.1-5.2c0,0.2,0,0.3,0,0.4c0,0.1,0,0.3,0,0.4v4.7H69v-8.7h1.1
		C70.2,80.1,70.3,80.1,70.3,80.2z"/>
	<path class="st2" d="M85.7,80.1v1.6h-2.5v7.1h-2v-7.1h-2.5v-1.6H85.7z"/>
	<path class="st2" d="M93.3,80.1v1.6h-3.6v2h2.7v1.5h-2.7v2.1h3.6v1.6h-5.6v-8.7H93.3z"/>
</g>
</svg>
