<?xml version="1.0" encoding="utf-8"?>
<!-- Generator: Adobe Illustrator 24.3.0, SVG Export Plug-In . SVG Version: 6.00 Build 0)  -->
<svg version="1.1" id="Camada_1" xmlns="http://www.w3.org/2000/svg" xmlns:xlink="http://www.w3.org/1999/xlink" x="0px" y="0px"
	 viewBox="0 0 100 100" style="enable-background:new 0 0 100 100;" xml:space="preserve">
<style type="text/css">
	.st0{fill:none;stroke:#0C486C;stroke-width:2.5896;stroke-miterlimit:10;}
	.st1{fill:#0C486C;}
	.st2{fill:#CFF09F;}
</style>
<g>
	<circle class="st0" cx="50.6" cy="42.6" r="37.2"/>
	<g>
		<path class="st1" d="M38.1,40.9L38.1,40.9c-1,0-1.8,0.8-1.8,1.8c0,1,0.8,1.8,1.8,1.8h0h25h0c1,0,1.8-0.8,1.8-1.8
			c0-1-0.8-1.8-1.8-1.8h0H38.1z"/>
		<path class="st1" d="M52.4,30.1L52.4,30.1c0-1-0.8-1.8-1.8-1.8c-1,0-1.8,0.8-1.8,1.8v0v0v25v0c0,1,0.8,1.8,1.8,1.8
			c1,0,1.8-0.8,1.8-1.8v0v0V30.1z"/>
		<path class="st1" d="M50.6,17.6c-13.8,0-25,11.2-25,25s11.2,25,25,25c13.8,0,25-11.2,25-25S64.4,17.6,50.6,17.6L50.6,17.6z
			 M50.6,21.2c11.9,0,21.4,9.6,21.4,21.4s-9.6,21.4-21.4,21.4c-11.9,0-21.4-9.6-21.4-21.4C29.2,30.8,38.7,21.2,50.6,21.2L50.6,21.2z
			"/>
	</g>
</g>
<path class="st1" d="M91.7,93.4h-83c-3.8,0-6.8-3.1-6.8-6.8v0c0-3.8,3.1-6.8,6.8-6.8h83c3.8,0,6.8,3.1,6.8,6.8v0
	C98.5,90.3,95.5,93.4,91.7,93.4z"/>
<g>
	<path class="st2" d="M12.5,83.9c-0.1,0.1-0.1,0.2-0.2,0.2c-0.1,0-0.2,0.1-0.3,0.1c-0.1,0-0.2,0-0.3-0.1c-0.1-0.1-0.2-0.1-0.4-0.2
		c-0.1-0.1-0.3-0.1-0.5-0.2c-0.2-0.1-0.4-0.1-0.6-0.1c-0.4,0-0.7,0.1-0.8,0.2c-0.2,0.2-0.3,0.4-0.3,0.7c0,0.2,0.1,0.3,0.2,0.4
		s0.3,0.2,0.4,0.3c0.2,0.1,0.4,0.2,0.6,0.2c0.2,0.1,0.5,0.1,0.7,0.2c0.2,0.1,0.5,0.2,0.7,0.3s0.4,0.3,0.6,0.4
		c0.2,0.2,0.3,0.4,0.4,0.7c0.1,0.3,0.2,0.6,0.2,0.9c0,0.4-0.1,0.8-0.2,1.1c-0.1,0.4-0.3,0.7-0.6,0.9s-0.6,0.5-1,0.6
		c-0.4,0.1-0.8,0.2-1.3,0.2c-0.3,0-0.5,0-0.8-0.1c-0.3-0.1-0.6-0.1-0.8-0.2c-0.3-0.1-0.5-0.2-0.7-0.4c-0.2-0.1-0.4-0.3-0.6-0.5
		l0.6-0.9c0-0.1,0.1-0.1,0.2-0.2c0.1,0,0.2-0.1,0.3-0.1c0.1,0,0.2,0,0.4,0.1c0.1,0.1,0.3,0.2,0.4,0.3c0.2,0.1,0.3,0.2,0.5,0.3
		c0.2,0.1,0.4,0.1,0.7,0.1c0.4,0,0.7-0.1,0.9-0.2s0.3-0.4,0.3-0.8c0-0.2-0.1-0.4-0.2-0.5c-0.1-0.1-0.3-0.2-0.4-0.3
		c-0.2-0.1-0.4-0.2-0.6-0.2c-0.2-0.1-0.5-0.1-0.7-0.2C9,87,8.7,86.9,8.5,86.8s-0.4-0.3-0.6-0.5c-0.2-0.2-0.3-0.4-0.4-0.7
		c-0.1-0.3-0.2-0.6-0.2-1c0-0.3,0.1-0.6,0.2-1c0.1-0.3,0.3-0.6,0.6-0.8c0.3-0.2,0.6-0.4,0.9-0.6c0.4-0.1,0.8-0.2,1.3-0.2
		c0.3,0,0.5,0,0.8,0.1c0.3,0,0.5,0.1,0.7,0.2c0.2,0.1,0.4,0.2,0.6,0.3c0.2,0.1,0.4,0.2,0.5,0.4L12.5,83.9z"/>
	<path class="st2" d="M24,90.9h-1.6c-0.2,0-0.3,0-0.4-0.1c-0.1-0.1-0.2-0.2-0.2-0.3l-0.5-1.5h-3.3l-0.5,1.5c0,0.1-0.1,0.2-0.2,0.3
		c-0.1,0.1-0.3,0.1-0.4,0.1h-1.6l3.4-8.7h2.1L24,90.9z M18.4,87.5h2.4L20,85.2c-0.1-0.2-0.1-0.3-0.2-0.5c-0.1-0.2-0.1-0.4-0.2-0.7
		c-0.1,0.2-0.1,0.5-0.2,0.7c-0.1,0.2-0.1,0.4-0.2,0.5L18.4,87.5z"/>
	<path class="st2" d="M28.8,90.9h-2v-8.7h2V90.9z"/>
	<path class="st2" d="M32.2,90.9v-8.7h3.2c0.6,0,1.1,0.1,1.5,0.2s0.8,0.3,1,0.5s0.5,0.5,0.6,0.7s0.2,0.6,0.2,1c0,0.2,0,0.4-0.1,0.6
		c-0.1,0.2-0.1,0.4-0.3,0.5c-0.1,0.2-0.3,0.3-0.5,0.4s-0.4,0.2-0.7,0.3c0.6,0.1,1,0.4,1.3,0.7c0.3,0.3,0.4,0.7,0.4,1.2
		c0,0.4-0.1,0.7-0.2,1c-0.1,0.3-0.4,0.6-0.6,0.8c-0.3,0.2-0.6,0.4-1,0.6c-0.4,0.1-0.9,0.2-1.4,0.2H32.2z M34.2,85.8h1.1
		c0.2,0,0.4,0,0.6,0c0.2,0,0.3-0.1,0.5-0.2s0.2-0.2,0.3-0.3c0.1-0.1,0.1-0.3,0.1-0.5c0-0.2,0-0.4-0.1-0.5c-0.1-0.1-0.1-0.2-0.2-0.3
		s-0.2-0.1-0.4-0.2s-0.4-0.1-0.6-0.1h-1.2V85.8z M34.2,87.2v2.2h1.4c0.3,0,0.5,0,0.7-0.1c0.2-0.1,0.3-0.2,0.4-0.3
		c0.1-0.1,0.2-0.2,0.2-0.4c0-0.1,0.1-0.3,0.1-0.4c0-0.2,0-0.3-0.1-0.4s-0.1-0.2-0.2-0.3c-0.1-0.1-0.2-0.2-0.4-0.2
		c-0.2,0-0.4-0.1-0.6-0.1H34.2z"/>
	<path class="st2" d="M50,90.9h-1.6c-0.2,0-0.3,0-0.4-0.1c-0.1-0.1-0.2-0.2-0.2-0.3l-0.5-1.5h-3.3l-0.5,1.5c0,0.1-0.1,0.2-0.2,0.3
		c-0.1,0.1-0.3,0.1-0.4,0.1h-1.6l3.4-8.7h2.1L50,90.9z M44.4,87.5h2.4l-0.8-2.4c-0.1-0.2-0.1-0.3-0.2-0.5c-0.1-0.2-0.1-0.4-0.2-0.7
		c-0.1,0.2-0.1,0.5-0.2,0.7c-0.1,0.2-0.1,0.4-0.2,0.5L44.4,87.5z"/>
	<path class="st2" d="M61.3,87.4c0.1,0.2,0.1,0.3,0.2,0.5c0.1-0.2,0.1-0.3,0.2-0.5c0.1-0.2,0.2-0.3,0.2-0.5l2.2-4.4
		c0-0.1,0.1-0.1,0.1-0.2s0.1-0.1,0.1-0.1c0.1,0,0.1,0,0.2,0c0.1,0,0.1,0,0.2,0h1.5v8.7h-1.8v-5c0-0.2,0-0.5,0-0.8l-2.3,4.5
		c-0.1,0.1-0.2,0.2-0.3,0.3C62,90,61.8,90,61.7,90h-0.3c-0.2,0-0.3,0-0.4-0.1c-0.1-0.1-0.2-0.2-0.3-0.3l-2.3-4.5c0,0.1,0,0.3,0,0.4
		s0,0.3,0,0.4v5h-1.8v-8.7h1.5c0.1,0,0.2,0,0.2,0c0.1,0,0.1,0,0.2,0c0.1,0,0.1,0.1,0.1,0.1s0.1,0.1,0.1,0.2l2.2,4.4
		C61.2,87,61.2,87.2,61.3,87.4z"/>
	<path class="st2" d="M77.8,90.9h-1.6c-0.2,0-0.3,0-0.4-0.1s-0.2-0.2-0.2-0.3L75,88.9h-3.3l-0.5,1.5c0,0.1-0.1,0.2-0.2,0.3
		c-0.1,0.1-0.3,0.1-0.4,0.1H69l3.4-8.7h2.1L77.8,90.9z M72.2,87.5h2.4l-0.8-2.4c-0.1-0.2-0.1-0.3-0.2-0.5s-0.1-0.4-0.2-0.7
		c-0.1,0.2-0.1,0.5-0.2,0.7c-0.1,0.2-0.1,0.4-0.2,0.5L72.2,87.5z"/>
	<path class="st2" d="M82.5,90.9h-2v-8.7h2V90.9z"/>
	<path class="st2" d="M90.8,83.9c-0.1,0.1-0.1,0.2-0.2,0.2c-0.1,0-0.2,0.1-0.3,0.1c-0.1,0-0.2,0-0.3-0.1c-0.1-0.1-0.2-0.1-0.4-0.2
		c-0.1-0.1-0.3-0.1-0.5-0.2c-0.2-0.1-0.4-0.1-0.6-0.1c-0.4,0-0.7,0.1-0.8,0.2s-0.3,0.4-0.3,0.7c0,0.2,0.1,0.3,0.2,0.4
		c0.1,0.1,0.3,0.2,0.4,0.3s0.4,0.2,0.6,0.2s0.5,0.1,0.7,0.2c0.2,0.1,0.5,0.2,0.7,0.3c0.2,0.1,0.4,0.3,0.6,0.4
		c0.2,0.2,0.3,0.4,0.4,0.7s0.2,0.6,0.2,0.9c0,0.4-0.1,0.8-0.2,1.1c-0.1,0.4-0.3,0.7-0.6,0.9c-0.3,0.3-0.6,0.5-1,0.6
		c-0.4,0.1-0.8,0.2-1.3,0.2c-0.3,0-0.5,0-0.8-0.1s-0.6-0.1-0.8-0.2c-0.3-0.1-0.5-0.2-0.7-0.4c-0.2-0.1-0.4-0.3-0.6-0.5l0.6-0.9
		c0-0.1,0.1-0.1,0.2-0.2c0.1,0,0.2-0.1,0.3-0.1c0.1,0,0.2,0,0.4,0.1c0.1,0.1,0.3,0.2,0.4,0.3c0.2,0.1,0.3,0.2,0.5,0.3
		s0.4,0.1,0.7,0.1c0.4,0,0.7-0.1,0.9-0.2s0.3-0.4,0.3-0.8c0-0.2-0.1-0.4-0.2-0.5s-0.3-0.2-0.4-0.3c-0.2-0.1-0.4-0.2-0.6-0.2
		c-0.2-0.1-0.5-0.1-0.7-0.2c-0.2-0.1-0.5-0.2-0.7-0.3c-0.2-0.1-0.4-0.3-0.6-0.5c-0.2-0.2-0.3-0.4-0.4-0.7c-0.1-0.3-0.2-0.6-0.2-1
		c0-0.3,0.1-0.6,0.2-1c0.1-0.3,0.3-0.6,0.6-0.8c0.3-0.2,0.6-0.4,0.9-0.6c0.4-0.1,0.8-0.2,1.3-0.2c0.3,0,0.5,0,0.8,0.1
		c0.3,0,0.5,0.1,0.7,0.2s0.4,0.2,0.6,0.3c0.2,0.1,0.4,0.2,0.5,0.4L90.8,83.9z"/>
</g>
</svg>
