<?xml version="1.0" encoding="utf-8"?>
<!-- Generator: Adobe Illustrator 24.3.0, SVG Export Plug-In . SVG Version: 6.00 Build 0)  -->
<svg version="1.1" id="Camada_1" xmlns="http://www.w3.org/2000/svg" xmlns:xlink="http://www.w3.org/1999/xlink" x="0px" y="0px"
	 viewBox="0 0 155 155" style="enable-background:new 0 0 155 155;" xml:space="preserve">
<style type="text/css">
	.st0{fill:#CFF09F;}
	.st1{fill:none;stroke:#CFF09F;stroke-width:5;stroke-miterlimit:10;}
	.st2{fill:#07354C;}
</style>
<g>
	<g>
		<circle class="st0" cx="77.5" cy="77.5" r="64.2"/>
		<g>
			<path class="st1" d="M99,7.7c-26.6-8-56.9,0.8-76.2,23.1s-22.6,53.1-11,78.3"/>
			<path class="st1" d="M56,147.3c26.6,8,56.9-0.8,76.2-23.1s22.6-53.1,11-78.3"/>
		</g>
	</g>
	<g>
		<path class="st2" d="M78.5,42.4c3,0,5.7,0.4,8.2,1.3c2.5,0.9,4.6,2.1,6.4,3.8c1.8,1.6,3.2,3.6,4.1,5.8c1,2.3,1.5,4.8,1.5,7.6
			c0,2.4-0.4,4.6-1.1,6.7s-1.7,4-2.8,5.8c-1.2,1.9-2.6,3.7-4.2,5.4c-1.6,1.7-3.3,3.5-5,5.3L71,99.1c1.4-0.4,2.8-0.7,4.2-1
			c1.4-0.2,2.7-0.3,4-0.3h16.7c1.2,0,2.2,0.3,2.9,1c0.7,0.7,1.1,1.6,1.1,2.7v6.7H55.2v-3.7c0-0.7,0.2-1.5,0.5-2.3
			c0.3-0.8,0.8-1.6,1.5-2.2l19.8-19.8c1.6-1.7,3.1-3.3,4.4-4.8c1.3-1.5,2.4-3,3.3-4.5c0.9-1.5,1.6-3,2-4.6c0.5-1.5,0.7-3.2,0.7-4.9
			c0-1.6-0.2-2.9-0.7-4.1c-0.5-1.2-1.1-2.2-1.9-3s-1.8-1.4-3-1.8c-1.2-0.4-2.5-0.6-3.9-0.6c-2.7,0-4.9,0.7-6.6,2
			c-1.7,1.4-2.9,3.2-3.6,5.4c-0.3,1.1-0.8,2-1.5,2.5s-1.5,0.7-2.5,0.7c-0.5,0-0.9,0-1.5-0.1l-5.8-1c0.5-3.1,1.3-5.9,2.6-8.2
			c1.3-2.4,2.9-4.3,4.8-5.9c1.9-1.6,4.2-2.8,6.7-3.6C72.9,42.8,75.6,42.4,78.5,42.4z"/>
	</g>
</g>
</svg>
