
<svg xmlns="http://www.w3.org/2000/svg" version="1.1" xmlns:xlink="http://www.w3.org/1999/xlink" preserveAspectRatio="none" x="0px" y="0px" width="95px" height="95px" viewBox="0 0 95 95">
<defs>
<g id="Layer2_0_MEMBER_0_FILL">
<path fill="#C9EE95" stroke="none" d="
M 151.5 76.5
Q 151.5 45.45 129.5 23.45 107.55 1.5 76.5 1.5 45.45 1.5 23.45 23.45 1.5 45.45 1.5 76.5 1.5 107.55 23.45 129.5 45.45 151.5 76.5 151.5 107.55 151.5 129.5 129.5 151.5 107.55 151.5 76.5 Z"/>
</g>

<g id="Layer2_0_MEMBER_1_MEMBER_0_FILL">
<path fill="#144162" stroke="none" d="
M 127.85 287.75
Q 125.6 287.75 123.1 288.75 120.6 289.75 118.9 291.25 115.7 294.15 116.65 297.4
L 166.5 464.35 166.5 287.75 127.85 287.75
M 337.65 243.15
L 337.5 243.15 308.45 212.15 187.5 212.15
Q 187.2 212.25 186.8 212.15 186.15 212.05 184.9 212.15
L 184.9 212
Q 181.9 212.4 179.65 214.8 178.15 216.35 177.25 218.6 176.3 220.9 176.3 223.2
L 176.3 281.3
Q 176.4 281.55 176.3 281.8
L 176.5 282.7 176.5 498.3
Q 176.6 498.85 176.5 499.35
L 176.5 499.5
Q 176.95 503.7 180.05 506.5 183.2 509.3 187.5 509.3
L 572.5 509.3
Q 575.2 509.3 576.9 508.6
L 577.25 508.45 577.4 508.25 577.95 508.1 579.15 507.2
Q 579.75 506.8 580.4 506.15 581.9 504.65 582.65 502.65 583.15 501.65 583.2 501.45 583.55 500.3 583.55 498.3
L 583.55 255.4
Q 583.55 250.75 580.35 247.55 577.2 244.35 572.5 244.35
L 339.6 244.35 339.4 244.2 339.25 244.2 338.9 244 338.7 244 338.55 243.85 338.35 243.85 338 243.5 337.85 243.5 337.65 243.15
M 553.7 129.5
Q 551.85 125.35 547.5 123.6
L 368.8 51.5
Q 367 50.8 364.45 50.8 361.1 50.9 358.4 52.65 355.55 54.5 354.3 57.65
L 296.2 202.35 310.7 202.35 311.25 202.55 311.95 202.55 312.1 202.7 312.3 202.7 312.65 202.9 312.8 202.9 313 203.05 313.15 203.05 313.5 203.4 313.7 203.4 313.85 203.6 314.05 203.6 314.2 203.95 314.4 203.95 342.9 234.55 514.75 234.55 553.8 137.95
Q 555.5 133.7 553.7 129.5
M 506.65 162.4
Q 504.75 163.2 502.85 162.45
L 376.7 111.7
Q 375.15 111.2 374.2 109.8 373.3 108.4 373.4 106.7 373.5 105.05 374.65 103.8 375.75 102.55 377.4 102.25
L 377.9 102.25
Q 379.2 102.2 380.35 102.8
L 506.55 153.35
Q 508.4 154.1 509.2 156 510 157.85 509.25 159.75 508.5 161.65 506.65 162.4
M 493.35 191.65
Q 491.45 192.45 489.55 191.7
L 363.4 140.95
Q 361.8 140.3 360.95 138.85 360.1 137.4 360.3 135.7 360.55 134.05 361.7 132.85 362.95 131.65 364.6 131.5
L 364.6 131.3
Q 365.9 131.25 367.05 131.85
L 493.25 182.6
Q 495.1 183.35 495.9 185.2 496.7 187.05 495.95 188.95 495.2 190.85 493.35 191.65
M 352.2 161.25
L 352.2 161.05
Q 353.75 160.8 355.15 161.6
L 481.15 212.35
Q 483.05 213.1 483.85 214.95 484.65 216.8 483.9 218.7 483.1 220.6 481.25 221.4 479.4 222.2 477.5 221.45
L 351.5 170.7
Q 349.95 170.15 349 168.75 348.1 167.35 348.2 165.7 348.3 164 349.45 162.8 350.55 161.55 352.2 161.25 Z"/>
</g>
</defs>

<g transform="matrix( 0.633331298828125, 0, 0, 0.633331298828125, -0.95,-0.95) ">
<use xlink:href="#Layer2_0_MEMBER_0_FILL"/>
</g>

<g transform="matrix( 0.1309356689453125, 0, 0, 0.1309051513671875, 0.85,10.3) ">
<use xlink:href="#Layer2_0_MEMBER_1_MEMBER_0_FILL"/>
</g>
</svg>
