<?xml version="1.0" encoding="utf-8"?>
<!-- Generator: Adobe Illustrator 24.3.0, SVG Export Plug-In . SVG Version: 6.00 Build 0)  -->
<svg version="1.1" id="Camada_1" xmlns="http://www.w3.org/2000/svg" xmlns:xlink="http://www.w3.org/1999/xlink" x="0px" y="0px"
	 viewBox="0 0 100 100" style="enable-background:new 0 0 100 100;" xml:space="preserve">
<style type="text/css">
	.st0{fill:#0C486C;}
	.st1{fill:none;stroke:#0C486C;stroke-width:2.5896;stroke-miterlimit:10;}
	.st2{fill:#CFF09F;}
</style>
<g>
	<path class="st0" d="M68.7,46.1c-0.8,0-1.4,0.7-1.4,1.4V57c0,1.7-1.1,3-2.4,3H35.4c-1.3,0-2.4-1.3-2.4-3v-9.5
		c0-0.8-0.7-1.4-1.4-1.4c-0.7,0-1.4,0.7-1.4,1.4l0,9.5c0,3.4,2.4,6,5.4,6h29.4c3,0,5.4-2.6,5.4-6v-9.5
		C70.3,46.8,69.6,46.1,68.7,46.1L68.7,46.1z"/>
	<path class="st0" d="M48.6,53.8c0.2,0.4,0.7,0.6,1.2,0.6c0.4,0,0.7-0.1,1.1-0.5L61,43.7c0.6-0.6,0.6-1.6,0-2.2
		c-0.6-0.6-1.6-0.6-2.2,0l-7.7,7.7V23.7c0-0.8-0.7-1.4-1.4-1.4c-0.7,0-1.4,0.7-1.4,1.4v25.5l-7.8-7.8c-0.6-0.6-1.6-0.6-2.2,0
		c-0.6,0.6-0.6,1.6,0,2.2L48.6,53.8z"/>
</g>
<circle class="st1" cx="50.2" cy="43.9" r="37.2"/>
<path class="st0" d="M91.7,93.4h-83c-3.8,0-6.8-3.1-6.8-6.8v0c0-3.8,3.1-6.8,6.8-6.8h83c3.8,0,6.8,3.1,6.8,6.8v0
	C98.5,90.3,95.5,93.4,91.7,93.4z"/>
<g>
	<path class="st2" d="M15.1,86.5c0,0.6-0.1,1.2-0.3,1.7c-0.2,0.5-0.5,1-0.9,1.4s-0.9,0.7-1.4,0.9c-0.6,0.2-1.2,0.3-1.9,0.3H7.1v-8.7
		h3.4c0.7,0,1.3,0.1,1.9,0.3c0.6,0.2,1,0.5,1.4,0.9s0.7,0.8,0.9,1.4C15,85.3,15.1,85.9,15.1,86.5z M13,86.5c0-0.4-0.1-0.8-0.2-1.2
		c-0.1-0.3-0.3-0.6-0.5-0.9c-0.2-0.2-0.5-0.4-0.8-0.6c-0.3-0.1-0.6-0.2-1-0.2H9.2v5.6h1.4c0.4,0,0.7-0.1,1-0.2
		c0.3-0.1,0.6-0.3,0.8-0.6s0.4-0.5,0.5-0.9C12.9,87.3,13,86.9,13,86.5z"/>
	<path class="st2" d="M26.5,86.5c0,0.6-0.1,1.2-0.3,1.8c-0.2,0.5-0.5,1-0.9,1.4c-0.4,0.4-0.9,0.7-1.4,0.9c-0.6,0.2-1.2,0.3-1.9,0.3
		s-1.3-0.1-1.9-0.3c-0.6-0.2-1-0.5-1.4-0.9c-0.4-0.4-0.7-0.9-0.9-1.4c-0.2-0.5-0.3-1.1-0.3-1.8s0.1-1.2,0.3-1.8
		c0.2-0.5,0.5-1,0.9-1.4c0.4-0.4,0.9-0.7,1.4-0.9c0.6-0.2,1.2-0.3,1.9-0.3s1.3,0.1,1.9,0.3s1,0.5,1.4,0.9c0.4,0.4,0.7,0.9,0.9,1.4
		C26.4,85.3,26.5,85.9,26.5,86.5z M24.4,86.5c0-0.4-0.1-0.8-0.2-1.2s-0.3-0.6-0.5-0.9c-0.2-0.2-0.5-0.4-0.8-0.6
		c-0.3-0.1-0.7-0.2-1-0.2c-0.4,0-0.7,0.1-1,0.2c-0.3,0.1-0.6,0.3-0.8,0.6c-0.2,0.2-0.4,0.5-0.5,0.9c-0.1,0.3-0.2,0.7-0.2,1.2
		c0,0.4,0.1,0.8,0.2,1.2c0.1,0.3,0.3,0.6,0.5,0.9c0.2,0.2,0.5,0.4,0.8,0.5c0.3,0.1,0.7,0.2,1,0.2c0.4,0,0.7-0.1,1-0.2
		c0.3-0.1,0.6-0.3,0.8-0.5s0.4-0.5,0.5-0.9S24.4,86.9,24.4,86.5z"/>
	<path class="st2" d="M28.6,82.1h1.7c0.2,0,0.3,0,0.4,0.1c0.1,0.1,0.2,0.2,0.2,0.3l1.2,4.6c0,0.1,0.1,0.3,0.1,0.5s0.1,0.3,0.1,0.5
		c0-0.2,0.1-0.4,0.1-0.5s0.1-0.3,0.1-0.5l1.4-4.6c0-0.1,0.1-0.2,0.2-0.3c0.1-0.1,0.3-0.1,0.4-0.1h0.6c0.2,0,0.3,0,0.4,0.1
		c0.1,0.1,0.2,0.2,0.2,0.3l1.4,4.6c0,0.1,0.1,0.3,0.1,0.4c0,0.2,0.1,0.3,0.1,0.5c0-0.2,0.1-0.3,0.1-0.5s0.1-0.3,0.1-0.5l1.2-4.6
		c0-0.1,0.1-0.2,0.2-0.3c0.1-0.1,0.3-0.1,0.4-0.1h1.6l-2.7,8.7h-1.8l-1.6-5.4c0-0.1-0.1-0.2-0.1-0.3c0-0.1-0.1-0.2-0.1-0.3
		c0,0.1-0.1,0.2-0.1,0.3c0,0.1-0.1,0.2-0.1,0.3l-1.7,5.4h-1.8L28.6,82.1z"/>
	<path class="st2" d="M45.2,82.2c0.1,0,0.1,0,0.2,0c0,0,0.1,0.1,0.1,0.1s0.1,0.1,0.1,0.2l4.2,5.2c0-0.2,0-0.3,0-0.5
		c0-0.2,0-0.3,0-0.4v-4.6h1.8v8.7h-1.1c-0.2,0-0.3,0-0.4-0.1s-0.2-0.1-0.3-0.3l-4.1-5.2c0,0.2,0,0.3,0,0.4c0,0.1,0,0.3,0,0.4v4.7
		h-1.8v-8.7H45C45.1,82.1,45.1,82.1,45.2,82.2z"/>
	<path class="st2" d="M56.8,89.3H60v1.6h-5.3v-8.7h2V89.3z"/>
	<path class="st2" d="M70.9,86.5c0,0.6-0.1,1.2-0.3,1.8c-0.2,0.5-0.5,1-0.9,1.4c-0.4,0.4-0.9,0.7-1.4,0.9c-0.6,0.2-1.2,0.3-1.9,0.3
		c-0.7,0-1.3-0.1-1.9-0.3c-0.6-0.2-1-0.5-1.4-0.9c-0.4-0.4-0.7-0.9-0.9-1.4c-0.2-0.5-0.3-1.1-0.3-1.8s0.1-1.2,0.3-1.8
		c0.2-0.5,0.5-1,0.9-1.4c0.4-0.4,0.9-0.7,1.4-0.9c0.6-0.2,1.2-0.3,1.9-0.3c0.7,0,1.3,0.1,1.9,0.3c0.6,0.2,1,0.5,1.4,0.9
		c0.4,0.4,0.7,0.9,0.9,1.4C70.8,85.3,70.9,85.9,70.9,86.5z M68.9,86.5c0-0.4-0.1-0.8-0.2-1.2c-0.1-0.3-0.3-0.6-0.5-0.9
		c-0.2-0.2-0.5-0.4-0.8-0.6c-0.3-0.1-0.7-0.2-1-0.2c-0.4,0-0.7,0.1-1,0.2c-0.3,0.1-0.6,0.3-0.8,0.6c-0.2,0.2-0.4,0.5-0.5,0.9
		c-0.1,0.3-0.2,0.7-0.2,1.2c0,0.4,0.1,0.8,0.2,1.2c0.1,0.3,0.3,0.6,0.5,0.9s0.5,0.4,0.8,0.5c0.3,0.1,0.7,0.2,1,0.2
		c0.4,0,0.7-0.1,1-0.2c0.3-0.1,0.6-0.3,0.8-0.5s0.4-0.5,0.5-0.9C68.8,87.3,68.9,86.9,68.9,86.5z"/>
	<path class="st2" d="M81.5,90.9h-1.6c-0.2,0-0.3,0-0.4-0.1c-0.1-0.1-0.2-0.2-0.2-0.3l-0.5-1.5h-3.3l-0.5,1.5c0,0.1-0.1,0.2-0.2,0.3
		c-0.1,0.1-0.3,0.1-0.4,0.1h-1.6l3.4-8.7h2.1L81.5,90.9z M75.9,87.5h2.4l-0.8-2.4c-0.1-0.2-0.1-0.3-0.2-0.5
		c-0.1-0.2-0.1-0.4-0.2-0.7c-0.1,0.2-0.1,0.5-0.2,0.7s-0.1,0.4-0.2,0.5L75.9,87.5z"/>
	<path class="st2" d="M91.9,86.5c0,0.6-0.1,1.2-0.3,1.7s-0.5,1-0.9,1.4c-0.4,0.4-0.9,0.7-1.4,0.9c-0.6,0.2-1.2,0.3-1.9,0.3H84v-8.7
		h3.4c0.7,0,1.3,0.1,1.9,0.3c0.6,0.2,1,0.5,1.4,0.9c0.4,0.4,0.7,0.8,0.9,1.4S91.9,85.9,91.9,86.5z M89.9,86.5c0-0.4-0.1-0.8-0.2-1.2
		c-0.1-0.3-0.3-0.6-0.5-0.9c-0.2-0.2-0.5-0.4-0.8-0.6s-0.7-0.2-1-0.2H86v5.6h1.4c0.4,0,0.7-0.1,1-0.2s0.6-0.3,0.8-0.6
		s0.4-0.5,0.5-0.9S89.9,86.9,89.9,86.5z"/>
</g>
</svg>
