
<svg xmlns="http://www.w3.org/2000/svg" version="1.1" xmlns:xlink="http://www.w3.org/1999/xlink" preserveAspectRatio="none" x="0px" y="0px" width="153px" height="153px" viewBox="0 0 153 153">
<defs>
<g id="Layer2_0_FILL">
<path fill="#C9EE95" stroke="none" d="
M 151.5 76.5
Q 151.5 45.45 129.5 23.45 107.55 1.5 76.5 1.5 45.45 1.5 23.45 23.45 1.5 45.45 1.5 76.5 1.5 107.55 23.45 129.5 45.45 151.5 76.5 151.5 107.55 151.5 129.5 129.5 151.5 107.55 151.5 76.5 Z"/>
</g>

<g id="Layer1_0_FILL">
<path fill="#144162" stroke="none" d="
M 566.3 7.7
Q 558.6 0 546 0
L 154 0
Q 141.35 0 133.7 7.7 126 15.4 126 28
L 126 532
Q 126 544.65 133.7 552.3 141.35 560 154 560
L 546 560
Q 558.6 560 566.3 552.3 574 544.65 574 532
L 574 28
Q 574 15.4 566.3 7.7
M 490 84
Q 502.6 84 510.3 91.7 518 99.4 518 112 518 124.65 510.3 132.3 502.6 140 490 140
L 322 140
Q 309.35 140 301.7 132.3 294 124.65 294 112 294 99.4 301.7 91.7 309.35 84 322 84
L 490 84
M 518 224
Q 518 236.65 510.3 244.3 502.6 252 490 252
L 322 252
Q 309.35 252 301.7 244.3 294 236.65 294 224 294 211.4 301.7 203.7 309.35 196 322 196
L 490 196
Q 502.6 196 510.3 203.7 518 211.4 518 224
M 510.3 315.7
Q 518 323.4 518 336 518 348.65 510.3 356.3 502.6 364 490 364
L 322 364
Q 309.35 364 301.7 356.3 294 348.65 294 336 294 323.4 301.7 315.7 309.35 308 322 308
L 490 308
Q 502.6 308 510.3 315.7
M 182 84
L 238 84 238 140 182 140 182 84
M 182 196
L 238 196 238 252 182 252 182 196
M 238 308
L 238 364 182 364 182 308 238 308
M 301.7 427.7
Q 309.35 420 322 420
L 490 420
Q 502.6 420 510.3 427.7 518 435.4 518 448 518 460.65 510.3 468.3 502.6 476 490 476
L 322 476
Q 309.35 476 301.7 468.3 294 460.65 294 448 294 435.4 301.7 427.7
M 238 420
L 238 476 182 476 182 420 238 420 Z"/>
</g>
</defs>

<g transform="matrix( 1, 0, 0, 1, 0,0) ">
<use xlink:href="#Layer2_0_FILL"/>
</g>

<g transform="matrix( 0.17852783203125, 0, 0, 0.178558349609375, 14.05,26.5) ">
<use xlink:href="#Layer1_0_FILL"/>
</g>
</svg>
