
<svg xmlns="http://www.w3.org/2000/svg" version="1.1" xmlns:xlink="http://www.w3.org/1999/xlink" preserveAspectRatio="none" x="0px" y="0px" width="317px" height="390px" viewBox="0 0 317 390">
<defs>
<g id="Layer1_0_MEMBER_0_FILL">
<path fill="#144162" stroke="none" d="
M 176.35 -0.15
L 0 -0.15 0 280.4 176.35 280.4
Q 204.9 280.4 230.95 269.35 256.15 258.7 275.55 239.3 295 219.85 305.65 194.7 316.65 168.65 316.65 140.1 316.65 111.55 305.65 85.5 295 60.3 275.55 40.9 256.15 21.5 230.95 10.85 204.9 -0.15 176.35 -0.15 Z"/>
</g>

<g id="Layer1_0_MEMBER_1_FILL">
<path fill="#FFFFFF" stroke="none" d="
M 286.1 90.95
Q 276.55 68.25 259.05 50.8 241.55 33.3 218.9 23.75 195.45 13.8 169.75 13.8 144.05 13.8 120.6 23.75 97.95 33.3 80.45 50.8 62.95 68.3 53.4 90.95 43.45 114.4 43.45 140.1 43.45 165.8 53.4 189.25 62.95 211.9 80.45 229.4 97.9 246.9 120.6 256.45 144.05 266.4 169.75 266.4 195.45 266.4 218.9 256.45 241.6 246.9 259.05 229.4 276.55 211.95 286.1 189.25 296.05 165.8 296.05 140.1 296.05 114.4 286.1 90.95 Z"/>
</g>

<g id="Layer1_1_MEMBER_0_FILL">
<path fill="#C9EE95" stroke="none" d="
M 852.95 132.9
Q 851.45 133.3 850.5 133.35 849.15 133.4 848 132.7 846.8 131.95 846.65 130.75 846.4 129.1 845.55 127.35 844.65 125.55 843.4 124.45 841.7 122.85 837.8 121
L 830.2 117.15
Q 825.15 114.65 822.1 113.85 817.4 112.55 813.75 113.8 812.65 114.2 811.15 113.35 810.3 112.9 808.75 111.65 807.4 110.5 806.75 109.9 805.5 108.9 804.55 108.4 802.65 107.5 799.9 107.6 798.85 107.6 795.05 108.15 787.6 109.2 780.2 107.85 777.25 107.35 776.3 106 775.65 105.05 776 103.85 776.4 102.65 777.45 102.6 778.8 100.3 781.15 97.9 783.4 95.6 785.75 94.05 787.4 92.95 787.85 92.35 788.6 91.25 788.3 89.8 788 88.4 787 87.45 785.3 85.85 782 85.65 782.25 81.65 778 74.45 773.65 67.05 773.7 63.25 773.7 61.45 773.65 61 773.45 59.75 772.7 59.2 771.4 58.3 769.8 59.5 769 60.05 767.95 61.95
L 757.5 81.1
Q 756.75 82.45 753.55 81.4 752.75 81.15 751.85 80.5 750.85 79.65 750.3 79.25 748.2 77.75 746.65 78.2 745.6 78.5 744.05 80.4 742.55 82.2 741.4 82.4 739.5 82.8 737.6 80.25 736.45 78.75 736.1 78.45 735.2 77.5 734.25 77.2 732.9 76.75 730.15 77.8 727.35 78.85 726 78.5 724.8 77.95 724.15 77.75 722.85 77.45 722.3 78.25 721.85 78.9 722.45 79.75 722.95 80.45 723.85 80.85 725 81.4 725.45 81.75 726.25 82.35 726.25 83.1 726.2 84.05 724.9 84.5 723.75 84.9 722.6 84.75 721.75 84.65 720.65 84.2 719.35 83.65 718.7 83.4 716.4 82.4 714.75 83.1
L 713.1 84.15
Q 712.1 84.75 711.4 84.55 710.8 84.4 710.3 83.7 709.75 82.9 709.45 82.5 708.95 81.9 708.15 81.75 707.3 81.6 707.05 82.25 706.85 82.75 707.2 83.85 707.35 84.85 706.5 85.6 705.7 86.35 704.6 86.45 703.75 86.5 702.6 86.2 701.3 85.75 700.65 85.5 698.1 84.6 696.65 85.4 695.7 85.9 695.5 87.05 695.25 88.2 696.05 88.8 694.45 90.15 692.35 90.35 690.25 90.6 688.3 89.75 686.35 88.9 685.15 87.05 683.9 85.2 683.8 83.1 683.8 82.05 683.8 81.5 683.8 80.55 683.6 79.95 683.45 79.45 683.05 78.75 682.45 77.7 682.4 77.6 681.15 74.95 682.65 71.05 683 70.15 684.05 67.95 684.95 66.05 685.35 64.85 686.65 60.9 685 58.35 684.05 56.9 682.25 56.45 680.4 56 679.2 57.15 680.25 53.95 679.95 52.4 679.7 51.15 678.8 50.3 677.8 49.35 676.65 49.5 675.05 49.65 673.8 52.3 672.25 55.35 671.2 56 670.45 56.5 669.1 56.65 667.6 56.7 666.85 56.8 665.65 56.95 664.8 57.7 663.8 58.5 663.95 59.55 662.85 60.9 658.95 60.2 656.1 59.4 654.6 59.35 653.45 59.35 652.45 59.9 651.35 60.5 651.1 61.5 651 61.95 651.2 63.95 651.35 65.45 650.65 66 650 66.55 649.1 66.2 648.25 65.95 647.65 65.2 647.45 64.95 646.7 63.7 646.1 62.8 645.55 62.35 644.15 61.2 640.8 61.9 637.05 62.65 635.65 62.05 635 61.75 634.05 60.95 633 60.1 632.45 59.8 631.5 59.3 630.45 59.55 629.35 59.8 629.15 60.7 628.85 62 630.5 62.9 630.7 63 631.8 63.5 632.6 63.85 633 64.15 634.35 65.15 634.9 68.45 635.45 71.9 636.55 72.95 637.05 73.4 638.15 74.2 639.05 74.9 639.15 75.7 639.2 76.15 638.9 77.25 638.65 78.25 638.9 78.75 639.5 80.1 642.15 79.3 643.15 79 644.05 79.15 645.1 79.35 645.25 80.15 646.05 80.85 645.15 81.95 644.35 82.95 643.1 83.15 642.25 83.25 640.9 82.95 639.2 82.55 638.65 82.5 637.45 82.4 636.4 83.05 635.3 83.75 635.5 84.8
L 636.1 86.3
Q 636.65 87.95 635 89.25 633.45 90.45 631.45 90.5 628.95 90.45 627.75 90.5 625.6 90.6 624.45 91.55 624 91.95 622.45 94.1 621.35 95.7 620.15 95.9 619.2 96.05 618.05 95.45 616.75 94.65 616.05 94.3 614.95 93.75 613.75 94.05 612.5 94.35 612.45 95.4 610.75 93.1 608.1 91.75 605.4 90.45 602.55 90.5 603.1 88.55 603.25 87.55 603.4 85.85 602.85 84.6 602.25 83.2 600.55 82.8 598.8 82.4 598.05 83.65 597.55 84.8 597.3 85.3 596.85 86.25 596.15 86.2 595.75 86.2 595.3 85.8 594.85 85.25 594.6 85 593.4 83.85 591.55 84.6 589.75 85.35 589.7 87 587.7 86.85 583.6 86.8 579.45 86.75 577.45 86.6 575.25 86.5 574.4 87.15 573.1 88.1 573.65 89.9 574.2 91.65 575.75 92.5 576.8 93.05 578.85 93.4 581.25 93.85 582.1 94.15 583.75 94.7 584.75 96.15 585.8 97.7 585.1 99.1 583.85 101.5 579.2 100.3 574.7 99 573.1 100.85 572.5 101.6 572.45 102.7 572.4 103.75 572.85 104.7 573.45 106.1 575.4 107.85
L 578.95 111.3
Q 578 113.05 578.5 115.15 579.05 117.25 580.7 118.35
L 574.8 151
Q 574.6 152.05 574.15 152.45 573.65 152.85 572.85 152.55 572.15 152.3 571.65 151.65 571.05 150.9 570.7 150.5 570.1 149.9 569.55 149.75 568.6 149.5 567.5 150.3 566.3 151.4 565.65 151.8 564.7 152.4 563.15 152.7 561.3 153 560.4 153.15 556.85 153.8 553.05 156.2 550.5 157.8 546.55 161.2 544.55 162.9 543.95 164.05 543.5 165 543.55 165.95 543.6 167 544.25 167.7 543.2 167.15 542.3 168.3 541.45 169.45 541.65 170.7 541.65 170.8 542.25 173.15 542.6 174.55 542.25 175.5 541.8 176.8 539 178.5 536.45 180.1 536.4 181.65 536.4 182.2 536.8 183.35 537.15 184.45 537.05 185.05 536.95 185.8 536.15 186.65
L 534.8 188.05
Q 534.2 188.85 534.55 189.9 534.95 191.05 535.8 190.7 536.05 193.75 537.35 196.45 538.85 199.4 541.15 200.8 541.8 201.2 543.1 201.95 544.25 202.65 544.85 203.3 545.6 204.2 545.6 205.45 545.6384765625 206.4515625 545.05 207 545.990625 206.42734375 547.3 206.55 548.75 206.7 550 207.6 550.55 208 552.25 209.45 553.6 210.6 554.55 211.1 556.65 212.15 561.15 211.85 564.15 211.65 565.85 211.25 568.45 210.6 569.95 209.1 569 211.6 568.7 212.75 568.15 214.8 568.3 216.5 568.5 218.5 569.7 220.1 570.95 221.8 572.75 222.05 573.65 222.2 574.85 222 575.55 221.85 576.95 221.5 582.25 220.2 587.6 222.1 589.95 223 590.8 222.95 592.15 222.85 594.15 221.5
L 603.15 215.6
Q 609.55 211.45 613.55 209.85 619.5919921875 207.373828125 624.7 208.2 624.25546875 208.213671875 623.85 209.25 623.4 210.3 623.45 211.05 623.45 211.75 624.45 213.2 625.45 214.5 625.25 215.45 625.15 215.85 624.7 216.55 624.2 217.2 624.1 217.6 623.75 218.65 624.65 220.15 626.05 222.45 626.15 222.65 626.6 223.8 626.3 226 626 228.5 626.15 229.45 626.75 233.05 632.25 235.3 635.95 236.8 636.4 237 638.7 238.15 639.85 239.65 639.85 238.35 641.15 237.55 642.4 236.8 643.8 237.05 645.7 237.45 648.2 240.05 649.45 241.35 652.15 241.7 654.35 242 656.65 241.55 659.1 241.05 660.7 241.15 662.95 241.3 664.15 242.65 664.55 243.15 664.95 244 665.15 244.5 665.55 245.5 667.6 250 673.1 252.5 675.25 253.45 678.1 254.15 679.75 254.55 683.25 255.2 682.65 256.65 681.45 260.15 680.35 263.55 679.65 265.1
L 682.05 270.45
Q 684.8 275.95 686.5 276.7 687.75 277.25 691.5 277.7 695.15 278.1 697 279 699.15 280.05 702.4 283.75 704 285.65 705.2 287.3
L 704.55 291.6
Q 703.85 296.5 703.65 299.35
L 702.65 315.95 702.8 319.5
Q 703.1 323.45 703.7 325.3 704.15 326.75 703 331.45 701.95 335.9 702.55 336.85 703.45 338.4 707.25 339.35 711.25 340.3 714.05 339.4 717.95 338.15 721.05 337.8
L 723.45 339.55
Q 725.85 341.6 725.9 342.8 725.95 343.8 725.6 345.65 725.35 347.6 726.15 349.75 726.2 349.85 727.1 354.5 727.5 356.6 729.4 356.9 731.4 357.2 735.5 355.65 737.55 354.9 739.2 354.05
L 738.75 358.7
Q 738.2 363.8 737.65 366.1 736.75 369.7 737.1 373.95
L 743.95 378.65 742.15 389.5
Q 740.9 389.7 739.15 390.35 735.65 391.7 733.3 394.25 731.85 395.8 730.05 400.55 728.7 404.05 726.1 404.65 723.15 405.3 719.45 407.45
L 716.35 409.45
Q 714.9 410.85 713.4 412.6 710.3 416.15 709.85 418.1 709.4 420.05 712.65 420.7 714.3 421 716.05 420.95
L 722.2 425.2 722.45 427.25
Q 723.05 429.4 724.65 429.95 727.15 430.85 729.7 430.65
L 731.4 432.7
Q 733.6 435.3 736.2 438 740.4 442.3 746.85 447.5
L 745.1 452.1
Q 743.75 456.8 745.9 457.15 748.05 457.55 751.1 455.45 752.6 454.4 753.7 453.3 753.95 451.7 754.6 449.7 755.85 445.65 757.75 443.5 760.8 440.1 773.9 430.3
L 781.5 415.05 784.65 412.6
Q 788.1 409.55 789.8 406.85 791.5 404.15 792.2 400.75
L 792.55 397.9 795.65 393.1 794.15 387.8 795.15 378.1 793.35 372.95 797.3 371.45
Q 798.8 371 801.1 368.25
L 807 363.3 813.35 359.7
Q 820.55 355.9 824.7 355.2 826.5 354.9 833.3 354.55 837.2 354.3 838.2 352.95 839.25 351.5 841.3 350.35 842.35 349.8 843.2 349.5
L 846.3 350.6
Q 850.25 351.25 854.55 349.2 858 347.55 863.6 345.25 867.85 343.2 869.3 340.65 870.45 338.7 870.9 335.5 871.3 332.8 872.7 331.25 875.35 328.3 885.65 321.15 886.5 319.1 887.3 316.55 888.95 311.45 888.85 309 888.75 306.55 890 303.15
L 891.25 300.2 895.35 294.85
Q 894.25 294.35 893.45 293.3 891.9 291.1 893.65 288.1 895.45 285.05 897 279.65
L 898.25 274.85
Q 897.65 272.8 897.25 270.15 896.45 264.95 897.45 262.25 898.75 259.25 899 258.4 899.35 257.35 899.3 254.7 899.25 252.1 900.25 249.1
L 901.25 246.6 902.5 248.25
Q 904.15 249.45 906 247.5 907.95 245.45 910 242.55 910.3 242.15 915 235.35 919.25 229.2 922.85 224.55
L 929.85 222.95
Q 937.7 214.65 939.8 210.45 947 196.25 945.05 187.75 944.2 183.95 943.9 176.45 943.7 170.8 942.55 169.5 940.05 166.65 939.8 166.5 938.2 165.3 934.75 165.4 933.8 166.05 932.15 165.65 931.45 165.45 929.4 164.6 928.35 164.15 927.1 163.2 925.7 162.15 924.95 161.6 922.25 159.65 920.05 159.65 917.9 159.6 915.6 157 913.2 153.7 912.1 152.35 907.65 147 903.85 147.15 900.25 143.75 898 142.2 894.5 139.85 891.15 139.4 889.15 139.15 885.55 139.55 881.65 140 879.9 139.85 876.25 139.55 867.6 135.1 860.1 131.25 855.4 132.2 855.05 132.3 852.95 132.9 Z"/>
</g>

<g id="Layer1_1_MEMBER_1_FILL">
<path fill="#144162" fill-opacity="0.8470588235294118" stroke="none" d="
M -197.1 70.2
Q -209.25 58.05 -226.45 58.05 -243.65 58.05 -255.8 70.2 -267.95 82.35 -267.95 99.55 -267.95 116.75 -255.8 128.9 -243.65 141.05 -226.45 141.05 -209.25 141.05 -197.1 128.9 -184.95 116.75 -184.95 99.55 -184.95 82.35 -197.1 70.2 Z"/>
</g>

<g id="Layer1_1_MEMBER_2_MEMBER_0_FILL">
<path fill="#144162" fill-opacity="0.8470588235294118" stroke="none" d="
M -197.1 70.2
Q -209.25 58.05 -226.45 58.05 -243.65 58.05 -255.8 70.2 -267.95 82.35 -267.95 99.55 -267.95 116.75 -255.8 128.9 -243.65 141.05 -226.45 141.05 -209.25 141.05 -197.1 128.9 -184.95 116.75 -184.95 99.55 -184.95 82.35 -197.1 70.2 Z"/>
</g>

<g id="Layer1_1_MEMBER_2_MEMBER_1_MEMBER_0_FILL">
<path fill="#FFFFFF" stroke="none" d="
M 329.65 367.2
Q 332.25 367.2 334.35 366.35
L 531.45 292.95
Q 532.05 293.25 532.7 293.4 541.8 295.6 546.35 307.85 548.65 314 549.15 319.9 549.3 322.55 551.25 324.35 553.15 326.15 555.8 326.15
L 556.3 326.1
Q 559.1 325.9 560.9 323.8 562.75 321.75 562.55 318.95 562.1 313.15 560.1 306.65 556.2 293.75 548.2 286.75
L 596 268.95 596 116.2 471.75 91.7 199.55 171.2 199.55 227.05 121.7 254.65
Q 113.35 265.05 108.25 317.35 105.7 343.5 104.8 367.55 104.8 371.55 106.55 373.9 107.45 375.1 108.3 375.45
L 109.35 375.9 109.35 431.25 111.45 433.1
Q 113.5 434.85 117.35 437.4 124.75 442.2 134.65 446.8 165.75 461.3 210.6 469.15 214.5 470.3 219.3 470.3 226.8 470.3 234.9 467.6
L 255.1 459.15
Q 257.85 458.05 259.5 455.55 261.15 453.1 261.2 450.1 261.4 433.2 264.85 419.85 269 403.85 276.6 399.5
L 294.6 391.3
Q 297.5 390.35 299.25 391.3 300.9 392.3 302.25 395.3 303.6 398.35 304.15 402.45 304.45 404.35 305.6 405.85 306.75 407.35 308.5 408.15 310.25 408.9 312.15 408.7 314.05 408.55 315.6 407.45
L 317.35 406.25
Q 319.3 404.9 320.4 402.8 321.5 400.65 321.5 398.3
L 321.5 365.85 327 366.95
Q 328.05 367.2 329.65 367.2
M 325.7 210.7
L 325.7 353 321.95 352.25 320.55 269.45
Q 320.3 261.95 314.25 256.05 310.95 252.8 307.25 251
L 306.7 250.75 212.95 225.55 212.95 184.7 325.7 210.7
M 339.15 350.25
L 339.15 210.25 582.55 130.95 582.55 259.6 339.15 350.25
M 562.65 123.35
L 332.15 198.4 232.85 175.45 472.35 105.5 562.65 123.35
M 124.85 279.2
Q 127 268.85 129.2 263.85
L 202.5 237.85 303.7 265.1
Q 305.15 266 306.25 267.3
L 306.7 268.1 308.05 349.35 274 362.35 273.8 362.45 273.55 362.5
Q 271.25 363.55 269.2 364.65 264.55 367.1 260.45 369.95 251 376.55 246.35 384.05 244.55 386.9 241.4 388.15
L 227.05 393.6
Q 222.35 395.35 217.4 395.35
L 193.65 395.35
Q 192.95 395.35 192.75 396.05 192.4 397.3 191.25 397.95 190.05 398.6 188.8 398.2
L 131.3 380.1
Q 130.3 379.75 130.15 378.75
L 130.15 378.7 129.65 375.4
Q 129.25 372.7 126.8 371.6
L 117.75 367.45
Q 116.05 366.6 116.15 364.8 117.05 342.4 119.4 318.4 121.75 294.35 124.85 279.2
M 271.25 388.35
L 270.85 388.6
Q 258.55 395.3 252.95 416.45 249.25 430.45 248.9 448.4
L 230.8 455.95
Q 224.45 458.05 219.1 458 216.1 458 214.35 457.4
L 213.95 457.2 213.15 457.05
Q 176.35 450.65 148.75 439.45 131.85 432.55 121.7 425.4
L 121.7 416.2 128.3 419.25
Q 129.1 419.6 129.7 419.05 130.25 418.55 130.1 417.75
L 127.9 410.15
Q 127.75 409.6 127.2 409.35
L 121.7 406.85 121.7 388.8 190.1 410.35
Q 191.6 410.6 193.35 410.6 197.75 410.6 200.05 408.6
L 201.45 406.55 224.45 406.55 253.55 395.5
Q 255.35 387.15 266.85 379.15 270.45 376.65 274.6 374.45
L 278 372.8 308.65 361.1 308.7 363.35 309.15 363.45 309.15 383.6
Q 307.45 381.85 305.55 380.7 298.85 376.65 290.2 379.8
L 271.25 388.35 Z"/>
</g>

<g id="Layer1_1_MEMBER_2_MEMBER_1_MEMBER_1_FILL">
<path fill="#FFFFFF" stroke="none" d="
M 359.9 218.55
Q 357.95 216.6 355.15 216.6 352.35 216.6 350.35 218.55 348.4 220.5 348.4 223.3
L 348.4 323.85
Q 348.4 326.65 350.35 328.6 352.35 330.55 355.15 330.55 357.95 330.55 359.9 328.6 361.85 326.65 361.85 323.85
L 361.85 223.3
Q 361.85 220.55 359.9 218.55 Z"/>
</g>

<g id="Layer1_1_MEMBER_2_MEMBER_1_MEMBER_2_FILL">
<path fill="#FFFFFF" stroke="none" d="
M 394.1 206.7
Q 392.1 204.7 389.3 204.7 386.5 204.7 384.55 206.65 382.6 208.65 382.6 211.45
L 382.6 311.95
Q 382.6 314.75 384.55 316.7 386.55 318.65 389.3 318.65 392.1 318.65 394.1 316.7 396.05 314.75 396.05 311.95
L 396.05 211.45
Q 396.05 208.65 394.1 206.7 Z"/>
</g>

<g id="Layer1_1_MEMBER_2_MEMBER_1_MEMBER_3_FILL">
<path fill="#FFFFFF" stroke="none" d="
M 428.25 194.8
Q 426.3 192.85 423.5 192.85 420.7 192.85 418.7 194.8 416.75 196.75 416.75 199.55
L 416.75 300.05
Q 416.75 302.85 418.7 304.8 420.7 306.75 423.5 306.75 426.3 306.75 428.25 304.8 430.2 302.85 430.2 300.05
L 430.2 199.55
Q 430.2 196.8 428.25 194.8 Z"/>
</g>

<g id="Layer1_1_MEMBER_2_MEMBER_1_MEMBER_4_FILL">
<path fill="#FFFFFF" stroke="none" d="
M 462.4 182.9
Q 460.45 180.95 457.65 180.95 454.9 180.95 452.9 182.9 450.95 184.9 450.95 187.65
L 450.95 288.15
Q 450.95 290.95 452.9 292.9 454.9 294.9 457.65 294.9 460.4 294.9 462.4 292.9 464.35 290.95 464.35 288.15
L 464.35 187.65
Q 464.35 184.9 462.4 182.9 Z"/>
</g>

<g id="Layer1_1_MEMBER_2_MEMBER_1_MEMBER_5_FILL">
<path fill="#FFFFFF" stroke="none" d="
M 496.6 171
Q 494.65 169.05 491.85 169.05 489.05 169.05 487.05 171 485.1 172.95 485.1 175.75
L 485.1 276.25
Q 485.1 279.05 487.05 281.05 489.05 283 491.85 283 494.65 283 496.6 281.05 498.55 279.05 498.55 276.25
L 498.55 175.75
Q 498.55 173 496.6 171 Z"/>
</g>

<g id="Layer1_1_MEMBER_2_MEMBER_1_MEMBER_6_FILL">
<path fill="#FFFFFF" stroke="none" d="
M 521.25 159.1
Q 519.3 161.1 519.3 163.85
L 519.3 264.4
Q 519.3 267.2 521.25 269.15 523.25 271.1 526 271.1 528.8 271.1 530.75 269.15 532.7 267.2 532.7 264.4
L 532.7 163.85
Q 532.7 161.1 530.75 159.1 528.8 157.15 526 157.15 523.25 157.15 521.25 159.1 Z"/>
</g>

<g id="Layer1_1_MEMBER_2_MEMBER_1_MEMBER_7_FILL">
<path fill="#FFFFFF" stroke="none" d="
M 564.95 147.2
Q 562.95 145.25 560.15 145.25 557.4 145.25 555.4 147.2 553.45 149.2 553.45 151.95
L 553.45 252.5
Q 553.45 255.3 555.4 257.25 557.4 259.2 560.15 259.2 562.95 259.2 564.95 257.25 566.9 255.3 566.9 252.5
L 566.9 151.95
Q 566.9 149.15 564.95 147.2 Z"/>
</g>

<g id="Layer1_1_MEMBER_2_MEMBER_1_MEMBER_8_FILL">
<path fill="#FFFFFF" stroke="none" d="
M 134.55 283.9
Q 133.3 284.55 132.9 286.05 128.7 303.4 127.65 320.45 127.6 321.5 128.15 322.45 128.7 323.35 129.65 323.8 141.8 329.3 157.95 334.2 180.05 340.95 207.25 345.8 208.6 346.05 209.75 345.3 210.95 344.5 211.2 343.1
L 218 310.05
Q 218.25 308.75 217.55 307.6 216.85 306.45 215.55 306.05 158.95 290.4 137.25 283.6 135.85 283.15 134.55 283.9 Z"/>
</g>

<g id="Layer1_1_MEMBER_2_MEMBER_1_MEMBER_9_FILL">
<path fill="#FFFFFF" stroke="none" d="
M 265.95 294
Q 264.6 292.95 262.9 293.45
L 234.9 302.25
Q 233.9 302.6 233.25 303.45 232.6 304.3 232.5 305.35
L 230.4 341.55
Q 230.3 343.35 231.7 344.4 233.05 345.5 234.8 345.05
L 240.95 343.25
Q 241.25 340.7 243.25 337.65 247.2 331.6 255.6 329.3
L 265.15 325.65
Q 266.15 325.25 266.8 324.4 267.4 323.55 267.4 322.45
L 267.4 296.75
Q 267.4 294.95 265.95 294 Z"/>
</g>

<g id="Layer1_1_MEMBER_2_MEMBER_1_MEMBER_10_FILL">
<path fill="#FFFFFF" stroke="none" d="
M 475.85 352.15
Q 474.3 351.8 472.8 353.3 471.3 354.8 470.75 357.25 470.25 359.7 471 361.65 471.8 363.6 473.4 363.95 475 364.3 476.5 362.8 478 361.3 478.5 358.85 479 356.4 478.25 354.45 477.45 352.5 475.85 352.15 Z"/>
</g>

<g id="Layer1_1_MEMBER_2_MEMBER_1_MEMBER_11_FILL">
<path fill="#FFFFFF" stroke="none" d="
M 480.65 327.7
Q 472.95 326.05 465.65 333.8 458.35 341.5 455.7 354.05 453.05 366.55 456.65 376.6 460.2 386.65 467.9 388.25 475.6 389.85 482.9 382.15 490.2 374.4 492.85 361.85 495.5 349.3 491.9 339.3 488.35 329.3 480.65 327.7
M 468.85 343.2
Q 473.55 338.55 478.55 339.6 483.55 340.65 485.95 346.8 488.35 352.95 486.75 360.6 485.15 368.25 480.45 372.9 475.8 377.55 470.75 376.5 465.75 375.45 463.35 369.3 460.95 363.15 462.55 355.5 464.15 347.85 468.85 343.2 Z"/>
</g>

<g id="Layer1_1_MEMBER_2_MEMBER_1_MEMBER_12_FILL">
<path fill="#FFFFFF" stroke="none" d="
M 287.9 429.1
Q 286.2 428.75 284.6 430.3 283.05 431.9 282.5 434.5 281.95 437.1 282.75 439.15 283.55 441.25 285.25 441.6 286.95 441.95 288.55 440.35 290.15 438.8 290.65 436.2 291.2 433.6 290.4 431.55 289.6 429.45 287.9 429.1 Z"/>
</g>

<g id="Layer1_1_MEMBER_2_MEMBER_1_MEMBER_13_FILL">
<path fill="#FFFFFF" stroke="none" d="
M 304.75 415.55
Q 301 405 292.85 403.25 284.7 401.55 277 409.7 269.3 417.85 266.5 431.1 263.75 444.4 267.5 454.95 271.25 465.55 279.4 467.25 287.55 468.95 295.25 460.8 303 452.65 305.75 439.4 308.55 426.1 304.75 415.55
M 298.45 423.45
Q 301 429.95 299.3 438.05 297.6 446.1 292.7 451.05 287.75 456 282.45 454.85 277.15 453.75 274.6 447.2 272.05 440.7 273.75 432.65 275.5 424.55 280.4 419.65 285.35 414.7 290.65 415.8 295.95 416.95 298.45 423.45 Z"/>
</g>

<g id="Layer1_1_MEMBER_2_MEMBER_1_MEMBER_14_FILL">
<path fill="#FFFFFF" stroke="none" d="
M 524.2 333.1
Q 522.65 332.8 521.25 334.2 519.85 335.6 519.35 337.9 518.85 340.25 519.6 342.1 520.3 343.95 521.85 344.3 523.35 344.6 524.75 343.2 526.15 341.75 526.65 339.45 527.15 337.15 526.4 335.3 525.7 333.45 524.2 333.1 Z"/>
</g>

<g id="Layer1_1_MEMBER_2_MEMBER_1_MEMBER_15_FILL">
<path fill="#FFFFFF" stroke="none" d="
M 539.3 321
Q 535.9 311.55 528.65 310 521.35 308.45 514.45 315.75 507.5 323.1 505.05 334.95 502.55 346.8 505.95 356.25 509.3 365.7 516.55 367.25 523.85 368.8 530.75 361.5 537.7 354.2 540.15 342.3 542.65 330.45 539.3 321
M 533.65 328.1
Q 535.9 333.9 534.4 341.1 532.85 348.35 528.45 352.75 524 357.15 519.3 356.15 514.55 355.2 512.3 349.35 510 343.55 511.55 336.3 513.05 329.1 517.5 324.65 521.9 320.25 526.65 321.25 531.35 322.25 533.65 328.1 Z"/>
</g>

<g id="Layer1_1_MEMBER_2_MEMBER_1_MEMBER_16_FILL">
<path fill="#FFFFFF" stroke="none" d="
M 335 389.5
Q 333.9 392.05 334.95 394.65 335.75 396.6 337.45 397.75 339.15 398.85 341.15 398.85 342.5 398.85 343.65 398.35
L 442.5 358.5
Q 445.05 357.5 446.15 354.9 447.25 352.35 446.2 349.75 445.15 347.2 442.6 346.1 440.05 345 437.45 346.05
L 338.65 385.9
Q 336.05 386.95 335 389.5 Z"/>
</g>

<g id="Layer1_1_MEMBER_2_MEMBER_1_MEMBER_17_FILL">
<path fill="#FFFFFF" stroke="none" d="
M 187.35 427.55
Q 187.55 426.85 186.85 426.7
L 134.15 409.2
Q 133.45 409.05 132.9 409.5 132.35 410 132.5 410.75
L 135.15 421.25
Q 135.3 421.9 135.95 422.15
L 184.15 438.6
Q 184.45 438.75 184.8 438.55 185.05 438.35 185.15 438.05
L 187.35 427.55 Z"/>
</g>

<g id="Layer1_1_MEMBER_2_MEMBER_1_MEMBER_18_FILL">
<path fill="#FFFFFF" stroke="none" d="
M 220.15 443.35
L 220.15 436
Q 220.15 435.5 219.75 435.1 219.4 434.8 218.85 434.8 209.95 435.7 194.05 431.5 193.55 431.35 193.15 431.65 192.7 431.9 192.6 432.35
L 190.65 440.1
Q 190.6 440.4 190.75 440.65 190.9 440.9 191.2 441 197.35 442.5 203.75 443.55 214.3 445.25 219.15 444.55 219.55 444.5 219.85 444.15 220.15 443.8 220.15 443.35 Z"/>
</g>

<g id="Layer1_1_MEMBER_3_MEMBER_0_FILL">
<path fill="#FFFFFF" stroke="none" d="
M 532.05 185.8
L 532.05 197.75 542.4 203.85 542.4 191.9 532.05 185.8 Z"/>
</g>

<g id="Layer1_1_MEMBER_3_MEMBER_1_FILL">
<path fill="#FFFFFF" stroke="none" d="
M 528.45 195.7
L 528.45 183.75 452.7 140.85 452.7 152.8 528.45 195.7 Z"/>
</g>

<g id="Layer1_1_MEMBER_3_MEMBER_2_FILL">
<path fill="#FFFFFF" stroke="none" d="
M 440.1 133.75
L 440.1 145.7 449.1 150.75 449.1 138.8 440.1 133.75 Z"/>
</g>

<g id="Layer1_1_MEMBER_3_MEMBER_3_FILL">
<path fill="#FFFFFF" stroke="none" d="
M 507.15 89.9
Q 505.4 89.9 503.85 90.75
L 484.3 101.75
Q 481.35 103.4 480.95 106.8
L 462.9 96.55
Q 461.35 95.7 459.6 95.7 457.85 95.65 456.35 96.5
L 428.35 111.9
Q 426.75 112.8 425.8 114.4 424.85 115.95 424.85 117.8
L 424.85 151.4
Q 424.85 153.2 425.75 154.8 426.7 156.35 428.3 157.25
L 441.75 164.9 441.75 178.8 434.95 174.85
Q 431.9 173.15 428.8 174.6
L 415.45 180.7 394.7 166.45
Q 393.1 165.35 391.15 165.3 389.2 165.25 387.5 166.2
L 242.4 251.55
Q 240.85 252.45 240 254 239.1 255.55 239.1 257.35
L 239.1 286.25 183.35 319.25 160.7 312.25
Q 157.8 311.3 155.15 313 113.7 339.05 96.75 371.85 88.2 388.4 87.85 400.95 87.85 404.05 90.2 406.1 92.15 407.75 97.8 413 121.15 434.65 139.15 445.1 171.6 463.85 207.2 463.85 248.5 463.85 294.55 438.95
L 294.65 438.85 595.4 268.3
Q 597.75 267 598.55 264.4
L 612.3 218.4
Q 613 216.1 612.05 213.9 611.15 211.65 609.05 210.55
L 609 210.55 586.5 198.5 586.5 170.5
Q 586.5 168.65 585.6 167.1 584.7 165.55 583.1 164.65
L 532.95 136.25 532.95 107.35
Q 532.95 105.5 532.05 103.95 531.1 102.4 529.5 101.5
L 510.4 90.75
Q 508.9 89.9 507.15 89.9
M 501.3 107.6
L 507.15 104.35 512.5 107.35 506.65 110.6 501.3 107.6
M 513.35 122.25
L 519.5 118.8 519.5 145.6 513.35 149.05 513.35 122.25
M 496.05 146.5
L 496.05 120.05 499.9 122.2 499.9 148.7 496.05 146.5
M 566.25 170.55
L 552.55 178.4 520.6 160.4 529.5 155.4
Q 531.85 154.1 532.65 151.5
L 566.25 170.55
M 559.3 190.05
L 573.05 182.1 573.05 200.6 559.3 208.4 559.3 190.05
M 362.6 196.45
L 362.05 197.4 421.95 231.5 406.85 240.3 346.25 206.05 362.6 196.45
M 374.85 189.2
L 389.3 180.7 447.85 216.45 435.35 223.7 374.85 189.2
M 482.6 123.2
L 482.6 138.9 445.4 117.9 459.5 110.1 482.6 123.2
M 438.3 147.5
L 438.3 129.3 545.85 190.1 545.85 208.4 438.3 147.5
M 429.05 189.25
L 431.2 188.25 445 196.2 532.6 250.05 295.5 383.55 277.85 378.4 191.95 329.75 248.6 296.25 317.55 333.9
Q 319 334.7 320.75 334.7 322.6 334.7 324.15 333.8
L 464.35 252.25
Q 465.9 251.35 466.8 249.8 467.7 248.25 467.7 246.45
L 467.7 216.6
Q 467.7 214.85 466.85 213.3 466 211.8 464.5 210.85
L 429.05 189.25
M 455.2 186.7
L 455.2 172.5 532.4 216.2 532.4 234.15 455.2 186.7
M 454.25 228.3
L 454.25 242.55 444.15 248.45 444.15 234.15 454.25 228.3
M 415.1 265.35
L 415.1 251.05 430.75 241.95 430.75 256.25 415.1 265.35
M 393.4 248.1
L 377.95 257.1 317.6 222.9 332.9 213.9 393.4 248.1
M 372.35 275.9
L 372.35 290.2 356.6 299.35 356.6 285.05 372.35 275.9
M 385.8 282.4
L 385.8 268.1 401.7 258.85 401.7 273.15 385.8 282.4
M 364.5 264.9
L 349 273.9 288.8 239.85 304.2 230.75 364.5 264.9
M 327.5 316.3
L 327.5 301.95 343.15 292.85 343.15 307.2 327.5 316.3
M 594.65 230.5
L 591.6 240.65 291.85 409.4
Q 251.75 431.15 209.95 436.1 177.35 439.9 145.55 433.35 133.65 426.4 122.05 416.6 136.2 419 152.1 419 206.9 419 276.6 392.05
L 294.45 397.25
Q 297.2 398.05 299.6 396.65
L 594.65 230.5
M 581.65 211.15
L 591.9 216.65 571.65 228.05 571.65 216.8 581.65 211.15
M 587.9 253
L 586.45 257.95 288.05 427.15
Q 245.1 450.4 207.2 450.4 191.25 450.4 175.75 446.2 181.4 446.45 186.15 446.45 242.4 446.45 296.15 417.25
L 587.9 253
M 545.85 223.8
L 549.3 225.75
Q 550.8 226.65 552.6 226.65 554.4 226.65 555.9 225.75
L 558.2 224.45 558.2 226.6 545.85 233 545.85 223.8
M 113.95 369
Q 129.2 345.9 158.9 326.5
L 260.1 383.85
Q 221.7 397.6 187.65 402.65 161.5 406.55 139.5 405.1 126.5 404.2 115.4 401.5 107.75 399.6 101.8 397.05 104.25 383.6 113.95 369
M 252.5 283.05
L 252.5 267.25 314.05 302 314.05 316.65 252.5 283.05
M 260.65 256.4
L 275.45 247.7 335.55 281.75 320.7 290.35 260.65 256.4 Z"/>
</g>

<g id="Layer1_1_MEMBER_3_MEMBER_4_FILL">
<path fill="#FFFFFF" stroke="none" d="
M 217.05 424.5
Q 217.05 421.5 213.7 419.4 210.35 417.3 205.6 417.3 200.85 417.3 197.5 419.4 194.15 421.5 194.15 424.5 194.15 427.45 197.5 429.55 200.85 431.65 205.6 431.65 210.35 431.65 213.7 429.55 217.05 427.45 217.05 424.5 Z"/>
</g>

<g id="Layer1_1_MEMBER_4_MEMBER_0_FILL">
<path fill="#144162" fill-opacity="0.8470588235294118" stroke="none" d="
M -197.1 70.2
Q -209.25 58.05 -226.45 58.05 -243.65 58.05 -255.8 70.2 -267.95 82.35 -267.95 99.55 -267.95 116.75 -255.8 128.9 -243.65 141.05 -226.45 141.05 -209.25 141.05 -197.1 128.9 -184.95 116.75 -184.95 99.55 -184.95 82.35 -197.1 70.2 Z"/>
</g>

<g id="Layer1_1_MEMBER_5_MEMBER_0_FILL">
<path fill="#144162" fill-opacity="0.8470588235294118" stroke="none" d="
M -197.1 70.2
Q -209.25 58.05 -226.45 58.05 -243.65 58.05 -255.8 70.2 -267.95 82.35 -267.95 99.55 -267.95 116.75 -255.8 128.9 -243.65 141.05 -226.45 141.05 -209.25 141.05 -197.1 128.9 -184.95 116.75 -184.95 99.55 -184.95 82.35 -197.1 70.2 Z"/>
</g>

<g id="Layer1_1_MEMBER_6_MEMBER_0_MEMBER_0_FILL">
<path fill="#FFFFFF" stroke="none" d="
M 434.5 349.75
Q 432.3 348.8 430.05 349.75
L 350.9 383.45 271.75 349.75
Q 269.5 348.8 267.3 349.75
L 185.35 384.6
Q 183.8 385.3 182.85 386.7 181.9 388.15 181.9 389.85
L 181.9 499.1
Q 181.9 500.8 182.85 502.2 183.8 503.65 185.35 504.3
L 267.25 539.3 268.05 539.55
Q 268.65 539.75 269.45 539.75
L 269.5 539.75
Q 270.45 539.75 271.1 539.55
L 271.1 539.5 271.75 539.3 350.9 505.5 430 539.3 430.8 539.55
Q 431.4 539.75 432.25 539.75 433.25 539.75 433.85 539.5
L 434.5 539.3 516.45 504.3
Q 518 503.65 518.9 502.2 519.85 500.8 519.85 499.1
L 519.85 389.85
Q 519.9 388.15 518.95 386.7 518.05 385.3 516.45 384.65
L 434.5 349.75
M 432.3 361.15
L 456.2 371.3 389 400.15 364.8 389.85 432.3 361.15
M 470.6 377.45
L 499.75 389.85 432.3 418.7 403.4 406.35 470.6 377.45
M 269.55 361.15
L 293.4 371.3 226.2 400.15 202.05 389.85 269.55 361.15
M 263.85 428.6
L 263.85 525.5 193.25 495.35 193.25 398.45 263.85 428.6
M 269.5 418.7
L 240.6 406.35 307.85 377.45 337 389.85 269.5 418.7
M 275.2 525.5
L 275.2 428.6 344.7 398.9 344.7 495.8 275.2 525.5
M 508.55 398.45
L 508.55 495.35 437.95 525.5 437.95 428.6 508.55 398.45
M 426.6 428.6
L 426.6 525.5 357.1 495.8 357.1 398.9 426.6 428.6 Z"/>
</g>

<g id="Layer1_1_MEMBER_6_MEMBER_0_MEMBER_1_FILL">
<path fill="#FFFFFF" stroke="none" d="
M 407.4 439.75
Q 408.15 437.95 407.45 436.15 406.7 434.3 404.9 433.55
L 380.15 423.05
Q 378.35 422.3 376.55 423.05 374.75 423.75 373.95 425.55 373.2 427.35 373.95 429.2 374.65 431 376.5 431.75
L 401.2 442.25
Q 402.05 442.6 403.05 442.6 404.45 442.6 405.65 441.85 406.85 441.1 407.4 439.75 Z"/>
</g>

<g id="Layer1_1_MEMBER_6_MEMBER_0_MEMBER_2_FILL">
<path fill="#FFFFFF" stroke="none" d="
M 244.65 439.75
Q 245.4 437.95 244.7 436.15 243.95 434.3 242.15 433.55
L 217.4 423.05
Q 215.6 422.3 213.8 423.05 211.95 423.75 211.2 425.55 210.45 427.35 211.2 429.2 211.9 431 213.7 431.75
L 238.45 442.25
Q 239.3 442.6 240.3 442.6 241.7 442.6 242.9 441.85 244.1 441.1 244.65 439.75 Z"/>
</g>

<g id="Layer1_1_MEMBER_6_MEMBER_0_MEMBER_3_FILL">
<path fill="#FFFFFF" stroke="none" d="
M 348.75 22.1
Q 338.55 24.4 331.35 41.95 326.95 52.7 324.6 66.2 324.5 66.6 324.5 67.4
L 324.5 138.25 308.35 145.15
Q 308.05 142.95 306.5 141.25 304.5 139.25 301.65 139.25
L 281.95 139.25
Q 279.05 139.25 277.1 141.35 275.1 143.35 275.25 146.3
L 275.95 159.05 262.6 164.8 262.65 163.25
Q 262.75 160.45 260.75 158.4 258.8 156.35 255.95 156.35
L 236.25 156.35
Q 233.35 156.35 231.35 158.45 229.4 160.55 229.5 163.45
L 230.35 178.65 174.5 202.6
Q 172.65 203.4 171.5 205.1 170.4 206.75 170.4 208.8
L 170.45 223.55
Q 170.45 226.7 172.8 228.65 175.15 230.65 178.2 230.2
L 324.1 206.8 327.85 304.1 278.75 330.95
Q 277 331.9 276.05 333.7 275.1 335.5 275.3 337.5
L 276 344.55
Q 276.25 347.3 278.5 349.15 280.8 350.9 283.6 350.5
L 335.6 343.45 344.1 362.1
Q 344.95 363.9 346.55 365 348.2 366.05 350.2 366.05 352.2 366.05 353.85 365 355.5 363.9 356.3 362.1
L 364.8 343.45 416.85 350.5
Q 419.6 350.9 421.9 349.15 424.15 347.4 424.45 344.55
L 425.15 337.5
Q 425.35 335.45 424.4 333.7 423.45 331.9 421.65 330.95
L 372.55 304.1 376.3 206.8 522.2 230.2
Q 525.3 230.7 527.65 228.7 530 226.65 530 223.55
L 530 208.8
Q 530 206.75 528.9 205.1 527.75 203.4 525.9 202.6
L 470.05 178.65 470.85 163.45
Q 471 160.55 469.05 158.45 467.05 156.35 464.15 156.35
L 444.45 156.35
Q 441.6 156.35 439.65 158.4 437.65 160.45 437.75 163.25
L 437.8 164.8 424.45 159.05 425.15 146.3
Q 425.3 143.4 423.3 141.3 421.3 139.2 418.45 139.2
L 398.75 139.25
Q 395.9 139.25 393.9 141.25 392.35 142.85 392.05 145.15
L 375.9 138.2 375.9 67.4 375.8 66.2
Q 373.45 52.7 369.05 41.95 361.85 24.4 351.65 22.1 350.2 21.8 348.75 22.1
M 350.2 36.05
Q 353.35 38.75 356.9 48.05 360.5 57.35 362.45 67.95
L 362.45 142.65
Q 362.45 144.7 363.55 146.35 364.7 148 366.55 148.8
L 396.35 161.6
Q 397.95 162.3 399.65 162.15 401.35 161.95 402.75 161 404.2 160.05 404.95 158.5 405.75 157 405.7 155.25
L 405.6 152.65 411.35 152.65 410.8 163.05
Q 410.7 165.15 411.8 166.95 412.9 168.75 414.85 169.55
L 442.1 181.25
Q 443.7 181.95 445.4 181.8 447.15 181.6 448.55 180.65 450 179.7 450.75 178.15 451.55 176.65 451.5 174.9
L 451.35 169.8 457.05 169.8 456.4 182.6
Q 456.3 184.7 457.4 186.5 458.5 188.3 460.45 189.15
L 516.5 213.2 516.55 215.65 370.95 192.3
Q 367.9 191.8 365.65 193.75 363.3 195.65 363.2 198.65
L 358.95 307.7
Q 358.9 309.6 359.8 311.3 360.75 312.95 362.45 313.85
L 400.65 334.75 361.65 329.45
Q 359.45 329.15 357.5 330.25 355.55 331.3 354.65 333.35
L 350.2 343.1 345.75 333.35
Q 344.95 331.55 343.25 330.45 341.6 329.4 339.65 329.4 339.05 329.4 338.75 329.45
L 299.75 334.75 337.95 313.85
Q 339.65 312.95 340.6 311.3 341.55 309.6 341.45 307.7
L 337.2 198.65
Q 337.1 195.65 334.75 193.75 332.45 191.85 329.45 192.3
L 183.85 215.65 183.85 213.2 239.95 189.15
Q 241.9 188.35 243 186.5 244.1 184.7 244 182.6
L 243.3 169.8 249 169.8 248.9 174.9
Q 248.85 176.6 249.65 178.15 250.4 179.65 251.85 180.65 254.95 182.75 258.25 181.25
L 285.55 169.55
Q 287.45 168.7 288.6 166.95 289.7 165.15 289.6 163.05
L 289.05 152.65 294.75 152.65 294.7 155.25
Q 294.65 156.95 295.4 158.5 296.2 160 297.6 161 299 161.95 300.75 162.15 302.45 162.3 304.05 161.6
L 333.85 148.8
Q 335.7 148 336.8 146.35 337.9 144.65 337.9 142.65
L 337.9 67.95
Q 339.85 57.4 343.45 48.05 347.05 38.8 350.2 36.05 Z"/>
</g>

<g id="Layer1_1_MEMBER_7_MEMBER_0_MEMBER_0_FILL">
<path fill="#FFFFFF" stroke="none" d="
M 501.55 182.55
Q 495.4 180 488.75 180
L 455.45 180
Q 448.8 180 442.7 182.55 436.55 185.1 431.85 189.8 427.15 194.5 424.65 200.65 422.1 206.75 422.05 213.4
L 422.05 291.1
Q 422.15 301.85 428.2 310.35 434.2 318.95 444.3 322.6
L 444.3 354.15
Q 421.95 358.55 400 360.85
L 400 213.4
Q 400 206.75 397.45 200.65 394.95 194.5 390.25 189.8 385.55 185.1 379.45 182.55 373.3 180 366.65 180
L 333.3 180
Q 326.7 180 320.55 182.55 314.45 185.1 309.7 189.8 305 194.5 302.5 200.65 299.95 206.75 299.95 213.4
L 299.95 291.1
Q 299.95 301.8 306.05 310.35 312.05 318.95 322.15 322.6
L 322.15 362.75
Q 299.15 361.45 277.9 358.25
L 277.9 213.4
Q 277.85 206.75 275.35 200.65 272.8 194.5 268.1 189.8 263.4 185.1 257.3 182.55 251.15 180 244.5 180
L 211.2 180
Q 204.55 180 198.45 182.55 192.3 185.1 187.6 189.8 182.9 194.5 180.35 200.65 177.8 206.75 177.8 213.4
L 177.8 291.1
Q 177.8 301.7 183.9 310.35 190 319 200 322.6
L 200 340.05
Q 182.65 334.5 167.8 328.65
L 151.4 322.1 151.4 301
Q 151.4 296.4 148.15 293.1 144.85 289.85 140.25 289.85 135.65 289.85 132.35 293.1 129.05 296.4 129.05 301
L 129.05 457.6 112.25 457.6
Q 107.65 457.6 104.4 460.9 101.15 464.15 101.15 468.8 101.15 473.4 104.4 476.7 107.65 479.95 112.25 479.95
L 587.7 479.95
Q 592.3 479.95 595.55 476.7 598.8 473.4 598.8 468.8 598.8 464.15 595.55 460.9 592.3 457.6 587.7 457.6
L 570.9 457.6 570.9 301
Q 570.9 296.4 567.65 293.1 564.35 289.85 559.7 289.85 555.1 289.85 551.8 293.1 548.55 296.4 548.55 301
L 548.55 321.4 531.9 328.1
Q 525.4 330.5 522.15 331.75
L 522.15 213.4
Q 522.15 206.75 519.6 200.65 517.1 194.5 512.4 189.8 507.65 185.1 501.55 182.55
M 447.7 205.6
Q 450.9 202.4 455.45 202.4
L 488.75 202.4
Q 493.35 202.4 496.55 205.6 499.8 208.85 499.8 213.4
L 499.8 339.6
Q 481.95 345.35 466.65 349.15
L 466.65 313.35
Q 466.65 308.75 463.35 305.45 460.05 302.15 455.45 302.15 450.9 302.15 447.7 298.9 444.45 295.7 444.45 291.15
L 444.45 213.4
Q 444.45 208.85 447.7 205.6
M 374.4 205.6
Q 377.65 208.85 377.65 213.4
L 377.65 362.65
Q 360.4 363.65 344.5 363.45
L 344.5 313.35
Q 344.5 308.7 341.25 305.45 337.95 302.15 333.3 302.15 328.75 302.15 325.55 298.9 322.3 295.7 322.3 291.15
L 322.3 213.4
Q 322.3 208.85 325.55 205.6 328.75 202.4 333.3 202.4
L 366.65 202.4
Q 371.2 202.4 374.4 205.6
M 344.5 385.85
L 349.15 385.95
Q 361.5 385.95 377.65 385.1
L 377.65 457.6 344.5 457.6 344.5 385.85
M 400 383.35
Q 421.95 381.2 444.3 376.95
L 444.3 457.6 400 457.6 400 383.35
M 522.15 355.6
Q 533.2 351.65 540.2 348.85
L 548.55 345.5 548.55 457.6 522.15 457.6 522.15 355.6
M 466.65 372.15
Q 482.95 368.25 499.8 363.05
L 499.8 457.6 466.65 457.6 466.65 372.15
M 151.4 346.2
L 159.55 349.45
Q 177.8 356.7 200 363.55
L 200 457.6 151.4 457.6 151.4 346.2
M 252.3 205.6
Q 255.5 208.85 255.5 213.4
L 255.5 354.45
Q 239.9 351.35 222.35 346.65
L 222.35 313.35
Q 222.35 308.7 219.1 305.45 215.8 302.15 211.2 302.15 206.65 302.15 203.4 298.9 200.15 295.7 200.15 291.15
L 200.15 213.4
Q 200.15 208.85 203.4 205.6 206.6 202.4 211.2 202.4
L 244.5 202.4
Q 249.1 202.4 252.3 205.6
M 277.9 380.95
Q 299.65 384 322.15 385.2
L 322.15 457.6 277.9 457.6 277.9 380.95
M 222.35 369.8
Q 240.65 374.45 255.5 377.2
L 255.5 457.6 222.35 457.6 222.35 369.8 Z"/>
</g>

<g id="Layer1_1_MEMBER_7_MEMBER_0_MEMBER_1_FILL">
<path fill="#FFFFFF" stroke="none" d="
M 227.85 80.1
Q 220.1 80.1 212.95 83.05 205.8 86.05 200.3 91.5 194.85 97 191.85 104.15 188.9 111.25 188.9 119 188.9 126.75 191.85 133.9 194.85 141.1 200.3 146.55 205.8 152.05 212.95 155 220.1 157.95 227.85 157.95 235.6 157.95 242.75 155 249.9 152.05 255.35 146.55 260.85 141.1 263.85 133.9 266.8 126.75 266.8 119 266.8 111.25 263.85 104.15 260.85 96.95 255.35 91.5 249.9 86.05 242.75 83.05 235.6 80.1 227.85 80.1
M 227.85 102.45
Q 234.7 102.45 239.55 107.3 241.9 109.65 243.15 112.65 244.4 115.7 244.4 119 244.4 122.3 243.15 125.35 241.9 128.45 239.55 130.75 237.2 133.1 234.2 134.35 231.15 135.6 227.85 135.6 224.55 135.6 221.5 134.35 218.45 133.1 216.1 130.75 213.8 128.45 212.5 125.35 211.25 122.3 211.25 119 211.25 115.75 212.5 112.7 213.8 109.6 216.1 107.3 221.05 102.45 227.85 102.45 Z"/>
</g>

<g id="Layer1_1_MEMBER_7_MEMBER_0_MEMBER_2_FILL">
<path fill="#FFFFFF" stroke="none" d="
M 350 80.1
Q 342.25 80.1 335.1 83.05 327.95 86.05 322.45 91.5 317 97 314 104.15 311.05 111.25 311.05 119 311.05 126.75 314 133.9 317 141.1 322.45 146.55 327.95 152.05 335.1 155 342.25 157.95 350 157.95 357.75 157.95 364.9 155 372.05 152.05 377.5 146.55 383 141.1 385.95 133.9 388.9 126.75 388.9 119 388.9 111.25 385.95 104.15 383 97 377.5 91.5 372.05 86.05 364.9 83.05 357.75 80.1 350 80.1
M 366.55 119
Q 366.55 122.3 365.3 125.35 364.05 128.45 361.7 130.75 359.4 133.05 356.3 134.35 353.25 135.6 350 135.6 346.7 135.6 343.65 134.35 340.6 133.1 338.25 130.75 335.95 128.45 334.65 125.35 333.4 122.3 333.4 119 333.4 115.75 334.65 112.7 335.95 109.6 338.25 107.3 340.55 105 343.65 103.7 346.7 102.45 349.95 102.45
L 350 102.45
Q 353.25 102.45 356.3 103.7 359.4 105 361.7 107.3 364.05 109.65 365.3 112.65 366.55 115.7 366.55 119 Z"/>
</g>

<g id="Layer1_1_MEMBER_7_MEMBER_0_MEMBER_3_FILL">
<path fill="#FFFFFF" stroke="none" d="
M 499.65 91.5
Q 494.2 86.05 487 83.05 479.85 80.1 472.1 80.1 464.35 80.1 457.25 83.05 450.1 86.05 444.6 91.5 439.1 96.95 436.1 104.15 433.15 111.25 433.15 119 433.2 126.75 436.15 133.9 439.15 141.1 444.6 146.55 450.1 152.05 457.25 155 464.35 157.95 472.1 157.95 479.85 157.95 487 155 494.2 152.05 499.65 146.55 505.15 141.1 508.1 133.9 511.05 126.75 511.05 119 511.05 111.25 508.1 104.15 505.15 97 499.65 91.5
M 488.7 119
Q 488.7 122.3 487.45 125.35 486.2 128.45 483.85 130.75 481.55 133.1 478.45 134.35 475.4 135.6 472.1 135.6 468.8 135.6 465.75 134.35 462.75 133.1 460.4 130.75 458.1 128.45 456.8 125.35 455.55 122.3 455.55 119 455.55 115.75 456.8 112.7 458.1 109.6 460.4 107.3 462.75 104.95 465.75 103.7 468.8 102.45 472.1 102.45 475.4 102.45 478.45 103.7 481.55 105 483.85 107.3 486.2 109.65 487.45 112.65 488.7 115.7 488.7 119 Z"/>
</g>
</defs>

<g transform="matrix( 1, 0, 0, 1, 0,54.9) ">
<use xlink:href="#Layer1_0_MEMBER_0_FILL"/>
</g>

<g transform="matrix( 1, 0, 0, 1, 0,54.9) ">
<use xlink:href="#Layer1_0_MEMBER_1_FILL"/>
</g>

<g transform="matrix( 0.5653076171875, 0, 0, 0.5653076171875, -249.4,62.35) ">
<use xlink:href="#Layer1_1_MEMBER_0_FILL"/>
</g>

<g transform="matrix( 1.1578369140625, 0, 0, 1.1578369140625, 500,181.45) ">
<use xlink:href="#Layer1_1_MEMBER_1_FILL"/>
</g>

<g transform="matrix( 1, 0, 0, 1, 341.25,134) ">
<use xlink:href="#Layer1_1_MEMBER_2_MEMBER_0_FILL"/>
</g>

<g transform="matrix( -0.1198272705078125, 0, 0, 0.1198577880859375, 155.35,201.95) ">
<use xlink:href="#Layer1_1_MEMBER_2_MEMBER_1_MEMBER_0_FILL"/>
</g>

<g transform="matrix( -0.1198272705078125, 0, 0, 0.1198577880859375, 155.35,201.95) ">
<use xlink:href="#Layer1_1_MEMBER_2_MEMBER_1_MEMBER_1_FILL"/>
</g>

<g transform="matrix( -0.1198272705078125, 0, 0, 0.1198577880859375, 155.35,201.95) ">
<use xlink:href="#Layer1_1_MEMBER_2_MEMBER_1_MEMBER_2_FILL"/>
</g>

<g transform="matrix( -0.1198272705078125, 0, 0, 0.1198577880859375, 155.35,201.95) ">
<use xlink:href="#Layer1_1_MEMBER_2_MEMBER_1_MEMBER_3_FILL"/>
</g>

<g transform="matrix( -0.1198272705078125, 0, 0, 0.1198577880859375, 155.35,201.95) ">
<use xlink:href="#Layer1_1_MEMBER_2_MEMBER_1_MEMBER_4_FILL"/>
</g>

<g transform="matrix( -0.1198272705078125, 0, 0, 0.1198577880859375, 155.35,201.95) ">
<use xlink:href="#Layer1_1_MEMBER_2_MEMBER_1_MEMBER_5_FILL"/>
</g>

<g transform="matrix( -0.1198272705078125, 0, 0, 0.1198577880859375, 155.35,201.95) ">
<use xlink:href="#Layer1_1_MEMBER_2_MEMBER_1_MEMBER_6_FILL"/>
</g>

<g transform="matrix( -0.1198272705078125, 0, 0, 0.1198577880859375, 155.35,201.95) ">
<use xlink:href="#Layer1_1_MEMBER_2_MEMBER_1_MEMBER_7_FILL"/>
</g>

<g transform="matrix( -0.1198272705078125, 0, 0, 0.1198577880859375, 155.35,201.95) ">
<use xlink:href="#Layer1_1_MEMBER_2_MEMBER_1_MEMBER_8_FILL"/>
</g>

<g transform="matrix( -0.1198272705078125, 0, 0, 0.1198577880859375, 155.35,201.95) ">
<use xlink:href="#Layer1_1_MEMBER_2_MEMBER_1_MEMBER_9_FILL"/>
</g>

<g transform="matrix( -0.1198272705078125, 0, 0, 0.1198577880859375, 155.35,201.95) ">
<use xlink:href="#Layer1_1_MEMBER_2_MEMBER_1_MEMBER_10_FILL"/>
</g>

<g transform="matrix( -0.1198272705078125, 0, 0, 0.1198577880859375, 155.35,201.95) ">
<use xlink:href="#Layer1_1_MEMBER_2_MEMBER_1_MEMBER_11_FILL"/>
</g>

<g transform="matrix( -0.1198272705078125, 0, 0, 0.1198577880859375, 155.35,201.95) ">
<use xlink:href="#Layer1_1_MEMBER_2_MEMBER_1_MEMBER_12_FILL"/>
</g>

<g transform="matrix( -0.1198272705078125, 0, 0, 0.1198577880859375, 155.35,201.95) ">
<use xlink:href="#Layer1_1_MEMBER_2_MEMBER_1_MEMBER_13_FILL"/>
</g>

<g transform="matrix( -0.1198272705078125, 0, 0, 0.1198577880859375, 155.35,201.95) ">
<use xlink:href="#Layer1_1_MEMBER_2_MEMBER_1_MEMBER_14_FILL"/>
</g>

<g transform="matrix( -0.1198272705078125, 0, 0, 0.1198577880859375, 155.35,201.95) ">
<use xlink:href="#Layer1_1_MEMBER_2_MEMBER_1_MEMBER_15_FILL"/>
</g>

<g transform="matrix( -0.1198272705078125, 0, 0, 0.1198577880859375, 155.35,201.95) ">
<use xlink:href="#Layer1_1_MEMBER_2_MEMBER_1_MEMBER_16_FILL"/>
</g>

<g transform="matrix( -0.1198272705078125, 0, 0, 0.1198577880859375, 155.35,201.95) ">
<use xlink:href="#Layer1_1_MEMBER_2_MEMBER_1_MEMBER_17_FILL"/>
</g>

<g transform="matrix( -0.1198272705078125, 0, 0, 0.1198577880859375, 155.35,201.95) ">
<use xlink:href="#Layer1_1_MEMBER_2_MEMBER_1_MEMBER_18_FILL"/>
</g>

<g transform="matrix( 0.140350341796875, 0, 0, 0.1401214599609375, 189.15,261.55) ">
<use xlink:href="#Layer1_1_MEMBER_3_MEMBER_0_FILL"/>
</g>

<g transform="matrix( 0.140350341796875, 0, 0, 0.1401214599609375, 189.15,261.55) ">
<use xlink:href="#Layer1_1_MEMBER_3_MEMBER_1_FILL"/>
</g>

<g transform="matrix( 0.140350341796875, 0, 0, 0.1401214599609375, 189.15,261.55) ">
<use xlink:href="#Layer1_1_MEMBER_3_MEMBER_2_FILL"/>
</g>

<g transform="matrix( 0.140350341796875, 0, 0, 0.1401214599609375, 189.15,261.55) ">
<use xlink:href="#Layer1_1_MEMBER_3_MEMBER_3_FILL"/>
</g>

<g transform="matrix( 0.140350341796875, 0, 0, 0.1401214599609375, 189.15,261.55) ">
<use xlink:href="#Layer1_1_MEMBER_3_MEMBER_4_FILL"/>
</g>

<g transform="matrix( 1.0433807373046875, 0, 0, 1.0433807373046875, 371.35,-9.85) ">
<use xlink:href="#Layer1_1_MEMBER_4_MEMBER_0_FILL"/>
</g>

<g transform="matrix( 0.7698822021484375, 0, 0, 0.7698822021484375, 256.95,-32.15) ">
<use xlink:href="#Layer1_1_MEMBER_5_MEMBER_0_FILL"/>
</g>

<g transform="matrix( 0.1265106201171875, 0, 0, 0.1265106201171875, 90.65,56.25) ">
<use xlink:href="#Layer1_1_MEMBER_6_MEMBER_0_MEMBER_0_FILL"/>
</g>

<g transform="matrix( 0.1265106201171875, 0, 0, 0.1265106201171875, 90.65,56.25) ">
<use xlink:href="#Layer1_1_MEMBER_6_MEMBER_0_MEMBER_1_FILL"/>
</g>

<g transform="matrix( 0.1265106201171875, 0, 0, 0.1265106201171875, 90.65,56.25) ">
<use xlink:href="#Layer1_1_MEMBER_6_MEMBER_0_MEMBER_2_FILL"/>
</g>

<g transform="matrix( 0.1265106201171875, 0, 0, 0.1265106201171875, 90.65,56.25) ">
<use xlink:href="#Layer1_1_MEMBER_6_MEMBER_0_MEMBER_3_FILL"/>
</g>

<g transform="matrix( 0.087738037109375, 0, 0, 0.0876922607421875, 51.7,19.85) ">
<use xlink:href="#Layer1_1_MEMBER_7_MEMBER_0_MEMBER_0_FILL"/>
</g>

<g transform="matrix( 0.087738037109375, 0, 0, 0.0876922607421875, 51.7,19.85) ">
<use xlink:href="#Layer1_1_MEMBER_7_MEMBER_0_MEMBER_1_FILL"/>
</g>

<g transform="matrix( 0.087738037109375, 0, 0, 0.0876922607421875, 51.7,19.85) ">
<use xlink:href="#Layer1_1_MEMBER_7_MEMBER_0_MEMBER_2_FILL"/>
</g>

<g transform="matrix( 0.087738037109375, 0, 0, 0.0876922607421875, 51.7,19.85) ">
<use xlink:href="#Layer1_1_MEMBER_7_MEMBER_0_MEMBER_3_FILL"/>
</g>
</svg>
