<?xml version="1.0" encoding="utf-8"?>
<!-- Generator: Adobe Illustrator 24.3.0, SVG Export Plug-In . SVG Version: 6.00 Build 0)  -->
<svg version="1.1" xmlns="http://www.w3.org/2000/svg" xmlns:xlink="http://www.w3.org/1999/xlink" x="0px" y="0px"
	 viewBox="0 0 350 266" style="enable-background:new 0 0 350 266;" xml:space="preserve">
<style type="text/css">
	.st0{fill:#6FB590;}
	.st1{fill:#C9EE95;}
	.st2{fill:#FFFFFF;}
	.st3{fill:#0C486C;}
	.st4{fill:none;stroke:#FFFFFF;stroke-width:1.2374;stroke-miterlimit:10;}
</style>
<g id="Camada_3">
	<g>
		<rect x="18.4" y="17.8" class="st0" width="315.1" height="16.4"/>
		<rect x="18.4" y="39.6" class="st1" width="315.1" height="208.7"/>
		<g>
			<path class="st2" d="M32.3,28.7c0.3,0,0.5,0,0.7-0.1c0.2-0.1,0.4-0.2,0.5-0.4c0.1-0.2,0.2-0.3,0.3-0.6c0.1-0.2,0.1-0.5,0.1-0.7
				v-4.3h1.3v4.3c0,0.4-0.1,0.8-0.2,1.2c-0.1,0.4-0.3,0.7-0.6,0.9s-0.6,0.5-0.9,0.6c-0.4,0.1-0.8,0.2-1.2,0.2
				c-0.5,0-0.9-0.1-1.2-0.2c-0.4-0.1-0.7-0.4-0.9-0.6c-0.3-0.3-0.5-0.6-0.6-0.9c-0.1-0.4-0.2-0.8-0.2-1.2v-4.3h1.3v4.3
				c0,0.3,0,0.5,0.1,0.7c0.1,0.2,0.2,0.4,0.3,0.6s0.3,0.3,0.5,0.4C31.9,28.7,32.1,28.7,32.3,28.7z"/>
			<path class="st2" d="M41.2,22.6v1.1H38v2.1h2.7v1.1H38v2.9h-1.3v-7.2H41.2z"/>
		</g>
		<g>
			<path class="st3" d="M29.2,48.2v2.7h-1v-7.1h2.1c0.4,0,0.8,0.1,1.2,0.2c0.3,0.1,0.6,0.3,0.8,0.4s0.4,0.4,0.5,0.7
				c0.1,0.3,0.2,0.6,0.2,0.9c0,0.3-0.1,0.6-0.2,0.9c-0.1,0.3-0.3,0.5-0.5,0.7c-0.2,0.2-0.5,0.4-0.8,0.5c-0.3,0.1-0.7,0.2-1.1,0.2
				H29.2z M29.2,47.4h1.1c0.3,0,0.5,0,0.7-0.1s0.4-0.2,0.5-0.3c0.1-0.1,0.2-0.3,0.3-0.5c0.1-0.2,0.1-0.4,0.1-0.6
				c0-0.5-0.1-0.8-0.4-1.1s-0.7-0.4-1.3-0.4h-1.1V47.4z"/>
			<path class="st3" d="M34.2,50.8v-7.1h2.3c0.4,0,0.8,0,1.1,0.1s0.6,0.2,0.8,0.4c0.2,0.2,0.4,0.4,0.5,0.6c0.1,0.2,0.1,0.5,0.1,0.8
				c0,0.2,0,0.3-0.1,0.5c-0.1,0.2-0.1,0.3-0.2,0.5c-0.1,0.1-0.2,0.3-0.4,0.4c-0.2,0.1-0.4,0.2-0.6,0.3c0.5,0.1,0.9,0.3,1.2,0.6
				c0.3,0.3,0.4,0.6,0.4,1.1c0,0.3-0.1,0.6-0.2,0.8c-0.1,0.2-0.3,0.5-0.5,0.6c-0.2,0.2-0.5,0.3-0.8,0.4s-0.7,0.1-1.1,0.1H34.2z
				 M35.1,46.9h1.3c0.3,0,0.5,0,0.7-0.1c0.2-0.1,0.4-0.1,0.5-0.2s0.2-0.2,0.3-0.4c0.1-0.1,0.1-0.3,0.1-0.5c0-0.4-0.1-0.7-0.4-0.9
				c-0.3-0.2-0.6-0.3-1.2-0.3h-1.3V46.9z M35.1,47.6v2.5h1.5c0.3,0,0.5,0,0.7-0.1c0.2-0.1,0.4-0.2,0.5-0.3s0.2-0.2,0.3-0.4
				s0.1-0.3,0.1-0.5c0-0.4-0.1-0.7-0.4-0.9c-0.3-0.2-0.7-0.3-1.2-0.3H35.1z"/>
			<path class="st3" d="M29.2,63v2.7h-1v-7.1h2.1c0.4,0,0.8,0.1,1.2,0.2c0.3,0.1,0.6,0.3,0.8,0.4s0.4,0.4,0.5,0.7
				c0.1,0.3,0.2,0.6,0.2,0.9c0,0.3-0.1,0.6-0.2,0.9c-0.1,0.3-0.3,0.5-0.5,0.7s-0.5,0.4-0.8,0.5C31.1,63,30.7,63,30.3,63H29.2z
				 M29.2,62.3h1.1c0.3,0,0.5,0,0.7-0.1c0.2-0.1,0.4-0.2,0.5-0.3c0.1-0.1,0.2-0.3,0.3-0.5C32,61.2,32,61,32,60.8
				c0-0.5-0.1-0.8-0.4-1.1s-0.7-0.4-1.3-0.4h-1.1V62.3z"/>
			<path class="st3" d="M35.2,62.7v3h-1v-7.1h2c0.4,0,0.8,0,1.2,0.1s0.6,0.2,0.8,0.4c0.2,0.2,0.4,0.4,0.5,0.6
				c0.1,0.2,0.2,0.5,0.2,0.8c0,0.3,0,0.5-0.1,0.7s-0.2,0.4-0.3,0.6c-0.2,0.2-0.3,0.3-0.5,0.4c-0.2,0.1-0.5,0.2-0.7,0.3
				c0.1,0.1,0.2,0.2,0.3,0.3l2.1,2.8h-0.9c-0.2,0-0.3-0.1-0.4-0.2l-1.8-2.5c-0.1-0.1-0.1-0.1-0.2-0.2c-0.1,0-0.2-0.1-0.3-0.1H35.2z
				 M35.2,62h1c0.3,0,0.5,0,0.7-0.1c0.2-0.1,0.4-0.2,0.5-0.3c0.1-0.1,0.3-0.3,0.3-0.4c0.1-0.2,0.1-0.4,0.1-0.6c0-0.4-0.1-0.7-0.4-1
				c-0.3-0.2-0.7-0.3-1.2-0.3h-1V62z"/>
			<path class="st3" d="M29.5,77.9v2.7h-1v-7.1h2.1c0.4,0,0.8,0.1,1.2,0.2c0.3,0.1,0.6,0.3,0.8,0.4s0.4,0.4,0.5,0.7
				c0.1,0.3,0.2,0.6,0.2,0.9c0,0.3-0.1,0.6-0.2,0.9c-0.1,0.3-0.3,0.5-0.5,0.7s-0.5,0.4-0.8,0.5c-0.3,0.1-0.7,0.2-1.1,0.2H29.5z
				 M29.5,77.1h1.1c0.3,0,0.5,0,0.7-0.1c0.2-0.1,0.4-0.2,0.5-0.3c0.1-0.1,0.2-0.3,0.3-0.5c0.1-0.2,0.1-0.4,0.1-0.6
				c0-0.5-0.1-0.8-0.4-1.1s-0.7-0.4-1.3-0.4h-1.1V77.1z"/>
			<path class="st3" d="M38.9,73.4v0.8h-3.4v2.4h2.8v0.8h-2.8v2.4h3.4v0.8h-4.4v-7.1H38.9z"/>
			<path class="st3" d="M30.8,92.7v2.7h-1v-7.1H32c0.4,0,0.8,0.1,1.2,0.2c0.3,0.1,0.6,0.3,0.8,0.4s0.4,0.4,0.5,0.7
				c0.1,0.3,0.2,0.6,0.2,0.9c0,0.3-0.1,0.6-0.2,0.9c-0.1,0.3-0.3,0.5-0.5,0.7s-0.5,0.4-0.8,0.5c-0.3,0.1-0.7,0.2-1.1,0.2H30.8z
				 M30.8,92H32c0.3,0,0.5,0,0.7-0.1c0.2-0.1,0.4-0.2,0.5-0.3c0.1-0.1,0.2-0.3,0.3-0.5c0.1-0.2,0.1-0.4,0.1-0.6
				c0-0.5-0.1-0.8-0.4-1.1S32.5,89,32,89h-1.1V92z"/>
			<path class="st3" d="M37,95.4h-1v-7.1h1V95.4z"/>
			<path class="st3" d="M30,107.3v3h-1v-7.1h2c0.4,0,0.8,0,1.2,0.1s0.6,0.2,0.8,0.4c0.2,0.2,0.4,0.4,0.5,0.6
				c0.1,0.2,0.2,0.5,0.2,0.8c0,0.3,0,0.5-0.1,0.7s-0.2,0.4-0.3,0.6c-0.2,0.2-0.3,0.3-0.5,0.4c-0.2,0.1-0.5,0.2-0.7,0.3
				c0.1,0.1,0.2,0.2,0.3,0.3l2.1,2.8h-0.9c-0.2,0-0.3-0.1-0.4-0.2l-1.8-2.5c-0.1-0.1-0.1-0.1-0.2-0.2c-0.1,0-0.2-0.1-0.3-0.1H30z
				 M30,106.6h1c0.3,0,0.5,0,0.7-0.1c0.2-0.1,0.4-0.2,0.5-0.3c0.1-0.1,0.3-0.3,0.3-0.4c0.1-0.2,0.1-0.4,0.1-0.6c0-0.4-0.1-0.7-0.4-1
				c-0.3-0.2-0.7-0.3-1.2-0.3h-1V106.6z"/>
			<path class="st3" d="M38,107.8c0,0.4,0,0.8-0.1,1.1s-0.2,0.6-0.4,0.8c-0.2,0.2-0.4,0.4-0.7,0.5c-0.3,0.1-0.6,0.2-1,0.2
				c-0.3,0-0.7,0-1-0.1c0-0.1,0-0.2,0-0.3c0-0.1,0-0.2,0-0.3c0-0.1,0-0.1,0.1-0.1c0,0,0.1-0.1,0.2-0.1c0.1,0,0.1,0,0.2,0
				c0.1,0,0.2,0,0.4,0c0.2,0,0.4,0,0.6-0.1c0.2-0.1,0.3-0.2,0.4-0.3c0.1-0.1,0.2-0.3,0.3-0.5c0.1-0.2,0.1-0.5,0.1-0.8v-4.7h1V107.8z
				"/>
			<path class="st3" d="M28.5,122.1v3h-1V118h2c0.4,0,0.8,0,1.2,0.1s0.6,0.2,0.8,0.4c0.2,0.2,0.4,0.4,0.5,0.6
				c0.1,0.2,0.2,0.5,0.2,0.8c0,0.3,0,0.5-0.1,0.7s-0.2,0.4-0.3,0.6c-0.2,0.2-0.3,0.3-0.5,0.4c-0.2,0.1-0.5,0.2-0.7,0.3
				c0.1,0.1,0.2,0.2,0.3,0.3l2.1,2.8h-0.9c-0.2,0-0.3-0.1-0.4-0.2l-1.8-2.5c-0.1-0.1-0.1-0.1-0.2-0.2c-0.1,0-0.2-0.1-0.3-0.1H28.5z
				 M28.5,121.4h1c0.3,0,0.5,0,0.7-0.1c0.2-0.1,0.4-0.2,0.5-0.3c0.1-0.1,0.3-0.3,0.3-0.4c0.1-0.2,0.1-0.4,0.1-0.6
				c0-0.4-0.1-0.7-0.4-1c-0.3-0.2-0.7-0.3-1.2-0.3h-1V121.4z"/>
			<path class="st3" d="M34.5,118c0,0,0.1,0.1,0.1,0.1l4.1,5.3c0-0.1,0-0.2,0-0.2s0-0.2,0-0.2v-5h0.8v7.1H39c-0.1,0-0.1,0-0.2,0
				c-0.1,0-0.1-0.1-0.2-0.1l-4.1-5.3c0,0.1,0,0.2,0,0.2c0,0.1,0,0.2,0,0.2v5.1h-0.8V118h0.5C34.4,118,34.4,118,34.5,118z"/>
			<path class="st3" d="M29.6,137v3h-1v-7.1h2c0.4,0,0.8,0,1.2,0.1s0.6,0.2,0.8,0.4c0.2,0.2,0.4,0.4,0.5,0.6
				c0.1,0.2,0.2,0.5,0.2,0.8c0,0.3,0,0.5-0.1,0.7s-0.2,0.4-0.3,0.6c-0.2,0.2-0.3,0.3-0.5,0.4c-0.2,0.1-0.5,0.2-0.7,0.3
				c0.1,0.1,0.2,0.2,0.3,0.3l2.1,2.8H33c-0.2,0-0.3-0.1-0.4-0.2l-1.8-2.5c-0.1-0.1-0.1-0.1-0.2-0.2c-0.1,0-0.2-0.1-0.3-0.1H29.6z
				 M29.6,136.3h1c0.3,0,0.5,0,0.7-0.1c0.2-0.1,0.4-0.2,0.5-0.3c0.1-0.1,0.3-0.3,0.3-0.4c0.1-0.2,0.1-0.4,0.1-0.6
				c0-0.4-0.1-0.7-0.4-1c-0.3-0.2-0.7-0.3-1.2-0.3h-1V136.3z"/>
			<path class="st3" d="M38.5,133.9c0,0-0.1,0.1-0.1,0.1c0,0-0.1,0-0.1,0c-0.1,0-0.1,0-0.2-0.1c-0.1-0.1-0.2-0.1-0.3-0.2
				c-0.1-0.1-0.3-0.1-0.4-0.2c-0.2-0.1-0.4-0.1-0.6-0.1c-0.2,0-0.4,0-0.6,0.1c-0.2,0.1-0.3,0.1-0.4,0.2c-0.1,0.1-0.2,0.2-0.2,0.3
				s-0.1,0.3-0.1,0.4c0,0.2,0,0.4,0.1,0.5c0.1,0.1,0.2,0.2,0.4,0.3c0.2,0.1,0.3,0.2,0.5,0.2c0.2,0.1,0.4,0.1,0.6,0.2
				s0.4,0.2,0.6,0.2s0.4,0.2,0.5,0.3s0.3,0.3,0.4,0.5c0.1,0.2,0.1,0.4,0.1,0.7c0,0.3-0.1,0.6-0.2,0.9s-0.3,0.5-0.5,0.7
				c-0.2,0.2-0.5,0.4-0.7,0.5c-0.3,0.1-0.6,0.2-1,0.2c-0.5,0-0.9-0.1-1.3-0.2c-0.4-0.2-0.7-0.4-1-0.7l0.3-0.5c0,0,0.1-0.1,0.1-0.1
				c0,0,0.1,0,0.1,0c0.1,0,0.1,0,0.2,0.1c0.1,0.1,0.2,0.2,0.3,0.2c0.1,0.1,0.3,0.2,0.5,0.2c0.2,0.1,0.4,0.1,0.7,0.1
				c0.2,0,0.4,0,0.6-0.1s0.3-0.2,0.5-0.3c0.1-0.1,0.2-0.2,0.3-0.4c0.1-0.2,0.1-0.3,0.1-0.5c0-0.2,0-0.4-0.1-0.5
				c-0.1-0.1-0.2-0.3-0.4-0.3c-0.2-0.1-0.3-0.2-0.5-0.2c-0.2-0.1-0.4-0.1-0.6-0.2s-0.4-0.1-0.6-0.2c-0.2-0.1-0.4-0.2-0.5-0.3
				c-0.2-0.1-0.3-0.3-0.4-0.5c-0.1-0.2-0.1-0.5-0.1-0.8c0-0.3,0-0.5,0.1-0.7c0.1-0.2,0.2-0.4,0.4-0.6c0.2-0.2,0.4-0.3,0.7-0.4
				c0.3-0.1,0.6-0.2,0.9-0.2c0.4,0,0.8,0.1,1.1,0.2c0.3,0.1,0.6,0.3,0.9,0.5L38.5,133.9z"/>
			<path class="st3" d="M28.4,151.8v3h-1v-7.1h2c0.4,0,0.8,0,1.2,0.1s0.6,0.2,0.8,0.4c0.2,0.2,0.4,0.4,0.5,0.6
				c0.1,0.2,0.2,0.5,0.2,0.8c0,0.3,0,0.5-0.1,0.7s-0.2,0.4-0.3,0.6c-0.2,0.2-0.3,0.3-0.5,0.4c-0.2,0.1-0.5,0.2-0.7,0.3
				c0.1,0.1,0.2,0.2,0.3,0.3l2.1,2.8h-0.9c-0.2,0-0.3-0.1-0.4-0.2l-1.8-2.5c-0.1-0.1-0.1-0.1-0.2-0.2c-0.1,0-0.2-0.1-0.3-0.1H28.4z
				 M28.4,151.1h1c0.3,0,0.5,0,0.7-0.1c0.2-0.1,0.4-0.2,0.5-0.3c0.1-0.1,0.3-0.3,0.3-0.4c0.1-0.2,0.1-0.4,0.1-0.6
				c0-0.4-0.1-0.7-0.4-1c-0.3-0.2-0.7-0.3-1.2-0.3h-1V151.1z"/>
			<path class="st3" d="M40,151.2c0,0.5-0.1,1-0.3,1.5c-0.2,0.4-0.4,0.8-0.7,1.1c-0.3,0.3-0.7,0.6-1.1,0.7s-0.9,0.3-1.4,0.3
				s-1-0.1-1.4-0.3c-0.4-0.2-0.8-0.4-1.1-0.7c-0.3-0.3-0.5-0.7-0.7-1.1c-0.2-0.4-0.3-0.9-0.3-1.5s0.1-1,0.3-1.5
				c0.2-0.4,0.4-0.8,0.7-1.1c0.3-0.3,0.7-0.6,1.1-0.8c0.4-0.2,0.9-0.3,1.4-0.3s1,0.1,1.4,0.3c0.4,0.2,0.8,0.4,1.1,0.8
				c0.3,0.3,0.5,0.7,0.7,1.1C40,150.2,40,150.7,40,151.2z M39.1,151.2c0-0.4-0.1-0.8-0.2-1.2c-0.1-0.3-0.3-0.6-0.5-0.9
				s-0.5-0.4-0.8-0.6c-0.3-0.1-0.7-0.2-1-0.2c-0.4,0-0.7,0.1-1,0.2c-0.3,0.1-0.6,0.3-0.8,0.6c-0.2,0.2-0.4,0.5-0.5,0.9
				c-0.1,0.3-0.2,0.7-0.2,1.2s0.1,0.8,0.2,1.2c0.1,0.3,0.3,0.6,0.5,0.9c0.2,0.2,0.5,0.4,0.8,0.5c0.3,0.1,0.7,0.2,1,0.2
				c0.4,0,0.7-0.1,1-0.2c0.3-0.1,0.6-0.3,0.8-0.5s0.4-0.5,0.5-0.9C39,152,39.1,151.7,39.1,151.2z"/>
			<path class="st3" d="M29,166.6v3h-1v-7.1h2c0.4,0,0.8,0,1.2,0.1s0.6,0.2,0.8,0.4c0.2,0.2,0.4,0.4,0.5,0.6
				c0.1,0.2,0.2,0.5,0.2,0.8c0,0.3,0,0.5-0.1,0.7s-0.2,0.4-0.3,0.6c-0.2,0.2-0.3,0.3-0.5,0.4c-0.2,0.1-0.5,0.2-0.7,0.3
				c0.1,0.1,0.2,0.2,0.3,0.3l2.1,2.8h-0.9c-0.2,0-0.3-0.1-0.4-0.2l-1.8-2.5c-0.1-0.1-0.1-0.1-0.2-0.2c-0.1,0-0.2-0.1-0.3-0.1H29z
				 M29,166h1c0.3,0,0.5,0,0.7-0.1c0.2-0.1,0.4-0.2,0.5-0.3c0.1-0.1,0.3-0.3,0.3-0.4c0.1-0.2,0.1-0.4,0.1-0.6c0-0.4-0.1-0.7-0.4-1
				c-0.3-0.2-0.7-0.3-1.2-0.3h-1V166z"/>
			<path class="st3" d="M35.4,166.6v3h-1v-7.1h2c0.4,0,0.8,0,1.2,0.1s0.6,0.2,0.8,0.4c0.2,0.2,0.4,0.4,0.5,0.6
				c0.1,0.2,0.2,0.5,0.2,0.8c0,0.3,0,0.5-0.1,0.7s-0.2,0.4-0.3,0.6c-0.2,0.2-0.3,0.3-0.5,0.4c-0.2,0.1-0.5,0.2-0.7,0.3
				c0.1,0.1,0.2,0.2,0.3,0.3l2.1,2.8h-0.9c-0.2,0-0.3-0.1-0.4-0.2l-1.8-2.5c-0.1-0.1-0.1-0.1-0.2-0.2c-0.1,0-0.2-0.1-0.3-0.1H35.4z
				 M35.4,166h1c0.3,0,0.5,0,0.7-0.1c0.2-0.1,0.4-0.2,0.5-0.3c0.1-0.1,0.3-0.3,0.3-0.4c0.1-0.2,0.1-0.4,0.1-0.6c0-0.4-0.1-0.7-0.4-1
				c-0.3-0.2-0.7-0.3-1.2-0.3h-1V166z"/>
			<path class="st3" d="M32,178.5c0,0-0.1,0.1-0.1,0.1c0,0-0.1,0-0.1,0c-0.1,0-0.1,0-0.2-0.1c-0.1-0.1-0.2-0.1-0.3-0.2
				c-0.1-0.1-0.3-0.1-0.4-0.2c-0.2-0.1-0.4-0.1-0.6-0.1c-0.2,0-0.4,0-0.6,0.1c-0.2,0.1-0.3,0.1-0.4,0.2c-0.1,0.1-0.2,0.2-0.2,0.3
				s-0.1,0.3-0.1,0.4c0,0.2,0,0.4,0.1,0.5c0.1,0.1,0.2,0.2,0.4,0.3c0.2,0.1,0.3,0.2,0.5,0.2c0.2,0.1,0.4,0.1,0.6,0.2
				s0.4,0.2,0.6,0.2s0.4,0.2,0.5,0.3s0.3,0.3,0.4,0.5c0.1,0.2,0.1,0.4,0.1,0.7c0,0.3-0.1,0.6-0.2,0.9s-0.3,0.5-0.5,0.7
				c-0.2,0.2-0.5,0.4-0.7,0.5c-0.3,0.1-0.6,0.2-1,0.2c-0.5,0-0.9-0.1-1.3-0.2c-0.4-0.2-0.7-0.4-1-0.7l0.3-0.5c0,0,0.1-0.1,0.1-0.1
				c0,0,0.1,0,0.1,0c0.1,0,0.1,0,0.2,0.1c0.1,0.1,0.2,0.2,0.3,0.2c0.1,0.1,0.3,0.2,0.5,0.2c0.2,0.1,0.4,0.1,0.7,0.1
				c0.2,0,0.4,0,0.6-0.1s0.3-0.2,0.5-0.3c0.1-0.1,0.2-0.2,0.3-0.4c0.1-0.2,0.1-0.3,0.1-0.5c0-0.2,0-0.4-0.1-0.5
				c-0.1-0.1-0.2-0.3-0.4-0.3c-0.2-0.1-0.3-0.2-0.5-0.2c-0.2-0.1-0.4-0.1-0.6-0.2s-0.4-0.1-0.6-0.2c-0.2-0.1-0.4-0.2-0.5-0.3
				c-0.2-0.1-0.3-0.3-0.4-0.5c-0.1-0.2-0.1-0.5-0.1-0.8c0-0.3,0-0.5,0.1-0.7c0.1-0.2,0.2-0.4,0.4-0.6c0.2-0.2,0.4-0.3,0.7-0.4
				c0.3-0.1,0.6-0.2,0.9-0.2c0.4,0,0.8,0.1,1.1,0.2c0.3,0.1,0.6,0.3,0.9,0.5L32,178.5z"/>
			<path class="st3" d="M38.6,183c0.1,0,0.1,0,0.1,0.1l0.4,0.4c-0.3,0.3-0.6,0.6-1.1,0.8c-0.4,0.2-0.9,0.3-1.5,0.3
				c-0.5,0-1-0.1-1.4-0.3c-0.4-0.2-0.8-0.4-1.1-0.7c-0.3-0.3-0.5-0.7-0.7-1.1c-0.2-0.4-0.2-0.9-0.2-1.5c0-0.5,0.1-1,0.3-1.5
				c0.2-0.4,0.4-0.8,0.7-1.1c0.3-0.3,0.7-0.6,1.1-0.7c0.4-0.2,0.9-0.3,1.4-0.3c0.5,0,1,0.1,1.3,0.2c0.4,0.2,0.7,0.4,1,0.7l-0.3,0.4
				c0,0,0,0.1-0.1,0.1c0,0-0.1,0-0.1,0c0,0-0.1,0-0.1,0s-0.1-0.1-0.2-0.1c-0.1,0-0.1-0.1-0.2-0.1c-0.1-0.1-0.2-0.1-0.3-0.1
				s-0.3-0.1-0.4-0.1s-0.3,0-0.6,0c-0.4,0-0.7,0.1-1,0.2c-0.3,0.1-0.6,0.3-0.8,0.6s-0.4,0.5-0.5,0.9c-0.1,0.3-0.2,0.7-0.2,1.2
				c0,0.4,0.1,0.8,0.2,1.2c0.1,0.3,0.3,0.6,0.5,0.9c0.2,0.2,0.5,0.4,0.8,0.5c0.3,0.1,0.6,0.2,1,0.2c0.2,0,0.4,0,0.6,0
				c0.2,0,0.3-0.1,0.5-0.1s0.3-0.1,0.4-0.2c0.1-0.1,0.2-0.2,0.4-0.3C38.5,183,38.5,183,38.6,183z"/>
			<path class="st3" d="M32.3,193.3c0,0-0.1,0.1-0.1,0.1c0,0-0.1,0-0.1,0c-0.1,0-0.1,0-0.2-0.1c-0.1-0.1-0.2-0.1-0.3-0.2
				c-0.1-0.1-0.3-0.1-0.4-0.2c-0.2-0.1-0.4-0.1-0.6-0.1c-0.2,0-0.4,0-0.6,0.1c-0.2,0.1-0.3,0.1-0.4,0.2c-0.1,0.1-0.2,0.2-0.2,0.3
				s-0.1,0.3-0.1,0.4c0,0.2,0,0.4,0.1,0.5c0.1,0.1,0.2,0.2,0.4,0.3c0.2,0.1,0.3,0.2,0.5,0.2c0.2,0.1,0.4,0.1,0.6,0.2
				s0.4,0.2,0.6,0.2s0.4,0.2,0.5,0.3s0.3,0.3,0.4,0.5c0.1,0.2,0.1,0.4,0.1,0.7c0,0.3-0.1,0.6-0.2,0.9s-0.3,0.5-0.5,0.7
				c-0.2,0.2-0.5,0.4-0.7,0.5c-0.3,0.1-0.6,0.2-1,0.2c-0.5,0-0.9-0.1-1.3-0.2c-0.4-0.2-0.7-0.4-1-0.7l0.3-0.5c0,0,0.1-0.1,0.1-0.1
				c0,0,0.1,0,0.1,0c0.1,0,0.1,0,0.2,0.1c0.1,0.1,0.2,0.2,0.3,0.2c0.1,0.1,0.3,0.2,0.5,0.2c0.2,0.1,0.4,0.1,0.7,0.1
				c0.2,0,0.4,0,0.6-0.1s0.3-0.2,0.5-0.3c0.1-0.1,0.2-0.2,0.3-0.4c0.1-0.2,0.1-0.3,0.1-0.5c0-0.2,0-0.4-0.1-0.5
				c-0.1-0.1-0.2-0.3-0.4-0.3c-0.2-0.1-0.3-0.2-0.5-0.2c-0.2-0.1-0.4-0.1-0.6-0.2s-0.4-0.1-0.6-0.2c-0.2-0.1-0.4-0.2-0.5-0.3
				c-0.2-0.1-0.3-0.3-0.4-0.5c-0.1-0.2-0.1-0.5-0.1-0.8c0-0.3,0-0.5,0.1-0.7c0.1-0.2,0.2-0.4,0.4-0.6c0.2-0.2,0.4-0.3,0.7-0.4
				c0.3-0.1,0.6-0.2,0.9-0.2c0.4,0,0.8,0.1,1.1,0.2c0.3,0.1,0.6,0.3,0.9,0.5L32.3,193.3z"/>
			<path class="st3" d="M35,196.7v2.7h-1v-7.1h2.1c0.4,0,0.8,0.1,1.2,0.2c0.3,0.1,0.6,0.3,0.8,0.4s0.4,0.4,0.5,0.7
				c0.1,0.3,0.2,0.6,0.2,0.9c0,0.3-0.1,0.6-0.2,0.9c-0.1,0.3-0.3,0.5-0.5,0.7s-0.5,0.4-0.8,0.5c-0.3,0.1-0.7,0.2-1.1,0.2H35z
				 M35,195.9h1.1c0.3,0,0.5,0,0.7-0.1c0.2-0.1,0.4-0.2,0.5-0.3c0.1-0.1,0.2-0.3,0.3-0.5c0.1-0.2,0.1-0.4,0.1-0.6
				c0-0.5-0.1-0.8-0.4-1.1s-0.7-0.4-1.3-0.4H35V195.9z"/>
			<path class="st3" d="M32.5,208.2c0,0-0.1,0.1-0.1,0.1c0,0-0.1,0-0.1,0c-0.1,0-0.1,0-0.2-0.1c-0.1-0.1-0.2-0.1-0.3-0.2
				c-0.1-0.1-0.3-0.1-0.4-0.2c-0.2-0.1-0.4-0.1-0.6-0.1c-0.2,0-0.4,0-0.6,0.1c-0.2,0.1-0.3,0.1-0.4,0.2c-0.1,0.1-0.2,0.2-0.2,0.3
				s-0.1,0.3-0.1,0.4c0,0.2,0,0.4,0.1,0.5c0.1,0.1,0.2,0.2,0.4,0.3c0.2,0.1,0.3,0.2,0.5,0.2c0.2,0.1,0.4,0.1,0.6,0.2
				s0.4,0.2,0.6,0.2s0.4,0.2,0.5,0.3s0.3,0.3,0.4,0.5c0.1,0.2,0.1,0.4,0.1,0.7c0,0.3-0.1,0.6-0.2,0.9s-0.3,0.5-0.5,0.7
				c-0.2,0.2-0.5,0.4-0.7,0.5c-0.3,0.1-0.6,0.2-1,0.2c-0.5,0-0.9-0.1-1.3-0.2c-0.4-0.2-0.7-0.4-1-0.7l0.3-0.5c0,0,0.1-0.1,0.1-0.1
				c0,0,0.1,0,0.1,0c0.1,0,0.1,0,0.2,0.1c0.1,0.1,0.2,0.2,0.3,0.2c0.1,0.1,0.3,0.2,0.5,0.2c0.2,0.1,0.4,0.1,0.7,0.1
				c0.2,0,0.4,0,0.6-0.1s0.3-0.2,0.5-0.3c0.1-0.1,0.2-0.2,0.3-0.4c0.1-0.2,0.1-0.3,0.1-0.5c0-0.2,0-0.4-0.1-0.5
				c-0.1-0.1-0.2-0.3-0.4-0.3c-0.2-0.1-0.3-0.2-0.5-0.2c-0.2-0.1-0.4-0.1-0.6-0.2s-0.4-0.1-0.6-0.2c-0.2-0.1-0.4-0.2-0.5-0.3
				c-0.2-0.1-0.3-0.3-0.4-0.5c-0.1-0.2-0.1-0.5-0.1-0.8c0-0.3,0-0.5,0.1-0.7c0.1-0.2,0.2-0.4,0.4-0.6c0.2-0.2,0.4-0.3,0.7-0.4
				c0.3-0.1,0.6-0.2,0.9-0.2c0.4,0,0.8,0.1,1.1,0.2c0.3,0.1,0.6,0.3,0.9,0.5L32.5,208.2z"/>
			<path class="st3" d="M38.4,207.1v0.8H35v2.4h2.8v0.8H35v2.4h3.4v0.8h-4.4v-7.1H38.4z"/>
			<path class="st3" d="M32.5,221.9v0.8h-2.3v6.3h-1v-6.3H27v-0.8H32.5z"/>
			<path class="st3" d="M39.6,225.5c0,0.5-0.1,1-0.3,1.5c-0.2,0.4-0.4,0.8-0.7,1.1c-0.3,0.3-0.7,0.6-1.1,0.7s-0.9,0.3-1.4,0.3
				s-1-0.1-1.4-0.3c-0.4-0.2-0.8-0.4-1.1-0.7c-0.3-0.3-0.5-0.7-0.7-1.1c-0.2-0.4-0.3-0.9-0.3-1.5s0.1-1,0.3-1.5
				c0.2-0.4,0.4-0.8,0.7-1.1c0.3-0.3,0.7-0.6,1.1-0.8c0.4-0.2,0.9-0.3,1.4-0.3s1,0.1,1.4,0.3c0.4,0.2,0.8,0.4,1.1,0.8
				c0.3,0.3,0.5,0.7,0.7,1.1C39.6,224.4,39.6,224.9,39.6,225.5z M38.7,225.5c0-0.4-0.1-0.8-0.2-1.2c-0.1-0.3-0.3-0.6-0.5-0.9
				s-0.5-0.4-0.8-0.6c-0.3-0.1-0.7-0.2-1-0.2c-0.4,0-0.7,0.1-1,0.2c-0.3,0.1-0.6,0.3-0.8,0.6c-0.2,0.2-0.4,0.5-0.5,0.9
				c-0.1,0.3-0.2,0.7-0.2,1.2s0.1,0.8,0.2,1.2c0.1,0.3,0.3,0.6,0.5,0.9c0.2,0.2,0.5,0.4,0.8,0.5c0.3,0.1,0.7,0.2,1,0.2
				c0.4,0,0.7-0.1,1-0.2c0.3-0.1,0.6-0.3,0.8-0.5s0.4-0.5,0.5-0.9C38.6,226.3,38.7,225.9,38.7,225.5z"/>
			<path class="st3" d="M28.4,236.8v0.8h-2.3v6.3h-1v-6.3h-2.3v-0.8H28.4z"/>
			<path class="st3" d="M30.2,238.8c0.4,0,0.7,0.1,1,0.2s0.5,0.3,0.8,0.5c0.2,0.2,0.4,0.5,0.5,0.8s0.2,0.7,0.2,1.1
				c0,0.4-0.1,0.8-0.2,1.1c-0.1,0.3-0.3,0.6-0.5,0.8c-0.2,0.2-0.5,0.4-0.8,0.5s-0.6,0.2-1,0.2s-0.7-0.1-1-0.2
				c-0.3-0.1-0.5-0.3-0.8-0.5c-0.2-0.2-0.4-0.5-0.5-0.8c-0.1-0.3-0.2-0.7-0.2-1.1c0-0.4,0.1-0.7,0.2-1.1c0.1-0.3,0.3-0.6,0.5-0.8
				c0.2-0.2,0.5-0.4,0.8-0.5C29.6,238.8,29.9,238.8,30.2,238.8z M30.2,243.2c0.5,0,0.9-0.2,1.1-0.5c0.2-0.3,0.4-0.8,0.4-1.4
				c0-0.6-0.1-1.1-0.4-1.4c-0.2-0.3-0.6-0.5-1.1-0.5c-0.3,0-0.5,0-0.7,0.1c-0.2,0.1-0.3,0.2-0.5,0.4c-0.1,0.2-0.2,0.4-0.3,0.6
				s-0.1,0.5-0.1,0.8c0,0.3,0,0.6,0.1,0.8c0.1,0.2,0.2,0.4,0.3,0.6s0.3,0.3,0.5,0.4C29.8,243.2,30,243.2,30.2,243.2z"/>
			<path class="st3" d="M35.2,243.9c-0.4,0-0.7-0.1-0.9-0.3c-0.2-0.2-0.3-0.5-0.3-1v-3.1h-0.6c-0.1,0-0.1,0-0.1,0
				c0,0-0.1-0.1-0.1-0.1V239l0.8-0.1l0.2-1.5c0,0,0-0.1,0.1-0.1s0.1,0,0.1,0h0.4v1.7h1.4v0.6h-1.4v3c0,0.2,0.1,0.4,0.2,0.5
				c0.1,0.1,0.2,0.2,0.4,0.2c0.1,0,0.2,0,0.2,0c0.1,0,0.1-0.1,0.2-0.1c0,0,0.1-0.1,0.1-0.1s0.1,0,0.1,0c0,0,0.1,0,0.1,0.1l0.3,0.4
				c-0.2,0.1-0.3,0.3-0.5,0.3S35.5,243.9,35.2,243.9z"/>
			<path class="st3" d="M41.1,243.9h-0.4c-0.1,0-0.2,0-0.2,0c-0.1,0-0.1-0.1-0.1-0.2l-0.1-0.5c-0.1,0.1-0.3,0.2-0.4,0.3
				c-0.1,0.1-0.3,0.2-0.4,0.2s-0.3,0.1-0.4,0.1c-0.2,0-0.3,0-0.5,0c-0.2,0-0.4,0-0.5-0.1s-0.3-0.1-0.4-0.2c-0.1-0.1-0.2-0.2-0.3-0.4
				s-0.1-0.4-0.1-0.6c0-0.2,0.1-0.4,0.2-0.6s0.3-0.3,0.5-0.5c0.2-0.1,0.6-0.3,1-0.4s0.9-0.1,1.4-0.1v-0.4c0-0.4-0.1-0.7-0.2-0.9
				c-0.2-0.2-0.4-0.3-0.7-0.3c-0.2,0-0.4,0-0.5,0.1c-0.1,0.1-0.3,0.1-0.4,0.2c-0.1,0.1-0.2,0.1-0.3,0.2s-0.2,0.1-0.2,0.1
				c-0.1,0-0.1,0-0.2,0c0,0-0.1-0.1-0.1-0.1l-0.2-0.3c0.3-0.3,0.6-0.5,0.9-0.6c0.3-0.1,0.7-0.2,1.1-0.2c0.3,0,0.5,0,0.7,0.1
				c0.2,0.1,0.4,0.2,0.5,0.4s0.3,0.4,0.3,0.6c0.1,0.2,0.1,0.5,0.1,0.8V243.9z M38.8,243.3c0.2,0,0.3,0,0.4,0c0.1,0,0.2-0.1,0.4-0.1
				s0.2-0.1,0.3-0.2c0.1-0.1,0.2-0.2,0.3-0.3v-1c-0.4,0-0.8,0-1,0.1s-0.5,0.1-0.7,0.2c-0.2,0.1-0.3,0.2-0.4,0.3
				c-0.1,0.1-0.1,0.2-0.1,0.4c0,0.1,0,0.2,0.1,0.3c0,0.1,0.1,0.2,0.2,0.2c0.1,0.1,0.2,0.1,0.3,0.1C38.6,243.3,38.7,243.3,38.8,243.3
				z"/>
			<path class="st3" d="M43.4,236.6v7.3h-0.9v-7.3H43.4z"/>
		</g>
		<g>
			<path class="st3" d="M83,48.3H84v0.5c0,0.1,0,0.1,0,0.1c0,0-0.1,0.1-0.1,0.1H83v1.9h-0.8V49H79c-0.1,0-0.1,0-0.2-0.1
				s-0.1-0.1-0.1-0.1l-0.1-0.5l3.5-4.6H83V48.3z M82.2,45.3c0-0.1,0-0.2,0-0.3s0-0.2,0-0.3l-2.6,3.5h2.5V45.3z"/>
			<path class="st3" d="M77,65h1.5v-4.8c0-0.1,0-0.3,0-0.4l-1.3,1.1c0,0-0.1,0-0.1,0.1c0,0-0.1,0-0.1,0c0,0-0.1,0-0.1,0
				s-0.1,0-0.1-0.1l-0.3-0.4l2.1-1.8h0.7V65h1.4v0.7H77V65z"/>
			<path class="st3" d="M84.1,62.8c-0.3,0-0.5,0-0.8-0.1s-0.4-0.2-0.6-0.4c-0.2-0.2-0.3-0.4-0.4-0.6c-0.1-0.3-0.2-0.5-0.2-0.9
				c0-0.3,0.1-0.6,0.2-0.9c0.1-0.3,0.3-0.5,0.5-0.7c0.2-0.2,0.5-0.4,0.7-0.5c0.3-0.1,0.6-0.2,0.9-0.2c0.3,0,0.6,0.1,0.9,0.2
				c0.3,0.1,0.5,0.3,0.7,0.5s0.4,0.4,0.5,0.7c0.1,0.3,0.2,0.6,0.2,0.9c0,0.2,0,0.4-0.1,0.6c0,0.2-0.1,0.4-0.2,0.5
				c-0.1,0.2-0.2,0.3-0.3,0.5c-0.1,0.2-0.2,0.4-0.3,0.5l-1.7,2.5c0,0.1-0.1,0.1-0.2,0.2c-0.1,0-0.2,0.1-0.3,0.1h-0.8l2.2-2.8
				c0.1-0.1,0.1-0.2,0.2-0.3c0.1-0.1,0.1-0.2,0.2-0.3c-0.2,0.1-0.4,0.3-0.6,0.3C84.6,62.7,84.3,62.8,84.1,62.8z M85.8,60.7
				c0-0.2,0-0.4-0.1-0.6c-0.1-0.2-0.2-0.3-0.3-0.5c-0.1-0.1-0.3-0.2-0.4-0.3c-0.2-0.1-0.4-0.1-0.6-0.1c-0.2,0-0.4,0-0.6,0.1
				c-0.2,0.1-0.3,0.2-0.5,0.3c-0.1,0.1-0.2,0.3-0.3,0.5S83,60.5,83,60.7c0,0.2,0,0.4,0.1,0.6s0.2,0.3,0.3,0.4
				c0.1,0.1,0.3,0.2,0.4,0.3s0.4,0.1,0.6,0.1c0.2,0,0.4,0,0.6-0.1c0.2-0.1,0.3-0.2,0.5-0.3c0.1-0.1,0.2-0.3,0.3-0.4
				C85.8,61,85.8,60.9,85.8,60.7z"/>
			<path class="st3" d="M83.3,73.8c0,0.1,0,0.2-0.1,0.3c-0.1,0.1-0.2,0.1-0.4,0.1h-2.2l-0.3,1.9c0.4-0.1,0.7-0.1,1-0.1
				c0.4,0,0.7,0.1,1,0.2c0.3,0.1,0.5,0.3,0.7,0.5s0.3,0.4,0.4,0.7c0.1,0.3,0.1,0.5,0.1,0.9c0,0.4-0.1,0.7-0.2,1s-0.3,0.6-0.5,0.8
				c-0.2,0.2-0.5,0.4-0.8,0.5c-0.3,0.1-0.6,0.2-1,0.2c-0.2,0-0.4,0-0.6-0.1c-0.2,0-0.4-0.1-0.5-0.2s-0.3-0.1-0.5-0.2
				C79.3,80,79.1,80,79,79.9l0.3-0.4c0.1-0.1,0.1-0.1,0.2-0.1c0.1,0,0.1,0,0.2,0.1c0.1,0.1,0.2,0.1,0.3,0.2s0.3,0.1,0.4,0.2
				c0.2,0.1,0.4,0.1,0.6,0.1c0.2,0,0.5,0,0.7-0.1c0.2-0.1,0.4-0.2,0.5-0.3c0.1-0.1,0.2-0.3,0.3-0.5c0.1-0.2,0.1-0.4,0.1-0.7
				c0-0.2,0-0.4-0.1-0.6c-0.1-0.2-0.2-0.3-0.3-0.5c-0.1-0.1-0.3-0.2-0.5-0.3c-0.2-0.1-0.4-0.1-0.7-0.1c-0.2,0-0.4,0-0.6,0
				c-0.2,0-0.4,0.1-0.6,0.1l-0.6-0.2l0.6-3.3h3.4V73.8z"/>
			<path class="st3" d="M81.6,88.2c0.3,0,0.6,0,0.8,0.1c0.3,0.1,0.5,0.2,0.7,0.4s0.3,0.3,0.4,0.6c0.1,0.2,0.2,0.5,0.2,0.7
				c0,0.2,0,0.4-0.1,0.6s-0.1,0.3-0.2,0.5c-0.1,0.1-0.2,0.2-0.4,0.3c-0.2,0.1-0.3,0.2-0.5,0.2c0.5,0.1,0.8,0.3,1,0.6
				c0.2,0.3,0.3,0.6,0.3,1.1c0,0.3-0.1,0.6-0.2,0.9c-0.1,0.3-0.3,0.5-0.5,0.7c-0.2,0.2-0.5,0.3-0.8,0.4c-0.3,0.1-0.6,0.1-0.9,0.1
				c-0.4,0-0.7,0-1-0.1c-0.3-0.1-0.5-0.2-0.7-0.4c-0.2-0.2-0.3-0.4-0.5-0.6c-0.1-0.2-0.2-0.5-0.3-0.7l0.4-0.2c0.1,0,0.1,0,0.2,0
				c0.1,0,0.1,0,0.2,0c0.1,0,0.1,0.1,0.1,0.1c0,0,0,0,0,0c0,0,0,0,0,0c0,0.1,0.1,0.2,0.2,0.3c0.1,0.1,0.2,0.2,0.3,0.3
				c0.1,0.1,0.3,0.2,0.4,0.3c0.2,0.1,0.4,0.1,0.6,0.1c0.2,0,0.5,0,0.7-0.1c0.2-0.1,0.3-0.2,0.5-0.3c0.1-0.1,0.2-0.3,0.3-0.4
				s0.1-0.3,0.1-0.5c0-0.2,0-0.4-0.1-0.5c-0.1-0.2-0.1-0.3-0.3-0.4c-0.1-0.1-0.3-0.2-0.6-0.3c-0.2-0.1-0.5-0.1-0.9-0.1v-0.6
				c0.3,0,0.6,0,0.8-0.1s0.4-0.1,0.5-0.3c0.1-0.1,0.2-0.2,0.3-0.4c0.1-0.2,0.1-0.3,0.1-0.5c0-0.2,0-0.4-0.1-0.5s-0.2-0.3-0.3-0.4
				c-0.1-0.1-0.2-0.2-0.4-0.2c-0.2,0-0.3-0.1-0.5-0.1S81.2,89,81,89c-0.2,0.1-0.3,0.1-0.4,0.2c-0.1,0.1-0.2,0.2-0.3,0.3
				c-0.1,0.1-0.1,0.3-0.2,0.4c0,0.1-0.1,0.2-0.1,0.2s-0.1,0.1-0.2,0.1c0,0,0,0-0.1,0s0,0-0.1,0l-0.5-0.1c0-0.3,0.1-0.6,0.3-0.9
				c0.1-0.2,0.3-0.5,0.5-0.6c0.2-0.2,0.4-0.3,0.7-0.4C81,88.2,81.3,88.2,81.6,88.2z"/>
			<path class="st3" d="M81.4,110.3c-0.4,0-0.7,0-1-0.1c-0.3-0.1-0.5-0.2-0.8-0.4c-0.2-0.2-0.4-0.4-0.5-0.6
				c-0.1-0.2-0.2-0.5-0.2-0.8c0-0.5,0.1-0.8,0.4-1.1c0.2-0.3,0.6-0.5,1-0.6c-0.4-0.1-0.7-0.3-0.8-0.6c-0.2-0.3-0.3-0.6-0.3-1
				c0-0.3,0.1-0.5,0.2-0.7c0.1-0.2,0.2-0.4,0.4-0.6c0.2-0.2,0.4-0.3,0.7-0.4s0.6-0.1,0.9-0.1c0.3,0,0.6,0,0.9,0.1s0.5,0.2,0.7,0.4
				c0.2,0.2,0.3,0.4,0.4,0.6c0.1,0.2,0.2,0.5,0.2,0.7c0,0.4-0.1,0.7-0.3,1s-0.5,0.5-0.8,0.6c0.4,0.1,0.8,0.3,1,0.6
				c0.2,0.3,0.4,0.7,0.4,1.1c0,0.3-0.1,0.6-0.2,0.8s-0.3,0.5-0.5,0.6c-0.2,0.2-0.5,0.3-0.8,0.4C82,110.2,81.7,110.3,81.4,110.3z
				 M81.4,109.6c0.2,0,0.4,0,0.6-0.1c0.2-0.1,0.3-0.2,0.5-0.3s0.2-0.3,0.3-0.4c0.1-0.2,0.1-0.3,0.1-0.5c0-0.2,0-0.5-0.1-0.6
				c-0.1-0.2-0.2-0.3-0.3-0.4c-0.1-0.1-0.3-0.2-0.5-0.2c-0.2-0.1-0.4-0.1-0.6-0.1s-0.4,0-0.6,0.1c-0.2,0.1-0.3,0.1-0.5,0.2
				c-0.1,0.1-0.2,0.2-0.3,0.4c-0.1,0.2-0.1,0.4-0.1,0.6c0,0.2,0,0.4,0.1,0.5c0.1,0.2,0.2,0.3,0.3,0.4s0.3,0.2,0.5,0.3
				C80.9,109.6,81.1,109.6,81.4,109.6z M81.4,106.2c0.2,0,0.4,0,0.6-0.1c0.2-0.1,0.3-0.2,0.4-0.3c0.1-0.1,0.2-0.3,0.2-0.4
				c0-0.2,0.1-0.3,0.1-0.5c0-0.2,0-0.3-0.1-0.5c-0.1-0.1-0.1-0.3-0.2-0.4c-0.1-0.1-0.2-0.2-0.4-0.3s-0.3-0.1-0.6-0.1
				c-0.2,0-0.4,0-0.6,0.1c-0.2,0.1-0.3,0.1-0.4,0.3c-0.1,0.1-0.2,0.2-0.2,0.4c-0.1,0.1-0.1,0.3-0.1,0.5c0,0.2,0,0.3,0.1,0.5
				c0,0.2,0.1,0.3,0.2,0.4c0.1,0.1,0.2,0.2,0.4,0.3C80.9,106.2,81.1,106.2,81.4,106.2z"/>
			<path class="st3" d="M81.6,117.9c0.3,0,0.6,0,0.8,0.1c0.3,0.1,0.5,0.2,0.7,0.4s0.3,0.3,0.4,0.6c0.1,0.2,0.2,0.5,0.2,0.7
				c0,0.2,0,0.4-0.1,0.6s-0.1,0.3-0.2,0.5c-0.1,0.1-0.2,0.2-0.4,0.3c-0.2,0.1-0.3,0.2-0.5,0.2c0.5,0.1,0.8,0.3,1,0.6
				c0.2,0.3,0.3,0.6,0.3,1.1c0,0.3-0.1,0.6-0.2,0.9c-0.1,0.3-0.3,0.5-0.5,0.7c-0.2,0.2-0.5,0.3-0.8,0.4c-0.3,0.1-0.6,0.1-0.9,0.1
				c-0.4,0-0.7,0-1-0.1c-0.3-0.1-0.5-0.2-0.7-0.4c-0.2-0.2-0.3-0.4-0.5-0.6c-0.1-0.2-0.2-0.5-0.3-0.7l0.4-0.2c0.1,0,0.1,0,0.2,0
				c0.1,0,0.1,0,0.2,0c0.1,0,0.1,0.1,0.1,0.1c0,0,0,0,0,0c0,0,0,0,0,0c0,0.1,0.1,0.2,0.2,0.3c0.1,0.1,0.2,0.2,0.3,0.3
				c0.1,0.1,0.3,0.2,0.4,0.3c0.2,0.1,0.4,0.1,0.6,0.1c0.2,0,0.5,0,0.7-0.1c0.2-0.1,0.3-0.2,0.5-0.3c0.1-0.1,0.2-0.3,0.3-0.4
				s0.1-0.3,0.1-0.5c0-0.2,0-0.4-0.1-0.5c-0.1-0.2-0.1-0.3-0.3-0.4c-0.1-0.1-0.3-0.2-0.6-0.3c-0.2-0.1-0.5-0.1-0.9-0.1v-0.6
				c0.3,0,0.6,0,0.8-0.1s0.4-0.1,0.5-0.3c0.1-0.1,0.2-0.2,0.3-0.4c0.1-0.2,0.1-0.3,0.1-0.5c0-0.2,0-0.4-0.1-0.5s-0.2-0.3-0.3-0.4
				c-0.1-0.1-0.2-0.2-0.4-0.2c-0.2,0-0.3-0.1-0.5-0.1s-0.3,0-0.5,0.1c-0.2,0.1-0.3,0.1-0.4,0.2c-0.1,0.1-0.2,0.2-0.3,0.3
				c-0.1,0.1-0.1,0.3-0.2,0.4c0,0.1-0.1,0.2-0.1,0.2s-0.1,0.1-0.2,0.1c0,0,0,0-0.1,0s0,0-0.1,0l-0.5-0.1c0-0.3,0.1-0.6,0.3-0.9
				c0.1-0.2,0.3-0.5,0.5-0.6c0.2-0.2,0.4-0.3,0.7-0.4C81,117.9,81.3,117.9,81.6,117.9z"/>
			<path class="st3" d="M77,139.2h1.5v-4.8c0-0.1,0-0.3,0-0.4l-1.3,1.1c0,0-0.1,0-0.1,0.1c0,0-0.1,0-0.1,0c0,0-0.1,0-0.1,0
				s-0.1,0-0.1-0.1l-0.3-0.4l2.1-1.8h0.7v6.4h1.4v0.7H77V139.2z"/>
			<path class="st3" d="M86.2,133.2c0,0.1,0,0.2-0.1,0.3c-0.1,0.1-0.2,0.1-0.4,0.1h-2.2l-0.3,1.9c0.4-0.1,0.7-0.1,1-0.1
				c0.4,0,0.7,0.1,1,0.2c0.3,0.1,0.5,0.3,0.7,0.5s0.3,0.4,0.4,0.7c0.1,0.3,0.1,0.5,0.1,0.9c0,0.4-0.1,0.7-0.2,1s-0.3,0.6-0.5,0.8
				c-0.2,0.2-0.5,0.4-0.8,0.5c-0.3,0.1-0.6,0.2-1,0.2c-0.2,0-0.4,0-0.6-0.1c-0.2,0-0.4-0.1-0.5-0.2s-0.3-0.1-0.5-0.2
				c-0.1-0.1-0.3-0.2-0.4-0.3l0.3-0.4c0.1-0.1,0.1-0.1,0.2-0.1c0.1,0,0.1,0,0.2,0.1c0.1,0.1,0.2,0.1,0.3,0.2s0.3,0.1,0.4,0.2
				c0.2,0.1,0.4,0.1,0.6,0.1c0.2,0,0.5,0,0.7-0.1c0.2-0.1,0.4-0.2,0.5-0.3c0.1-0.1,0.2-0.3,0.3-0.5c0.1-0.2,0.1-0.4,0.1-0.7
				c0-0.2,0-0.4-0.1-0.6c-0.1-0.2-0.2-0.3-0.3-0.5c-0.1-0.1-0.3-0.2-0.5-0.3c-0.2-0.1-0.4-0.1-0.7-0.1c-0.2,0-0.4,0-0.6,0
				c-0.2,0-0.4,0.1-0.6,0.1l-0.6-0.2l0.6-3.3h3.4V133.2z"/>
			<path class="st3" d="M81.7,150.4c0.3,0,0.6,0,0.8,0.1c0.3,0.1,0.5,0.2,0.7,0.4s0.3,0.4,0.5,0.7c0.1,0.3,0.2,0.6,0.2,0.9
				c0,0.3-0.1,0.6-0.2,0.9c-0.1,0.3-0.3,0.5-0.5,0.7s-0.5,0.4-0.8,0.5c-0.3,0.1-0.6,0.2-1,0.2c-0.4,0-0.7-0.1-1-0.2
				c-0.3-0.1-0.5-0.3-0.7-0.5c-0.2-0.2-0.4-0.5-0.5-0.8c-0.1-0.3-0.2-0.6-0.2-1c0-0.3,0.1-0.6,0.2-1c0.1-0.3,0.4-0.7,0.7-1.1
				l1.8-2.4c0-0.1,0.1-0.1,0.2-0.2c0.1,0,0.2-0.1,0.3-0.1h0.8l-2.5,3.1c0.2-0.1,0.4-0.2,0.6-0.3S81.5,150.4,81.7,150.4z M79.9,152.6
				c0,0.2,0,0.4,0.1,0.6c0.1,0.2,0.2,0.4,0.3,0.5c0.1,0.1,0.3,0.2,0.5,0.3s0.4,0.1,0.6,0.1c0.2,0,0.5,0,0.6-0.1
				c0.2-0.1,0.4-0.2,0.5-0.3c0.1-0.1,0.2-0.3,0.3-0.5c0.1-0.2,0.1-0.4,0.1-0.6c0-0.2,0-0.4-0.1-0.6s-0.2-0.3-0.3-0.5
				c-0.1-0.1-0.3-0.2-0.5-0.3c-0.2-0.1-0.4-0.1-0.6-0.1c-0.2,0-0.5,0-0.6,0.1c-0.2,0.1-0.4,0.2-0.5,0.3c-0.1,0.1-0.2,0.3-0.3,0.5
				C79.9,152.2,79.9,152.4,79.9,152.6z"/>
			<path class="st3" d="M79.9,168.9h1.5v-4.8c0-0.1,0-0.3,0-0.4l-1.3,1.1c0,0-0.1,0-0.1,0.1c0,0-0.1,0-0.1,0c0,0-0.1,0-0.1,0
				s-0.1,0-0.1-0.1l-0.3-0.4l2.1-1.8h0.7v6.4h1.4v0.7h-3.8V168.9z"/>
			<path class="st3" d="M81.2,181.5c-0.3,0-0.5,0-0.8-0.1s-0.4-0.2-0.6-0.4c-0.2-0.2-0.3-0.4-0.4-0.6c-0.1-0.3-0.2-0.5-0.2-0.9
				c0-0.3,0.1-0.6,0.2-0.9c0.1-0.3,0.3-0.5,0.5-0.7c0.2-0.2,0.5-0.4,0.7-0.5c0.3-0.1,0.6-0.2,0.9-0.2c0.3,0,0.6,0.1,0.9,0.2
				c0.3,0.1,0.5,0.3,0.7,0.5s0.4,0.4,0.5,0.7c0.1,0.3,0.2,0.6,0.2,0.9c0,0.2,0,0.4-0.1,0.6c0,0.2-0.1,0.4-0.2,0.5
				c-0.1,0.2-0.2,0.3-0.3,0.5c-0.1,0.2-0.2,0.4-0.3,0.5l-1.7,2.5c0,0.1-0.1,0.1-0.2,0.2c-0.1,0-0.2,0.1-0.3,0.1H80l2.2-2.8
				c0.1-0.1,0.1-0.2,0.2-0.3c0.1-0.1,0.1-0.2,0.2-0.3c-0.2,0.1-0.4,0.3-0.6,0.3C81.7,181.5,81.5,181.5,81.2,181.5z M83,179.5
				c0-0.2,0-0.4-0.1-0.6c-0.1-0.2-0.2-0.3-0.3-0.5c-0.1-0.1-0.3-0.2-0.4-0.3c-0.2-0.1-0.4-0.1-0.6-0.1c-0.2,0-0.4,0-0.6,0.1
				c-0.2,0.1-0.3,0.2-0.5,0.3c-0.1,0.1-0.2,0.3-0.3,0.5s-0.1,0.4-0.1,0.6c0,0.2,0,0.4,0.1,0.6s0.2,0.3,0.3,0.4
				c0.1,0.1,0.3,0.2,0.4,0.3s0.4,0.1,0.6,0.1c0.2,0,0.4,0,0.6-0.1c0.2-0.1,0.3-0.2,0.5-0.3c0.1-0.1,0.2-0.3,0.3-0.4
				C82.9,179.8,83,179.7,83,179.5z"/>
			<path class="st3" d="M77,198.6h1.5v-4.8c0-0.1,0-0.3,0-0.4l-1.3,1.1c0,0-0.1,0-0.1,0.1c0,0-0.1,0-0.1,0c0,0-0.1,0-0.1,0
				s-0.1,0-0.1-0.1l-0.3-0.4l2.1-1.8h0.7v6.4h1.4v0.7H77V198.6z"/>
			<path class="st3" d="M86.7,192.2v0.4c0,0.1,0,0.2,0,0.3c0,0.1-0.1,0.1-0.1,0.2l-2.9,5.9c0,0.1-0.1,0.2-0.2,0.2
				c-0.1,0.1-0.2,0.1-0.3,0.1h-0.6l3-5.9c0-0.1,0.1-0.2,0.1-0.2s0.1-0.1,0.2-0.2h-3.7c-0.1,0-0.1,0-0.2-0.1s-0.1-0.1-0.1-0.2v-0.6
				H86.7z"/>
			<path class="st3" d="M79.9,213.5h1.5v-4.8c0-0.1,0-0.3,0-0.4l-1.3,1.1c0,0-0.1,0-0.1,0.1c0,0-0.1,0-0.1,0c0,0-0.1,0-0.1,0
				s-0.1,0-0.1-0.1l-0.3-0.4l2.1-1.8h0.7v6.4h1.4v0.7h-3.8V213.5z"/>
			<path class="st3" d="M81.6,221.8c0.3,0,0.6,0,0.8,0.1c0.3,0.1,0.5,0.2,0.7,0.4s0.3,0.3,0.4,0.6c0.1,0.2,0.2,0.5,0.2,0.7
				c0,0.2,0,0.4-0.1,0.6s-0.1,0.3-0.2,0.5c-0.1,0.1-0.2,0.2-0.4,0.3c-0.2,0.1-0.3,0.2-0.5,0.2c0.5,0.1,0.8,0.3,1,0.6
				c0.2,0.3,0.3,0.6,0.3,1.1c0,0.3-0.1,0.6-0.2,0.9c-0.1,0.3-0.3,0.5-0.5,0.7c-0.2,0.2-0.5,0.3-0.8,0.4c-0.3,0.1-0.6,0.1-0.9,0.1
				c-0.4,0-0.7,0-1-0.1c-0.3-0.1-0.5-0.2-0.7-0.4c-0.2-0.2-0.3-0.4-0.5-0.6c-0.1-0.2-0.2-0.5-0.3-0.7l0.4-0.2c0.1,0,0.1,0,0.2,0
				c0.1,0,0.1,0,0.2,0c0.1,0,0.1,0.1,0.1,0.1c0,0,0,0,0,0c0,0,0,0,0,0c0,0.1,0.1,0.2,0.2,0.3c0.1,0.1,0.2,0.2,0.3,0.3
				c0.1,0.1,0.3,0.2,0.4,0.3c0.2,0.1,0.4,0.1,0.6,0.1c0.2,0,0.5,0,0.7-0.1c0.2-0.1,0.3-0.2,0.5-0.3c0.1-0.1,0.2-0.3,0.3-0.4
				s0.1-0.3,0.1-0.5c0-0.2,0-0.4-0.1-0.5c-0.1-0.2-0.1-0.3-0.3-0.4c-0.1-0.1-0.3-0.2-0.6-0.3c-0.2-0.1-0.5-0.1-0.9-0.1V225
				c0.3,0,0.6,0,0.8-0.1s0.4-0.1,0.5-0.3c0.1-0.1,0.2-0.2,0.3-0.4c0.1-0.2,0.1-0.3,0.1-0.5c0-0.2,0-0.4-0.1-0.5s-0.2-0.3-0.3-0.4
				c-0.1-0.1-0.2-0.2-0.4-0.2c-0.2,0-0.3-0.1-0.5-0.1s-0.3,0-0.5,0.1c-0.2,0.1-0.3,0.1-0.4,0.2c-0.1,0.1-0.2,0.2-0.3,0.3
				c-0.1,0.1-0.1,0.3-0.2,0.4c0,0.1-0.1,0.2-0.1,0.2s-0.1,0.1-0.2,0.1c0,0,0,0-0.1,0s0,0-0.1,0l-0.5-0.1c0-0.3,0.1-0.6,0.3-0.9
				c0.1-0.2,0.3-0.5,0.5-0.6c0.2-0.2,0.4-0.3,0.7-0.4C81,221.9,81.3,221.8,81.6,221.8z"/>
			<path class="st3" d="M75.7,236.7c0.3,0,0.6,0,0.8,0.1s0.5,0.2,0.7,0.4c0.2,0.2,0.3,0.4,0.4,0.6s0.2,0.5,0.2,0.8
				c0,0.3,0,0.5-0.1,0.7c-0.1,0.2-0.2,0.4-0.3,0.6c-0.1,0.2-0.3,0.4-0.5,0.6c-0.2,0.2-0.4,0.4-0.6,0.6l-1.9,1.9
				c0.1,0,0.3-0.1,0.4-0.1s0.3,0,0.4,0h2.4c0.1,0,0.2,0,0.2,0.1c0.1,0.1,0.1,0.1,0.1,0.2v0.5h-4.7v-0.3c0-0.1,0-0.1,0-0.2
				c0-0.1,0.1-0.1,0.1-0.2l2.3-2.3c0.2-0.2,0.4-0.4,0.5-0.6c0.2-0.2,0.3-0.4,0.4-0.5c0.1-0.2,0.2-0.4,0.3-0.5
				c0.1-0.2,0.1-0.4,0.1-0.6s0-0.4-0.1-0.5c-0.1-0.2-0.2-0.3-0.3-0.4c-0.1-0.1-0.3-0.2-0.4-0.2c-0.2-0.1-0.3-0.1-0.5-0.1
				s-0.3,0-0.5,0.1s-0.3,0.1-0.4,0.2c-0.1,0.1-0.2,0.2-0.3,0.3c-0.1,0.1-0.1,0.3-0.2,0.4c0,0.1-0.1,0.2-0.1,0.2s-0.1,0.1-0.2,0.1
				c0,0,0,0-0.1,0c0,0,0,0-0.1,0l-0.5-0.1c0-0.3,0.1-0.6,0.3-0.9c0.1-0.2,0.3-0.5,0.5-0.6c0.2-0.2,0.4-0.3,0.7-0.4
				C75.1,236.7,75.4,236.7,75.7,236.7z"/>
			<path class="st3" d="M79.9,243.2h1.5v-4.8c0-0.1,0-0.3,0-0.4l-1.3,1.1c0,0-0.1,0-0.1,0.1c0,0-0.1,0-0.1,0c0,0-0.1,0-0.1,0
				s-0.1,0-0.1-0.1l-0.3-0.4l2.1-1.8h0.7v6.4h1.4v0.7h-3.8V243.2z"/>
			<path class="st3" d="M87.3,236.7c0.3,0,0.6,0,0.8,0.1c0.3,0.1,0.5,0.2,0.7,0.4s0.3,0.3,0.4,0.6c0.1,0.2,0.2,0.5,0.2,0.7
				c0,0.2,0,0.4-0.1,0.6s-0.1,0.3-0.2,0.5c-0.1,0.1-0.2,0.2-0.4,0.3c-0.2,0.1-0.3,0.2-0.5,0.2c0.5,0.1,0.8,0.3,1,0.6
				c0.2,0.3,0.3,0.6,0.3,1.1c0,0.3-0.1,0.6-0.2,0.9c-0.1,0.3-0.3,0.5-0.5,0.7c-0.2,0.2-0.5,0.3-0.8,0.4c-0.3,0.1-0.6,0.1-0.9,0.1
				c-0.4,0-0.7,0-1-0.1c-0.3-0.1-0.5-0.2-0.7-0.4c-0.2-0.2-0.3-0.4-0.5-0.6c-0.1-0.2-0.2-0.5-0.3-0.7l0.4-0.2c0.1,0,0.1,0,0.2,0
				c0.1,0,0.1,0,0.2,0c0.1,0,0.1,0.1,0.1,0.1c0,0,0,0,0,0c0,0,0,0,0,0c0,0.1,0.1,0.2,0.2,0.3c0.1,0.1,0.2,0.2,0.3,0.3
				c0.1,0.1,0.3,0.2,0.4,0.3c0.2,0.1,0.4,0.1,0.6,0.1c0.2,0,0.5,0,0.7-0.1c0.2-0.1,0.3-0.2,0.5-0.3c0.1-0.1,0.2-0.3,0.3-0.4
				s0.1-0.3,0.1-0.5c0-0.2,0-0.4-0.1-0.5c-0.1-0.2-0.1-0.3-0.3-0.4c-0.1-0.1-0.3-0.2-0.6-0.3c-0.2-0.1-0.5-0.1-0.9-0.1v-0.6
				c0.3,0,0.6,0,0.8-0.1s0.4-0.1,0.5-0.3c0.1-0.1,0.2-0.2,0.3-0.4c0.1-0.2,0.1-0.3,0.1-0.5c0-0.2,0-0.4-0.1-0.5s-0.2-0.3-0.3-0.4
				c-0.1-0.1-0.2-0.2-0.4-0.2c-0.2,0-0.3-0.1-0.5-0.1s-0.3,0-0.5,0.1c-0.2,0.1-0.3,0.1-0.4,0.2c-0.1,0.1-0.2,0.2-0.3,0.3
				c-0.1,0.1-0.1,0.3-0.2,0.4c0,0.1-0.1,0.2-0.1,0.2s-0.1,0.1-0.2,0.1c0,0,0,0-0.1,0s0,0-0.1,0l-0.5-0.1c0-0.3,0.1-0.6,0.3-0.9
				c0.1-0.2,0.3-0.5,0.5-0.6c0.2-0.2,0.4-0.3,0.7-0.4C86.7,236.7,87,236.7,87.3,236.7z"/>
		</g>
		<g>
			<path class="st3" d="M134.5,50.2h1.5v-4.8c0-0.1,0-0.3,0-0.4l-1.3,1.1c0,0-0.1,0-0.1,0.1c0,0-0.1,0-0.1,0c0,0-0.1,0-0.1,0
				s-0.1,0-0.1-0.1l-0.3-0.4l2.1-1.8h0.7v6.4h1.4v0.7h-3.8V50.2z"/>
			<path class="st3" d="M137.5,63.1h1.1v0.5c0,0.1,0,0.1,0,0.1c0,0-0.1,0.1-0.1,0.1h-0.9v1.9h-0.8v-1.9h-3.1c-0.1,0-0.1,0-0.2-0.1
				s-0.1-0.1-0.1-0.1l-0.1-0.5l3.5-4.6h0.8V63.1z M136.8,60.2c0-0.1,0-0.2,0-0.3s0-0.2,0-0.3l-2.6,3.5h2.5V60.2z"/>
			<path class="st3" d="M136,73.3c0.3,0,0.6,0,0.8,0.1s0.5,0.2,0.7,0.4c0.2,0.2,0.3,0.4,0.4,0.6s0.2,0.5,0.2,0.8
				c0,0.3,0,0.5-0.1,0.7c-0.1,0.2-0.2,0.4-0.3,0.6c-0.1,0.2-0.3,0.4-0.5,0.6c-0.2,0.2-0.4,0.4-0.6,0.6l-1.9,1.9
				c0.1,0,0.3-0.1,0.4-0.1s0.3,0,0.4,0h2.4c0.1,0,0.2,0,0.2,0.1c0.1,0.1,0.1,0.1,0.1,0.2v0.5h-4.7v-0.3c0-0.1,0-0.1,0-0.2
				c0-0.1,0.1-0.1,0.1-0.2l2.3-2.3c0.2-0.2,0.4-0.4,0.5-0.6c0.2-0.2,0.3-0.4,0.4-0.5c0.1-0.2,0.2-0.4,0.3-0.5
				c0.1-0.2,0.1-0.4,0.1-0.6s0-0.4-0.1-0.5c-0.1-0.2-0.2-0.3-0.3-0.4c-0.1-0.1-0.3-0.2-0.4-0.2c-0.2-0.1-0.3-0.1-0.5-0.1
				s-0.3,0-0.5,0.1s-0.3,0.1-0.4,0.2c-0.1,0.1-0.2,0.2-0.3,0.3c-0.1,0.1-0.1,0.3-0.2,0.4c0,0.1-0.1,0.2-0.1,0.2s-0.1,0.1-0.2,0.1
				c0,0,0,0-0.1,0c0,0,0,0-0.1,0l-0.5-0.1c0-0.3,0.1-0.6,0.3-0.9c0.1-0.2,0.3-0.5,0.5-0.6c0.2-0.2,0.4-0.3,0.7-0.4
				C135.5,73.4,135.7,73.3,136,73.3z"/>
			<path class="st3" d="M131.3,92h2.4v0.7h-2.4V92z"/>
			<path class="st3" d="M134.7,92h2.4v0.7h-2.4V92z"/>
			<path class="st3" d="M138.2,92h2.4v0.7h-2.4V92z"/>
			<path class="st3" d="M137.9,103.5c0,0.1,0,0.2-0.1,0.3c-0.1,0.1-0.2,0.1-0.4,0.1h-2.2l-0.3,1.9c0.4-0.1,0.7-0.1,1-0.1
				c0.4,0,0.7,0.1,1,0.2c0.3,0.1,0.5,0.3,0.7,0.5s0.3,0.4,0.4,0.7c0.1,0.3,0.1,0.5,0.1,0.9c0,0.4-0.1,0.7-0.2,1s-0.3,0.6-0.5,0.8
				c-0.2,0.2-0.5,0.4-0.8,0.5c-0.3,0.1-0.6,0.2-1,0.2c-0.2,0-0.4,0-0.6-0.1c-0.2,0-0.4-0.1-0.5-0.2s-0.3-0.1-0.5-0.2
				c-0.1-0.1-0.3-0.2-0.4-0.3l0.3-0.4c0.1-0.1,0.1-0.1,0.2-0.1c0.1,0,0.1,0,0.2,0.1c0.1,0.1,0.2,0.1,0.3,0.2s0.3,0.1,0.4,0.2
				c0.2,0.1,0.4,0.1,0.6,0.1c0.2,0,0.5,0,0.7-0.1c0.2-0.1,0.4-0.2,0.5-0.3c0.1-0.1,0.2-0.3,0.3-0.5c0.1-0.2,0.1-0.4,0.1-0.7
				c0-0.2,0-0.4-0.1-0.6c-0.1-0.2-0.2-0.3-0.3-0.5c-0.1-0.1-0.3-0.2-0.5-0.3c-0.2-0.1-0.4-0.1-0.7-0.1c-0.2,0-0.4,0-0.6,0
				c-0.2,0-0.4,0.1-0.6,0.1l-0.6-0.2l0.6-3.3h3.4V103.5z"/>
			<path class="st3" d="M136,117.9c0.3,0,0.6,0,0.8,0.1s0.5,0.2,0.7,0.4c0.2,0.2,0.3,0.4,0.4,0.6s0.2,0.5,0.2,0.8
				c0,0.3,0,0.5-0.1,0.7c-0.1,0.2-0.2,0.4-0.3,0.6c-0.1,0.2-0.3,0.4-0.5,0.6c-0.2,0.2-0.4,0.4-0.6,0.6l-1.9,1.9
				c0.1,0,0.3-0.1,0.4-0.1s0.3,0,0.4,0h2.4c0.1,0,0.2,0,0.2,0.1c0.1,0.1,0.1,0.1,0.1,0.2v0.5h-4.7v-0.3c0-0.1,0-0.1,0-0.2
				c0-0.1,0.1-0.1,0.1-0.2l2.3-2.3c0.2-0.2,0.4-0.4,0.5-0.6c0.2-0.2,0.3-0.4,0.4-0.5c0.1-0.2,0.2-0.4,0.3-0.5
				c0.1-0.2,0.1-0.4,0.1-0.6s0-0.4-0.1-0.5c-0.1-0.2-0.2-0.3-0.3-0.4c-0.1-0.1-0.3-0.2-0.4-0.2c-0.2-0.1-0.3-0.1-0.5-0.1
				s-0.3,0-0.5,0.1s-0.3,0.1-0.4,0.2c-0.1,0.1-0.2,0.2-0.3,0.3c-0.1,0.1-0.1,0.3-0.2,0.4c0,0.1-0.1,0.2-0.1,0.2s-0.1,0.1-0.2,0.1
				c0,0,0,0-0.1,0c0,0,0,0-0.1,0l-0.5-0.1c0-0.3,0.1-0.6,0.3-0.9c0.1-0.2,0.3-0.5,0.5-0.6c0.2-0.2,0.4-0.3,0.7-0.4
				C135.5,117.9,135.7,117.9,136,117.9z"/>
			<path class="st3" d="M135.9,140c-0.4,0-0.7,0-1-0.1c-0.3-0.1-0.5-0.2-0.8-0.4c-0.2-0.2-0.4-0.4-0.5-0.6c-0.1-0.2-0.2-0.5-0.2-0.8
				c0-0.5,0.1-0.8,0.4-1.1c0.2-0.3,0.6-0.5,1-0.6c-0.4-0.1-0.7-0.3-0.8-0.6c-0.2-0.3-0.3-0.6-0.3-1c0-0.3,0.1-0.5,0.2-0.7
				c0.1-0.2,0.2-0.4,0.4-0.6c0.2-0.2,0.4-0.3,0.7-0.4s0.6-0.1,0.9-0.1c0.3,0,0.6,0,0.9,0.1s0.5,0.2,0.7,0.4c0.2,0.2,0.3,0.4,0.4,0.6
				c0.1,0.2,0.2,0.5,0.2,0.7c0,0.4-0.1,0.7-0.3,1s-0.5,0.5-0.8,0.6c0.4,0.1,0.8,0.3,1,0.6c0.2,0.3,0.4,0.7,0.4,1.1
				c0,0.3-0.1,0.6-0.2,0.8s-0.3,0.5-0.5,0.6c-0.2,0.2-0.5,0.3-0.8,0.4C136.6,139.9,136.3,140,135.9,140z M135.9,139.3
				c0.2,0,0.4,0,0.6-0.1c0.2-0.1,0.3-0.2,0.5-0.3s0.2-0.3,0.3-0.4c0.1-0.2,0.1-0.3,0.1-0.5c0-0.2,0-0.5-0.1-0.6
				c-0.1-0.2-0.2-0.3-0.3-0.4c-0.1-0.1-0.3-0.2-0.5-0.2c-0.2-0.1-0.4-0.1-0.6-0.1s-0.4,0-0.6,0.1c-0.2,0.1-0.3,0.1-0.5,0.2
				c-0.1,0.1-0.2,0.2-0.3,0.4c-0.1,0.2-0.1,0.4-0.1,0.6c0,0.2,0,0.4,0.1,0.5c0.1,0.2,0.2,0.3,0.3,0.4s0.3,0.2,0.5,0.3
				C135.5,139.3,135.7,139.3,135.9,139.3z M135.9,135.9c0.2,0,0.4,0,0.6-0.1c0.2-0.1,0.3-0.2,0.4-0.3c0.1-0.1,0.2-0.3,0.2-0.4
				c0-0.2,0.1-0.3,0.1-0.5c0-0.2,0-0.3-0.1-0.5c-0.1-0.1-0.1-0.3-0.2-0.4c-0.1-0.1-0.2-0.2-0.4-0.3s-0.3-0.1-0.6-0.1
				c-0.2,0-0.4,0-0.6,0.1c-0.2,0.1-0.3,0.1-0.4,0.3c-0.1,0.1-0.2,0.2-0.2,0.4c-0.1,0.1-0.1,0.3-0.1,0.5c0,0.2,0,0.3,0.1,0.5
				c0,0.2,0.1,0.3,0.2,0.4c0.1,0.1,0.2,0.2,0.4,0.3C135.5,135.8,135.7,135.9,135.9,135.9z"/>
			<path class="st3" d="M136,147.6c0.3,0,0.6,0,0.8,0.1s0.5,0.2,0.7,0.4c0.2,0.2,0.3,0.4,0.4,0.6s0.2,0.5,0.2,0.8
				c0,0.3,0,0.5-0.1,0.7c-0.1,0.2-0.2,0.4-0.3,0.6c-0.1,0.2-0.3,0.4-0.5,0.6c-0.2,0.2-0.4,0.4-0.6,0.6l-1.9,1.9
				c0.1,0,0.3-0.1,0.4-0.1s0.3,0,0.4,0h2.4c0.1,0,0.2,0,0.2,0.1c0.1,0.1,0.1,0.1,0.1,0.2v0.5h-4.7v-0.3c0-0.1,0-0.1,0-0.2
				c0-0.1,0.1-0.1,0.1-0.2l2.3-2.3c0.2-0.2,0.4-0.4,0.5-0.6c0.2-0.2,0.3-0.4,0.4-0.5c0.1-0.2,0.2-0.4,0.3-0.5
				c0.1-0.2,0.1-0.4,0.1-0.6s0-0.4-0.1-0.5c-0.1-0.2-0.2-0.3-0.3-0.4c-0.1-0.1-0.3-0.2-0.4-0.2c-0.2-0.1-0.3-0.1-0.5-0.1
				s-0.3,0-0.5,0.1s-0.3,0.1-0.4,0.2c-0.1,0.1-0.2,0.2-0.3,0.3c-0.1,0.1-0.1,0.3-0.2,0.4c0,0.1-0.1,0.2-0.1,0.2s-0.1,0.1-0.2,0.1
				c0,0,0,0-0.1,0c0,0,0,0-0.1,0l-0.5-0.1c0-0.3,0.1-0.6,0.3-0.9c0.1-0.2,0.3-0.5,0.5-0.6c0.2-0.2,0.4-0.3,0.7-0.4
				C135.5,147.6,135.7,147.6,136,147.6z"/>
			<path class="st3" d="M131.3,166.3h2.4v0.7h-2.4V166.3z"/>
			<path class="st3" d="M134.7,166.3h2.4v0.7h-2.4V166.3z"/>
			<path class="st3" d="M138.2,166.3h2.4v0.7h-2.4V166.3z"/>
			<path class="st3" d="M137.5,181.9h1.1v0.5c0,0.1,0,0.1,0,0.1c0,0-0.1,0.1-0.1,0.1h-0.9v1.9h-0.8v-1.9h-3.1c-0.1,0-0.1,0-0.2-0.1
				s-0.1-0.1-0.1-0.1l-0.1-0.5l3.5-4.6h0.8V181.9z M136.8,179c0-0.1,0-0.2,0-0.3c0-0.1,0-0.2,0-0.3l-2.6,3.5h2.5V179z"/>
			<path class="st3" d="M131.6,198.6h1.5v-4.8c0-0.1,0-0.3,0-0.4l-1.3,1.1c0,0-0.1,0-0.1,0.1c0,0-0.1,0-0.1,0c0,0-0.1,0-0.1,0
				s-0.1,0-0.1-0.1l-0.3-0.4l2.1-1.8h0.7v6.4h1.4v0.7h-3.8V198.6z"/>
			<path class="st3" d="M139,192.1c0.3,0,0.6,0,0.8,0.1c0.3,0.1,0.5,0.2,0.7,0.4s0.3,0.3,0.4,0.6c0.1,0.2,0.2,0.5,0.2,0.7
				c0,0.2,0,0.4-0.1,0.6s-0.1,0.3-0.2,0.5c-0.1,0.1-0.2,0.2-0.4,0.3c-0.2,0.1-0.3,0.2-0.5,0.2c0.5,0.1,0.8,0.3,1,0.6
				c0.2,0.3,0.3,0.6,0.3,1.1c0,0.3-0.1,0.6-0.2,0.9c-0.1,0.3-0.3,0.5-0.5,0.7c-0.2,0.2-0.5,0.3-0.8,0.4c-0.3,0.1-0.6,0.1-0.9,0.1
				c-0.4,0-0.7,0-1-0.1c-0.3-0.1-0.5-0.2-0.7-0.4c-0.2-0.2-0.3-0.4-0.5-0.6c-0.1-0.2-0.2-0.5-0.3-0.7l0.4-0.2c0.1,0,0.1,0,0.2,0
				c0.1,0,0.1,0,0.2,0c0.1,0,0.1,0.1,0.1,0.1c0,0,0,0,0,0c0,0,0,0,0,0c0,0.1,0.1,0.2,0.2,0.3c0.1,0.1,0.2,0.2,0.3,0.3
				c0.1,0.1,0.3,0.2,0.4,0.3c0.2,0.1,0.4,0.1,0.6,0.1c0.2,0,0.5,0,0.7-0.1c0.2-0.1,0.3-0.2,0.5-0.3c0.1-0.1,0.2-0.3,0.3-0.4
				s0.1-0.3,0.1-0.5c0-0.2,0-0.4-0.1-0.5c-0.1-0.2-0.1-0.3-0.3-0.4c-0.1-0.1-0.3-0.2-0.6-0.3c-0.2-0.1-0.5-0.1-0.9-0.1v-0.6
				c0.3,0,0.6,0,0.8-0.1s0.4-0.1,0.5-0.3c0.1-0.1,0.2-0.2,0.3-0.4c0.1-0.2,0.1-0.3,0.1-0.5c0-0.2,0-0.4-0.1-0.5s-0.2-0.3-0.3-0.4
				c-0.1-0.1-0.2-0.2-0.4-0.2c-0.2,0-0.3-0.1-0.5-0.1s-0.3,0-0.5,0.1c-0.2,0.1-0.3,0.1-0.4,0.2c-0.1,0.1-0.2,0.2-0.3,0.3
				c-0.1,0.1-0.1,0.3-0.2,0.4c0,0.1-0.1,0.2-0.1,0.2s-0.1,0.1-0.2,0.1c0,0,0,0-0.1,0s0,0-0.1,0l-0.5-0.1c0-0.3,0.1-0.6,0.3-0.9
				c0.1-0.2,0.3-0.5,0.5-0.6c0.2-0.2,0.4-0.3,0.7-0.4C138.4,192.2,138.7,192.1,139,192.1z"/>
			<path class="st3" d="M131.3,210.8h2.4v0.7h-2.4V210.8z"/>
			<path class="st3" d="M134.7,210.8h2.4v0.7h-2.4V210.8z"/>
			<path class="st3" d="M138.2,210.8h2.4v0.7h-2.4V210.8z"/>
			<path class="st3" d="M131.3,225.7h2.4v0.7h-2.4V225.7z"/>
			<path class="st3" d="M134.7,225.7h2.4v0.7h-2.4V225.7z"/>
			<path class="st3" d="M138.2,225.7h2.4v0.7h-2.4V225.7z"/>
			<path class="st3" d="M135.6,236.8v0.4c0,0.1,0,0.2,0,0.3c0,0.1-0.1,0.1-0.1,0.2l-2.9,5.9c0,0.1-0.1,0.2-0.2,0.2
				c-0.1,0.1-0.2,0.1-0.3,0.1h-0.6l3-5.9c0-0.1,0.1-0.2,0.1-0.2s0.1-0.1,0.2-0.2H131c-0.1,0-0.1,0-0.2-0.1s-0.1-0.1-0.1-0.2v-0.6
				H135.6z"/>
			<path class="st3" d="M140.4,241.3h1.1v0.5c0,0.1,0,0.1,0,0.1c0,0-0.1,0.1-0.1,0.1h-0.9v1.9h-0.8V242h-3.1c-0.1,0-0.1,0-0.2-0.1
				s-0.1-0.1-0.1-0.1l-0.1-0.5l3.5-4.6h0.8V241.3z M139.6,238.4c0-0.1,0-0.2,0-0.3c0-0.1,0-0.2,0-0.3l-2.6,3.5h2.5V238.4z"/>
		</g>
		<g>
			<path class="st3" d="M207.3,47.5h2.4v0.7h-2.4V47.5z"/>
			<path class="st3" d="M210.7,47.5h2.4v0.7h-2.4V47.5z"/>
			<path class="st3" d="M214.1,47.5h2.4v0.7h-2.4V47.5z"/>
			<path class="st3" d="M212.3,61.3c0.3,0,0.6,0,0.8,0.1c0.3,0.1,0.5,0.2,0.7,0.4s0.3,0.4,0.5,0.7c0.1,0.3,0.2,0.6,0.2,0.9
				c0,0.3-0.1,0.6-0.2,0.9c-0.1,0.3-0.3,0.5-0.5,0.7s-0.5,0.4-0.8,0.5c-0.3,0.1-0.6,0.2-1,0.2c-0.4,0-0.7-0.1-1-0.2
				c-0.3-0.1-0.5-0.3-0.7-0.5c-0.2-0.2-0.4-0.5-0.5-0.8c-0.1-0.3-0.2-0.6-0.2-1c0-0.3,0.1-0.6,0.2-1c0.1-0.3,0.4-0.7,0.7-1.1
				l1.8-2.4c0-0.1,0.1-0.1,0.2-0.2c0.1,0,0.2-0.1,0.3-0.1h0.8l-2.5,3.1c0.2-0.1,0.4-0.2,0.6-0.3S212,61.3,212.3,61.3z M210.4,63.5
				c0,0.2,0,0.4,0.1,0.6c0.1,0.2,0.2,0.4,0.3,0.5c0.1,0.1,0.3,0.2,0.5,0.3s0.4,0.1,0.6,0.1c0.2,0,0.5,0,0.6-0.1
				c0.2-0.1,0.4-0.2,0.5-0.3c0.1-0.1,0.2-0.3,0.3-0.5c0.1-0.2,0.1-0.4,0.1-0.6c0-0.2,0-0.4-0.1-0.6s-0.2-0.3-0.3-0.5
				c-0.1-0.1-0.3-0.2-0.5-0.3c-0.2-0.1-0.4-0.1-0.6-0.1c-0.2,0-0.5,0-0.6,0.1c-0.2,0.1-0.4,0.2-0.5,0.3c-0.1,0.1-0.2,0.3-0.3,0.5
				C210.5,63.1,210.4,63.3,210.4,63.5z"/>
			<path class="st3" d="M207.3,77.2h2.4v0.7h-2.4V77.2z"/>
			<path class="st3" d="M210.7,77.2h2.4v0.7h-2.4V77.2z"/>
			<path class="st3" d="M214.1,77.2h2.4v0.7h-2.4V77.2z"/>
			<path class="st3" d="M207.3,92h2.4v0.7h-2.4V92z"/>
			<path class="st3" d="M210.7,92h2.4v0.7h-2.4V92z"/>
			<path class="st3" d="M214.1,92h2.4v0.7h-2.4V92z"/>
			<path class="st3" d="M207.3,106.9h2.4v0.7h-2.4V106.9z"/>
			<path class="st3" d="M210.7,106.9h2.4v0.7h-2.4V106.9z"/>
			<path class="st3" d="M214.1,106.9h2.4v0.7h-2.4V106.9z"/>
			<path class="st3" d="M207.3,121.7h2.4v0.7h-2.4V121.7z"/>
			<path class="st3" d="M210.7,121.7h2.4v0.7h-2.4V121.7z"/>
			<path class="st3" d="M214.1,121.7h2.4v0.7h-2.4V121.7z"/>
			<path class="st3" d="M211.8,137c-0.3,0-0.5,0-0.8-0.1s-0.4-0.2-0.6-0.4c-0.2-0.2-0.3-0.4-0.4-0.6c-0.1-0.3-0.2-0.5-0.2-0.9
				c0-0.3,0.1-0.6,0.2-0.9c0.1-0.3,0.3-0.5,0.5-0.7c0.2-0.2,0.5-0.4,0.7-0.5c0.3-0.1,0.6-0.2,0.9-0.2c0.3,0,0.6,0.1,0.9,0.2
				c0.3,0.1,0.5,0.3,0.7,0.5s0.4,0.4,0.5,0.7c0.1,0.3,0.2,0.6,0.2,0.9c0,0.2,0,0.4-0.1,0.6c0,0.2-0.1,0.4-0.2,0.5
				c-0.1,0.2-0.2,0.3-0.3,0.5c-0.1,0.2-0.2,0.4-0.3,0.5l-1.7,2.5c0,0.1-0.1,0.1-0.2,0.2c-0.1,0-0.2,0.1-0.3,0.1h-0.8l2.2-2.8
				c0.1-0.1,0.1-0.2,0.2-0.3c0.1-0.1,0.1-0.2,0.2-0.3c-0.2,0.1-0.4,0.3-0.6,0.3C212.3,137,212,137,211.8,137z M213.5,134.9
				c0-0.2,0-0.4-0.1-0.6c-0.1-0.2-0.2-0.3-0.3-0.5c-0.1-0.1-0.3-0.2-0.4-0.3c-0.2-0.1-0.4-0.1-0.6-0.1c-0.2,0-0.4,0-0.6,0.1
				c-0.2,0.1-0.3,0.2-0.5,0.3c-0.1,0.1-0.2,0.3-0.3,0.5s-0.1,0.4-0.1,0.6c0,0.2,0,0.4,0.1,0.6s0.2,0.3,0.3,0.4
				c0.1,0.1,0.3,0.2,0.4,0.3s0.4,0.1,0.6,0.1c0.2,0,0.4,0,0.6-0.1c0.2-0.1,0.3-0.2,0.5-0.3c0.1-0.1,0.2-0.3,0.3-0.4
				C213.5,135.3,213.5,135.1,213.5,134.9z"/>
			<path class="st3" d="M210.5,154.1h1.5v-4.8c0-0.1,0-0.3,0-0.4l-1.3,1.1c0,0-0.1,0-0.1,0.1c0,0-0.1,0-0.1,0c0,0-0.1,0-0.1,0
				s-0.1,0-0.1-0.1l-0.3-0.4l2.1-1.8h0.7v6.4h1.4v0.7h-3.8V154.1z"/>
			<path class="st3" d="M212,162.4c0.3,0,0.6,0,0.8,0.1s0.5,0.2,0.7,0.4c0.2,0.2,0.3,0.4,0.4,0.6s0.2,0.5,0.2,0.8
				c0,0.3,0,0.5-0.1,0.7c-0.1,0.2-0.2,0.4-0.3,0.6c-0.1,0.2-0.3,0.4-0.5,0.6c-0.2,0.2-0.4,0.4-0.6,0.6l-1.9,1.9
				c0.1,0,0.3-0.1,0.4-0.1s0.3,0,0.4,0h2.4c0.1,0,0.2,0,0.2,0.1c0.1,0.1,0.1,0.1,0.1,0.2v0.5h-4.7v-0.3c0-0.1,0-0.1,0-0.2
				c0-0.1,0.1-0.1,0.1-0.2l2.3-2.3c0.2-0.2,0.4-0.4,0.5-0.6c0.2-0.2,0.3-0.4,0.4-0.5c0.1-0.2,0.2-0.4,0.3-0.5
				c0.1-0.2,0.1-0.4,0.1-0.6s0-0.4-0.1-0.5c-0.1-0.2-0.2-0.3-0.3-0.4c-0.1-0.1-0.3-0.2-0.4-0.2c-0.2-0.1-0.3-0.1-0.5-0.1
				s-0.3,0-0.5,0.1s-0.3,0.1-0.4,0.2c-0.1,0.1-0.2,0.2-0.3,0.3c-0.1,0.1-0.1,0.3-0.2,0.4c0,0.1-0.1,0.2-0.1,0.2s-0.1,0.1-0.2,0.1
				c0,0,0,0-0.1,0c0,0,0,0-0.1,0l-0.5-0.1c0-0.3,0.1-0.6,0.3-0.9c0.1-0.2,0.3-0.5,0.5-0.6c0.2-0.2,0.4-0.3,0.7-0.4
				C211.4,162.5,211.7,162.4,212,162.4z"/>
			<path class="st3" d="M212,177.3c0.3,0,0.6,0,0.8,0.1s0.5,0.2,0.7,0.4c0.2,0.2,0.3,0.4,0.4,0.6s0.2,0.5,0.2,0.8
				c0,0.3,0,0.5-0.1,0.7c-0.1,0.2-0.2,0.4-0.3,0.6c-0.1,0.2-0.3,0.4-0.5,0.6c-0.2,0.2-0.4,0.4-0.6,0.6l-1.9,1.9
				c0.1,0,0.3-0.1,0.4-0.1s0.3,0,0.4,0h2.4c0.1,0,0.2,0,0.2,0.1c0.1,0.1,0.1,0.1,0.1,0.2v0.5h-4.7v-0.3c0-0.1,0-0.1,0-0.2
				c0-0.1,0.1-0.1,0.1-0.2l2.3-2.3c0.2-0.2,0.4-0.4,0.5-0.6c0.2-0.2,0.3-0.4,0.4-0.5c0.1-0.2,0.2-0.4,0.3-0.5
				c0.1-0.2,0.1-0.4,0.1-0.6s0-0.4-0.1-0.5c-0.1-0.2-0.2-0.3-0.3-0.4c-0.1-0.1-0.3-0.2-0.4-0.2c-0.2-0.1-0.3-0.1-0.5-0.1
				s-0.3,0-0.5,0.1s-0.3,0.1-0.4,0.2c-0.1,0.1-0.2,0.2-0.3,0.3c-0.1,0.1-0.1,0.3-0.2,0.4c0,0.1-0.1,0.2-0.1,0.2s-0.1,0.1-0.2,0.1
				c0,0,0,0-0.1,0c0,0,0,0-0.1,0l-0.5-0.1c0-0.3,0.1-0.6,0.3-0.9c0.1-0.2,0.3-0.5,0.5-0.6c0.2-0.2,0.4-0.3,0.7-0.4
				C211.4,177.3,211.7,177.3,212,177.3z"/>
			<path class="st3" d="M207.3,196h2.4v0.7h-2.4V196z"/>
			<path class="st3" d="M210.7,196h2.4v0.7h-2.4V196z"/>
			<path class="st3" d="M214.1,196h2.4v0.7h-2.4V196z"/>
			<path class="st3" d="M207.3,210.8h2.4v0.7h-2.4V210.8z"/>
			<path class="st3" d="M210.7,210.8h2.4v0.7h-2.4V210.8z"/>
			<path class="st3" d="M214.1,210.8h2.4v0.7h-2.4V210.8z"/>
			<path class="st3" d="M207.3,225.7h2.4v0.7h-2.4V225.7z"/>
			<path class="st3" d="M210.7,225.7h2.4v0.7h-2.4V225.7z"/>
			<path class="st3" d="M214.1,225.7h2.4v0.7h-2.4V225.7z"/>
			<path class="st3" d="M209.1,236.7c0.3,0,0.6,0,0.8,0.1s0.5,0.2,0.7,0.4c0.2,0.2,0.3,0.4,0.4,0.6s0.2,0.5,0.2,0.8
				c0,0.3,0,0.5-0.1,0.7c-0.1,0.2-0.2,0.4-0.3,0.6c-0.1,0.2-0.3,0.4-0.5,0.6c-0.2,0.2-0.4,0.4-0.6,0.6l-1.9,1.9
				c0.1,0,0.3-0.1,0.4-0.1s0.3,0,0.4,0h2.4c0.1,0,0.2,0,0.2,0.1c0.1,0.1,0.1,0.1,0.1,0.2v0.5h-4.7v-0.3c0-0.1,0-0.1,0-0.2
				c0-0.1,0.1-0.1,0.1-0.2l2.3-2.3c0.2-0.2,0.4-0.4,0.5-0.6c0.2-0.2,0.3-0.4,0.4-0.5c0.1-0.2,0.2-0.4,0.3-0.5
				c0.1-0.2,0.1-0.4,0.1-0.6s0-0.4-0.1-0.5c-0.1-0.2-0.2-0.3-0.3-0.4c-0.1-0.1-0.3-0.2-0.4-0.2c-0.2-0.1-0.3-0.1-0.5-0.1
				s-0.3,0-0.5,0.1s-0.3,0.1-0.4,0.2c-0.1,0.1-0.2,0.2-0.3,0.3c-0.1,0.1-0.1,0.3-0.2,0.4c0,0.1-0.1,0.2-0.1,0.2s-0.1,0.1-0.2,0.1
				c0,0,0,0-0.1,0c0,0,0,0-0.1,0l-0.5-0.1c0-0.3,0.1-0.6,0.3-0.9c0.1-0.2,0.3-0.5,0.5-0.6c0.2-0.2,0.4-0.3,0.7-0.4
				C208.6,236.7,208.8,236.7,209.1,236.7z"/>
			<path class="st3" d="M214.6,240.9c-0.3,0-0.5,0-0.8-0.1s-0.4-0.2-0.6-0.4c-0.2-0.2-0.3-0.4-0.4-0.6c-0.1-0.3-0.2-0.5-0.2-0.9
				c0-0.3,0.1-0.6,0.2-0.9c0.1-0.3,0.3-0.5,0.5-0.7c0.2-0.2,0.5-0.4,0.7-0.5c0.3-0.1,0.6-0.2,0.9-0.2c0.3,0,0.6,0.1,0.9,0.2
				c0.3,0.1,0.5,0.3,0.7,0.5s0.4,0.4,0.5,0.7c0.1,0.3,0.2,0.6,0.2,0.9c0,0.2,0,0.4-0.1,0.6c0,0.2-0.1,0.4-0.2,0.5
				c-0.1,0.2-0.2,0.3-0.3,0.5c-0.1,0.2-0.2,0.4-0.3,0.5l-1.7,2.5c0,0.1-0.1,0.1-0.2,0.2c-0.1,0-0.2,0.1-0.3,0.1h-0.8l2.2-2.8
				c0.1-0.1,0.1-0.2,0.2-0.3c0.1-0.1,0.1-0.2,0.2-0.3c-0.2,0.1-0.4,0.3-0.6,0.3C215.1,240.9,214.9,240.9,214.6,240.9z M216.4,238.9
				c0-0.2,0-0.4-0.1-0.6c-0.1-0.2-0.2-0.3-0.3-0.5c-0.1-0.1-0.3-0.2-0.4-0.3c-0.2-0.1-0.4-0.1-0.6-0.1c-0.2,0-0.4,0-0.6,0.1
				c-0.2,0.1-0.3,0.2-0.5,0.3c-0.1,0.1-0.2,0.3-0.3,0.5s-0.1,0.4-0.1,0.6c0,0.2,0,0.4,0.1,0.6s0.2,0.3,0.3,0.4
				c0.1,0.1,0.3,0.2,0.4,0.3s0.4,0.1,0.6,0.1c0.2,0,0.4,0,0.6-0.1c0.2-0.1,0.3-0.2,0.5-0.3c0.1-0.1,0.2-0.3,0.3-0.4
				C216.4,239.2,216.4,239,216.4,238.9z"/>
		</g>
		<g>
			<path class="st3" d="M296.5,47.5h2.4v0.7h-2.4V47.5z"/>
			<path class="st3" d="M300,47.5h2.4v0.7H300V47.5z"/>
			<path class="st3" d="M303.4,47.5h2.4v0.7h-2.4V47.5z"/>
			<path class="st3" d="M301.4,58.5c0.3,0,0.6,0,0.8,0.1c0.3,0.1,0.5,0.2,0.7,0.4c0.2,0.2,0.3,0.3,0.4,0.6c0.1,0.2,0.2,0.5,0.2,0.7
				c0,0.2,0,0.4-0.1,0.6c-0.1,0.2-0.1,0.3-0.2,0.5c-0.1,0.1-0.2,0.2-0.4,0.3c-0.2,0.1-0.3,0.2-0.5,0.2c0.5,0.1,0.8,0.3,1,0.6
				c0.2,0.3,0.3,0.6,0.3,1.1c0,0.3-0.1,0.6-0.2,0.9c-0.1,0.3-0.3,0.5-0.5,0.7c-0.2,0.2-0.5,0.3-0.8,0.4c-0.3,0.1-0.6,0.1-0.9,0.1
				c-0.4,0-0.7,0-1-0.1c-0.3-0.1-0.5-0.2-0.7-0.4c-0.2-0.2-0.3-0.4-0.5-0.6c-0.1-0.2-0.2-0.5-0.3-0.7l0.4-0.2c0.1,0,0.1,0,0.2,0
				c0.1,0,0.1,0,0.2,0s0.1,0.1,0.1,0.1c0,0,0,0,0,0c0,0,0,0,0,0c0,0.1,0.1,0.2,0.2,0.3c0.1,0.1,0.2,0.2,0.3,0.3
				c0.1,0.1,0.3,0.2,0.4,0.3c0.2,0.1,0.4,0.1,0.6,0.1s0.5,0,0.7-0.1c0.2-0.1,0.3-0.2,0.5-0.3c0.1-0.1,0.2-0.3,0.3-0.4
				c0.1-0.2,0.1-0.3,0.1-0.5c0-0.2,0-0.4-0.1-0.5s-0.1-0.3-0.3-0.4c-0.1-0.1-0.3-0.2-0.6-0.3c-0.2-0.1-0.5-0.1-0.9-0.1v-0.6
				c0.3,0,0.6,0,0.8-0.1s0.4-0.1,0.5-0.3c0.1-0.1,0.2-0.2,0.3-0.4c0.1-0.2,0.1-0.3,0.1-0.5c0-0.2,0-0.4-0.1-0.5s-0.2-0.3-0.3-0.4
				c-0.1-0.1-0.2-0.2-0.4-0.2c-0.2,0-0.3-0.1-0.5-0.1c-0.2,0-0.3,0-0.5,0.1c-0.2,0.1-0.3,0.1-0.4,0.2c-0.1,0.1-0.2,0.2-0.3,0.3
				c-0.1,0.1-0.1,0.3-0.2,0.4c0,0.1-0.1,0.2-0.1,0.2c-0.1,0-0.1,0.1-0.2,0.1c0,0,0,0-0.1,0c0,0,0,0-0.1,0l-0.5-0.1
				c0-0.3,0.1-0.6,0.3-0.9s0.3-0.5,0.5-0.6c0.2-0.2,0.4-0.3,0.7-0.4C300.8,58.5,301.1,58.5,301.4,58.5z"/>
			<path class="st3" d="M301.4,73.3c0.3,0,0.6,0,0.8,0.1c0.3,0.1,0.5,0.2,0.7,0.4c0.2,0.2,0.3,0.3,0.4,0.6c0.1,0.2,0.2,0.5,0.2,0.7
				c0,0.2,0,0.4-0.1,0.6s-0.1,0.3-0.2,0.5c-0.1,0.1-0.2,0.2-0.4,0.3c-0.2,0.1-0.3,0.2-0.5,0.2c0.5,0.1,0.8,0.3,1,0.6
				c0.2,0.3,0.3,0.6,0.3,1.1c0,0.3-0.1,0.6-0.2,0.9c-0.1,0.3-0.3,0.5-0.5,0.7c-0.2,0.2-0.5,0.3-0.8,0.4c-0.3,0.1-0.6,0.1-0.9,0.1
				c-0.4,0-0.7,0-1-0.1c-0.3-0.1-0.5-0.2-0.7-0.4c-0.2-0.2-0.3-0.4-0.5-0.6c-0.1-0.2-0.2-0.5-0.3-0.7l0.4-0.2c0.1,0,0.1,0,0.2,0
				c0.1,0,0.1,0,0.2,0s0.1,0.1,0.1,0.1c0,0,0,0,0,0c0,0,0,0,0,0c0,0.1,0.1,0.2,0.2,0.3c0.1,0.1,0.2,0.2,0.3,0.3
				c0.1,0.1,0.3,0.2,0.4,0.3c0.2,0.1,0.4,0.1,0.6,0.1s0.5,0,0.7-0.1c0.2-0.1,0.3-0.2,0.5-0.3c0.1-0.1,0.2-0.3,0.3-0.4
				s0.1-0.3,0.1-0.5c0-0.2,0-0.4-0.1-0.5s-0.1-0.3-0.3-0.4c-0.1-0.1-0.3-0.2-0.6-0.3c-0.2-0.1-0.5-0.1-0.9-0.1v-0.6
				c0.3,0,0.6,0,0.8-0.1s0.4-0.1,0.5-0.3c0.1-0.1,0.2-0.2,0.3-0.4c0.1-0.2,0.1-0.3,0.1-0.5c0-0.2,0-0.4-0.1-0.5s-0.2-0.3-0.3-0.4
				c-0.1-0.1-0.2-0.2-0.4-0.2c-0.2,0-0.3-0.1-0.5-0.1c-0.2,0-0.3,0-0.5,0.1c-0.2,0.1-0.3,0.1-0.4,0.2c-0.1,0.1-0.2,0.2-0.3,0.3
				c-0.1,0.1-0.1,0.3-0.2,0.4c0,0.1-0.1,0.2-0.1,0.2s-0.1,0.1-0.2,0.1c0,0,0,0-0.1,0c0,0,0,0-0.1,0l-0.5-0.1c0-0.3,0.1-0.6,0.3-0.9
				c0.1-0.2,0.3-0.5,0.5-0.6c0.2-0.2,0.4-0.3,0.7-0.4C300.8,73.4,301.1,73.3,301.4,73.3z"/>
			<path class="st3" d="M296.5,92h2.4v0.7h-2.4V92z"/>
			<path class="st3" d="M300,92h2.4v0.7H300V92z"/>
			<path class="st3" d="M303.4,92h2.4v0.7h-2.4V92z"/>
			<path class="st3" d="M296.5,106.9h2.4v0.7h-2.4V106.9z"/>
			<path class="st3" d="M300,106.9h2.4v0.7H300V106.9z"/>
			<path class="st3" d="M303.4,106.9h2.4v0.7h-2.4V106.9z"/>
			<path class="st3" d="M301.3,117.9c0.3,0,0.6,0,0.8,0.1s0.5,0.2,0.7,0.4s0.3,0.4,0.4,0.6c0.1,0.2,0.2,0.5,0.2,0.8
				c0,0.3,0,0.5-0.1,0.7c-0.1,0.2-0.2,0.4-0.3,0.6s-0.3,0.4-0.5,0.6s-0.4,0.4-0.6,0.6l-1.9,1.9c0.1,0,0.3-0.1,0.4-0.1
				c0.1,0,0.3,0,0.4,0h2.4c0.1,0,0.2,0,0.2,0.1c0.1,0.1,0.1,0.1,0.1,0.2v0.5h-4.7v-0.3c0-0.1,0-0.1,0-0.2c0-0.1,0.1-0.1,0.1-0.2
				l2.3-2.3c0.2-0.2,0.4-0.4,0.5-0.6c0.2-0.2,0.3-0.4,0.4-0.5c0.1-0.2,0.2-0.4,0.3-0.5c0.1-0.2,0.1-0.4,0.1-0.6s0-0.4-0.1-0.5
				c-0.1-0.2-0.2-0.3-0.3-0.4c-0.1-0.1-0.3-0.2-0.4-0.2c-0.2-0.1-0.3-0.1-0.5-0.1c-0.2,0-0.3,0-0.5,0.1c-0.2,0.1-0.3,0.1-0.4,0.2
				c-0.1,0.1-0.2,0.2-0.3,0.3c-0.1,0.1-0.1,0.3-0.2,0.4c0,0.1-0.1,0.2-0.1,0.2s-0.1,0.1-0.2,0.1c0,0,0,0-0.1,0c0,0,0,0-0.1,0
				l-0.5-0.1c0-0.3,0.1-0.6,0.3-0.9c0.1-0.2,0.3-0.5,0.5-0.6c0.2-0.2,0.4-0.3,0.7-0.4C300.7,117.9,301,117.9,301.3,117.9z"/>
			<path class="st3" d="M301.3,132.7c0.3,0,0.6,0,0.8,0.1s0.5,0.2,0.7,0.4s0.3,0.4,0.4,0.6c0.1,0.2,0.2,0.5,0.2,0.8
				c0,0.3,0,0.5-0.1,0.7c-0.1,0.2-0.2,0.4-0.3,0.6s-0.3,0.4-0.5,0.6s-0.4,0.4-0.6,0.6l-1.9,1.9c0.1,0,0.3-0.1,0.4-0.1
				c0.1,0,0.3,0,0.4,0h2.4c0.1,0,0.2,0,0.2,0.1c0.1,0.1,0.1,0.1,0.1,0.2v0.5h-4.7v-0.3c0-0.1,0-0.1,0-0.2c0-0.1,0.1-0.1,0.1-0.2
				l2.3-2.3c0.2-0.2,0.4-0.4,0.5-0.6c0.2-0.2,0.3-0.4,0.4-0.5c0.1-0.2,0.2-0.4,0.3-0.5c0.1-0.2,0.1-0.4,0.1-0.6s0-0.4-0.1-0.5
				c-0.1-0.2-0.2-0.3-0.3-0.4c-0.1-0.1-0.3-0.2-0.4-0.2c-0.2-0.1-0.3-0.1-0.5-0.1c-0.2,0-0.3,0-0.5,0.1c-0.2,0.1-0.3,0.1-0.4,0.2
				c-0.1,0.1-0.2,0.2-0.3,0.3c-0.1,0.1-0.1,0.3-0.2,0.4c0,0.1-0.1,0.2-0.1,0.2s-0.1,0.1-0.2,0.1c0,0,0,0-0.1,0c0,0,0,0-0.1,0
				l-0.5-0.1c0-0.3,0.1-0.6,0.3-0.9c0.1-0.2,0.3-0.5,0.5-0.6c0.2-0.2,0.4-0.3,0.7-0.4C300.7,132.8,301,132.7,301.3,132.7z"/>
			<path class="st3" d="M301.3,147.6c0.3,0,0.6,0,0.8,0.1s0.5,0.2,0.7,0.4s0.3,0.4,0.4,0.6c0.1,0.2,0.2,0.5,0.2,0.8
				c0,0.3,0,0.5-0.1,0.7c-0.1,0.2-0.2,0.4-0.3,0.6s-0.3,0.4-0.5,0.6s-0.4,0.4-0.6,0.6l-1.9,1.9c0.1,0,0.3-0.1,0.4-0.1
				c0.1,0,0.3,0,0.4,0h2.4c0.1,0,0.2,0,0.2,0.1c0.1,0.1,0.1,0.1,0.1,0.2v0.5h-4.7v-0.3c0-0.1,0-0.1,0-0.2c0-0.1,0.1-0.1,0.1-0.2
				l2.3-2.3c0.2-0.2,0.4-0.4,0.5-0.6c0.2-0.2,0.3-0.4,0.4-0.5c0.1-0.2,0.2-0.4,0.3-0.5c0.1-0.2,0.1-0.4,0.1-0.6s0-0.4-0.1-0.5
				c-0.1-0.2-0.2-0.3-0.3-0.4c-0.1-0.1-0.3-0.2-0.4-0.2c-0.2-0.1-0.3-0.1-0.5-0.1c-0.2,0-0.3,0-0.5,0.1c-0.2,0.1-0.3,0.1-0.4,0.2
				c-0.1,0.1-0.2,0.2-0.3,0.3c-0.1,0.1-0.1,0.3-0.2,0.4c0,0.1-0.1,0.2-0.1,0.2s-0.1,0.1-0.2,0.1c0,0,0,0-0.1,0c0,0,0,0-0.1,0
				l-0.5-0.1c0-0.3,0.1-0.6,0.3-0.9c0.1-0.2,0.3-0.5,0.5-0.6c0.2-0.2,0.4-0.3,0.7-0.4C300.7,147.6,301,147.6,301.3,147.6z"/>
			<path class="st3" d="M296.5,166.3h2.4v0.7h-2.4V166.3z"/>
			<path class="st3" d="M300,166.3h2.4v0.7H300V166.3z"/>
			<path class="st3" d="M303.4,166.3h2.4v0.7h-2.4V166.3z"/>
			<path class="st3" d="M301.3,177.3c0.3,0,0.6,0,0.8,0.1s0.5,0.2,0.7,0.4s0.3,0.4,0.4,0.6c0.1,0.2,0.2,0.5,0.2,0.8
				c0,0.3,0,0.5-0.1,0.7c-0.1,0.2-0.2,0.4-0.3,0.6s-0.3,0.4-0.5,0.6s-0.4,0.4-0.6,0.6l-1.9,1.9c0.1,0,0.3-0.1,0.4-0.1
				c0.1,0,0.3,0,0.4,0h2.4c0.1,0,0.2,0,0.2,0.1c0.1,0.1,0.1,0.1,0.1,0.2v0.5h-4.7v-0.3c0-0.1,0-0.1,0-0.2c0-0.1,0.1-0.1,0.1-0.2
				l2.3-2.3c0.2-0.2,0.4-0.4,0.5-0.6c0.2-0.2,0.3-0.4,0.4-0.5c0.1-0.2,0.2-0.4,0.3-0.5c0.1-0.2,0.1-0.4,0.1-0.6s0-0.4-0.1-0.5
				c-0.1-0.2-0.2-0.3-0.3-0.4c-0.1-0.1-0.3-0.2-0.4-0.2c-0.2-0.1-0.3-0.1-0.5-0.1c-0.2,0-0.3,0-0.5,0.1c-0.2,0.1-0.3,0.1-0.4,0.2
				c-0.1,0.1-0.2,0.2-0.3,0.3c-0.1,0.1-0.1,0.3-0.2,0.4c0,0.1-0.1,0.2-0.1,0.2s-0.1,0.1-0.2,0.1c0,0,0,0-0.1,0c0,0,0,0-0.1,0
				l-0.5-0.1c0-0.3,0.1-0.6,0.3-0.9c0.1-0.2,0.3-0.5,0.5-0.6c0.2-0.2,0.4-0.3,0.7-0.4C300.7,177.3,301,177.3,301.3,177.3z"/>
			<path class="st3" d="M301.4,192.1c0.3,0,0.6,0,0.8,0.1c0.3,0.1,0.5,0.2,0.7,0.4c0.2,0.2,0.3,0.3,0.4,0.6c0.1,0.2,0.2,0.5,0.2,0.7
				c0,0.2,0,0.4-0.1,0.6s-0.1,0.3-0.2,0.5c-0.1,0.1-0.2,0.2-0.4,0.3c-0.2,0.1-0.3,0.2-0.5,0.2c0.5,0.1,0.8,0.3,1,0.6
				c0.2,0.3,0.3,0.6,0.3,1.1c0,0.3-0.1,0.6-0.2,0.9c-0.1,0.3-0.3,0.5-0.5,0.7c-0.2,0.2-0.5,0.3-0.8,0.4c-0.3,0.1-0.6,0.1-0.9,0.1
				c-0.4,0-0.7,0-1-0.1c-0.3-0.1-0.5-0.2-0.7-0.4c-0.2-0.2-0.3-0.4-0.5-0.6c-0.1-0.2-0.2-0.5-0.3-0.7l0.4-0.2c0.1,0,0.1,0,0.2,0
				c0.1,0,0.1,0,0.2,0s0.1,0.1,0.1,0.1c0,0,0,0,0,0c0,0,0,0,0,0c0,0.1,0.1,0.2,0.2,0.3c0.1,0.1,0.2,0.2,0.3,0.3
				c0.1,0.1,0.3,0.2,0.4,0.3c0.2,0.1,0.4,0.1,0.6,0.1s0.5,0,0.7-0.1c0.2-0.1,0.3-0.2,0.5-0.3c0.1-0.1,0.2-0.3,0.3-0.4
				s0.1-0.3,0.1-0.5c0-0.2,0-0.4-0.1-0.5s-0.1-0.3-0.3-0.4c-0.1-0.1-0.3-0.2-0.6-0.3c-0.2-0.1-0.5-0.1-0.9-0.1v-0.6
				c0.3,0,0.6,0,0.8-0.1s0.4-0.1,0.5-0.3c0.1-0.1,0.2-0.2,0.3-0.4c0.1-0.2,0.1-0.3,0.1-0.5c0-0.2,0-0.4-0.1-0.5s-0.2-0.3-0.3-0.4
				c-0.1-0.1-0.2-0.2-0.4-0.2c-0.2,0-0.3-0.1-0.5-0.1c-0.2,0-0.3,0-0.5,0.1c-0.2,0.1-0.3,0.1-0.4,0.2c-0.1,0.1-0.2,0.2-0.3,0.3
				c-0.1,0.1-0.1,0.3-0.2,0.4c0,0.1-0.1,0.2-0.1,0.2s-0.1,0.1-0.2,0.1c0,0,0,0-0.1,0c0,0,0,0-0.1,0l-0.5-0.1c0-0.3,0.1-0.6,0.3-0.9
				c0.1-0.2,0.3-0.5,0.5-0.6c0.2-0.2,0.4-0.3,0.7-0.4C300.8,192.2,301.1,192.1,301.4,192.1z"/>
			<path class="st3" d="M296.5,210.8h2.4v0.7h-2.4V210.8z"/>
			<path class="st3" d="M300,210.8h2.4v0.7H300V210.8z"/>
			<path class="st3" d="M303.4,210.8h2.4v0.7h-2.4V210.8z"/>
			<path class="st3" d="M296.5,225.7h2.4v0.7h-2.4V225.7z"/>
			<path class="st3" d="M300,225.7h2.4v0.7H300V225.7z"/>
			<path class="st3" d="M303.4,225.7h2.4v0.7h-2.4V225.7z"/>
			<path class="st3" d="M298.5,236.7c0.3,0,0.6,0,0.8,0.1s0.5,0.2,0.7,0.4c0.2,0.2,0.3,0.3,0.4,0.6s0.2,0.5,0.2,0.7
				c0,0.2,0,0.4-0.1,0.6s-0.1,0.3-0.2,0.5c-0.1,0.1-0.2,0.2-0.4,0.3c-0.2,0.1-0.3,0.2-0.5,0.2c0.5,0.1,0.8,0.3,1,0.6
				s0.3,0.6,0.3,1.1c0,0.3-0.1,0.6-0.2,0.9s-0.3,0.5-0.5,0.7c-0.2,0.2-0.5,0.3-0.8,0.4c-0.3,0.1-0.6,0.1-0.9,0.1c-0.4,0-0.7,0-1-0.1
				c-0.3-0.1-0.5-0.2-0.7-0.4s-0.3-0.4-0.5-0.6c-0.1-0.2-0.2-0.5-0.3-0.7l0.4-0.2c0.1,0,0.1,0,0.2,0c0.1,0,0.1,0,0.2,0
				c0.1,0,0.1,0.1,0.1,0.1c0,0,0,0,0,0s0,0,0,0c0,0.1,0.1,0.2,0.2,0.3c0.1,0.1,0.2,0.2,0.3,0.3c0.1,0.1,0.3,0.2,0.4,0.3
				c0.2,0.1,0.4,0.1,0.6,0.1c0.2,0,0.5,0,0.7-0.1c0.2-0.1,0.3-0.2,0.5-0.3c0.1-0.1,0.2-0.3,0.3-0.4s0.1-0.3,0.1-0.5
				c0-0.2,0-0.4-0.1-0.5c-0.1-0.2-0.1-0.3-0.3-0.4c-0.1-0.1-0.3-0.2-0.6-0.3c-0.2-0.1-0.5-0.1-0.9-0.1v-0.6c0.3,0,0.6,0,0.8-0.1
				s0.4-0.1,0.5-0.3c0.1-0.1,0.2-0.2,0.3-0.4c0.1-0.2,0.1-0.3,0.1-0.5c0-0.2,0-0.4-0.1-0.5s-0.2-0.3-0.3-0.4
				c-0.1-0.1-0.2-0.2-0.4-0.2c-0.2,0-0.3-0.1-0.5-0.1c-0.2,0-0.3,0-0.5,0.1s-0.3,0.1-0.4,0.2s-0.2,0.2-0.3,0.3
				c-0.1,0.1-0.1,0.3-0.2,0.4c0,0.1-0.1,0.2-0.1,0.2s-0.1,0.1-0.2,0.1c0,0,0,0-0.1,0c0,0,0,0-0.1,0l-0.5-0.1c0-0.3,0.1-0.6,0.3-0.9
				c0.1-0.2,0.3-0.5,0.5-0.6c0.2-0.2,0.4-0.3,0.7-0.4C297.9,236.7,298.2,236.7,298.5,236.7z"/>
			<path class="st3" d="M305.6,241.3h1.1v0.5c0,0.1,0,0.1,0,0.1c0,0-0.1,0.1-0.1,0.1h-0.9v1.9h-0.8V242h-3.1c-0.1,0-0.1,0-0.2-0.1
				s-0.1-0.1-0.1-0.1l-0.1-0.5l3.5-4.6h0.8V241.3z M304.9,238.4c0-0.1,0-0.2,0-0.3c0-0.1,0-0.2,0-0.3l-2.6,3.5h2.5V238.4z"/>
		</g>
		<g>
			<path class="st2" d="M62.8,29.8h-1c-0.1,0-0.2,0-0.3-0.1c-0.1-0.1-0.1-0.1-0.2-0.2L60.8,28h-3l-0.5,1.5c0,0.1-0.1,0.1-0.2,0.2
				c-0.1,0.1-0.2,0.1-0.3,0.1h-1l2.8-7.2H60L62.8,29.8z M58.2,27.1h2.3l-0.9-2.4c0-0.1-0.1-0.2-0.1-0.4s-0.1-0.3-0.1-0.5
				c0,0.2-0.1,0.3-0.1,0.5c0,0.1-0.1,0.3-0.1,0.4L58.2,27.1z"/>
			<path class="st2" d="M65.6,24.6c0.3,0,0.6,0.1,0.9,0.2c0.3,0.1,0.5,0.3,0.7,0.4c0.2,0.2,0.3,0.4,0.5,0.7c0.1,0.3,0.2,0.6,0.2,1
				c0,0.1,0,0.2,0,0.2s0,0.1,0,0.1s-0.1,0.1-0.1,0.1c0,0-0.1,0-0.1,0h-3.1c0,0.5,0.2,0.9,0.4,1.1s0.6,0.4,1,0.4c0.2,0,0.4,0,0.5-0.1
				c0.1,0,0.3-0.1,0.4-0.2c0.1-0.1,0.2-0.1,0.3-0.2c0.1,0,0.2-0.1,0.2-0.1c0,0,0.1,0,0.1,0c0,0,0.1,0,0.1,0.1l0.4,0.4
				c-0.1,0.2-0.3,0.3-0.5,0.4c-0.2,0.1-0.3,0.2-0.5,0.3s-0.4,0.1-0.6,0.1c-0.2,0-0.4,0-0.6,0c-0.4,0-0.7-0.1-1-0.2
				c-0.3-0.1-0.6-0.3-0.8-0.5c-0.2-0.2-0.4-0.5-0.5-0.9c-0.1-0.3-0.2-0.7-0.2-1.2c0-0.3,0.1-0.7,0.2-1s0.3-0.6,0.5-0.8
				c0.2-0.2,0.5-0.4,0.8-0.5C64.9,24.7,65.2,24.6,65.6,24.6z M65.6,25.5c-0.4,0-0.6,0.1-0.8,0.3c-0.2,0.2-0.3,0.5-0.4,0.9h2.3
				c0-0.2,0-0.3-0.1-0.4c0-0.1-0.1-0.3-0.2-0.4c-0.1-0.1-0.2-0.2-0.3-0.2C66,25.6,65.8,25.5,65.6,25.5z"/>
			<path class="st2" d="M68.8,29.8v-5.1h0.7c0.1,0,0.2,0,0.3,0.1s0.1,0.1,0.1,0.2l0.1,0.6c0.2-0.3,0.4-0.6,0.6-0.7s0.5-0.3,0.8-0.3
				c0.3,0,0.5,0.1,0.6,0.2l-0.2,0.9c0,0.1,0,0.1-0.1,0.1s-0.1,0-0.1,0c0,0-0.1,0-0.2,0c-0.1,0-0.2,0-0.3,0c-0.3,0-0.5,0.1-0.7,0.2
				c-0.2,0.1-0.3,0.3-0.5,0.6v3.2H68.8z"/>
			<path class="st2" d="M75,24.6c0.4,0,0.7,0.1,1,0.2s0.6,0.3,0.8,0.5c0.2,0.2,0.4,0.5,0.5,0.8s0.2,0.7,0.2,1.1
				c0,0.4-0.1,0.8-0.2,1.1s-0.3,0.6-0.5,0.8c-0.2,0.2-0.5,0.4-0.8,0.5s-0.7,0.2-1,0.2s-0.7-0.1-1-0.2s-0.6-0.3-0.8-0.5
				c-0.2-0.2-0.4-0.5-0.5-0.8c-0.1-0.3-0.2-0.7-0.2-1.1c0-0.4,0.1-0.8,0.2-1.1c0.1-0.3,0.3-0.6,0.5-0.8c0.2-0.2,0.5-0.4,0.8-0.5
				S74.6,24.6,75,24.6z M75,28.9c0.4,0,0.7-0.1,0.9-0.4c0.2-0.3,0.3-0.7,0.3-1.2s-0.1-1-0.3-1.3c-0.2-0.3-0.5-0.4-0.9-0.4
				c-0.4,0-0.7,0.1-1,0.4c-0.2,0.3-0.3,0.7-0.3,1.2s0.1,1,0.3,1.2C74.3,28.8,74.6,28.9,75,28.9z"/>
			<path class="st2" d="M78.5,31.5v-6.7h0.7c0.1,0,0.1,0,0.2,0.1c0.1,0,0.1,0.1,0.1,0.2l0.1,0.5c0.2-0.2,0.4-0.4,0.7-0.6
				c0.3-0.1,0.6-0.2,0.9-0.2c0.3,0,0.5,0.1,0.8,0.2c0.2,0.1,0.4,0.3,0.6,0.5c0.2,0.2,0.3,0.5,0.4,0.8c0.1,0.3,0.1,0.7,0.1,1.1
				c0,0.4-0.1,0.7-0.2,1.1c-0.1,0.3-0.2,0.6-0.4,0.8c-0.2,0.2-0.4,0.4-0.7,0.6c-0.3,0.1-0.6,0.2-0.9,0.2c-0.3,0-0.5,0-0.7-0.1
				c-0.2-0.1-0.4-0.2-0.5-0.4v2.1H78.5z M80.9,25.6c-0.3,0-0.5,0.1-0.7,0.2c-0.2,0.1-0.3,0.3-0.5,0.5v2.3c0.1,0.2,0.3,0.3,0.5,0.4
				c0.2,0.1,0.3,0.1,0.5,0.1c0.2,0,0.4,0,0.5-0.1c0.1-0.1,0.3-0.2,0.4-0.3c0.1-0.1,0.2-0.3,0.2-0.5c0.1-0.2,0.1-0.5,0.1-0.8
				c0-0.3,0-0.5-0.1-0.8c0-0.2-0.1-0.4-0.2-0.5c-0.1-0.1-0.2-0.2-0.3-0.3C81.2,25.6,81,25.6,80.9,25.6z"/>
			<path class="st2" d="M86.2,24.6c0.4,0,0.7,0.1,1,0.2s0.6,0.3,0.8,0.5c0.2,0.2,0.4,0.5,0.5,0.8s0.2,0.7,0.2,1.1
				c0,0.4-0.1,0.8-0.2,1.1s-0.3,0.6-0.5,0.8c-0.2,0.2-0.5,0.4-0.8,0.5s-0.7,0.2-1,0.2s-0.7-0.1-1-0.2s-0.6-0.3-0.8-0.5
				c-0.2-0.2-0.4-0.5-0.5-0.8c-0.1-0.3-0.2-0.7-0.2-1.1c0-0.4,0.1-0.8,0.2-1.1c0.1-0.3,0.3-0.6,0.5-0.8c0.2-0.2,0.5-0.4,0.8-0.5
				S85.9,24.6,86.2,24.6z M86.2,28.9c0.4,0,0.7-0.1,0.9-0.4c0.2-0.3,0.3-0.7,0.3-1.2s-0.1-1-0.3-1.3c-0.2-0.3-0.5-0.4-0.9-0.4
				c-0.4,0-0.7,0.1-1,0.4c-0.2,0.3-0.3,0.7-0.3,1.2s0.1,1,0.3,1.2C85.5,28.8,85.8,28.9,86.2,28.9z"/>
			<path class="st2" d="M89.7,29.8v-5.1h0.7c0.1,0,0.2,0,0.3,0.1s0.1,0.1,0.1,0.2l0.1,0.6c0.2-0.3,0.4-0.6,0.6-0.7s0.5-0.3,0.8-0.3
				c0.3,0,0.5,0.1,0.6,0.2l-0.2,0.9c0,0.1,0,0.1-0.1,0.1s-0.1,0-0.1,0c0,0-0.1,0-0.2,0c-0.1,0-0.2,0-0.3,0c-0.3,0-0.5,0.1-0.7,0.2
				c-0.2,0.1-0.3,0.3-0.5,0.6v3.2H89.7z"/>
			<path class="st2" d="M95.4,29.9c-0.4,0-0.8-0.1-1-0.4s-0.4-0.6-0.4-1v-2.8h-0.5c-0.1,0-0.1,0-0.2-0.1c0,0-0.1-0.1-0.1-0.2v-0.5
				l0.8-0.1l0.3-1.4c0-0.1,0-0.1,0.1-0.2c0,0,0.1-0.1,0.2-0.1h0.6v1.6h1.3v0.9h-1.3v2.8c0,0.2,0,0.3,0.1,0.4
				c0.1,0.1,0.2,0.1,0.3,0.1c0.1,0,0.1,0,0.2,0c0.1,0,0.1,0,0.1-0.1c0,0,0.1,0,0.1-0.1c0,0,0.1,0,0.1,0c0,0,0.1,0,0.1,0
				c0,0,0,0,0.1,0.1l0.4,0.6c-0.2,0.1-0.4,0.3-0.6,0.3S95.7,29.9,95.4,29.9z"/>
			<path class="st2" d="M99.7,24.6c0.4,0,0.7,0.1,1,0.2s0.6,0.3,0.8,0.5c0.2,0.2,0.4,0.5,0.5,0.8s0.2,0.7,0.2,1.1
				c0,0.4-0.1,0.8-0.2,1.1s-0.3,0.6-0.5,0.8c-0.2,0.2-0.5,0.4-0.8,0.5s-0.7,0.2-1,0.2s-0.7-0.1-1-0.2s-0.6-0.3-0.8-0.5
				c-0.2-0.2-0.4-0.5-0.5-0.8c-0.1-0.3-0.2-0.7-0.2-1.1c0-0.4,0.1-0.8,0.2-1.1c0.1-0.3,0.3-0.6,0.5-0.8c0.2-0.2,0.5-0.4,0.8-0.5
				S99.4,24.6,99.7,24.6z M99.7,28.9c0.4,0,0.7-0.1,0.9-0.4c0.2-0.3,0.3-0.7,0.3-1.2s-0.1-1-0.3-1.3c-0.2-0.3-0.5-0.4-0.9-0.4
				c-0.4,0-0.7,0.1-1,0.4c-0.2,0.3-0.3,0.7-0.3,1.2s0.1,1,0.3,1.2C99,28.8,99.3,28.9,99.7,28.9z"/>
			<path class="st2" d="M106.2,25.7c0,0.1-0.1,0.1-0.1,0.1c0,0-0.1,0-0.1,0c-0.1,0-0.1,0-0.2,0c-0.1,0-0.1-0.1-0.2-0.1
				c-0.1,0-0.2-0.1-0.3-0.1c-0.1,0-0.2,0-0.4,0c-0.2,0-0.4,0.1-0.6,0.2c-0.1,0.1-0.2,0.2-0.2,0.4c0,0.1,0,0.2,0.1,0.3
				c0.1,0.1,0.2,0.1,0.3,0.2c0.1,0.1,0.2,0.1,0.4,0.2c0.1,0,0.3,0.1,0.5,0.1s0.3,0.1,0.5,0.2c0.1,0.1,0.3,0.2,0.4,0.3
				c0.1,0.1,0.2,0.2,0.3,0.4c0.1,0.1,0.1,0.3,0.1,0.5c0,0.2,0,0.5-0.1,0.7c-0.1,0.2-0.2,0.4-0.4,0.5c-0.2,0.2-0.4,0.3-0.6,0.4
				c-0.3,0.1-0.5,0.1-0.9,0.1c-0.2,0-0.3,0-0.5,0s-0.3-0.1-0.5-0.1s-0.3-0.1-0.4-0.2c-0.1-0.1-0.2-0.2-0.3-0.2l0.3-0.5
				c0-0.1,0.1-0.1,0.1-0.1c0,0,0.1,0,0.2,0c0.1,0,0.1,0,0.2,0.1c0.1,0,0.1,0.1,0.2,0.1c0.1,0,0.2,0.1,0.3,0.1c0.1,0,0.3,0.1,0.5,0.1
				c0.1,0,0.3,0,0.4-0.1s0.2-0.1,0.3-0.1c0.1-0.1,0.1-0.1,0.1-0.2c0-0.1,0-0.2,0-0.2c0-0.1,0-0.2-0.1-0.3c-0.1-0.1-0.2-0.1-0.3-0.2
				s-0.3-0.1-0.4-0.2c-0.2,0-0.3-0.1-0.5-0.1s-0.3-0.1-0.5-0.2c-0.2-0.1-0.3-0.2-0.4-0.3c-0.1-0.1-0.2-0.2-0.3-0.4
				c-0.1-0.2-0.1-0.3-0.1-0.6c0-0.2,0-0.4,0.1-0.6s0.2-0.4,0.4-0.5c0.2-0.1,0.4-0.3,0.6-0.3c0.2-0.1,0.5-0.1,0.8-0.1
				c0.3,0,0.7,0.1,1,0.2c0.3,0.1,0.5,0.3,0.7,0.5L106.2,25.7z"/>
		</g>
		<g>
			<path class="st2" d="M123.4,27.4v2.5H122v-7.2h2.3c0.5,0,0.9,0.1,1.2,0.2c0.3,0.1,0.6,0.3,0.9,0.5c0.2,0.2,0.4,0.4,0.5,0.7
				c0.1,0.3,0.2,0.6,0.2,0.9c0,0.3-0.1,0.7-0.2,1c-0.1,0.3-0.3,0.5-0.5,0.7c-0.2,0.2-0.5,0.4-0.9,0.5c-0.3,0.1-0.8,0.2-1.2,0.2
				H123.4z M123.4,26.3h1c0.2,0,0.5,0,0.6-0.1c0.2-0.1,0.3-0.1,0.5-0.3c0.1-0.1,0.2-0.3,0.3-0.4c0.1-0.2,0.1-0.3,0.1-0.5
				c0-0.2,0-0.4-0.1-0.5c-0.1-0.2-0.1-0.3-0.3-0.4c-0.1-0.1-0.3-0.2-0.5-0.2c-0.2-0.1-0.4-0.1-0.6-0.1h-1V26.3z"/>
			<path class="st2" d="M130.1,24.7c0.4,0,0.7,0.1,1,0.2s0.6,0.3,0.8,0.5c0.2,0.2,0.4,0.5,0.5,0.8s0.2,0.7,0.2,1.1
				c0,0.4-0.1,0.8-0.2,1.1s-0.3,0.6-0.5,0.8c-0.2,0.2-0.5,0.4-0.8,0.5s-0.7,0.2-1,0.2s-0.7-0.1-1-0.2s-0.6-0.3-0.8-0.5
				c-0.2-0.2-0.4-0.5-0.5-0.8c-0.1-0.3-0.2-0.7-0.2-1.1c0-0.4,0.1-0.8,0.2-1.1c0.1-0.3,0.3-0.6,0.5-0.8c0.2-0.2,0.5-0.4,0.8-0.5
				S129.7,24.7,130.1,24.7z M130.1,29c0.4,0,0.7-0.1,0.9-0.4c0.2-0.3,0.3-0.7,0.3-1.2s-0.1-1-0.3-1.3c-0.2-0.3-0.5-0.4-0.9-0.4
				c-0.4,0-0.7,0.1-1,0.4c-0.2,0.3-0.3,0.7-0.3,1.2s0.1,1,0.3,1.2C129.4,28.9,129.7,29,130.1,29z"/>
			<path class="st2" d="M133.6,29.9v-5.1h0.7c0.1,0,0.2,0,0.3,0.1s0.1,0.1,0.1,0.2l0.1,0.6c0.2-0.3,0.4-0.6,0.6-0.7s0.5-0.3,0.8-0.3
				c0.3,0,0.5,0.1,0.6,0.2l-0.2,0.9c0,0.1,0,0.1-0.1,0.1s-0.1,0-0.1,0c0,0-0.1,0-0.2,0c-0.1,0-0.2,0-0.3,0c-0.3,0-0.5,0.1-0.7,0.2
				c-0.2,0.1-0.3,0.3-0.5,0.6v3.2H133.6z"/>
			<path class="st2" d="M139.3,30c-0.4,0-0.8-0.1-1-0.4s-0.4-0.6-0.4-1v-2.8h-0.5c-0.1,0-0.1,0-0.2-0.1c0,0-0.1-0.1-0.1-0.2V25
				l0.8-0.1l0.3-1.4c0-0.1,0-0.1,0.1-0.2c0,0,0.1-0.1,0.2-0.1h0.6v1.6h1.3v0.9h-1.3v2.8c0,0.2,0,0.3,0.1,0.4
				c0.1,0.1,0.2,0.1,0.3,0.1c0.1,0,0.1,0,0.2,0c0.1,0,0.1,0,0.1-0.1c0,0,0.1,0,0.1-0.1c0,0,0.1,0,0.1,0c0,0,0.1,0,0.1,0
				c0,0,0,0,0.1,0.1l0.4,0.6c-0.2,0.1-0.4,0.3-0.6,0.3S139.5,30,139.3,30z"/>
			<path class="st2" d="M143.6,24.7c0.4,0,0.7,0.1,1,0.2s0.6,0.3,0.8,0.5c0.2,0.2,0.4,0.5,0.5,0.8s0.2,0.7,0.2,1.1
				c0,0.4-0.1,0.8-0.2,1.1s-0.3,0.6-0.5,0.8c-0.2,0.2-0.5,0.4-0.8,0.5s-0.7,0.2-1,0.2s-0.7-0.1-1-0.2s-0.6-0.3-0.8-0.5
				c-0.2-0.2-0.4-0.5-0.5-0.8c-0.1-0.3-0.2-0.7-0.2-1.1c0-0.4,0.1-0.8,0.2-1.1c0.1-0.3,0.3-0.6,0.5-0.8c0.2-0.2,0.5-0.4,0.8-0.5
				S143.2,24.7,143.6,24.7z M143.6,29c0.4,0,0.7-0.1,0.9-0.4c0.2-0.3,0.3-0.7,0.3-1.2s-0.1-1-0.3-1.3c-0.2-0.3-0.5-0.4-0.9-0.4
				c-0.4,0-0.7,0.1-1,0.4c-0.2,0.3-0.3,0.7-0.3,1.2s0.1,1,0.3,1.2C142.9,28.9,143.2,29,143.6,29z"/>
			<path class="st2" d="M150.1,25.8c0,0.1-0.1,0.1-0.1,0.1c0,0-0.1,0-0.1,0c-0.1,0-0.1,0-0.2,0c-0.1,0-0.1-0.1-0.2-0.1
				c-0.1,0-0.2-0.1-0.3-0.1c-0.1,0-0.2,0-0.4,0c-0.2,0-0.4,0.1-0.6,0.2c-0.1,0.1-0.2,0.2-0.2,0.4c0,0.1,0,0.2,0.1,0.3
				c0.1,0.1,0.2,0.1,0.3,0.2c0.1,0.1,0.2,0.1,0.4,0.2c0.1,0,0.3,0.1,0.5,0.1s0.3,0.1,0.5,0.2c0.1,0.1,0.3,0.2,0.4,0.3
				c0.1,0.1,0.2,0.2,0.3,0.4c0.1,0.1,0.1,0.3,0.1,0.5c0,0.2,0,0.5-0.1,0.7c-0.1,0.2-0.2,0.4-0.4,0.5c-0.2,0.2-0.4,0.3-0.6,0.4
				c-0.3,0.1-0.5,0.1-0.9,0.1c-0.2,0-0.3,0-0.5,0s-0.3-0.1-0.5-0.1s-0.3-0.1-0.4-0.2c-0.1-0.1-0.2-0.2-0.3-0.2l0.3-0.5
				c0-0.1,0.1-0.1,0.1-0.1c0,0,0.1,0,0.2,0c0.1,0,0.1,0,0.2,0.1c0.1,0,0.1,0.1,0.2,0.1c0.1,0,0.2,0.1,0.3,0.1c0.1,0,0.3,0.1,0.5,0.1
				c0.1,0,0.3,0,0.4-0.1s0.2-0.1,0.3-0.1c0.1-0.1,0.1-0.1,0.1-0.2c0-0.1,0-0.2,0-0.2c0-0.1,0-0.2-0.1-0.3c-0.1-0.1-0.2-0.1-0.3-0.2
				s-0.3-0.1-0.4-0.2c-0.2,0-0.3-0.1-0.5-0.1s-0.3-0.1-0.5-0.2c-0.2-0.1-0.3-0.2-0.4-0.3c-0.1-0.1-0.2-0.2-0.3-0.4
				c-0.1-0.2-0.1-0.3-0.1-0.6c0-0.2,0-0.4,0.1-0.6s0.2-0.4,0.4-0.5c0.2-0.1,0.4-0.3,0.6-0.3c0.2-0.1,0.5-0.1,0.8-0.1
				c0.3,0,0.7,0.1,1,0.2c0.3,0.1,0.5,0.3,0.7,0.5L150.1,25.8z"/>
		</g>
		<g>
			<path class="st2" d="M173.3,22.6v1.1h-3.2v2.1h2.7v1.1h-2.7v2.9h-1.3v-7.2H173.3z"/>
			<path class="st2" d="M174,29.8v-5.1h0.7c0.1,0,0.2,0,0.3,0.1s0.1,0.1,0.1,0.2l0.1,0.6c0.2-0.3,0.4-0.6,0.6-0.7s0.5-0.3,0.8-0.3
				c0.3,0,0.5,0.1,0.6,0.2l-0.2,0.9c0,0.1,0,0.1-0.1,0.1s-0.1,0-0.1,0c0,0-0.1,0-0.2,0c-0.1,0-0.2,0-0.3,0c-0.3,0-0.5,0.1-0.7,0.2
				c-0.2,0.1-0.3,0.3-0.5,0.6v3.2H174z"/>
			<path class="st2" d="M180.2,24.6c0.4,0,0.7,0.1,1,0.2s0.6,0.3,0.8,0.5c0.2,0.2,0.4,0.5,0.5,0.8s0.2,0.7,0.2,1.1
				c0,0.4-0.1,0.8-0.2,1.1s-0.3,0.6-0.5,0.8c-0.2,0.2-0.5,0.4-0.8,0.5s-0.7,0.2-1,0.2s-0.7-0.1-1-0.2s-0.6-0.3-0.8-0.5
				c-0.2-0.2-0.4-0.5-0.5-0.8c-0.1-0.3-0.2-0.7-0.2-1.1c0-0.4,0.1-0.8,0.2-1.1c0.1-0.3,0.3-0.6,0.5-0.8c0.2-0.2,0.5-0.4,0.8-0.5
				S179.8,24.6,180.2,24.6z M180.2,28.9c0.4,0,0.7-0.1,0.9-0.4c0.2-0.3,0.3-0.7,0.3-1.2s-0.1-1-0.3-1.3c-0.2-0.3-0.5-0.4-0.9-0.4
				c-0.4,0-0.7,0.1-1,0.4c-0.2,0.3-0.3,0.7-0.3,1.2s0.1,1,0.3,1.2C179.5,28.8,179.8,28.9,180.2,28.9z"/>
			<path class="st2" d="M183.7,29.8v-5.1h0.7c0.2,0,0.3,0.1,0.3,0.2l0.1,0.4c0.1-0.1,0.2-0.2,0.3-0.3c0.1-0.1,0.2-0.2,0.4-0.2
				c0.1-0.1,0.3-0.1,0.4-0.1c0.1,0,0.3,0,0.5,0c0.3,0,0.5,0,0.7,0.1c0.2,0.1,0.4,0.2,0.5,0.4s0.3,0.4,0.3,0.6
				c0.1,0.2,0.1,0.5,0.1,0.8v3.2h-1.2v-3.2c0-0.3-0.1-0.6-0.2-0.7s-0.4-0.3-0.6-0.3c-0.2,0-0.4,0-0.6,0.1c-0.2,0.1-0.4,0.2-0.5,0.4
				v3.7H183.7z"/>
			<path class="st2" d="M191,29.9c-0.4,0-0.8-0.1-1-0.4s-0.4-0.6-0.4-1v-2.8h-0.5c-0.1,0-0.1,0-0.2-0.1c0,0-0.1-0.1-0.1-0.2v-0.5
				l0.8-0.1l0.3-1.4c0-0.1,0-0.1,0.1-0.2c0,0,0.1-0.1,0.2-0.1h0.6v1.6h1.3v0.9h-1.3v2.8c0,0.2,0,0.3,0.1,0.4
				c0.1,0.1,0.2,0.1,0.3,0.1c0.1,0,0.1,0,0.2,0c0.1,0,0.1,0,0.1-0.1c0,0,0.1,0,0.1-0.1c0,0,0.1,0,0.1,0c0,0,0.1,0,0.1,0
				c0,0,0,0,0.1,0.1l0.4,0.6c-0.2,0.1-0.4,0.3-0.6,0.3S191.2,29.9,191,29.9z"/>
			<path class="st2" d="M195.2,24.6c0.3,0,0.6,0.1,0.9,0.2c0.3,0.1,0.5,0.3,0.7,0.4c0.2,0.2,0.3,0.4,0.5,0.7c0.1,0.3,0.2,0.6,0.2,1
				c0,0.1,0,0.2,0,0.2s0,0.1,0,0.1s-0.1,0.1-0.1,0.1c0,0-0.1,0-0.1,0H194c0,0.5,0.2,0.9,0.4,1.1s0.6,0.4,1,0.4c0.2,0,0.4,0,0.5-0.1
				c0.1,0,0.3-0.1,0.4-0.2c0.1-0.1,0.2-0.1,0.3-0.2c0.1,0,0.2-0.1,0.2-0.1c0,0,0.1,0,0.1,0c0,0,0.1,0,0.1,0.1l0.4,0.4
				c-0.1,0.2-0.3,0.3-0.5,0.4c-0.2,0.1-0.3,0.2-0.5,0.3s-0.4,0.1-0.6,0.1c-0.2,0-0.4,0-0.6,0c-0.4,0-0.7-0.1-1-0.2
				c-0.3-0.1-0.6-0.3-0.8-0.5c-0.2-0.2-0.4-0.5-0.5-0.9c-0.1-0.3-0.2-0.7-0.2-1.2c0-0.3,0.1-0.7,0.2-1s0.3-0.6,0.5-0.8
				c0.2-0.2,0.5-0.4,0.8-0.5C194.5,24.7,194.8,24.6,195.2,24.6z M195.2,25.5c-0.4,0-0.6,0.1-0.8,0.3c-0.2,0.2-0.3,0.5-0.4,0.9h2.3
				c0-0.2,0-0.3-0.1-0.4c0-0.1-0.1-0.3-0.2-0.4c-0.1-0.1-0.2-0.2-0.3-0.2C195.6,25.6,195.4,25.5,195.2,25.5z"/>
			<path class="st2" d="M199.9,23.2c0,0.1,0,0.2-0.1,0.3c0,0.1-0.1,0.2-0.2,0.2c-0.1,0.1-0.2,0.1-0.2,0.2c-0.1,0-0.2,0.1-0.3,0.1
				c-0.1,0-0.2,0-0.3-0.1c-0.1,0-0.2-0.1-0.2-0.2s-0.1-0.1-0.2-0.2c0-0.1-0.1-0.2-0.1-0.3c0-0.1,0-0.2,0.1-0.3
				c0-0.1,0.1-0.2,0.2-0.2s0.2-0.1,0.2-0.2c0.1,0,0.2-0.1,0.3-0.1c0.1,0,0.2,0,0.3,0.1c0.1,0,0.2,0.1,0.2,0.2
				c0.1,0.1,0.1,0.2,0.2,0.2S199.9,23.1,199.9,23.2z M199.7,24.7v5.1h-1.2v-5.1H199.7z"/>
			<path class="st2" d="M201.1,29.8v-5.1h0.7c0.1,0,0.2,0,0.3,0.1s0.1,0.1,0.1,0.2l0.1,0.6c0.2-0.3,0.4-0.6,0.6-0.7s0.5-0.3,0.8-0.3
				c0.3,0,0.5,0.1,0.6,0.2l-0.2,0.9c0,0.1,0,0.1-0.1,0.1s-0.1,0-0.1,0c0,0-0.1,0-0.2,0c-0.1,0-0.2,0-0.3,0c-0.3,0-0.5,0.1-0.7,0.2
				c-0.2,0.1-0.3,0.3-0.5,0.6v3.2H201.1z"/>
			<path class="st2" d="M209,29.8h-0.5c-0.1,0-0.2,0-0.3-0.1s-0.1-0.1-0.1-0.2l-0.1-0.4c-0.1,0.1-0.3,0.2-0.4,0.3
				c-0.1,0.1-0.3,0.2-0.4,0.2c-0.1,0.1-0.3,0.1-0.4,0.1s-0.3,0-0.5,0c-0.2,0-0.4,0-0.6-0.1c-0.2-0.1-0.3-0.1-0.5-0.3
				c-0.1-0.1-0.2-0.3-0.3-0.4c-0.1-0.2-0.1-0.4-0.1-0.6c0-0.2,0.1-0.4,0.2-0.6s0.3-0.4,0.5-0.5c0.2-0.2,0.5-0.3,0.9-0.4
				c0.4-0.1,0.9-0.1,1.5-0.1v-0.3c0-0.3-0.1-0.6-0.2-0.8s-0.4-0.2-0.6-0.2c-0.2,0-0.4,0-0.5,0.1s-0.2,0.1-0.3,0.2
				c-0.1,0.1-0.2,0.1-0.3,0.2c-0.1,0-0.2,0.1-0.3,0.1c-0.1,0-0.2,0-0.2-0.1c-0.1,0-0.1-0.1-0.1-0.2l-0.2-0.4
				c0.6-0.5,1.3-0.8,2.1-0.8c0.3,0,0.6,0,0.8,0.1c0.2,0.1,0.4,0.2,0.6,0.4c0.2,0.2,0.3,0.4,0.4,0.6c0.1,0.2,0.1,0.5,0.1,0.8V29.8z
				 M206.6,29c0.1,0,0.2,0,0.3,0c0.1,0,0.2-0.1,0.3-0.1c0.1,0,0.2-0.1,0.3-0.2c0.1-0.1,0.2-0.1,0.3-0.2v-0.8c-0.4,0-0.7,0-0.9,0.1
				c-0.2,0-0.4,0.1-0.6,0.2c-0.1,0.1-0.2,0.2-0.3,0.2s-0.1,0.2-0.1,0.3c0,0.2,0.1,0.4,0.2,0.5C206.2,29,206.4,29,206.6,29z"/>
			<path class="st2" d="M213.2,25.7c0,0.1-0.1,0.1-0.1,0.1c0,0-0.1,0-0.1,0c-0.1,0-0.1,0-0.2,0c-0.1,0-0.1-0.1-0.2-0.1
				c-0.1,0-0.2-0.1-0.3-0.1c-0.1,0-0.2,0-0.4,0c-0.2,0-0.4,0.1-0.6,0.2c-0.1,0.1-0.2,0.2-0.2,0.4c0,0.1,0,0.2,0.1,0.3
				c0.1,0.1,0.2,0.1,0.3,0.2c0.1,0.1,0.2,0.1,0.4,0.2c0.1,0,0.3,0.1,0.5,0.1s0.3,0.1,0.5,0.2c0.1,0.1,0.3,0.2,0.4,0.3
				c0.1,0.1,0.2,0.2,0.3,0.4c0.1,0.1,0.1,0.3,0.1,0.5c0,0.2,0,0.5-0.1,0.7c-0.1,0.2-0.2,0.4-0.4,0.5c-0.2,0.2-0.4,0.3-0.6,0.4
				c-0.3,0.1-0.5,0.1-0.9,0.1c-0.2,0-0.3,0-0.5,0s-0.3-0.1-0.5-0.1s-0.3-0.1-0.4-0.2c-0.1-0.1-0.2-0.2-0.3-0.2l0.3-0.5
				c0-0.1,0.1-0.1,0.1-0.1c0,0,0.1,0,0.2,0c0.1,0,0.1,0,0.2,0.1c0.1,0,0.1,0.1,0.2,0.1c0.1,0,0.2,0.1,0.3,0.1c0.1,0,0.3,0.1,0.5,0.1
				c0.1,0,0.3,0,0.4-0.1s0.2-0.1,0.3-0.1c0.1-0.1,0.1-0.1,0.1-0.2c0-0.1,0-0.2,0-0.2c0-0.1,0-0.2-0.1-0.3c-0.1-0.1-0.2-0.1-0.3-0.2
				s-0.3-0.1-0.4-0.2c-0.2,0-0.3-0.1-0.5-0.1s-0.3-0.1-0.5-0.2c-0.2-0.1-0.3-0.2-0.4-0.3c-0.1-0.1-0.2-0.2-0.3-0.4
				c-0.1-0.2-0.1-0.3-0.1-0.6c0-0.2,0-0.4,0.1-0.6s0.2-0.4,0.4-0.5c0.2-0.1,0.4-0.3,0.6-0.3c0.2-0.1,0.5-0.1,0.8-0.1
				c0.3,0,0.7,0.1,1,0.2c0.3,0.1,0.5,0.3,0.7,0.5L213.2,25.7z"/>
			<path class="st2" d="M218.1,29.9c-0.4,0-0.8-0.1-1-0.4s-0.4-0.6-0.4-1v-2.8h-0.5c-0.1,0-0.1,0-0.2-0.1c0,0-0.1-0.1-0.1-0.2v-0.5
				l0.8-0.1l0.3-1.4c0-0.1,0-0.1,0.1-0.2c0,0,0.1-0.1,0.2-0.1h0.6v1.6h1.3v0.9h-1.3v2.8c0,0.2,0,0.3,0.1,0.4
				c0.1,0.1,0.2,0.1,0.3,0.1c0.1,0,0.1,0,0.2,0c0.1,0,0.1,0,0.1-0.1c0,0,0.1,0,0.1-0.1c0,0,0.1,0,0.1,0c0,0,0.1,0,0.1,0
				c0,0,0,0,0.1,0.1l0.4,0.6c-0.2,0.1-0.4,0.3-0.6,0.3S218.3,29.9,218.1,29.9z"/>
			<path class="st2" d="M222.3,24.6c0.3,0,0.6,0.1,0.9,0.2c0.3,0.1,0.5,0.3,0.7,0.4c0.2,0.2,0.3,0.4,0.5,0.7c0.1,0.3,0.2,0.6,0.2,1
				c0,0.1,0,0.2,0,0.2s0,0.1,0,0.1s-0.1,0.1-0.1,0.1c0,0-0.1,0-0.1,0h-3.1c0,0.5,0.2,0.9,0.4,1.1s0.6,0.4,1,0.4c0.2,0,0.4,0,0.5-0.1
				c0.1,0,0.3-0.1,0.4-0.2c0.1-0.1,0.2-0.1,0.3-0.2c0.1,0,0.2-0.1,0.2-0.1c0,0,0.1,0,0.1,0c0,0,0.1,0,0.1,0.1l0.4,0.4
				c-0.1,0.2-0.3,0.3-0.5,0.4c-0.2,0.1-0.3,0.2-0.5,0.3s-0.4,0.1-0.6,0.1c-0.2,0-0.4,0-0.6,0c-0.4,0-0.7-0.1-1-0.2
				c-0.3-0.1-0.6-0.3-0.8-0.5c-0.2-0.2-0.4-0.5-0.5-0.9c-0.1-0.3-0.2-0.7-0.2-1.2c0-0.3,0.1-0.7,0.2-1s0.3-0.6,0.5-0.8
				c0.2-0.2,0.5-0.4,0.8-0.5C221.6,24.7,222,24.6,222.3,24.6z M222.4,25.5c-0.4,0-0.6,0.1-0.8,0.3c-0.2,0.2-0.3,0.5-0.4,0.9h2.3
				c0-0.2,0-0.3-0.1-0.4c0-0.1-0.1-0.3-0.2-0.4c-0.1-0.1-0.2-0.2-0.3-0.2C222.7,25.6,222.5,25.5,222.4,25.5z"/>
			<path class="st2" d="M225.5,29.8v-5.1h0.7c0.1,0,0.2,0,0.3,0.1s0.1,0.1,0.1,0.2l0.1,0.6c0.2-0.3,0.4-0.6,0.6-0.7
				c0.2-0.2,0.5-0.3,0.8-0.3c0.3,0,0.5,0.1,0.6,0.2l-0.2,0.9c0,0.1,0,0.1-0.1,0.1s-0.1,0-0.1,0c0,0-0.1,0-0.2,0s-0.2,0-0.3,0
				c-0.3,0-0.5,0.1-0.7,0.2c-0.2,0.1-0.3,0.3-0.5,0.6v3.2H225.5z"/>
			<path class="st2" d="M229.6,29.8v-5.1h0.7c0.1,0,0.2,0,0.3,0.1c0,0,0.1,0.1,0.1,0.2l0.1,0.6c0.2-0.3,0.4-0.6,0.6-0.7
				s0.5-0.3,0.8-0.3c0.3,0,0.5,0.1,0.6,0.2l-0.2,0.9c0,0.1,0,0.1-0.1,0.1s-0.1,0-0.1,0c0,0-0.1,0-0.2,0c-0.1,0-0.2,0-0.3,0
				c-0.3,0-0.5,0.1-0.7,0.2s-0.3,0.3-0.5,0.6v3.2H229.6z"/>
			<path class="st2" d="M235.7,24.6c0.3,0,0.6,0.1,0.9,0.2c0.3,0.1,0.5,0.3,0.7,0.4c0.2,0.2,0.3,0.4,0.5,0.7c0.1,0.3,0.2,0.6,0.2,1
				c0,0.1,0,0.2,0,0.2c0,0.1,0,0.1,0,0.1s0,0.1-0.1,0.1c0,0-0.1,0-0.1,0h-3.1c0,0.5,0.2,0.9,0.4,1.1s0.6,0.4,1,0.4
				c0.2,0,0.4,0,0.5-0.1c0.1,0,0.3-0.1,0.4-0.2s0.2-0.1,0.3-0.2c0.1,0,0.2-0.1,0.2-0.1c0,0,0.1,0,0.1,0c0,0,0.1,0,0.1,0.1l0.4,0.4
				c-0.1,0.2-0.3,0.3-0.5,0.4c-0.2,0.1-0.3,0.2-0.5,0.3c-0.2,0.1-0.4,0.1-0.6,0.1s-0.4,0-0.6,0c-0.4,0-0.7-0.1-1-0.2
				c-0.3-0.1-0.6-0.3-0.8-0.5c-0.2-0.2-0.4-0.5-0.5-0.9c-0.1-0.3-0.2-0.7-0.2-1.2c0-0.3,0.1-0.7,0.2-1s0.3-0.6,0.5-0.8
				s0.5-0.4,0.8-0.5C235,24.7,235.3,24.6,235.7,24.6z M235.7,25.5c-0.4,0-0.6,0.1-0.8,0.3c-0.2,0.2-0.3,0.5-0.4,0.9h2.3
				c0-0.2,0-0.3-0.1-0.4c0-0.1-0.1-0.3-0.2-0.4c-0.1-0.1-0.2-0.2-0.3-0.2S235.9,25.5,235.7,25.5z"/>
			<path class="st2" d="M241.9,25.7c0,0.1-0.1,0.1-0.1,0.1c0,0-0.1,0-0.1,0c-0.1,0-0.1,0-0.2,0c-0.1,0-0.1-0.1-0.2-0.1
				c-0.1,0-0.2-0.1-0.3-0.1c-0.1,0-0.2,0-0.4,0c-0.2,0-0.4,0.1-0.6,0.2c-0.1,0.1-0.2,0.2-0.2,0.4c0,0.1,0,0.2,0.1,0.3
				s0.2,0.1,0.3,0.2s0.2,0.1,0.4,0.2s0.3,0.1,0.5,0.1s0.3,0.1,0.5,0.2c0.1,0.1,0.3,0.2,0.4,0.3c0.1,0.1,0.2,0.2,0.3,0.4
				c0.1,0.1,0.1,0.3,0.1,0.5c0,0.2,0,0.5-0.1,0.7c-0.1,0.2-0.2,0.4-0.4,0.5c-0.2,0.2-0.4,0.3-0.6,0.4c-0.3,0.1-0.5,0.1-0.9,0.1
				c-0.2,0-0.3,0-0.5,0c-0.2,0-0.3-0.1-0.5-0.1s-0.3-0.1-0.4-0.2c-0.1-0.1-0.2-0.2-0.3-0.2l0.3-0.5c0-0.1,0.1-0.1,0.1-0.1
				c0,0,0.1,0,0.2,0c0.1,0,0.1,0,0.2,0.1s0.1,0.1,0.2,0.1c0.1,0,0.2,0.1,0.3,0.1c0.1,0,0.3,0.1,0.5,0.1c0.1,0,0.3,0,0.4-0.1
				c0.1,0,0.2-0.1,0.3-0.1c0.1-0.1,0.1-0.1,0.1-0.2c0-0.1,0-0.2,0-0.2c0-0.1,0-0.2-0.1-0.3c-0.1-0.1-0.2-0.1-0.3-0.2
				s-0.3-0.1-0.4-0.2s-0.3-0.1-0.5-0.1c-0.2-0.1-0.3-0.1-0.5-0.2c-0.2-0.1-0.3-0.2-0.4-0.3s-0.2-0.2-0.3-0.4
				c-0.1-0.2-0.1-0.3-0.1-0.6c0-0.2,0-0.4,0.1-0.6c0.1-0.2,0.2-0.4,0.4-0.5c0.2-0.1,0.4-0.3,0.6-0.3c0.2-0.1,0.5-0.1,0.8-0.1
				c0.3,0,0.7,0.1,1,0.2c0.3,0.1,0.5,0.3,0.7,0.5L241.9,25.7z"/>
			<path class="st2" d="M244.9,29.9c-0.4,0-0.8-0.1-1-0.4c-0.2-0.2-0.4-0.6-0.4-1v-2.8H243c-0.1,0-0.1,0-0.2-0.1
				c0,0-0.1-0.1-0.1-0.2v-0.5l0.8-0.1l0.3-1.4c0-0.1,0-0.1,0.1-0.2c0,0,0.1-0.1,0.2-0.1h0.6v1.6h1.3v0.9h-1.3v2.8
				c0,0.2,0,0.3,0.1,0.4c0.1,0.1,0.2,0.1,0.3,0.1c0.1,0,0.1,0,0.2,0c0.1,0,0.1,0,0.1-0.1c0,0,0.1,0,0.1-0.1c0,0,0.1,0,0.1,0
				c0,0,0.1,0,0.1,0s0,0,0.1,0.1l0.4,0.6c-0.2,0.1-0.4,0.3-0.6,0.3C245.4,29.8,245.2,29.9,244.9,29.9z"/>
			<path class="st2" d="M247.1,29.8v-5.1h0.7c0.1,0,0.2,0,0.3,0.1c0,0,0.1,0.1,0.1,0.2l0.1,0.6c0.2-0.3,0.4-0.6,0.6-0.7
				s0.5-0.3,0.8-0.3c0.3,0,0.5,0.1,0.6,0.2l-0.2,0.9c0,0.1,0,0.1-0.1,0.1s-0.1,0-0.1,0c0,0-0.1,0-0.2,0s-0.2,0-0.3,0
				c-0.3,0-0.5,0.1-0.7,0.2c-0.2,0.1-0.3,0.3-0.5,0.6v3.2H247.1z"/>
			<path class="st2" d="M253.2,24.6c0.3,0,0.6,0.1,0.9,0.2c0.3,0.1,0.5,0.3,0.7,0.4c0.2,0.2,0.3,0.4,0.5,0.7c0.1,0.3,0.2,0.6,0.2,1
				c0,0.1,0,0.2,0,0.2c0,0.1,0,0.1,0,0.1s-0.1,0.1-0.1,0.1c0,0-0.1,0-0.1,0H252c0,0.5,0.2,0.9,0.4,1.1s0.6,0.4,1,0.4
				c0.2,0,0.4,0,0.5-0.1c0.1,0,0.3-0.1,0.4-0.2c0.1-0.1,0.2-0.1,0.3-0.2c0.1,0,0.2-0.1,0.2-0.1c0,0,0.1,0,0.1,0c0,0,0.1,0,0.1,0.1
				l0.4,0.4c-0.1,0.2-0.3,0.3-0.5,0.4c-0.2,0.1-0.3,0.2-0.5,0.3c-0.2,0.1-0.4,0.1-0.6,0.1c-0.2,0-0.4,0-0.6,0c-0.4,0-0.7-0.1-1-0.2
				s-0.6-0.3-0.8-0.5s-0.4-0.5-0.5-0.9c-0.1-0.3-0.2-0.7-0.2-1.2c0-0.3,0.1-0.7,0.2-1s0.3-0.6,0.5-0.8c0.2-0.2,0.5-0.4,0.8-0.5
				C252.5,24.7,252.8,24.6,253.2,24.6z M253.2,25.5c-0.4,0-0.6,0.1-0.8,0.3c-0.2,0.2-0.3,0.5-0.4,0.9h2.3c0-0.2,0-0.3-0.1-0.4
				c0-0.1-0.1-0.3-0.2-0.4c-0.1-0.1-0.2-0.2-0.3-0.2C253.6,25.6,253.4,25.5,253.2,25.5z"/>
		</g>
		<g>
			<path class="st2" d="M282.6,26.2c0,0.5-0.1,1-0.3,1.4c-0.2,0.4-0.4,0.8-0.7,1.1c-0.3,0.3-0.7,0.6-1.1,0.7s-0.9,0.3-1.5,0.3h-2.7
				v-7.2h2.7c0.5,0,1,0.1,1.5,0.3c0.4,0.2,0.8,0.4,1.1,0.7c0.3,0.3,0.6,0.7,0.7,1.1C282.6,25.2,282.6,25.7,282.6,26.2z M281.3,26.2
				c0-0.4-0.1-0.7-0.2-1.1c-0.1-0.3-0.3-0.6-0.5-0.8c-0.2-0.2-0.4-0.4-0.7-0.5c-0.3-0.1-0.6-0.2-0.9-0.2h-1.4v5h1.4
				c0.3,0,0.7-0.1,0.9-0.2c0.3-0.1,0.5-0.3,0.7-0.5c0.2-0.2,0.3-0.5,0.5-0.8C281.2,27,281.3,26.6,281.3,26.2z"/>
			<path class="st2" d="M285.7,24.6c0.3,0,0.6,0.1,0.9,0.2c0.3,0.1,0.5,0.3,0.7,0.4c0.2,0.2,0.3,0.4,0.5,0.7c0.1,0.3,0.2,0.6,0.2,1
				c0,0.1,0,0.2,0,0.2c0,0.1,0,0.1,0,0.1s0,0.1-0.1,0.1c0,0-0.1,0-0.1,0h-3.1c0,0.5,0.2,0.9,0.4,1.1s0.6,0.4,1,0.4
				c0.2,0,0.4,0,0.5-0.1c0.1,0,0.3-0.1,0.4-0.2s0.2-0.1,0.3-0.2c0.1,0,0.2-0.1,0.2-0.1c0,0,0.1,0,0.1,0c0,0,0.1,0,0.1,0.1l0.4,0.4
				c-0.1,0.2-0.3,0.3-0.5,0.4c-0.2,0.1-0.3,0.2-0.5,0.3c-0.2,0.1-0.4,0.1-0.6,0.1s-0.4,0-0.6,0c-0.4,0-0.7-0.1-1-0.2
				c-0.3-0.1-0.6-0.3-0.8-0.5c-0.2-0.2-0.4-0.5-0.5-0.9c-0.1-0.3-0.2-0.7-0.2-1.2c0-0.3,0.1-0.7,0.2-1s0.3-0.6,0.5-0.8
				s0.5-0.4,0.8-0.5C285,24.7,285.3,24.6,285.7,24.6z M285.7,25.5c-0.4,0-0.6,0.1-0.8,0.3c-0.2,0.2-0.3,0.5-0.4,0.9h2.3
				c0-0.2,0-0.3-0.1-0.4c0-0.1-0.1-0.3-0.2-0.4c-0.1-0.1-0.2-0.2-0.3-0.2S285.9,25.5,285.7,25.5z"/>
			<path class="st2" d="M291.9,25.7c0,0.1-0.1,0.1-0.1,0.1c0,0-0.1,0-0.1,0c-0.1,0-0.1,0-0.2,0c-0.1,0-0.1-0.1-0.2-0.1
				c-0.1,0-0.2-0.1-0.3-0.1c-0.1,0-0.2,0-0.4,0c-0.2,0-0.4,0.1-0.6,0.2c-0.1,0.1-0.2,0.2-0.2,0.4c0,0.1,0,0.2,0.1,0.3
				s0.2,0.1,0.3,0.2s0.2,0.1,0.4,0.2s0.3,0.1,0.5,0.1s0.3,0.1,0.5,0.2c0.1,0.1,0.3,0.2,0.4,0.3c0.1,0.1,0.2,0.2,0.3,0.4
				c0.1,0.1,0.1,0.3,0.1,0.5c0,0.2,0,0.5-0.1,0.7c-0.1,0.2-0.2,0.4-0.4,0.5c-0.2,0.2-0.4,0.3-0.6,0.4c-0.3,0.1-0.5,0.1-0.9,0.1
				c-0.2,0-0.3,0-0.5,0c-0.2,0-0.3-0.1-0.5-0.1s-0.3-0.1-0.4-0.2c-0.1-0.1-0.2-0.2-0.3-0.2l0.3-0.5c0-0.1,0.1-0.1,0.1-0.1
				c0,0,0.1,0,0.2,0c0.1,0,0.1,0,0.2,0.1s0.1,0.1,0.2,0.1c0.1,0,0.2,0.1,0.3,0.1c0.1,0,0.3,0.1,0.5,0.1c0.1,0,0.3,0,0.4-0.1
				c0.1,0,0.2-0.1,0.3-0.1c0.1-0.1,0.1-0.1,0.1-0.2c0-0.1,0-0.2,0-0.2c0-0.1,0-0.2-0.1-0.3c-0.1-0.1-0.2-0.1-0.3-0.2
				s-0.3-0.1-0.4-0.2s-0.3-0.1-0.5-0.1c-0.2-0.1-0.3-0.1-0.5-0.2c-0.2-0.1-0.3-0.2-0.4-0.3s-0.2-0.2-0.3-0.4
				c-0.1-0.2-0.1-0.3-0.1-0.6c0-0.2,0-0.4,0.1-0.6c0.1-0.2,0.2-0.4,0.4-0.5c0.2-0.1,0.4-0.3,0.6-0.3c0.2-0.1,0.5-0.1,0.8-0.1
				c0.3,0,0.7,0.1,1,0.2c0.3,0.1,0.5,0.3,0.7,0.5L291.9,25.7z"/>
			<path class="st2" d="M294.7,23.2c0,0.1,0,0.2-0.1,0.3c0,0.1-0.1,0.2-0.2,0.2c-0.1,0.1-0.2,0.1-0.2,0.2c-0.1,0-0.2,0.1-0.3,0.1
				c-0.1,0-0.2,0-0.3-0.1c-0.1,0-0.2-0.1-0.2-0.2s-0.1-0.1-0.2-0.2c0-0.1-0.1-0.2-0.1-0.3c0-0.1,0-0.2,0.1-0.3s0.1-0.2,0.2-0.2
				s0.2-0.1,0.2-0.2c0.1,0,0.2-0.1,0.3-0.1c0.1,0,0.2,0,0.3,0.1c0.1,0,0.2,0.1,0.2,0.2c0.1,0.1,0.1,0.2,0.2,0.2
				S294.7,23.1,294.7,23.2z M294.5,24.7v5.1h-1.2v-5.1H294.5z"/>
			<path class="st2" d="M297.7,24.6c0.2,0,0.4,0,0.6,0.1c0.2,0,0.4,0.1,0.5,0.2h1.5v0.5c0,0.1,0,0.1-0.1,0.2c0,0-0.1,0.1-0.2,0.1
				l-0.5,0.1c0,0.1,0.1,0.2,0.1,0.3c0,0.1,0,0.2,0,0.3c0,0.3,0,0.5-0.2,0.7c-0.1,0.2-0.2,0.4-0.4,0.5s-0.4,0.3-0.6,0.3
				c-0.2,0.1-0.5,0.1-0.8,0.1c-0.2,0-0.4,0-0.6-0.1c-0.2,0.1-0.2,0.2-0.2,0.3c0,0.1,0,0.2,0.1,0.2c0.1,0,0.2,0.1,0.4,0.1
				c0.2,0,0.3,0,0.5,0c0.2,0,0.4,0,0.6,0c0.2,0,0.4,0,0.6,0.1c0.2,0,0.4,0.1,0.5,0.2c0.2,0.1,0.3,0.2,0.4,0.4
				c0.1,0.2,0.1,0.4,0.1,0.6c0,0.2-0.1,0.4-0.2,0.7s-0.3,0.4-0.5,0.6c-0.2,0.2-0.5,0.3-0.8,0.4c-0.3,0.1-0.6,0.2-1,0.2
				c-0.4,0-0.7,0-1-0.1c-0.3-0.1-0.5-0.2-0.7-0.3s-0.3-0.3-0.4-0.4c-0.1-0.2-0.1-0.3-0.1-0.5c0-0.2,0.1-0.4,0.2-0.6s0.3-0.3,0.6-0.4
				c-0.1-0.1-0.2-0.2-0.3-0.3c-0.1-0.1-0.1-0.3-0.1-0.5c0-0.1,0-0.2,0-0.2c0-0.1,0.1-0.2,0.1-0.2s0.1-0.2,0.2-0.2
				c0.1-0.1,0.2-0.1,0.3-0.2c-0.3-0.1-0.5-0.3-0.6-0.6c-0.1-0.2-0.2-0.5-0.2-0.8c0-0.3,0.1-0.5,0.2-0.7c0.1-0.2,0.2-0.4,0.4-0.5
				c0.2-0.1,0.4-0.3,0.6-0.3C297.1,24.7,297.4,24.6,297.7,24.6z M299,30c0-0.1,0-0.2-0.1-0.2s-0.1-0.1-0.2-0.1
				c-0.1,0-0.2-0.1-0.4-0.1c-0.1,0-0.3,0-0.4,0c-0.2,0-0.3,0-0.5,0s-0.3,0-0.5-0.1c-0.1,0.1-0.2,0.2-0.3,0.3s-0.1,0.2-0.1,0.4
				c0,0.1,0,0.2,0.1,0.2c0,0.1,0.1,0.1,0.2,0.2s0.2,0.1,0.4,0.1c0.2,0,0.3,0,0.6,0c0.2,0,0.4,0,0.6-0.1c0.2,0,0.3-0.1,0.4-0.1
				c0.1-0.1,0.2-0.1,0.2-0.2C299,30.2,299,30.1,299,30z M297.7,27.1c0.2,0,0.3,0,0.4-0.1c0.1,0,0.2-0.1,0.3-0.2
				c0.1-0.1,0.1-0.2,0.2-0.3c0-0.1,0.1-0.2,0.1-0.3c0-0.3-0.1-0.4-0.2-0.6c-0.2-0.1-0.4-0.2-0.7-0.2c-0.3,0-0.5,0.1-0.7,0.2
				c-0.2,0.1-0.2,0.3-0.2,0.6c0,0.1,0,0.2,0.1,0.3c0,0.1,0.1,0.2,0.2,0.3s0.2,0.1,0.3,0.2C297.4,27.1,297.5,27.1,297.7,27.1z"/>
			<path class="st2" d="M301,29.8v-5.1h0.7c0.2,0,0.3,0.1,0.3,0.2l0.1,0.4c0.1-0.1,0.2-0.2,0.3-0.3c0.1-0.1,0.2-0.2,0.4-0.2
				c0.1-0.1,0.3-0.1,0.4-0.1c0.1,0,0.3,0,0.5,0c0.3,0,0.5,0,0.7,0.1c0.2,0.1,0.4,0.2,0.5,0.4s0.3,0.4,0.3,0.6
				c0.1,0.2,0.1,0.5,0.1,0.8v3.2h-1.2v-3.2c0-0.3-0.1-0.6-0.2-0.7s-0.4-0.3-0.6-0.3c-0.2,0-0.4,0-0.6,0.1c-0.2,0.1-0.4,0.2-0.5,0.4
				v3.7H301z"/>
			<path class="st2" d="M310.6,29.8h-0.5c-0.1,0-0.2,0-0.3-0.1c-0.1,0-0.1-0.1-0.1-0.2l-0.1-0.4c-0.1,0.1-0.3,0.2-0.4,0.3
				s-0.3,0.2-0.4,0.2c-0.1,0.1-0.3,0.1-0.4,0.1s-0.3,0-0.5,0c-0.2,0-0.4,0-0.6-0.1c-0.2-0.1-0.3-0.1-0.5-0.3
				c-0.1-0.1-0.2-0.3-0.3-0.4c-0.1-0.2-0.1-0.4-0.1-0.6c0-0.2,0.1-0.4,0.2-0.6s0.3-0.4,0.5-0.5c0.2-0.2,0.5-0.3,0.9-0.4
				c0.4-0.1,0.9-0.1,1.5-0.1v-0.3c0-0.3-0.1-0.6-0.2-0.8s-0.4-0.2-0.6-0.2c-0.2,0-0.4,0-0.5,0.1s-0.2,0.1-0.3,0.2
				c-0.1,0.1-0.2,0.1-0.3,0.2c-0.1,0-0.2,0.1-0.3,0.1c-0.1,0-0.2,0-0.2-0.1c-0.1,0-0.1-0.1-0.1-0.2l-0.2-0.4
				c0.6-0.5,1.3-0.8,2.1-0.8c0.3,0,0.6,0,0.8,0.1c0.2,0.1,0.4,0.2,0.6,0.4c0.2,0.2,0.3,0.4,0.4,0.6c0.1,0.2,0.1,0.5,0.1,0.8V29.8z
				 M308.3,29c0.1,0,0.2,0,0.3,0c0.1,0,0.2-0.1,0.3-0.1c0.1,0,0.2-0.1,0.3-0.2c0.1-0.1,0.2-0.1,0.3-0.2v-0.8c-0.4,0-0.7,0-0.9,0.1
				c-0.2,0-0.4,0.1-0.6,0.2s-0.2,0.2-0.3,0.2c-0.1,0.1-0.1,0.2-0.1,0.3c0,0.2,0.1,0.4,0.2,0.5C307.9,29,308.1,29,308.3,29z"/>
			<path class="st2" d="M315.4,29.8c-0.2,0-0.3-0.1-0.3-0.2l-0.1-0.5c-0.1,0.1-0.2,0.2-0.3,0.3s-0.2,0.2-0.4,0.2
				c-0.1,0.1-0.3,0.1-0.4,0.2c-0.2,0-0.3,0.1-0.5,0.1c-0.3,0-0.5-0.1-0.8-0.2c-0.2-0.1-0.4-0.3-0.6-0.5c-0.2-0.2-0.3-0.5-0.4-0.8
				s-0.1-0.7-0.1-1.1c0-0.4,0.1-0.7,0.2-1c0.1-0.3,0.2-0.6,0.4-0.8c0.2-0.2,0.4-0.4,0.7-0.6s0.6-0.2,0.9-0.2c0.3,0,0.5,0,0.7,0.1
				c0.2,0.1,0.4,0.2,0.5,0.4v-2.7h1.2v7.4H315.4z M313.8,28.9c0.3,0,0.5-0.1,0.6-0.2s0.3-0.3,0.5-0.5V26c-0.1-0.2-0.3-0.3-0.5-0.4
				s-0.3-0.1-0.5-0.1c-0.2,0-0.4,0-0.5,0.1s-0.3,0.2-0.4,0.3c-0.1,0.1-0.2,0.3-0.2,0.5c-0.1,0.2-0.1,0.5-0.1,0.8
				c0,0.3,0,0.5,0.1,0.8c0,0.2,0.1,0.4,0.2,0.5c0.1,0.1,0.2,0.2,0.3,0.3S313.6,28.9,313.8,28.9z"/>
			<path class="st2" d="M319.7,24.6c0.4,0,0.7,0.1,1,0.2s0.6,0.3,0.8,0.5c0.2,0.2,0.4,0.5,0.5,0.8c0.1,0.3,0.2,0.7,0.2,1.1
				c0,0.4-0.1,0.8-0.2,1.1c-0.1,0.3-0.3,0.6-0.5,0.8c-0.2,0.2-0.5,0.4-0.8,0.5s-0.7,0.2-1,0.2c-0.4,0-0.7-0.1-1-0.2
				c-0.3-0.1-0.6-0.3-0.8-0.5c-0.2-0.2-0.4-0.5-0.5-0.8s-0.2-0.7-0.2-1.1c0-0.4,0.1-0.8,0.2-1.1s0.3-0.6,0.5-0.8
				c0.2-0.2,0.5-0.4,0.8-0.5C318.9,24.7,319.3,24.6,319.7,24.6z M319.7,28.9c0.4,0,0.7-0.1,0.9-0.4c0.2-0.3,0.3-0.7,0.3-1.2
				s-0.1-1-0.3-1.3c-0.2-0.3-0.5-0.4-0.9-0.4c-0.4,0-0.7,0.1-1,0.4c-0.2,0.3-0.3,0.7-0.3,1.2s0.1,1,0.3,1.2
				C318.9,28.8,319.2,28.9,319.7,28.9z"/>
			<path class="st2" d="M326.1,25.7c0,0.1-0.1,0.1-0.1,0.1c0,0-0.1,0-0.1,0c-0.1,0-0.1,0-0.2,0c-0.1,0-0.1-0.1-0.2-0.1
				c-0.1,0-0.2-0.1-0.3-0.1c-0.1,0-0.2,0-0.4,0c-0.2,0-0.4,0.1-0.6,0.2c-0.1,0.1-0.2,0.2-0.2,0.4c0,0.1,0,0.2,0.1,0.3
				s0.2,0.1,0.3,0.2s0.2,0.1,0.4,0.2s0.3,0.1,0.5,0.1s0.3,0.1,0.5,0.2c0.1,0.1,0.3,0.2,0.4,0.3c0.1,0.1,0.2,0.2,0.3,0.4
				c0.1,0.1,0.1,0.3,0.1,0.5c0,0.2,0,0.5-0.1,0.7c-0.1,0.2-0.2,0.4-0.4,0.5c-0.2,0.2-0.4,0.3-0.6,0.4c-0.3,0.1-0.5,0.1-0.9,0.1
				c-0.2,0-0.3,0-0.5,0c-0.2,0-0.3-0.1-0.5-0.1s-0.3-0.1-0.4-0.2c-0.1-0.1-0.2-0.2-0.3-0.2l0.3-0.5c0-0.1,0.1-0.1,0.1-0.1
				c0,0,0.1,0,0.2,0c0.1,0,0.1,0,0.2,0.1s0.1,0.1,0.2,0.1c0.1,0,0.2,0.1,0.3,0.1c0.1,0,0.3,0.1,0.5,0.1c0.1,0,0.3,0,0.4-0.1
				c0.1,0,0.2-0.1,0.3-0.1c0.1-0.1,0.1-0.1,0.1-0.2c0-0.1,0-0.2,0-0.2c0-0.1,0-0.2-0.1-0.3c-0.1-0.1-0.2-0.1-0.3-0.2
				s-0.3-0.1-0.4-0.2s-0.3-0.1-0.5-0.1c-0.2-0.1-0.3-0.1-0.5-0.2c-0.2-0.1-0.3-0.2-0.4-0.3s-0.2-0.2-0.3-0.4
				c-0.1-0.2-0.1-0.3-0.1-0.6c0-0.2,0-0.4,0.1-0.6c0.1-0.2,0.2-0.4,0.4-0.5c0.2-0.1,0.4-0.3,0.6-0.3c0.2-0.1,0.5-0.1,0.8-0.1
				c0.3,0,0.7,0.1,1,0.2c0.3,0.1,0.5,0.3,0.7,0.5L326.1,25.7z"/>
		</g>
		<line class="st4" x1="50.4" y1="17.8" x2="50.4" y2="248.2"/>
		<line class="st4" x1="114.1" y1="17.8" x2="114.1" y2="248.2"/>
		<line class="st4" x1="159.7" y1="17.8" x2="159.7" y2="248.2"/>
		<line class="st4" x1="266.6" y1="17.8" x2="266.6" y2="248.2"/>
		<line class="st4" x1="16.5" y1="54" x2="333.5" y2="54"/>
		<line class="st4" x1="16.5" y1="68.9" x2="333.5" y2="68.9"/>
		<line class="st4" x1="16.5" y1="83.8" x2="333.5" y2="83.8"/>
		<line class="st4" x1="16.5" y1="98.7" x2="333.5" y2="98.7"/>
		<line class="st4" x1="16.5" y1="113.6" x2="333.5" y2="113.6"/>
		<line class="st4" x1="16.5" y1="128.5" x2="333.5" y2="128.5"/>
		<line class="st4" x1="16.5" y1="143.4" x2="333.5" y2="143.4"/>
		<line class="st4" x1="16.5" y1="158.3" x2="333.5" y2="158.3"/>
		<line class="st4" x1="16.5" y1="173.2" x2="333.5" y2="173.2"/>
		<line class="st4" x1="16.5" y1="188" x2="333.5" y2="188"/>
		<line class="st4" x1="16.5" y1="202.9" x2="333.5" y2="202.9"/>
		<line class="st4" x1="16.5" y1="217.8" x2="333.5" y2="217.8"/>
		<line class="st4" x1="16.5" y1="232.7" x2="333.5" y2="232.7"/>
	</g>
</g>
<g id="Camada_2">
</g>
<g id="Camada_1">
</g>
</svg>
