<?xml version="1.0" encoding="utf-8"?>
<!-- Generator: Adobe Illustrator 24.3.0, SVG Export Plug-In . SVG Version: 6.00 Build 0)  -->
<svg version="1.1" xmlns="http://www.w3.org/2000/svg" xmlns:xlink="http://www.w3.org/1999/xlink" x="0px" y="0px"
	 viewBox="0 0 351 262.8" style="enable-background:new 0 0 351 262.8;" xml:space="preserve">
<style type="text/css">
	.st0{fill:#6FB590;}
	.st1{fill:#C9EE95;}
	.st2{fill:#FFFFFF;}
	.st3{fill:#0C486C;}
	.st4{fill:none;stroke:#FFFFFF;stroke-width:1.2374;stroke-miterlimit:10;}
</style>
<g id="Camada_3">
	<g>
		<rect x="16.9" y="16.4" class="st0" width="315.1" height="16.4"/>
		<rect x="16.9" y="38.3" class="st1" width="315.1" height="208.7"/>
		<g>
			<path class="st2" d="M30.9,27.4c0.3,0,0.5,0,0.7-0.1c0.2-0.1,0.4-0.2,0.5-0.4c0.1-0.2,0.2-0.3,0.3-0.6c0.1-0.2,0.1-0.5,0.1-0.7
				v-4.3h1.3v4.3c0,0.4-0.1,0.8-0.2,1.2c-0.1,0.4-0.3,0.7-0.6,0.9s-0.6,0.5-0.9,0.6c-0.4,0.1-0.8,0.2-1.2,0.2
				c-0.5,0-0.9-0.1-1.2-0.2c-0.4-0.1-0.7-0.4-0.9-0.6c-0.3-0.3-0.5-0.6-0.6-0.9c-0.1-0.4-0.2-0.8-0.2-1.2v-4.3h1.3v4.3
				c0,0.3,0,0.5,0.1,0.7c0.1,0.2,0.2,0.4,0.3,0.6s0.3,0.3,0.5,0.4C30.4,27.4,30.6,27.4,30.9,27.4z"/>
			<path class="st2" d="M39.7,21.3v1.1h-3.2v2.1h2.7v1.1h-2.7v2.9h-1.3v-7.2H39.7z"/>
		</g>
		<g>
			<path class="st3" d="M32,49.5h-0.7c-0.1,0-0.2,0-0.2-0.1S31,49.3,31,49.3l-0.7-1.7h-3.2l-0.7,1.7c0,0.1-0.1,0.1-0.1,0.2
				c-0.1,0-0.1,0.1-0.2,0.1h-0.7l2.8-7.1h1L32,49.5z M27.4,46.9H30L28.9,44c-0.1-0.2-0.1-0.4-0.2-0.7c0,0.1-0.1,0.3-0.1,0.4
				s-0.1,0.2-0.1,0.3L27.4,46.9z"/>
			<path class="st3" d="M37.7,48c0.1,0,0.1,0,0.1,0.1l0.4,0.4c-0.3,0.3-0.6,0.6-1.1,0.8c-0.4,0.2-0.9,0.3-1.5,0.3
				c-0.5,0-1-0.1-1.4-0.3c-0.4-0.2-0.8-0.4-1.1-0.7c-0.3-0.3-0.5-0.7-0.7-1.1s-0.2-0.9-0.2-1.5c0-0.5,0.1-1,0.3-1.5
				c0.2-0.4,0.4-0.8,0.7-1.1c0.3-0.3,0.7-0.6,1.1-0.7c0.4-0.2,0.9-0.3,1.4-0.3c0.5,0,1,0.1,1.3,0.2c0.4,0.2,0.7,0.4,1,0.7l-0.3,0.4
				c0,0,0,0.1-0.1,0.1c0,0-0.1,0-0.1,0c0,0-0.1,0-0.1,0s-0.1-0.1-0.2-0.1c-0.1,0-0.1-0.1-0.2-0.1c-0.1-0.1-0.2-0.1-0.3-0.1
				c-0.1,0-0.3-0.1-0.4-0.1c-0.2,0-0.3,0-0.6,0c-0.4,0-0.7,0.1-1,0.2c-0.3,0.1-0.6,0.3-0.8,0.6s-0.4,0.5-0.5,0.9
				c-0.1,0.3-0.2,0.7-0.2,1.2c0,0.4,0.1,0.8,0.2,1.2c0.1,0.3,0.3,0.6,0.5,0.9c0.2,0.2,0.5,0.4,0.8,0.5s0.6,0.2,1,0.2
				c0.2,0,0.4,0,0.6,0c0.2,0,0.3-0.1,0.5-0.1s0.3-0.1,0.4-0.2c0.1-0.1,0.2-0.2,0.4-0.3C37.6,48.1,37.7,48,37.7,48z"/>
			<path class="st3" d="M32.8,64.4H32c-0.1,0-0.2,0-0.2-0.1s-0.1-0.1-0.1-0.2L31,62.4h-3.2l-0.7,1.7c0,0.1-0.1,0.1-0.1,0.2
				c-0.1,0-0.1,0.1-0.2,0.1h-0.7l2.8-7.1h1L32.8,64.4z M28.1,61.7h2.6l-1.1-2.9c-0.1-0.2-0.1-0.4-0.2-0.7c0,0.1-0.1,0.3-0.1,0.4
				s-0.1,0.2-0.1,0.3L28.1,61.7z"/>
			<path class="st3" d="M34.6,63.6h3.1v0.8h-4v-7.1h1V63.6z"/>
			<path class="st3" d="M32.3,79.2h-0.7c-0.1,0-0.2,0-0.2-0.1S31.2,79,31.2,79l-0.7-1.7h-3.2L26.7,79c0,0.1-0.1,0.1-0.1,0.2
				c-0.1,0-0.1,0.1-0.2,0.1h-0.7l2.8-7.1h1L32.3,79.2z M27.6,76.6h2.6l-1.1-2.9C29.1,73.5,29,73.3,29,73c0,0.1-0.1,0.3-0.1,0.4
				c0,0.1-0.1,0.2-0.1,0.3L27.6,76.6z"/>
			<path class="st3" d="M34.2,76.6v2.7h-1v-7.1h2.1c0.4,0,0.8,0.1,1.2,0.2c0.3,0.1,0.6,0.3,0.8,0.4s0.4,0.4,0.5,0.7
				C38,73.7,38,74,38,74.3c0,0.3-0.1,0.6-0.2,0.9c-0.1,0.3-0.3,0.5-0.5,0.7s-0.5,0.4-0.8,0.5c-0.3,0.1-0.7,0.2-1.1,0.2H34.2z
				 M34.2,75.8h1.1c0.3,0,0.5,0,0.7-0.1c0.2-0.1,0.4-0.2,0.5-0.3c0.1-0.1,0.2-0.3,0.3-0.5c0.1-0.2,0.1-0.4,0.1-0.6
				c0-0.5-0.1-0.8-0.4-1.1s-0.7-0.4-1.3-0.4h-1.1V75.8z"/>
			<path class="st3" d="M30.8,94.1H30c-0.1,0-0.2,0-0.2-0.1s-0.1-0.1-0.1-0.2L29,92.1h-3.2l-0.7,1.7c0,0.1-0.1,0.1-0.1,0.2
				c-0.1,0-0.1,0.1-0.2,0.1h-0.7L27,87h1L30.8,94.1z M26.1,91.4h2.6l-1.1-2.9c-0.1-0.2-0.1-0.4-0.2-0.7c0,0.1-0.1,0.3-0.1,0.4
				c0,0.1-0.1,0.2-0.1,0.3L26.1,91.4z"/>
			<path class="st3" d="M35.3,91.7c0,0.1,0.1,0.2,0.1,0.3c0-0.1,0.1-0.2,0.1-0.3c0-0.1,0.1-0.2,0.1-0.3l2.4-4.4
				c0-0.1,0.1-0.1,0.1-0.1s0.1,0,0.2,0H39v7.1h-0.8v-5.2c0-0.1,0-0.1,0-0.2s0-0.2,0-0.2l-2.4,4.4C35.7,93,35.6,93,35.4,93h-0.1
				C35.2,93,35,93,35,92.8l-2.5-4.4c0,0.1,0,0.2,0,0.3c0,0.1,0,0.2,0,0.2v5.2h-0.8V87h0.7c0.1,0,0.2,0,0.2,0c0,0,0.1,0.1,0.1,0.1
				l2.5,4.4C35.2,91.6,35.2,91.7,35.3,91.7z"/>
			<path class="st3" d="M26.3,108.9v-7.1h2.3c0.4,0,0.8,0,1.1,0.1s0.6,0.2,0.8,0.4c0.2,0.2,0.4,0.4,0.5,0.6c0.1,0.2,0.1,0.5,0.1,0.8
				c0,0.2,0,0.3-0.1,0.5c-0.1,0.2-0.1,0.3-0.2,0.5c-0.1,0.1-0.2,0.3-0.4,0.4c-0.2,0.1-0.4,0.2-0.6,0.3c0.5,0.1,0.9,0.3,1.2,0.6
				c0.3,0.3,0.4,0.6,0.4,1.1c0,0.3-0.1,0.6-0.2,0.8c-0.1,0.2-0.3,0.5-0.5,0.6c-0.2,0.2-0.5,0.3-0.8,0.4c-0.3,0.1-0.7,0.1-1.1,0.1
				H26.3z M27.2,105h1.3c0.3,0,0.5,0,0.7-0.1c0.2-0.1,0.4-0.1,0.5-0.2c0.1-0.1,0.2-0.2,0.3-0.4c0.1-0.2,0.1-0.3,0.1-0.5
				c0-0.4-0.1-0.7-0.4-0.9c-0.3-0.2-0.6-0.3-1.2-0.3h-1.3V105z M27.2,105.7v2.5h1.5c0.3,0,0.5,0,0.7-0.1s0.4-0.2,0.5-0.3
				s0.2-0.2,0.3-0.4c0.1-0.2,0.1-0.3,0.1-0.5c0-0.4-0.1-0.7-0.4-0.9c-0.3-0.2-0.7-0.3-1.2-0.3H27.2z"/>
			<path class="st3" d="M38.5,108.9h-0.7c-0.1,0-0.2,0-0.2-0.1s-0.1-0.1-0.1-0.2l-0.7-1.7h-3.2l-0.7,1.7c0,0.1-0.1,0.1-0.1,0.2
				c-0.1,0-0.1,0.1-0.2,0.1h-0.7l2.8-7.1h1L38.5,108.9z M33.9,106.3h2.6l-1.1-2.9c-0.1-0.2-0.1-0.4-0.2-0.7c0,0.1-0.1,0.3-0.1,0.4
				c0,0.1-0.1,0.2-0.1,0.3L33.9,106.3z"/>
			<path class="st3" d="M31.6,122.3c0.1,0,0.1,0,0.1,0.1l0.4,0.4c-0.3,0.3-0.6,0.6-1.1,0.8c-0.4,0.2-0.9,0.3-1.5,0.3
				c-0.5,0-1-0.1-1.4-0.3c-0.4-0.2-0.8-0.4-1.1-0.7c-0.3-0.3-0.5-0.7-0.7-1.1c-0.2-0.4-0.2-0.9-0.2-1.5c0-0.5,0.1-1,0.3-1.5
				c0.2-0.4,0.4-0.8,0.7-1.1c0.3-0.3,0.7-0.6,1.1-0.7c0.4-0.2,0.9-0.3,1.4-0.3c0.5,0,1,0.1,1.3,0.2c0.4,0.2,0.7,0.4,1,0.7l-0.3,0.4
				c0,0,0,0.1-0.1,0.1c0,0-0.1,0-0.1,0c0,0-0.1,0-0.1,0s-0.1-0.1-0.2-0.1c-0.1,0-0.1-0.1-0.2-0.1c-0.1-0.1-0.2-0.1-0.3-0.1
				s-0.3-0.1-0.4-0.1s-0.3,0-0.6,0c-0.4,0-0.7,0.1-1,0.2c-0.3,0.1-0.6,0.3-0.8,0.6s-0.4,0.5-0.5,0.9c-0.1,0.3-0.2,0.7-0.2,1.2
				c0,0.4,0.1,0.8,0.2,1.2c0.1,0.3,0.3,0.6,0.5,0.9c0.2,0.2,0.5,0.4,0.8,0.5c0.3,0.1,0.6,0.2,1,0.2c0.2,0,0.4,0,0.6,0
				c0.2,0,0.3-0.1,0.5-0.1s0.3-0.1,0.4-0.2c0.1-0.1,0.2-0.2,0.4-0.3C31.5,122.3,31.5,122.3,31.6,122.3z"/>
			<path class="st3" d="M37.7,116.7v0.8h-3.4v2.4h2.8v0.8h-2.8v2.4h3.4v0.8h-4.4v-7.1H37.7z"/>
			<path class="st3" d="M32.5,135.1c0,0.5-0.1,1-0.3,1.5c-0.2,0.4-0.4,0.8-0.7,1.1c-0.3,0.3-0.7,0.5-1.1,0.7
				c-0.4,0.2-0.9,0.3-1.4,0.3h-2.7v-7.1H29c0.5,0,1,0.1,1.4,0.3c0.4,0.2,0.8,0.4,1.1,0.7c0.3,0.3,0.5,0.7,0.7,1.1
				C32.4,134,32.5,134.5,32.5,135.1z M31.5,135.1c0-0.4-0.1-0.8-0.2-1.2c-0.1-0.3-0.3-0.6-0.5-0.9s-0.5-0.4-0.8-0.5
				c-0.3-0.1-0.7-0.2-1-0.2h-1.7v5.5H29c0.4,0,0.7-0.1,1-0.2c0.3-0.1,0.6-0.3,0.8-0.5c0.2-0.2,0.4-0.5,0.5-0.9
				C31.4,135.9,31.5,135.5,31.5,135.1z"/>
			<path class="st3" d="M38.1,131.5v0.8h-3.4v2.5h2.9v0.8h-2.9v3h-1v-7.1H38.1z"/>
			<path class="st3" d="M31.7,146.4v0.8h-3.4v2.4h2.8v0.8h-2.8v2.4h3.4v0.8h-4.4v-7.1H31.7z"/>
			<path class="st3" d="M36.7,147.5c0,0-0.1,0.1-0.1,0.1c0,0-0.1,0-0.1,0c-0.1,0-0.1,0-0.2-0.1c-0.1-0.1-0.2-0.1-0.3-0.2
				c-0.1-0.1-0.3-0.1-0.4-0.2c-0.2-0.1-0.4-0.1-0.6-0.1c-0.2,0-0.4,0-0.6,0.1c-0.2,0.1-0.3,0.1-0.4,0.2c-0.1,0.1-0.2,0.2-0.2,0.3
				s-0.1,0.3-0.1,0.4c0,0.2,0,0.4,0.1,0.5c0.1,0.1,0.2,0.2,0.4,0.3c0.2,0.1,0.3,0.2,0.5,0.2c0.2,0.1,0.4,0.1,0.6,0.2
				s0.4,0.2,0.6,0.2s0.4,0.2,0.5,0.3s0.3,0.3,0.4,0.5c0.1,0.2,0.1,0.4,0.1,0.7c0,0.3-0.1,0.6-0.2,0.9s-0.3,0.5-0.5,0.7
				c-0.2,0.2-0.5,0.4-0.7,0.5c-0.3,0.1-0.6,0.2-1,0.2c-0.5,0-0.9-0.1-1.3-0.2c-0.4-0.2-0.7-0.4-1-0.7l0.3-0.5c0,0,0.1-0.1,0.1-0.1
				c0,0,0.1,0,0.1,0c0.1,0,0.1,0,0.2,0.1c0.1,0.1,0.2,0.2,0.3,0.2c0.1,0.1,0.3,0.2,0.5,0.2c0.2,0.1,0.4,0.1,0.7,0.1
				c0.2,0,0.4,0,0.6-0.1s0.3-0.2,0.5-0.3c0.1-0.1,0.2-0.2,0.3-0.4c0.1-0.2,0.1-0.3,0.1-0.5c0-0.2,0-0.4-0.1-0.5
				c-0.1-0.1-0.2-0.3-0.4-0.3c-0.2-0.1-0.3-0.2-0.5-0.2c-0.2-0.1-0.4-0.1-0.6-0.2s-0.4-0.1-0.6-0.2c-0.2-0.1-0.4-0.2-0.5-0.3
				c-0.2-0.1-0.3-0.3-0.4-0.5c-0.1-0.2-0.1-0.5-0.1-0.8c0-0.3,0-0.5,0.1-0.7c0.1-0.2,0.2-0.4,0.4-0.6c0.2-0.2,0.4-0.3,0.7-0.4
				c0.3-0.1,0.6-0.2,0.9-0.2c0.4,0,0.8,0.1,1.1,0.2c0.3,0.1,0.6,0.3,0.9,0.5L36.7,147.5z"/>
			<path class="st3" d="M28.4,167.6c0.2,0,0.4,0,0.5,0c0.2,0,0.3,0,0.5-0.1c0.1,0,0.3-0.1,0.4-0.1c0.1-0.1,0.3-0.1,0.4-0.2v-1.6
				h-1.1c-0.1,0-0.1,0-0.2-0.1c0,0-0.1-0.1-0.1-0.1v-0.5h2.2v2.7c-0.2,0.1-0.4,0.2-0.6,0.3s-0.4,0.2-0.6,0.2
				c-0.2,0.1-0.5,0.1-0.7,0.1c-0.3,0-0.5,0-0.8,0c-0.5,0-1-0.1-1.4-0.3c-0.4-0.2-0.8-0.4-1.1-0.7c-0.3-0.3-0.6-0.7-0.7-1.1
				c-0.2-0.4-0.3-0.9-0.3-1.5c0-0.5,0.1-1,0.3-1.5s0.4-0.8,0.7-1.1c0.3-0.3,0.7-0.6,1.1-0.7c0.4-0.2,0.9-0.3,1.5-0.3
				c0.3,0,0.5,0,0.8,0.1c0.2,0,0.5,0.1,0.7,0.2c0.2,0.1,0.4,0.2,0.6,0.3s0.3,0.2,0.5,0.4l-0.3,0.4c-0.1,0.1-0.1,0.1-0.2,0.1
				c-0.1,0-0.1,0-0.2-0.1c-0.1,0-0.2-0.1-0.3-0.2c-0.1-0.1-0.2-0.1-0.4-0.2c-0.1-0.1-0.3-0.1-0.5-0.2c-0.2,0-0.4-0.1-0.7-0.1
				c-0.4,0-0.8,0.1-1.1,0.2c-0.3,0.1-0.6,0.3-0.8,0.6c-0.2,0.2-0.4,0.5-0.5,0.9s-0.2,0.7-0.2,1.2c0,0.4,0.1,0.8,0.2,1.2
				c0.1,0.4,0.3,0.6,0.5,0.9s0.5,0.4,0.8,0.6C27.7,167.5,28,167.6,28.4,167.6z"/>
			<path class="st3" d="M39.1,164.8c0,0.5-0.1,1-0.3,1.5c-0.2,0.4-0.4,0.8-0.7,1.1c-0.3,0.3-0.7,0.6-1.1,0.7s-0.9,0.3-1.4,0.3
				s-1-0.1-1.4-0.3c-0.4-0.2-0.8-0.4-1.1-0.7c-0.3-0.3-0.5-0.7-0.7-1.1c-0.2-0.4-0.3-0.9-0.3-1.5s0.1-1,0.3-1.5
				c0.2-0.4,0.4-0.8,0.7-1.1c0.3-0.3,0.7-0.6,1.1-0.8c0.4-0.2,0.9-0.3,1.4-0.3s1,0.1,1.4,0.3c0.4,0.2,0.8,0.4,1.1,0.8
				c0.3,0.3,0.5,0.7,0.7,1.1C39,163.7,39.1,164.2,39.1,164.8z M38.1,164.8c0-0.4-0.1-0.8-0.2-1.2c-0.1-0.3-0.3-0.6-0.5-0.9
				s-0.5-0.4-0.8-0.6c-0.3-0.1-0.7-0.2-1-0.2c-0.4,0-0.7,0.1-1,0.2c-0.3,0.1-0.6,0.3-0.8,0.6c-0.2,0.2-0.4,0.5-0.5,0.9
				c-0.1,0.3-0.2,0.7-0.2,1.2s0.1,0.8,0.2,1.2c0.1,0.3,0.3,0.6,0.5,0.9c0.2,0.2,0.5,0.4,0.8,0.5c0.3,0.1,0.7,0.2,1,0.2
				c0.4,0,0.7-0.1,1-0.2c0.3-0.1,0.6-0.3,0.8-0.5s0.4-0.5,0.5-0.9C38.1,165.6,38.1,165.2,38.1,164.8z"/>
			<path class="st3" d="M28.5,180.8c0,0.1,0.1,0.2,0.1,0.3c0-0.1,0.1-0.2,0.1-0.3c0-0.1,0.1-0.2,0.1-0.3l2.4-4.4
				c0-0.1,0.1-0.1,0.1-0.1s0.1,0,0.2,0h0.7v7.1h-0.8v-5.2c0-0.1,0-0.1,0-0.2s0-0.2,0-0.2l-2.4,4.4c-0.1,0.1-0.2,0.2-0.3,0.2h-0.1
				c-0.1,0-0.3-0.1-0.3-0.2l-2.5-4.4c0,0.1,0,0.2,0,0.3c0,0.1,0,0.2,0,0.2v5.2h-0.8v-7.1h0.7c0.1,0,0.2,0,0.2,0c0,0,0.1,0.1,0.1,0.1
				l2.5,4.4C28.5,180.7,28.5,180.7,28.5,180.8z"/>
			<path class="st3" d="M39.9,183.1h-0.7c-0.1,0-0.2,0-0.2-0.1s-0.1-0.1-0.1-0.2l-0.7-1.7H35l-0.7,1.7c0,0.1-0.1,0.1-0.1,0.2
				c-0.1,0-0.1,0.1-0.2,0.1h-0.7l2.8-7.1h1L39.9,183.1z M35.2,180.5h2.6l-1.1-2.9c-0.1-0.2-0.1-0.4-0.2-0.7c0,0.1-0.1,0.3-0.1,0.4
				c0,0.1-0.1,0.2-0.1,0.3L35.2,180.5z"/>
			<path class="st3" d="M29,195.7c0,0.1,0.1,0.2,0.1,0.3c0-0.1,0.1-0.2,0.1-0.3c0-0.1,0.1-0.2,0.1-0.3l2.4-4.4
				c0-0.1,0.1-0.1,0.1-0.1s0.1,0,0.2,0h0.7v7.1h-0.8v-5.2c0-0.1,0-0.1,0-0.2s0-0.2,0-0.2l-2.4,4.4c-0.1,0.1-0.2,0.2-0.3,0.2H29
				c-0.1,0-0.3-0.1-0.3-0.2l-2.5-4.4c0,0.1,0,0.2,0,0.3c0,0.1,0,0.2,0,0.2v5.2h-0.8v-7.1h0.7c0.1,0,0.2,0,0.2,0c0,0,0.1,0.1,0.1,0.1
				l2.5,4.4C28.9,195.5,28.9,195.6,29,195.7z"/>
			<path class="st3" d="M39.3,190.9v0.8H37v6.3h-1v-6.3h-2.3v-0.8H39.3z"/>
			<path class="st3" d="M29.3,210.5c0,0.1,0.1,0.2,0.1,0.3c0-0.1,0.1-0.2,0.1-0.3c0-0.1,0.1-0.2,0.1-0.3l2.4-4.4
				c0-0.1,0.1-0.1,0.1-0.1s0.1,0,0.2,0H33v7.1h-0.8v-5.2c0-0.1,0-0.1,0-0.2s0-0.2,0-0.2l-2.4,4.4c-0.1,0.1-0.2,0.2-0.3,0.2h-0.1
				c-0.1,0-0.3-0.1-0.3-0.2l-2.5-4.4c0,0.1,0,0.2,0,0.3c0,0.1,0,0.2,0,0.2v5.2h-0.8v-7.1h0.7c0.1,0,0.2,0,0.2,0c0,0,0.1,0.1,0.1,0.1
				l2.5,4.4C29.2,210.4,29.2,210.4,29.3,210.5z"/>
			<path class="st3" d="M38.4,206.9c0,0-0.1,0.1-0.1,0.1c0,0-0.1,0-0.1,0c-0.1,0-0.1,0-0.2-0.1c-0.1-0.1-0.2-0.1-0.3-0.2
				c-0.1-0.1-0.3-0.1-0.4-0.2c-0.2-0.1-0.4-0.1-0.6-0.1c-0.2,0-0.4,0-0.6,0.1c-0.2,0.1-0.3,0.1-0.4,0.2c-0.1,0.1-0.2,0.2-0.2,0.3
				s-0.1,0.3-0.1,0.4c0,0.2,0,0.4,0.1,0.5c0.1,0.1,0.2,0.2,0.4,0.3c0.2,0.1,0.3,0.2,0.5,0.2c0.2,0.1,0.4,0.1,0.6,0.2
				s0.4,0.2,0.6,0.2s0.4,0.2,0.5,0.3s0.3,0.3,0.4,0.5c0.1,0.2,0.1,0.4,0.1,0.7c0,0.3-0.1,0.6-0.2,0.9s-0.3,0.5-0.5,0.7
				c-0.2,0.2-0.5,0.4-0.7,0.5c-0.3,0.1-0.6,0.2-1,0.2c-0.5,0-0.9-0.1-1.3-0.2c-0.4-0.2-0.7-0.4-1-0.7l0.3-0.5c0,0,0.1-0.1,0.1-0.1
				c0,0,0.1,0,0.1,0c0.1,0,0.1,0,0.2,0.1c0.1,0.1,0.2,0.2,0.3,0.2c0.1,0.1,0.3,0.2,0.5,0.2c0.2,0.1,0.4,0.1,0.7,0.1
				c0.2,0,0.4,0,0.6-0.1s0.3-0.2,0.5-0.3c0.1-0.1,0.2-0.2,0.3-0.4c0.1-0.2,0.1-0.3,0.1-0.5c0-0.2,0-0.4-0.1-0.5
				c-0.1-0.1-0.2-0.3-0.4-0.3c-0.2-0.1-0.3-0.2-0.5-0.2c-0.2-0.1-0.4-0.1-0.6-0.2s-0.4-0.1-0.6-0.2c-0.2-0.1-0.4-0.2-0.5-0.3
				c-0.2-0.1-0.3-0.3-0.4-0.5c-0.1-0.2-0.1-0.5-0.1-0.8c0-0.3,0-0.5,0.1-0.7c0.1-0.2,0.2-0.4,0.4-0.6c0.2-0.2,0.4-0.3,0.7-0.4
				c0.3-0.1,0.6-0.2,0.9-0.2c0.4,0,0.8,0.1,1.1,0.2c0.3,0.1,0.6,0.3,0.9,0.5L38.4,206.9z"/>
			<path class="st3" d="M28.3,225.4c0,0.1,0.1,0.2,0.1,0.3c0-0.1,0.1-0.2,0.1-0.3c0-0.1,0.1-0.2,0.1-0.3l2.4-4.4
				c0-0.1,0.1-0.1,0.1-0.1s0.1,0,0.2,0H32v7.1h-0.8v-5.2c0-0.1,0-0.1,0-0.2s0-0.2,0-0.2l-2.4,4.4c-0.1,0.1-0.2,0.2-0.3,0.2h-0.1
				c-0.1,0-0.3-0.1-0.3-0.2l-2.5-4.4c0,0.1,0,0.2,0,0.3c0,0.1,0,0.2,0,0.2v5.2h-0.8v-7.1h0.7c0.1,0,0.2,0,0.2,0c0,0,0.1,0.1,0.1,0.1
				l2.5,4.4C28.2,225.2,28.2,225.3,28.3,225.4z"/>
			<path class="st3" d="M36.9,227c0.2,0,0.4,0,0.5,0c0.2,0,0.3,0,0.5-0.1c0.1,0,0.3-0.1,0.4-0.1c0.1-0.1,0.3-0.1,0.4-0.2V225h-1.1
				c-0.1,0-0.1,0-0.2-0.1c0,0-0.1-0.1-0.1-0.1v-0.5h2.2v2.7c-0.2,0.1-0.4,0.2-0.6,0.3s-0.4,0.2-0.6,0.2c-0.2,0.1-0.5,0.1-0.7,0.1
				c-0.3,0-0.5,0-0.8,0c-0.5,0-1-0.1-1.4-0.3c-0.4-0.2-0.8-0.4-1.1-0.7c-0.3-0.3-0.6-0.7-0.7-1.1c-0.2-0.4-0.3-0.9-0.3-1.5
				c0-0.5,0.1-1,0.3-1.5s0.4-0.8,0.7-1.1c0.3-0.3,0.7-0.6,1.1-0.7c0.4-0.2,0.9-0.3,1.5-0.3c0.3,0,0.5,0,0.8,0.1
				c0.2,0,0.5,0.1,0.7,0.2c0.2,0.1,0.4,0.2,0.6,0.3s0.3,0.2,0.5,0.4l-0.3,0.4c-0.1,0.1-0.1,0.1-0.2,0.1c-0.1,0-0.1,0-0.2-0.1
				c-0.1,0-0.2-0.1-0.3-0.2c-0.1-0.1-0.2-0.1-0.4-0.2c-0.1-0.1-0.3-0.1-0.5-0.2c-0.2,0-0.4-0.1-0.7-0.1c-0.4,0-0.8,0.1-1.1,0.2
				c-0.3,0.1-0.6,0.3-0.8,0.6c-0.2,0.2-0.4,0.5-0.5,0.9s-0.2,0.7-0.2,1.2c0,0.4,0.1,0.8,0.2,1.2c0.1,0.4,0.3,0.6,0.5,0.9
				s0.5,0.4,0.8,0.6C36.2,226.9,36.5,227,36.9,227z"/>
			<path class="st3" d="M27.9,239.9v2.7h-1v-7.1H29c0.4,0,0.8,0.1,1.2,0.2c0.3,0.1,0.6,0.3,0.8,0.4s0.4,0.4,0.5,0.7
				c0.1,0.3,0.2,0.6,0.2,0.9c0,0.3-0.1,0.6-0.2,0.9c-0.1,0.3-0.3,0.5-0.5,0.7s-0.5,0.4-0.8,0.5c-0.3,0.1-0.7,0.2-1.1,0.2H27.9z
				 M27.9,239.1H29c0.3,0,0.5,0,0.7-0.1c0.2-0.1,0.4-0.2,0.5-0.3c0.1-0.1,0.2-0.3,0.3-0.5c0.1-0.2,0.1-0.4,0.1-0.6
				c0-0.5-0.1-0.8-0.4-1.1s-0.7-0.4-1.3-0.4h-1.1V239.1z"/>
			<path class="st3" d="M38,242.5h-0.7c-0.1,0-0.2,0-0.2-0.1s-0.1-0.1-0.1-0.2l-0.7-1.7h-3.2l-0.7,1.7c0,0.1-0.1,0.1-0.1,0.2
				c-0.1,0-0.1,0.1-0.2,0.1h-0.7l2.8-7.1h1L38,242.5z M33.4,239.9H36l-1.1-2.9c-0.1-0.2-0.1-0.4-0.2-0.7c0,0.1-0.1,0.3-0.1,0.4
				c0,0.1-0.1,0.2-0.1,0.3L33.4,239.9z"/>
		</g>
		<g>
			<path class="st3" d="M80.1,42.3c0.3,0,0.6,0,0.8,0.1c0.3,0.1,0.5,0.2,0.7,0.4s0.3,0.3,0.4,0.6c0.1,0.2,0.2,0.5,0.2,0.7
				c0,0.2,0,0.4-0.1,0.6c-0.1,0.2-0.1,0.3-0.2,0.5c-0.1,0.1-0.2,0.2-0.4,0.3c-0.2,0.1-0.3,0.2-0.5,0.2c0.5,0.1,0.8,0.3,1,0.6
				c0.2,0.3,0.3,0.6,0.3,1.1c0,0.3-0.1,0.6-0.2,0.9c-0.1,0.3-0.3,0.5-0.5,0.7s-0.5,0.3-0.8,0.4c-0.3,0.1-0.6,0.1-0.9,0.1
				c-0.4,0-0.7,0-1-0.1c-0.3-0.1-0.5-0.2-0.7-0.4c-0.2-0.2-0.3-0.4-0.5-0.6c-0.1-0.2-0.2-0.5-0.3-0.7l0.4-0.2c0.1,0,0.1,0,0.2,0
				c0.1,0,0.1,0,0.2,0c0.1,0,0.1,0.1,0.1,0.1c0,0,0,0,0,0c0,0,0,0,0,0c0,0.1,0.1,0.2,0.2,0.3c0.1,0.1,0.2,0.2,0.3,0.3
				s0.3,0.2,0.4,0.3c0.2,0.1,0.4,0.1,0.6,0.1c0.2,0,0.5,0,0.7-0.1c0.2-0.1,0.3-0.2,0.5-0.3c0.1-0.1,0.2-0.3,0.3-0.4
				c0.1-0.2,0.1-0.3,0.1-0.5c0-0.2,0-0.4-0.1-0.5c-0.1-0.2-0.1-0.3-0.3-0.4c-0.1-0.1-0.3-0.2-0.6-0.3c-0.2-0.1-0.5-0.1-0.9-0.1v-0.6
				c0.3,0,0.6,0,0.8-0.1c0.2-0.1,0.4-0.1,0.5-0.3s0.2-0.2,0.3-0.4c0.1-0.2,0.1-0.3,0.1-0.5c0-0.2,0-0.4-0.1-0.5s-0.2-0.3-0.3-0.4
				c-0.1-0.1-0.2-0.2-0.4-0.2c-0.2,0-0.3-0.1-0.5-0.1s-0.3,0-0.5,0.1c-0.2,0.1-0.3,0.1-0.4,0.2c-0.1,0.1-0.2,0.2-0.3,0.3
				c-0.1,0.1-0.1,0.3-0.2,0.4c0,0.1-0.1,0.2-0.1,0.2c-0.1,0-0.1,0.1-0.2,0.1c0,0,0,0-0.1,0s0,0-0.1,0l-0.5-0.1
				c0-0.3,0.1-0.6,0.3-0.9s0.3-0.5,0.5-0.6c0.2-0.2,0.4-0.3,0.7-0.4S79.8,42.3,80.1,42.3z"/>
			<path class="st3" d="M78.4,63.7h1.5v-4.8c0-0.1,0-0.3,0-0.4l-1.3,1.1c0,0-0.1,0-0.1,0.1c0,0-0.1,0-0.1,0c0,0-0.1,0-0.1,0
				s-0.1,0-0.1-0.1L78,59.1l2.1-1.8h0.7v6.4h1.4v0.7h-3.8V63.7z"/>
			<path class="st3" d="M78.4,78.5h1.5v-4.8c0-0.1,0-0.3,0-0.4l-1.3,1.1c0,0-0.1,0-0.1,0.1c0,0-0.1,0-0.1,0c0,0-0.1,0-0.1,0
				s-0.1,0-0.1-0.1L78,73.9l2.1-1.8h0.7v6.4h1.4v0.7h-3.8V78.5z"/>
			<path class="st3" d="M75.6,93.4h1.5v-4.8c0-0.1,0-0.3,0-0.4l-1.3,1.1c0,0-0.1,0-0.1,0.1c0,0-0.1,0-0.1,0c0,0-0.1,0-0.1,0
				s-0.1,0-0.1-0.1l-0.3-0.4l2.1-1.8H78v6.4h1.4v0.7h-3.8V93.4z"/>
			<path class="st3" d="M84.7,87.3c0,0.1,0,0.2-0.1,0.3c-0.1,0.1-0.2,0.1-0.4,0.1H82l-0.3,1.9c0.4-0.1,0.7-0.1,1-0.1
				c0.4,0,0.7,0.1,1,0.2c0.3,0.1,0.5,0.3,0.7,0.5s0.3,0.4,0.4,0.7c0.1,0.3,0.1,0.5,0.1,0.9c0,0.4-0.1,0.7-0.2,1s-0.3,0.6-0.5,0.8
				c-0.2,0.2-0.5,0.4-0.8,0.5c-0.3,0.1-0.6,0.2-1,0.2c-0.2,0-0.4,0-0.6-0.1c-0.2,0-0.4-0.1-0.5-0.2s-0.3-0.1-0.5-0.2
				c-0.1-0.1-0.3-0.2-0.4-0.3l0.3-0.4c0.1-0.1,0.1-0.1,0.2-0.1c0.1,0,0.1,0,0.2,0.1c0.1,0.1,0.2,0.1,0.3,0.2s0.3,0.1,0.4,0.2
				c0.2,0.1,0.4,0.1,0.6,0.1c0.2,0,0.5,0,0.7-0.1c0.2-0.1,0.4-0.2,0.5-0.3c0.1-0.1,0.2-0.3,0.3-0.5C84,92.2,84,92,84,91.7
				c0-0.2,0-0.4-0.1-0.6c-0.1-0.2-0.2-0.3-0.3-0.5c-0.1-0.1-0.3-0.2-0.5-0.3c-0.2-0.1-0.4-0.1-0.7-0.1c-0.2,0-0.4,0-0.6,0
				c-0.2,0-0.4,0.1-0.6,0.1l-0.6-0.2l0.6-3.3h3.4V87.3z"/>
			<path class="st3" d="M75.6,108.2h1.5v-4.8c0-0.1,0-0.3,0-0.4l-1.3,1.1c0,0-0.1,0-0.1,0.1c0,0-0.1,0-0.1,0c0,0-0.1,0-0.1,0
				s-0.1,0-0.1-0.1l-0.3-0.4l2.1-1.8H78v6.4h1.4v0.7h-3.8V108.2z"/>
			<path class="st3" d="M84.3,106.3h1.1v0.5c0,0.1,0,0.1,0,0.1c0,0-0.1,0.1-0.1,0.1h-0.9v1.9h-0.8V107h-3.1c-0.1,0-0.1,0-0.2-0.1
				s-0.1-0.1-0.1-0.1l-0.1-0.5l3.5-4.6h0.8V106.3z M83.6,103.4c0-0.1,0-0.2,0-0.3c0-0.1,0-0.2,0-0.3l-2.6,3.5h2.5V103.4z"/>
			<path class="st3" d="M80.2,119.4c0.3,0,0.6,0,0.8,0.1c0.3,0.1,0.5,0.2,0.7,0.4s0.3,0.4,0.5,0.7c0.1,0.3,0.2,0.6,0.2,0.9
				c0,0.3-0.1,0.6-0.2,0.9c-0.1,0.3-0.3,0.5-0.5,0.7s-0.5,0.4-0.8,0.5c-0.3,0.1-0.6,0.2-1,0.2c-0.4,0-0.7-0.1-1-0.2
				c-0.3-0.1-0.5-0.3-0.7-0.5c-0.2-0.2-0.4-0.5-0.5-0.8c-0.1-0.3-0.2-0.6-0.2-1c0-0.3,0.1-0.6,0.2-1c0.1-0.3,0.4-0.7,0.7-1.1
				l1.8-2.4c0-0.1,0.1-0.1,0.2-0.2c0.1,0,0.2-0.1,0.3-0.1h0.8l-2.5,3.1c0.2-0.1,0.4-0.2,0.6-0.3S80,119.4,80.2,119.4z M78.4,121.6
				c0,0.2,0,0.4,0.1,0.6c0.1,0.2,0.2,0.4,0.3,0.5c0.1,0.1,0.3,0.2,0.5,0.3s0.4,0.1,0.6,0.1c0.2,0,0.5,0,0.6-0.1
				c0.2-0.1,0.4-0.2,0.5-0.3c0.1-0.1,0.2-0.3,0.3-0.5c0.1-0.2,0.1-0.4,0.1-0.6c0-0.2,0-0.4-0.1-0.6s-0.2-0.3-0.3-0.5
				c-0.1-0.1-0.3-0.2-0.5-0.3c-0.2-0.1-0.4-0.1-0.6-0.1c-0.2,0-0.5,0-0.6,0.1c-0.2,0.1-0.4,0.2-0.5,0.3c-0.1,0.1-0.2,0.3-0.3,0.5
				C78.4,121.2,78.4,121.4,78.4,121.6z"/>
			<path class="st3" d="M78.4,137.9h1.5v-4.8c0-0.1,0-0.3,0-0.4l-1.3,1.1c0,0-0.1,0-0.1,0.1c0,0-0.1,0-0.1,0c0,0-0.1,0-0.1,0
				s-0.1,0-0.1-0.1l-0.3-0.4l2.1-1.8h0.7v6.4h1.4v0.7h-3.8V137.9z"/>
			<path class="st3" d="M80,146.3c0.3,0,0.6,0,0.8,0.1s0.5,0.2,0.7,0.4c0.2,0.2,0.3,0.4,0.4,0.6s0.2,0.5,0.2,0.8
				c0,0.3,0,0.5-0.1,0.7c-0.1,0.2-0.2,0.4-0.3,0.6c-0.1,0.2-0.3,0.4-0.5,0.6c-0.2,0.2-0.4,0.4-0.6,0.6l-1.9,1.9
				c0.1,0,0.3-0.1,0.4-0.1s0.3,0,0.4,0h2.4c0.1,0,0.2,0,0.2,0.1c0.1,0.1,0.1,0.1,0.1,0.2v0.5h-4.7v-0.3c0-0.1,0-0.1,0-0.2
				c0-0.1,0.1-0.1,0.1-0.2l2.3-2.3c0.2-0.2,0.4-0.4,0.5-0.6c0.2-0.2,0.3-0.4,0.4-0.5c0.1-0.2,0.2-0.4,0.3-0.5
				c0.1-0.2,0.1-0.4,0.1-0.6s0-0.4-0.1-0.5c-0.1-0.2-0.2-0.3-0.3-0.4c-0.1-0.1-0.3-0.2-0.4-0.2c-0.2-0.1-0.3-0.1-0.5-0.1
				s-0.3,0-0.5,0.1s-0.3,0.1-0.4,0.2c-0.1,0.1-0.2,0.2-0.3,0.3c-0.1,0.1-0.1,0.3-0.2,0.4c0,0.1-0.1,0.2-0.1,0.2s-0.1,0.1-0.2,0.1
				c0,0,0,0-0.1,0c0,0,0,0-0.1,0l-0.5-0.1c0-0.3,0.1-0.6,0.3-0.9c0.1-0.2,0.3-0.5,0.5-0.6c0.2-0.2,0.4-0.3,0.7-0.4
				C79.4,146.3,79.7,146.3,80,146.3z"/>
			<path class="st3" d="M81.8,161.6c0,0.1,0,0.2-0.1,0.3c-0.1,0.1-0.2,0.1-0.4,0.1h-2.2l-0.3,1.9c0.4-0.1,0.7-0.1,1-0.1
				c0.4,0,0.7,0.1,1,0.2c0.3,0.1,0.5,0.3,0.7,0.5s0.3,0.4,0.4,0.7c0.1,0.3,0.1,0.5,0.1,0.9c0,0.4-0.1,0.7-0.2,1s-0.3,0.6-0.5,0.8
				c-0.2,0.2-0.5,0.4-0.8,0.5c-0.3,0.1-0.6,0.2-1,0.2c-0.2,0-0.4,0-0.6-0.1c-0.2,0-0.4-0.1-0.5-0.2s-0.3-0.1-0.5-0.2
				c-0.1-0.1-0.3-0.2-0.4-0.3l0.3-0.4c0.1-0.1,0.1-0.1,0.2-0.1c0.1,0,0.1,0,0.2,0.1c0.1,0.1,0.2,0.1,0.3,0.2s0.3,0.1,0.4,0.2
				c0.2,0.1,0.4,0.1,0.6,0.1c0.2,0,0.5,0,0.7-0.1c0.2-0.1,0.4-0.2,0.5-0.3c0.1-0.1,0.2-0.3,0.3-0.5c0.1-0.2,0.1-0.4,0.1-0.7
				c0-0.2,0-0.4-0.1-0.6c-0.1-0.2-0.2-0.3-0.3-0.5c-0.1-0.1-0.3-0.2-0.5-0.3c-0.2-0.1-0.4-0.1-0.7-0.1c-0.2,0-0.4,0-0.6,0
				c-0.2,0-0.4,0.1-0.6,0.1l-0.6-0.2l0.6-3.3h3.4V161.6z"/>
			<path class="st3" d="M80.2,178.8c0.3,0,0.6,0,0.8,0.1c0.3,0.1,0.5,0.2,0.7,0.4s0.3,0.4,0.5,0.7c0.1,0.3,0.2,0.6,0.2,0.9
				c0,0.3-0.1,0.6-0.2,0.9c-0.1,0.3-0.3,0.5-0.5,0.7s-0.5,0.4-0.8,0.5c-0.3,0.1-0.6,0.2-1,0.2c-0.4,0-0.7-0.1-1-0.2
				c-0.3-0.1-0.5-0.3-0.7-0.5c-0.2-0.2-0.4-0.5-0.5-0.8c-0.1-0.3-0.2-0.6-0.2-1c0-0.3,0.1-0.6,0.2-1c0.1-0.3,0.4-0.7,0.7-1.1
				l1.8-2.4c0-0.1,0.1-0.1,0.2-0.2c0.1,0,0.2-0.1,0.3-0.1h0.8l-2.5,3.1c0.2-0.1,0.4-0.2,0.6-0.3S80,178.8,80.2,178.8z M78.4,181
				c0,0.2,0,0.4,0.1,0.6c0.1,0.2,0.2,0.4,0.3,0.5c0.1,0.1,0.3,0.2,0.5,0.3s0.4,0.1,0.6,0.1c0.2,0,0.5,0,0.6-0.1
				c0.2-0.1,0.4-0.2,0.5-0.3c0.1-0.1,0.2-0.3,0.3-0.5c0.1-0.2,0.1-0.4,0.1-0.6c0-0.2,0-0.4-0.1-0.6s-0.2-0.3-0.3-0.5
				c-0.1-0.1-0.3-0.2-0.5-0.3c-0.2-0.1-0.4-0.1-0.6-0.1c-0.2,0-0.5,0-0.6,0.1c-0.2,0.1-0.4,0.2-0.5,0.3c-0.1,0.1-0.2,0.3-0.3,0.5
				C78.4,180.6,78.4,180.8,78.4,181z"/>
			<path class="st3" d="M75.6,197.3h1.5v-4.8c0-0.1,0-0.3,0-0.4l-1.3,1.1c0,0-0.1,0-0.1,0.1c0,0-0.1,0-0.1,0c0,0-0.1,0-0.1,0
				s-0.1,0-0.1-0.1l-0.3-0.4l2.1-1.8H78v6.4h1.4v0.7h-3.8V197.3z"/>
			<path class="st3" d="M84.3,195.4h1.1v0.5c0,0.1,0,0.1,0,0.1c0,0-0.1,0.1-0.1,0.1h-0.9v1.9h-0.8v-1.9h-3.1c-0.1,0-0.1,0-0.2-0.1
				s-0.1-0.1-0.1-0.1l-0.1-0.5l3.5-4.6h0.8V195.4z M83.6,192.5c0-0.1,0-0.2,0-0.3c0-0.1,0-0.2,0-0.3l-2.6,3.5h2.5V192.5z"/>
			<path class="st3" d="M80.2,208.5c0.3,0,0.6,0,0.8,0.1c0.3,0.1,0.5,0.2,0.7,0.4s0.3,0.4,0.5,0.7c0.1,0.3,0.2,0.6,0.2,0.9
				c0,0.3-0.1,0.6-0.2,0.9c-0.1,0.3-0.3,0.5-0.5,0.7s-0.5,0.4-0.8,0.5c-0.3,0.1-0.6,0.2-1,0.2c-0.4,0-0.7-0.1-1-0.2
				c-0.3-0.1-0.5-0.3-0.7-0.5c-0.2-0.2-0.4-0.5-0.5-0.8c-0.1-0.3-0.2-0.6-0.2-1c0-0.3,0.1-0.6,0.2-1c0.1-0.3,0.4-0.7,0.7-1.1
				l1.8-2.4c0-0.1,0.1-0.1,0.2-0.2c0.1,0,0.2-0.1,0.3-0.1h0.8l-2.5,3.1c0.2-0.1,0.4-0.2,0.6-0.3S80,208.5,80.2,208.5z M78.4,210.7
				c0,0.2,0,0.4,0.1,0.6c0.1,0.2,0.2,0.4,0.3,0.5c0.1,0.1,0.3,0.2,0.5,0.3s0.4,0.1,0.6,0.1c0.2,0,0.5,0,0.6-0.1
				c0.2-0.1,0.4-0.2,0.5-0.3c0.1-0.1,0.2-0.3,0.3-0.5c0.1-0.2,0.1-0.4,0.1-0.6c0-0.2,0-0.4-0.1-0.6s-0.2-0.3-0.3-0.5
				c-0.1-0.1-0.3-0.2-0.5-0.3c-0.2-0.1-0.4-0.1-0.6-0.1c-0.2,0-0.5,0-0.6,0.1c-0.2,0.1-0.4,0.2-0.5,0.3c-0.1,0.1-0.2,0.3-0.3,0.5
				C78.4,210.3,78.4,210.5,78.4,210.7z"/>
			<path class="st3" d="M77.1,220.5c0.3,0,0.6,0,0.8,0.1s0.5,0.2,0.7,0.4c0.2,0.2,0.3,0.4,0.4,0.6s0.2,0.5,0.2,0.8
				c0,0.3,0,0.5-0.1,0.7c-0.1,0.2-0.2,0.4-0.3,0.6c-0.1,0.2-0.3,0.4-0.5,0.6c-0.2,0.2-0.4,0.4-0.6,0.6l-1.9,1.9
				c0.1,0,0.3-0.1,0.4-0.1s0.3,0,0.4,0h2.4c0.1,0,0.2,0,0.2,0.1c0.1,0.1,0.1,0.1,0.1,0.2v0.5h-4.7v-0.3c0-0.1,0-0.1,0-0.2
				c0-0.1,0.1-0.1,0.1-0.2l2.3-2.3c0.2-0.2,0.4-0.4,0.5-0.6c0.2-0.2,0.3-0.4,0.4-0.5c0.1-0.2,0.2-0.4,0.3-0.5
				c0.1-0.2,0.1-0.4,0.1-0.6s0-0.4-0.1-0.5c-0.1-0.2-0.2-0.3-0.3-0.4c-0.1-0.1-0.3-0.2-0.4-0.2c-0.2-0.1-0.3-0.1-0.5-0.1
				s-0.3,0-0.5,0.1s-0.3,0.1-0.4,0.2c-0.1,0.1-0.2,0.2-0.3,0.3c-0.1,0.1-0.1,0.3-0.2,0.4c0,0.1-0.1,0.2-0.1,0.2s-0.1,0.1-0.2,0.1
				c0,0,0,0-0.1,0c0,0,0,0-0.1,0l-0.5-0.1c0-0.3,0.1-0.6,0.3-0.9c0.1-0.2,0.3-0.5,0.5-0.6c0.2-0.2,0.4-0.3,0.7-0.4
				C76.5,220.6,76.8,220.5,77.1,220.5z"/>
			<path class="st3" d="M82.9,220.5c0.3,0,0.6,0,0.8,0.1c0.3,0.1,0.5,0.2,0.7,0.4s0.3,0.3,0.4,0.6c0.1,0.2,0.2,0.5,0.2,0.7
				c0,0.2,0,0.4-0.1,0.6s-0.1,0.3-0.2,0.5c-0.1,0.1-0.2,0.2-0.4,0.3c-0.2,0.1-0.3,0.2-0.5,0.2c0.5,0.1,0.8,0.3,1,0.6
				c0.2,0.3,0.3,0.6,0.3,1.1c0,0.3-0.1,0.6-0.2,0.9c-0.1,0.3-0.3,0.5-0.5,0.7c-0.2,0.2-0.5,0.3-0.8,0.4c-0.3,0.1-0.6,0.1-0.9,0.1
				c-0.4,0-0.7,0-1-0.1c-0.3-0.1-0.5-0.2-0.7-0.4c-0.2-0.2-0.3-0.4-0.5-0.6c-0.1-0.2-0.2-0.5-0.3-0.7l0.4-0.2c0.1,0,0.1,0,0.2,0
				c0.1,0,0.1,0,0.2,0c0.1,0,0.1,0.1,0.1,0.1c0,0,0,0,0,0c0,0,0,0,0,0c0,0.1,0.1,0.2,0.2,0.3c0.1,0.1,0.2,0.2,0.3,0.3
				c0.1,0.1,0.3,0.2,0.4,0.3c0.2,0.1,0.4,0.1,0.6,0.1c0.2,0,0.5,0,0.7-0.1c0.2-0.1,0.3-0.2,0.5-0.3c0.1-0.1,0.2-0.3,0.3-0.4
				s0.1-0.3,0.1-0.5c0-0.2,0-0.4-0.1-0.5c-0.1-0.2-0.1-0.3-0.3-0.4c-0.1-0.1-0.3-0.2-0.6-0.3c-0.2-0.1-0.5-0.1-0.9-0.1v-0.6
				c0.3,0,0.6,0,0.8-0.1s0.4-0.1,0.5-0.3c0.1-0.1,0.2-0.2,0.3-0.4c0.1-0.2,0.1-0.3,0.1-0.5c0-0.2,0-0.4-0.1-0.5s-0.2-0.3-0.3-0.4
				c-0.1-0.1-0.2-0.2-0.4-0.2c-0.2,0-0.3-0.1-0.5-0.1s-0.3,0-0.5,0.1c-0.2,0.1-0.3,0.1-0.4,0.2c-0.1,0.1-0.2,0.2-0.3,0.3
				c-0.1,0.1-0.1,0.3-0.2,0.4c0,0.1-0.1,0.2-0.1,0.2s-0.1,0.1-0.2,0.1c0,0,0,0-0.1,0s0,0-0.1,0l-0.5-0.1c0-0.3,0.1-0.6,0.3-0.9
				c0.1-0.2,0.3-0.5,0.5-0.6c0.2-0.2,0.4-0.3,0.7-0.4C82.4,220.6,82.6,220.5,82.9,220.5z"/>
			<path class="st3" d="M77.1,235.4c0.3,0,0.6,0,0.8,0.1s0.5,0.2,0.7,0.4c0.2,0.2,0.3,0.4,0.4,0.6s0.2,0.5,0.2,0.8
				c0,0.3,0,0.5-0.1,0.7c-0.1,0.2-0.2,0.4-0.3,0.6c-0.1,0.2-0.3,0.4-0.5,0.6c-0.2,0.2-0.4,0.4-0.6,0.6l-1.9,1.9
				c0.1,0,0.3-0.1,0.4-0.1s0.3,0,0.4,0h2.4c0.1,0,0.2,0,0.2,0.1c0.1,0.1,0.1,0.1,0.1,0.2v0.5h-4.7v-0.3c0-0.1,0-0.1,0-0.2
				c0-0.1,0.1-0.1,0.1-0.2l2.3-2.3c0.2-0.2,0.4-0.4,0.5-0.6c0.2-0.2,0.3-0.4,0.4-0.5c0.1-0.2,0.2-0.4,0.3-0.5
				c0.1-0.2,0.1-0.4,0.1-0.6s0-0.4-0.1-0.5c-0.1-0.2-0.2-0.3-0.3-0.4c-0.1-0.1-0.3-0.2-0.4-0.2c-0.2-0.1-0.3-0.1-0.5-0.1
				s-0.3,0-0.5,0.1s-0.3,0.1-0.4,0.2c-0.1,0.1-0.2,0.2-0.3,0.3c-0.1,0.1-0.1,0.3-0.2,0.4c0,0.1-0.1,0.2-0.1,0.2s-0.1,0.1-0.2,0.1
				c0,0,0,0-0.1,0c0,0,0,0-0.1,0l-0.5-0.1c0-0.3,0.1-0.6,0.3-0.9c0.1-0.2,0.3-0.5,0.5-0.6c0.2-0.2,0.4-0.3,0.7-0.4
				C76.5,235.4,76.8,235.4,77.1,235.4z"/>
			<path class="st3" d="M82.8,235.4c0.3,0,0.6,0,0.8,0.1s0.5,0.2,0.7,0.4c0.2,0.2,0.3,0.4,0.4,0.6s0.2,0.5,0.2,0.8
				c0,0.3,0,0.5-0.1,0.7c-0.1,0.2-0.2,0.4-0.3,0.6c-0.1,0.2-0.3,0.4-0.5,0.6c-0.2,0.2-0.4,0.4-0.6,0.6l-1.9,1.9
				c0.1,0,0.3-0.1,0.4-0.1s0.3,0,0.4,0h2.4c0.1,0,0.2,0,0.2,0.1c0.1,0.1,0.1,0.1,0.1,0.2v0.5h-4.7v-0.3c0-0.1,0-0.1,0-0.2
				c0-0.1,0.1-0.1,0.1-0.2l2.3-2.3c0.2-0.2,0.4-0.4,0.5-0.6c0.2-0.2,0.3-0.4,0.4-0.5c0.1-0.2,0.2-0.4,0.3-0.5
				c0.1-0.2,0.1-0.4,0.1-0.6s0-0.4-0.1-0.5c-0.1-0.2-0.2-0.3-0.3-0.4c-0.1-0.1-0.3-0.2-0.4-0.2c-0.2-0.1-0.3-0.1-0.5-0.1
				s-0.3,0-0.5,0.1s-0.3,0.1-0.4,0.2c-0.1,0.1-0.2,0.2-0.3,0.3c-0.1,0.1-0.1,0.3-0.2,0.4c0,0.1-0.1,0.2-0.1,0.2s-0.1,0.1-0.2,0.1
				c0,0,0,0-0.1,0c0,0,0,0-0.1,0l-0.5-0.1c0-0.3,0.1-0.6,0.3-0.9c0.1-0.2,0.3-0.5,0.5-0.6c0.2-0.2,0.4-0.3,0.7-0.4
				C82.3,235.4,82.5,235.4,82.8,235.4z"/>
		</g>
		<g>
			<path class="st3" d="M134.7,42.3c0.3,0,0.6,0,0.8,0.1c0.3,0.1,0.5,0.2,0.7,0.4s0.3,0.3,0.4,0.6c0.1,0.2,0.2,0.5,0.2,0.7
				c0,0.2,0,0.4-0.1,0.6c-0.1,0.2-0.1,0.3-0.2,0.5c-0.1,0.1-0.2,0.2-0.4,0.3c-0.2,0.1-0.3,0.2-0.5,0.2c0.5,0.1,0.8,0.3,1,0.6
				c0.2,0.3,0.3,0.6,0.3,1.1c0,0.3-0.1,0.6-0.2,0.9c-0.1,0.3-0.3,0.5-0.5,0.7s-0.5,0.3-0.8,0.4c-0.3,0.1-0.6,0.1-0.9,0.1
				c-0.4,0-0.7,0-1-0.1c-0.3-0.1-0.5-0.2-0.7-0.4c-0.2-0.2-0.3-0.4-0.5-0.6c-0.1-0.2-0.2-0.5-0.3-0.7l0.4-0.2c0.1,0,0.1,0,0.2,0
				c0.1,0,0.1,0,0.2,0c0.1,0,0.1,0.1,0.1,0.1c0,0,0,0,0,0c0,0,0,0,0,0c0,0.1,0.1,0.2,0.2,0.3c0.1,0.1,0.2,0.2,0.3,0.3
				s0.3,0.2,0.4,0.3c0.2,0.1,0.4,0.1,0.6,0.1c0.2,0,0.5,0,0.7-0.1c0.2-0.1,0.3-0.2,0.5-0.3c0.1-0.1,0.2-0.3,0.3-0.4
				c0.1-0.2,0.1-0.3,0.1-0.5c0-0.2,0-0.4-0.1-0.5c-0.1-0.2-0.1-0.3-0.3-0.4c-0.1-0.1-0.3-0.2-0.6-0.3c-0.2-0.1-0.5-0.1-0.9-0.1v-0.6
				c0.3,0,0.6,0,0.8-0.1c0.2-0.1,0.4-0.1,0.5-0.3s0.2-0.2,0.3-0.4c0.1-0.2,0.1-0.3,0.1-0.5c0-0.2,0-0.4-0.1-0.5s-0.2-0.3-0.3-0.4
				c-0.1-0.1-0.2-0.2-0.4-0.2c-0.2,0-0.3-0.1-0.5-0.1s-0.3,0-0.5,0.1c-0.2,0.1-0.3,0.1-0.4,0.2c-0.1,0.1-0.2,0.2-0.3,0.3
				c-0.1,0.1-0.1,0.3-0.2,0.4c0,0.1-0.1,0.2-0.1,0.2c-0.1,0-0.1,0.1-0.2,0.1c0,0,0,0-0.1,0s0,0-0.1,0l-0.5-0.1
				c0-0.3,0.1-0.6,0.3-0.9s0.3-0.5,0.5-0.6c0.2-0.2,0.4-0.3,0.7-0.4S134.4,42.3,134.7,42.3z"/>
			<path class="st3" d="M133,63.7h1.5v-4.8c0-0.1,0-0.3,0-0.4l-1.3,1.1c0,0-0.1,0-0.1,0.1c0,0-0.1,0-0.1,0c0,0-0.1,0-0.1,0
				s-0.1,0-0.1-0.1l-0.3-0.4l2.1-1.8h0.7v6.4h1.4v0.7H133V63.7z"/>
			<path class="st3" d="M133,78.5h1.5v-4.8c0-0.1,0-0.3,0-0.4l-1.3,1.1c0,0-0.1,0-0.1,0.1c0,0-0.1,0-0.1,0c0,0-0.1,0-0.1,0
				s-0.1,0-0.1-0.1l-0.3-0.4l2.1-1.8h0.7v6.4h1.4v0.7H133V78.5z"/>
			<path class="st3" d="M133,93.4h1.5v-4.8c0-0.1,0-0.3,0-0.4l-1.3,1.1c0,0-0.1,0-0.1,0.1c0,0-0.1,0-0.1,0c0,0-0.1,0-0.1,0
				s-0.1,0-0.1-0.1l-0.3-0.4l2.1-1.8h0.7v6.4h1.4v0.7H133V93.4z"/>
			<path class="st3" d="M136.1,106.3h1.1v0.5c0,0.1,0,0.1,0,0.1c0,0-0.1,0.1-0.1,0.1h-0.9v1.9h-0.8V107h-3.1c-0.1,0-0.1,0-0.2-0.1
				s-0.1-0.1-0.1-0.1l-0.1-0.5l3.5-4.6h0.8V106.3z M135.3,103.4c0-0.1,0-0.2,0-0.3c0-0.1,0-0.2,0-0.3l-2.6,3.5h2.5V103.4z"/>
			<path class="st3" d="M133,123.1h1.5v-4.8c0-0.1,0-0.3,0-0.4l-1.3,1.1c0,0-0.1,0-0.1,0.1c0,0-0.1,0-0.1,0c0,0-0.1,0-0.1,0
				s-0.1,0-0.1-0.1l-0.3-0.4l2.1-1.8h0.7v6.4h1.4v0.7H133V123.1z"/>
			<path class="st3" d="M129.8,135.3h2.4v0.7h-2.4V135.3z"/>
			<path class="st3" d="M133.2,135.3h2.4v0.7h-2.4V135.3z"/>
			<path class="st3" d="M136.7,135.3h2.4v0.7h-2.4V135.3z"/>
			<path class="st3" d="M134.6,146.3c0.3,0,0.6,0,0.8,0.1s0.5,0.2,0.7,0.4c0.2,0.2,0.3,0.4,0.4,0.6s0.2,0.5,0.2,0.8
				c0,0.3,0,0.5-0.1,0.7c-0.1,0.2-0.2,0.4-0.3,0.6c-0.1,0.2-0.3,0.4-0.5,0.6c-0.2,0.2-0.4,0.4-0.6,0.6l-1.9,1.9
				c0.1,0,0.3-0.1,0.4-0.1s0.3,0,0.4,0h2.4c0.1,0,0.2,0,0.2,0.1c0.1,0.1,0.1,0.1,0.1,0.2v0.5h-4.7v-0.3c0-0.1,0-0.1,0-0.2
				c0-0.1,0.1-0.1,0.1-0.2l2.3-2.3c0.2-0.2,0.4-0.4,0.5-0.6c0.2-0.2,0.3-0.4,0.4-0.5c0.1-0.2,0.2-0.4,0.3-0.5
				c0.1-0.2,0.1-0.4,0.1-0.6s0-0.4-0.1-0.5c-0.1-0.2-0.2-0.3-0.3-0.4c-0.1-0.1-0.3-0.2-0.4-0.2c-0.2-0.1-0.3-0.1-0.5-0.1
				s-0.3,0-0.5,0.1s-0.3,0.1-0.4,0.2c-0.1,0.1-0.2,0.2-0.3,0.3c-0.1,0.1-0.1,0.3-0.2,0.4c0,0.1-0.1,0.2-0.1,0.2s-0.1,0.1-0.2,0.1
				c0,0,0,0-0.1,0c0,0,0,0-0.1,0l-0.5-0.1c0-0.3,0.1-0.6,0.3-0.9c0.1-0.2,0.3-0.5,0.5-0.6c0.2-0.2,0.4-0.3,0.7-0.4
				C134,146.3,134.3,146.3,134.6,146.3z"/>
			<path class="st3" d="M129.8,165h2.4v0.7h-2.4V165z"/>
			<path class="st3" d="M133.2,165h2.4v0.7h-2.4V165z"/>
			<path class="st3" d="M136.7,165h2.4v0.7h-2.4V165z"/>
			<path class="st3" d="M133,182.5h1.5v-4.8c0-0.1,0-0.3,0-0.4l-1.3,1.1c0,0-0.1,0-0.1,0.1c0,0-0.1,0-0.1,0c0,0-0.1,0-0.1,0
				s-0.1,0-0.1-0.1l-0.3-0.4l2.1-1.8h0.7v6.4h1.4v0.7H133V182.5z"/>
			<path class="st3" d="M133,197.3h1.5v-4.8c0-0.1,0-0.3,0-0.4l-1.3,1.1c0,0-0.1,0-0.1,0.1c0,0-0.1,0-0.1,0c0,0-0.1,0-0.1,0
				s-0.1,0-0.1-0.1l-0.3-0.4l2.1-1.8h0.7v6.4h1.4v0.7H133V197.3z"/>
			<path class="st3" d="M134.7,205.7c0.3,0,0.6,0,0.8,0.1c0.3,0.1,0.5,0.2,0.7,0.4s0.3,0.3,0.4,0.6c0.1,0.2,0.2,0.5,0.2,0.7
				c0,0.2,0,0.4-0.1,0.6s-0.1,0.3-0.2,0.5c-0.1,0.1-0.2,0.2-0.4,0.3c-0.2,0.1-0.3,0.2-0.5,0.2c0.5,0.1,0.8,0.3,1,0.6
				c0.2,0.3,0.3,0.6,0.3,1.1c0,0.3-0.1,0.6-0.2,0.9c-0.1,0.3-0.3,0.5-0.5,0.7c-0.2,0.2-0.5,0.3-0.8,0.4c-0.3,0.1-0.6,0.1-0.9,0.1
				c-0.4,0-0.7,0-1-0.1c-0.3-0.1-0.5-0.2-0.7-0.4c-0.2-0.2-0.3-0.4-0.5-0.6c-0.1-0.2-0.2-0.5-0.3-0.7l0.4-0.2c0.1,0,0.1,0,0.2,0
				c0.1,0,0.1,0,0.2,0c0.1,0,0.1,0.1,0.1,0.1c0,0,0,0,0,0c0,0,0,0,0,0c0,0.1,0.1,0.2,0.2,0.3c0.1,0.1,0.2,0.2,0.3,0.3
				c0.1,0.1,0.3,0.2,0.4,0.3c0.2,0.1,0.4,0.1,0.6,0.1c0.2,0,0.5,0,0.7-0.1c0.2-0.1,0.3-0.2,0.5-0.3c0.1-0.1,0.2-0.3,0.3-0.4
				s0.1-0.3,0.1-0.5c0-0.2,0-0.4-0.1-0.5c-0.1-0.2-0.1-0.3-0.3-0.4c-0.1-0.1-0.3-0.2-0.6-0.3c-0.2-0.1-0.5-0.1-0.9-0.1v-0.6
				c0.3,0,0.6,0,0.8-0.1s0.4-0.1,0.5-0.3c0.1-0.1,0.2-0.2,0.3-0.4c0.1-0.2,0.1-0.3,0.1-0.5c0-0.2,0-0.4-0.1-0.5s-0.2-0.3-0.3-0.4
				c-0.1-0.1-0.2-0.2-0.4-0.2c-0.2,0-0.3-0.1-0.5-0.1s-0.3,0-0.5,0.1c-0.2,0.1-0.3,0.1-0.4,0.2c-0.1,0.1-0.2,0.2-0.3,0.3
				c-0.1,0.1-0.1,0.3-0.2,0.4c0,0.1-0.1,0.2-0.1,0.2s-0.1,0.1-0.2,0.1c0,0,0,0-0.1,0s0,0-0.1,0l-0.5-0.1c0-0.3,0.1-0.6,0.3-0.9
				c0.1-0.2,0.3-0.5,0.5-0.6c0.2-0.2,0.4-0.3,0.7-0.4C134.1,205.7,134.4,205.7,134.7,205.7z"/>
			<path class="st3" d="M129.8,224.3h2.4v0.7h-2.4V224.3z"/>
			<path class="st3" d="M133.2,224.3h2.4v0.7h-2.4V224.3z"/>
			<path class="st3" d="M136.7,224.3h2.4v0.7h-2.4V224.3z"/>
			<path class="st3" d="M130.1,241.9h1.5V237c0-0.1,0-0.3,0-0.4l-1.3,1.1c0,0-0.1,0-0.1,0.1c0,0-0.1,0-0.1,0c0,0-0.1,0-0.1,0
				s-0.1,0-0.1-0.1l-0.3-0.4l2.1-1.8h0.7v6.4h1.4v0.7h-3.8V241.9z"/>
			<path class="st3" d="M139.3,235.8c0,0.1,0,0.2-0.1,0.3c-0.1,0.1-0.2,0.1-0.4,0.1h-2.2l-0.3,1.9c0.4-0.1,0.7-0.1,1-0.1
				c0.4,0,0.7,0.1,1,0.2c0.3,0.1,0.5,0.3,0.7,0.5s0.3,0.4,0.4,0.7c0.1,0.3,0.1,0.5,0.1,0.9c0,0.4-0.1,0.7-0.2,1s-0.3,0.6-0.5,0.8
				c-0.2,0.2-0.5,0.4-0.8,0.5c-0.3,0.1-0.6,0.2-1,0.2c-0.2,0-0.4,0-0.6-0.1c-0.2,0-0.4-0.1-0.5-0.2s-0.3-0.1-0.5-0.2
				c-0.1-0.1-0.3-0.2-0.4-0.3l0.3-0.4c0.1-0.1,0.1-0.1,0.2-0.1c0.1,0,0.1,0,0.2,0.1c0.1,0.1,0.2,0.1,0.3,0.2s0.3,0.1,0.4,0.2
				c0.2,0.1,0.4,0.1,0.6,0.1c0.2,0,0.5,0,0.7-0.1c0.2-0.1,0.4-0.2,0.5-0.3c0.1-0.1,0.2-0.3,0.3-0.5c0.1-0.2,0.1-0.4,0.1-0.7
				c0-0.2,0-0.4-0.1-0.6c-0.1-0.2-0.2-0.3-0.3-0.5c-0.1-0.1-0.3-0.2-0.5-0.3c-0.2-0.1-0.4-0.1-0.7-0.1c-0.2,0-0.4,0-0.6,0
				c-0.2,0-0.4,0.1-0.6,0.1l-0.6-0.2l0.6-3.3h3.4V235.8z"/>
		</g>
		<g>
			<path class="st3" d="M210.5,42.3c0.3,0,0.6,0,0.8,0.1s0.5,0.2,0.7,0.4c0.2,0.2,0.3,0.4,0.4,0.6s0.2,0.5,0.2,0.8
				c0,0.3,0,0.5-0.1,0.7c-0.1,0.2-0.2,0.4-0.3,0.6c-0.1,0.2-0.3,0.4-0.5,0.6c-0.2,0.2-0.4,0.4-0.6,0.6l-1.9,1.9
				c0.1,0,0.3-0.1,0.4-0.1s0.3,0,0.4,0h2.4c0.1,0,0.2,0,0.2,0.1s0.1,0.1,0.1,0.2v0.5h-4.7v-0.3c0-0.1,0-0.1,0-0.2
				c0-0.1,0.1-0.1,0.1-0.2l2.3-2.3c0.2-0.2,0.4-0.4,0.5-0.6c0.2-0.2,0.3-0.4,0.4-0.5c0.1-0.2,0.2-0.4,0.3-0.5
				c0.1-0.2,0.1-0.4,0.1-0.6c0-0.2,0-0.4-0.1-0.5c-0.1-0.2-0.2-0.3-0.3-0.4c-0.1-0.1-0.3-0.2-0.4-0.2c-0.2-0.1-0.3-0.1-0.5-0.1
				s-0.3,0-0.5,0.1c-0.2,0.1-0.3,0.1-0.4,0.2c-0.1,0.1-0.2,0.2-0.3,0.3c-0.1,0.1-0.1,0.3-0.2,0.4c0,0.1-0.1,0.2-0.1,0.2
				s-0.1,0.1-0.2,0.1c0,0,0,0-0.1,0c0,0,0,0-0.1,0l-0.5-0.1c0-0.3,0.1-0.6,0.3-0.9c0.1-0.2,0.3-0.5,0.5-0.6c0.2-0.2,0.4-0.3,0.7-0.4
				C209.9,42.4,210.2,42.3,210.5,42.3z"/>
			<path class="st3" d="M205.8,61h2.4v0.7h-2.4V61z"/>
			<path class="st3" d="M209.2,61h2.4v0.7h-2.4V61z"/>
			<path class="st3" d="M212.6,61h2.4v0.7h-2.4V61z"/>
			<path class="st3" d="M209,78.5h1.5v-4.8c0-0.1,0-0.3,0-0.4l-1.3,1.1c0,0-0.1,0-0.1,0.1c0,0-0.1,0-0.1,0c0,0-0.1,0-0.1,0
				s-0.1,0-0.1-0.1l-0.3-0.4l2.1-1.8h0.7v6.4h1.4v0.7H209V78.5z"/>
			<path class="st3" d="M209,93.4h1.5v-4.8c0-0.1,0-0.3,0-0.4l-1.3,1.1c0,0-0.1,0-0.1,0.1c0,0-0.1,0-0.1,0c0,0-0.1,0-0.1,0
				s-0.1,0-0.1-0.1l-0.3-0.4l2.1-1.8h0.7v6.4h1.4v0.7H209V93.4z"/>
			<path class="st3" d="M205.8,105.6h2.4v0.7h-2.4V105.6z"/>
			<path class="st3" d="M209.2,105.6h2.4v0.7h-2.4V105.6z"/>
			<path class="st3" d="M212.6,105.6h2.4v0.7h-2.4V105.6z"/>
			<path class="st3" d="M205.8,120.4h2.4v0.7h-2.4V120.4z"/>
			<path class="st3" d="M209.2,120.4h2.4v0.7h-2.4V120.4z"/>
			<path class="st3" d="M212.6,120.4h2.4v0.7h-2.4V120.4z"/>
			<path class="st3" d="M205.8,135.3h2.4v0.7h-2.4V135.3z"/>
			<path class="st3" d="M209.2,135.3h2.4v0.7h-2.4V135.3z"/>
			<path class="st3" d="M212.6,135.3h2.4v0.7h-2.4V135.3z"/>
			<path class="st3" d="M205.8,150.1h2.4v0.7h-2.4V150.1z"/>
			<path class="st3" d="M209.2,150.1h2.4v0.7h-2.4V150.1z"/>
			<path class="st3" d="M212.6,150.1h2.4v0.7h-2.4V150.1z"/>
			<path class="st3" d="M205.8,165h2.4v0.7h-2.4V165z"/>
			<path class="st3" d="M209.2,165h2.4v0.7h-2.4V165z"/>
			<path class="st3" d="M212.6,165h2.4v0.7h-2.4V165z"/>
			<path class="st3" d="M205.8,179.8h2.4v0.7h-2.4V179.8z"/>
			<path class="st3" d="M209.2,179.8h2.4v0.7h-2.4V179.8z"/>
			<path class="st3" d="M212.6,179.8h2.4v0.7h-2.4V179.8z"/>
			<path class="st3" d="M209,197.3h1.5v-4.8c0-0.1,0-0.3,0-0.4l-1.3,1.1c0,0-0.1,0-0.1,0.1c0,0-0.1,0-0.1,0c0,0-0.1,0-0.1,0
				s-0.1,0-0.1-0.1l-0.3-0.4l2.1-1.8h0.7v6.4h1.4v0.7H209V197.3z"/>
			<path class="st3" d="M212,210.3h1.1v0.5c0,0.1,0,0.1,0,0.1c0,0-0.1,0.1-0.1,0.1H212v1.9h-0.8V211h-3.1c-0.1,0-0.1,0-0.2-0.1
				s-0.1-0.1-0.1-0.1l-0.1-0.5l3.5-4.6h0.8V210.3z M211.3,207.4c0-0.1,0-0.2,0-0.3c0-0.1,0-0.2,0-0.3l-2.6,3.5h2.5V207.4z"/>
			<path class="st3" d="M205.8,224.3h2.4v0.7h-2.4V224.3z"/>
			<path class="st3" d="M209.2,224.3h2.4v0.7h-2.4V224.3z"/>
			<path class="st3" d="M212.6,224.3h2.4v0.7h-2.4V224.3z"/>
			<path class="st3" d="M205.8,239.2h2.4v0.7h-2.4V239.2z"/>
			<path class="st3" d="M209.2,239.2h2.4v0.7h-2.4V239.2z"/>
			<path class="st3" d="M212.6,239.2h2.4v0.7h-2.4V239.2z"/>
		</g>
		<g>
			<path class="st3" d="M295,46.2h2.4v0.7H295V46.2z"/>
			<path class="st3" d="M298.5,46.2h2.4v0.7h-2.4V46.2z"/>
			<path class="st3" d="M301.9,46.2h2.4v0.7h-2.4V46.2z"/>
			<path class="st3" d="M295,61h2.4v0.7H295V61z"/>
			<path class="st3" d="M298.5,61h2.4v0.7h-2.4V61z"/>
			<path class="st3" d="M301.9,61h2.4v0.7h-2.4V61z"/>
			<path class="st3" d="M295,75.9h2.4v0.7H295V75.9z"/>
			<path class="st3" d="M298.5,75.9h2.4v0.7h-2.4V75.9z"/>
			<path class="st3" d="M301.9,75.9h2.4v0.7h-2.4V75.9z"/>
			<path class="st3" d="M299.8,86.9c0.3,0,0.6,0,0.8,0.1s0.5,0.2,0.7,0.4c0.2,0.2,0.3,0.4,0.4,0.6c0.1,0.2,0.2,0.5,0.2,0.8
				c0,0.3,0,0.5-0.1,0.7c-0.1,0.2-0.2,0.4-0.3,0.6c-0.1,0.2-0.3,0.4-0.5,0.6s-0.4,0.4-0.6,0.6l-1.9,1.9c0.1,0,0.3-0.1,0.4-0.1
				c0.1,0,0.3,0,0.4,0h2.4c0.1,0,0.2,0,0.2,0.1c0.1,0.1,0.1,0.1,0.1,0.2v0.5h-4.7v-0.3c0-0.1,0-0.1,0-0.2c0-0.1,0.1-0.1,0.1-0.2
				l2.3-2.3c0.2-0.2,0.4-0.4,0.5-0.6c0.2-0.2,0.3-0.4,0.4-0.5c0.1-0.2,0.2-0.4,0.3-0.5c0.1-0.2,0.1-0.4,0.1-0.6s0-0.4-0.1-0.5
				c-0.1-0.2-0.2-0.3-0.3-0.4s-0.2-0.2-0.4-0.2c-0.2-0.1-0.3-0.1-0.5-0.1s-0.3,0-0.5,0.1s-0.3,0.1-0.4,0.2c-0.1,0.1-0.2,0.2-0.3,0.3
				c-0.1,0.1-0.1,0.3-0.2,0.4c0,0.1-0.1,0.2-0.1,0.2s-0.1,0.1-0.2,0.1c0,0,0,0-0.1,0c0,0,0,0-0.1,0l-0.5-0.1c0-0.3,0.1-0.6,0.3-0.9
				c0.1-0.2,0.3-0.5,0.5-0.6c0.2-0.2,0.4-0.3,0.7-0.4C299.2,86.9,299.5,86.9,299.8,86.9z"/>
			<path class="st3" d="M299.8,101.7c0.3,0,0.6,0,0.8,0.1s0.5,0.2,0.7,0.4c0.2,0.2,0.3,0.4,0.4,0.6c0.1,0.2,0.2,0.5,0.2,0.8
				c0,0.3,0,0.5-0.1,0.7c-0.1,0.2-0.2,0.4-0.3,0.6c-0.1,0.2-0.3,0.4-0.5,0.6s-0.4,0.4-0.6,0.6l-1.9,1.9c0.1,0,0.3-0.1,0.4-0.1
				c0.1,0,0.3,0,0.4,0h2.4c0.1,0,0.2,0,0.2,0.1c0.1,0.1,0.1,0.1,0.1,0.2v0.5h-4.7v-0.3c0-0.1,0-0.1,0-0.2c0-0.1,0.1-0.1,0.1-0.2
				l2.3-2.3c0.2-0.2,0.4-0.4,0.5-0.6c0.2-0.2,0.3-0.4,0.4-0.5c0.1-0.2,0.2-0.4,0.3-0.5c0.1-0.2,0.1-0.4,0.1-0.6s0-0.4-0.1-0.5
				c-0.1-0.2-0.2-0.3-0.3-0.4s-0.2-0.2-0.4-0.2c-0.2-0.1-0.3-0.1-0.5-0.1s-0.3,0-0.5,0.1s-0.3,0.1-0.4,0.2c-0.1,0.1-0.2,0.2-0.3,0.3
				c-0.1,0.1-0.1,0.3-0.2,0.4c0,0.1-0.1,0.2-0.1,0.2s-0.1,0.1-0.2,0.1c0,0,0,0-0.1,0c0,0,0,0-0.1,0l-0.5-0.1c0-0.3,0.1-0.6,0.3-0.9
				c0.1-0.2,0.3-0.5,0.5-0.6c0.2-0.2,0.4-0.3,0.7-0.4C299.2,101.8,299.5,101.7,299.8,101.7z"/>
			<path class="st3" d="M299.9,116.6c0.3,0,0.6,0,0.8,0.1c0.3,0.1,0.5,0.2,0.7,0.4s0.3,0.3,0.4,0.6s0.2,0.5,0.2,0.7
				c0,0.2,0,0.4-0.1,0.6c-0.1,0.2-0.1,0.3-0.2,0.5c-0.1,0.1-0.2,0.2-0.4,0.3c-0.2,0.1-0.3,0.2-0.5,0.2c0.5,0.1,0.8,0.3,1,0.6
				c0.2,0.3,0.3,0.6,0.3,1.1c0,0.3-0.1,0.6-0.2,0.9c-0.1,0.3-0.3,0.5-0.5,0.7c-0.2,0.2-0.5,0.3-0.8,0.4c-0.3,0.1-0.6,0.1-0.9,0.1
				c-0.4,0-0.7,0-1-0.1c-0.3-0.1-0.5-0.2-0.7-0.4c-0.2-0.2-0.3-0.4-0.5-0.6c-0.1-0.2-0.2-0.5-0.3-0.7l0.4-0.2c0.1,0,0.1,0,0.2,0
				c0.1,0,0.1,0,0.2,0c0.1,0,0.1,0.1,0.1,0.1c0,0,0,0,0,0c0,0,0,0,0,0c0,0.1,0.1,0.2,0.2,0.3c0.1,0.1,0.2,0.2,0.3,0.3
				c0.1,0.1,0.3,0.2,0.4,0.3c0.2,0.1,0.4,0.1,0.6,0.1s0.5,0,0.7-0.1c0.2-0.1,0.3-0.2,0.5-0.3c0.1-0.1,0.2-0.3,0.3-0.4
				s0.1-0.3,0.1-0.5c0-0.2,0-0.4-0.1-0.5s-0.1-0.3-0.3-0.4c-0.1-0.1-0.3-0.2-0.6-0.3c-0.2-0.1-0.5-0.1-0.9-0.1v-0.6
				c0.3,0,0.6,0,0.8-0.1s0.4-0.1,0.5-0.3c0.1-0.1,0.2-0.2,0.3-0.4c0.1-0.2,0.1-0.3,0.1-0.5c0-0.2,0-0.4-0.1-0.5s-0.2-0.3-0.3-0.4
				c-0.1-0.1-0.2-0.2-0.4-0.2c-0.2,0-0.3-0.1-0.5-0.1s-0.3,0-0.5,0.1c-0.2,0.1-0.3,0.1-0.4,0.2c-0.1,0.1-0.2,0.2-0.3,0.3
				c-0.1,0.1-0.1,0.3-0.2,0.4c0,0.1-0.1,0.2-0.1,0.2s-0.1,0.1-0.2,0.1c0,0,0,0-0.1,0c0,0,0,0-0.1,0l-0.5-0.1c0-0.3,0.1-0.6,0.3-0.9
				c0.1-0.2,0.3-0.5,0.5-0.6c0.2-0.2,0.4-0.3,0.7-0.4C299.3,116.6,299.6,116.6,299.9,116.6z"/>
			<path class="st3" d="M298.2,137.9h1.5v-4.8c0-0.1,0-0.3,0-0.4l-1.3,1.1c0,0-0.1,0-0.1,0.1c0,0-0.1,0-0.1,0c0,0-0.1,0-0.1,0
				c0,0-0.1,0-0.1-0.1l-0.3-0.4l2.1-1.8h0.7v6.4h1.4v0.7h-3.8V137.9z"/>
			<path class="st3" d="M299.8,146.3c0.3,0,0.6,0,0.8,0.1s0.5,0.2,0.7,0.4c0.2,0.2,0.3,0.4,0.4,0.6c0.1,0.2,0.2,0.5,0.2,0.8
				c0,0.3,0,0.5-0.1,0.7c-0.1,0.2-0.2,0.4-0.3,0.6c-0.1,0.2-0.3,0.4-0.5,0.6s-0.4,0.4-0.6,0.6l-1.9,1.9c0.1,0,0.3-0.1,0.4-0.1
				c0.1,0,0.3,0,0.4,0h2.4c0.1,0,0.2,0,0.2,0.1c0.1,0.1,0.1,0.1,0.1,0.2v0.5h-4.7v-0.3c0-0.1,0-0.1,0-0.2c0-0.1,0.1-0.1,0.1-0.2
				l2.3-2.3c0.2-0.2,0.4-0.4,0.5-0.6c0.2-0.2,0.3-0.4,0.4-0.5c0.1-0.2,0.2-0.4,0.3-0.5c0.1-0.2,0.1-0.4,0.1-0.6s0-0.4-0.1-0.5
				c-0.1-0.2-0.2-0.3-0.3-0.4s-0.2-0.2-0.4-0.2c-0.2-0.1-0.3-0.1-0.5-0.1s-0.3,0-0.5,0.1s-0.3,0.1-0.4,0.2c-0.1,0.1-0.2,0.2-0.3,0.3
				c-0.1,0.1-0.1,0.3-0.2,0.4c0,0.1-0.1,0.2-0.1,0.2s-0.1,0.1-0.2,0.1c0,0,0,0-0.1,0c0,0,0,0-0.1,0l-0.5-0.1c0-0.3,0.1-0.6,0.3-0.9
				c0.1-0.2,0.3-0.5,0.5-0.6c0.2-0.2,0.4-0.3,0.7-0.4C299.2,146.3,299.5,146.3,299.8,146.3z"/>
			<path class="st3" d="M295,165h2.4v0.7H295V165z"/>
			<path class="st3" d="M298.5,165h2.4v0.7h-2.4V165z"/>
			<path class="st3" d="M301.9,165h2.4v0.7h-2.4V165z"/>
			<path class="st3" d="M299.8,176c0.3,0,0.6,0,0.8,0.1s0.5,0.2,0.7,0.4c0.2,0.2,0.3,0.4,0.4,0.6c0.1,0.2,0.2,0.5,0.2,0.8
				c0,0.3,0,0.5-0.1,0.7c-0.1,0.2-0.2,0.4-0.3,0.6c-0.1,0.2-0.3,0.4-0.5,0.6s-0.4,0.4-0.6,0.6l-1.9,1.9c0.1,0,0.3-0.1,0.4-0.1
				c0.1,0,0.3,0,0.4,0h2.4c0.1,0,0.2,0,0.2,0.1c0.1,0.1,0.1,0.1,0.1,0.2v0.5h-4.7v-0.3c0-0.1,0-0.1,0-0.2c0-0.1,0.1-0.1,0.1-0.2
				l2.3-2.3c0.2-0.2,0.4-0.4,0.5-0.6c0.2-0.2,0.3-0.4,0.4-0.5c0.1-0.2,0.2-0.4,0.3-0.5c0.1-0.2,0.1-0.4,0.1-0.6s0-0.4-0.1-0.5
				c-0.1-0.2-0.2-0.3-0.3-0.4s-0.2-0.2-0.4-0.2c-0.2-0.1-0.3-0.1-0.5-0.1s-0.3,0-0.5,0.1s-0.3,0.1-0.4,0.2c-0.1,0.1-0.2,0.2-0.3,0.3
				c-0.1,0.1-0.1,0.3-0.2,0.4c0,0.1-0.1,0.2-0.1,0.2s-0.1,0.1-0.2,0.1c0,0,0,0-0.1,0c0,0,0,0-0.1,0l-0.5-0.1c0-0.3,0.1-0.6,0.3-0.9
				c0.1-0.2,0.3-0.5,0.5-0.6c0.2-0.2,0.4-0.3,0.7-0.4C299.2,176,299.5,176,299.8,176z"/>
			<path class="st3" d="M298.2,197.3h1.5v-4.8c0-0.1,0-0.3,0-0.4l-1.3,1.1c0,0-0.1,0-0.1,0.1c0,0-0.1,0-0.1,0c0,0-0.1,0-0.1,0
				c0,0-0.1,0-0.1-0.1l-0.3-0.4l2.1-1.8h0.7v6.4h1.4v0.7h-3.8V197.3z"/>
			<path class="st3" d="M295,209.5h2.4v0.7H295V209.5z"/>
			<path class="st3" d="M298.5,209.5h2.4v0.7h-2.4V209.5z"/>
			<path class="st3" d="M301.9,209.5h2.4v0.7h-2.4V209.5z"/>
			<path class="st3" d="M299.8,220.5c0.3,0,0.6,0,0.8,0.1s0.5,0.2,0.7,0.4c0.2,0.2,0.3,0.4,0.4,0.6c0.1,0.2,0.2,0.5,0.2,0.8
				c0,0.3,0,0.5-0.1,0.7c-0.1,0.2-0.2,0.4-0.3,0.6c-0.1,0.2-0.3,0.4-0.5,0.6s-0.4,0.4-0.6,0.6l-1.9,1.9c0.1,0,0.3-0.1,0.4-0.1
				c0.1,0,0.3,0,0.4,0h2.4c0.1,0,0.2,0,0.2,0.1c0.1,0.1,0.1,0.1,0.1,0.2v0.5h-4.7v-0.3c0-0.1,0-0.1,0-0.2c0-0.1,0.1-0.1,0.1-0.2
				l2.3-2.3c0.2-0.2,0.4-0.4,0.5-0.6c0.2-0.2,0.3-0.4,0.4-0.5c0.1-0.2,0.2-0.4,0.3-0.5c0.1-0.2,0.1-0.4,0.1-0.6s0-0.4-0.1-0.5
				c-0.1-0.2-0.2-0.3-0.3-0.4s-0.2-0.2-0.4-0.2c-0.2-0.1-0.3-0.1-0.5-0.1s-0.3,0-0.5,0.1s-0.3,0.1-0.4,0.2c-0.1,0.1-0.2,0.2-0.3,0.3
				c-0.1,0.1-0.1,0.3-0.2,0.4c0,0.1-0.1,0.2-0.1,0.2s-0.1,0.1-0.2,0.1c0,0,0,0-0.1,0c0,0,0,0-0.1,0l-0.5-0.1c0-0.3,0.1-0.6,0.3-0.9
				c0.1-0.2,0.3-0.5,0.5-0.6c0.2-0.2,0.4-0.3,0.7-0.4C299.2,220.6,299.5,220.5,299.8,220.5z"/>
			<path class="st3" d="M299.8,235.4c0.3,0,0.6,0,0.8,0.1s0.5,0.2,0.7,0.4c0.2,0.2,0.3,0.4,0.4,0.6c0.1,0.2,0.2,0.5,0.2,0.8
				c0,0.3,0,0.5-0.1,0.7c-0.1,0.2-0.2,0.4-0.3,0.6c-0.1,0.2-0.3,0.4-0.5,0.6s-0.4,0.4-0.6,0.6l-1.9,1.9c0.1,0,0.3-0.1,0.4-0.1
				c0.1,0,0.3,0,0.4,0h2.4c0.1,0,0.2,0,0.2,0.1c0.1,0.1,0.1,0.1,0.1,0.2v0.5h-4.7v-0.3c0-0.1,0-0.1,0-0.2c0-0.1,0.1-0.1,0.1-0.2
				l2.3-2.3c0.2-0.2,0.4-0.4,0.5-0.6c0.2-0.2,0.3-0.4,0.4-0.5c0.1-0.2,0.2-0.4,0.3-0.5c0.1-0.2,0.1-0.4,0.1-0.6s0-0.4-0.1-0.5
				c-0.1-0.2-0.2-0.3-0.3-0.4s-0.2-0.2-0.4-0.2c-0.2-0.1-0.3-0.1-0.5-0.1s-0.3,0-0.5,0.1s-0.3,0.1-0.4,0.2c-0.1,0.1-0.2,0.2-0.3,0.3
				c-0.1,0.1-0.1,0.3-0.2,0.4c0,0.1-0.1,0.2-0.1,0.2s-0.1,0.1-0.2,0.1c0,0,0,0-0.1,0c0,0,0,0-0.1,0l-0.5-0.1c0-0.3,0.1-0.6,0.3-0.9
				c0.1-0.2,0.3-0.5,0.5-0.6c0.2-0.2,0.4-0.3,0.7-0.4C299.2,235.4,299.5,235.4,299.8,235.4z"/>
		</g>
		<g>
			<path class="st2" d="M61.4,28.5h-1c-0.1,0-0.2,0-0.3-0.1c-0.1-0.1-0.1-0.1-0.2-0.2l-0.5-1.5h-3l-0.5,1.5c0,0.1-0.1,0.1-0.2,0.2
				c-0.1,0.1-0.2,0.1-0.3,0.1h-1l2.8-7.2h1.4L61.4,28.5z M56.7,25.8H59l-0.9-2.4c0-0.1-0.1-0.2-0.1-0.4s-0.1-0.3-0.1-0.5
				c0,0.2-0.1,0.3-0.1,0.5c0,0.1-0.1,0.3-0.1,0.4L56.7,25.8z"/>
			<path class="st2" d="M64.1,23.3c0.3,0,0.6,0.1,0.9,0.2c0.3,0.1,0.5,0.3,0.7,0.4c0.2,0.2,0.3,0.4,0.5,0.7c0.1,0.3,0.2,0.6,0.2,1
				c0,0.1,0,0.2,0,0.2s0,0.1,0,0.1s-0.1,0.1-0.1,0.1c0,0-0.1,0-0.1,0h-3.1c0,0.5,0.2,0.9,0.4,1.1s0.6,0.4,1,0.4c0.2,0,0.4,0,0.5-0.1
				c0.1,0,0.3-0.1,0.4-0.2c0.1-0.1,0.2-0.1,0.3-0.2c0.1,0,0.2-0.1,0.2-0.1c0,0,0.1,0,0.1,0c0,0,0.1,0,0.1,0.1l0.4,0.4
				c-0.1,0.2-0.3,0.3-0.5,0.4c-0.2,0.1-0.3,0.2-0.5,0.3s-0.4,0.1-0.6,0.1c-0.2,0-0.4,0-0.6,0c-0.4,0-0.7-0.1-1-0.2
				c-0.3-0.1-0.6-0.3-0.8-0.5c-0.2-0.2-0.4-0.5-0.5-0.9c-0.1-0.3-0.2-0.7-0.2-1.2c0-0.3,0.1-0.7,0.2-1s0.3-0.6,0.5-0.8
				c0.2-0.2,0.5-0.4,0.8-0.5C63.4,23.4,63.8,23.3,64.1,23.3z M64.2,24.2c-0.4,0-0.6,0.1-0.8,0.3c-0.2,0.2-0.3,0.5-0.4,0.9h2.3
				c0-0.2,0-0.3-0.1-0.4c0-0.1-0.1-0.3-0.2-0.4c-0.1-0.1-0.2-0.2-0.3-0.2C64.5,24.2,64.3,24.2,64.2,24.2z"/>
			<path class="st2" d="M67.3,28.5v-5.1H68c0.1,0,0.2,0,0.3,0.1s0.1,0.1,0.1,0.2l0.1,0.6c0.2-0.3,0.4-0.6,0.6-0.7s0.5-0.3,0.8-0.3
				c0.3,0,0.5,0.1,0.6,0.2l-0.2,0.9c0,0.1,0,0.1-0.1,0.1s-0.1,0-0.1,0c0,0-0.1,0-0.2,0c-0.1,0-0.2,0-0.3,0c-0.3,0-0.5,0.1-0.7,0.2
				c-0.2,0.1-0.3,0.3-0.5,0.6v3.2H67.3z"/>
			<path class="st2" d="M73.5,23.3c0.4,0,0.7,0.1,1,0.2s0.6,0.3,0.8,0.5c0.2,0.2,0.4,0.5,0.5,0.8s0.2,0.7,0.2,1.1
				c0,0.4-0.1,0.8-0.2,1.1s-0.3,0.6-0.5,0.8c-0.2,0.2-0.5,0.4-0.8,0.5s-0.7,0.2-1,0.2s-0.7-0.1-1-0.2s-0.6-0.3-0.8-0.5
				c-0.2-0.2-0.4-0.5-0.5-0.8c-0.1-0.3-0.2-0.7-0.2-1.1c0-0.4,0.1-0.8,0.2-1.1c0.1-0.3,0.3-0.6,0.5-0.8c0.2-0.2,0.5-0.4,0.8-0.5
				S73.2,23.3,73.5,23.3z M73.5,27.6c0.4,0,0.7-0.1,0.9-0.4c0.2-0.3,0.3-0.7,0.3-1.2s-0.1-1-0.3-1.3c-0.2-0.3-0.5-0.4-0.9-0.4
				c-0.4,0-0.7,0.1-1,0.4c-0.2,0.3-0.3,0.7-0.3,1.2s0.1,1,0.3,1.2C72.8,27.5,73.1,27.6,73.5,27.6z"/>
			<path class="st2" d="M77,30.2v-6.7h0.7c0.1,0,0.1,0,0.2,0.1c0.1,0,0.1,0.1,0.1,0.2l0.1,0.5c0.2-0.2,0.4-0.4,0.7-0.6
				c0.3-0.1,0.6-0.2,0.9-0.2c0.3,0,0.5,0.1,0.8,0.2c0.2,0.1,0.4,0.3,0.6,0.5c0.2,0.2,0.3,0.5,0.4,0.8c0.1,0.3,0.1,0.7,0.1,1.1
				c0,0.4-0.1,0.7-0.2,1.1c-0.1,0.3-0.2,0.6-0.4,0.8c-0.2,0.2-0.4,0.4-0.7,0.6c-0.3,0.1-0.6,0.2-0.9,0.2c-0.3,0-0.5,0-0.7-0.1
				c-0.2-0.1-0.4-0.2-0.5-0.4v2.1H77z M79.4,24.3c-0.3,0-0.5,0.1-0.7,0.2c-0.2,0.1-0.3,0.3-0.5,0.5v2.3c0.1,0.2,0.3,0.3,0.5,0.4
				c0.2,0.1,0.3,0.1,0.5,0.1c0.2,0,0.4,0,0.5-0.1c0.1-0.1,0.3-0.2,0.4-0.3c0.1-0.1,0.2-0.3,0.2-0.5c0.1-0.2,0.1-0.5,0.1-0.8
				c0-0.3,0-0.5-0.1-0.8c0-0.2-0.1-0.4-0.2-0.5c-0.1-0.1-0.2-0.2-0.3-0.3C79.7,24.3,79.5,24.3,79.4,24.3z"/>
			<path class="st2" d="M84.8,23.3c0.4,0,0.7,0.1,1,0.2s0.6,0.3,0.8,0.5c0.2,0.2,0.4,0.5,0.5,0.8s0.2,0.7,0.2,1.1
				c0,0.4-0.1,0.8-0.2,1.1s-0.3,0.6-0.5,0.8c-0.2,0.2-0.5,0.4-0.8,0.5s-0.7,0.2-1,0.2s-0.7-0.1-1-0.2s-0.6-0.3-0.8-0.5
				c-0.2-0.2-0.4-0.5-0.5-0.8c-0.1-0.3-0.2-0.7-0.2-1.1c0-0.4,0.1-0.8,0.2-1.1c0.1-0.3,0.3-0.6,0.5-0.8c0.2-0.2,0.5-0.4,0.8-0.5
				S84.4,23.3,84.8,23.3z M84.8,27.6c0.4,0,0.7-0.1,0.9-0.4c0.2-0.3,0.3-0.7,0.3-1.2s-0.1-1-0.3-1.3c-0.2-0.3-0.5-0.4-0.9-0.4
				c-0.4,0-0.7,0.1-1,0.4c-0.2,0.3-0.3,0.7-0.3,1.2s0.1,1,0.3,1.2C84,27.5,84.3,27.6,84.8,27.6z"/>
			<path class="st2" d="M88.2,28.5v-5.1h0.7c0.1,0,0.2,0,0.3,0.1s0.1,0.1,0.1,0.2l0.1,0.6c0.2-0.3,0.4-0.6,0.6-0.7s0.5-0.3,0.8-0.3
				c0.3,0,0.5,0.1,0.6,0.2l-0.2,0.9c0,0.1,0,0.1-0.1,0.1s-0.1,0-0.1,0c0,0-0.1,0-0.2,0c-0.1,0-0.2,0-0.3,0c-0.3,0-0.5,0.1-0.7,0.2
				c-0.2,0.1-0.3,0.3-0.5,0.6v3.2H88.2z"/>
			<path class="st2" d="M93.9,28.6c-0.4,0-0.8-0.1-1-0.4s-0.4-0.6-0.4-1v-2.8H92c-0.1,0-0.1,0-0.2-0.1c0,0-0.1-0.1-0.1-0.2v-0.5
				l0.8-0.1l0.3-1.4c0-0.1,0-0.1,0.1-0.2c0,0,0.1-0.1,0.2-0.1h0.6v1.6h1.3v0.9h-1.3v2.8c0,0.2,0,0.3,0.1,0.4
				c0.1,0.1,0.2,0.1,0.3,0.1c0.1,0,0.1,0,0.2,0c0.1,0,0.1,0,0.1-0.1c0,0,0.1,0,0.1-0.1c0,0,0.1,0,0.1,0c0,0,0.1,0,0.1,0
				c0,0,0,0,0.1,0.1l0.4,0.6c-0.2,0.1-0.4,0.3-0.6,0.3S94.2,28.6,93.9,28.6z"/>
			<path class="st2" d="M98.3,23.3c0.4,0,0.7,0.1,1,0.2s0.6,0.3,0.8,0.5c0.2,0.2,0.4,0.5,0.5,0.8s0.2,0.7,0.2,1.1
				c0,0.4-0.1,0.8-0.2,1.1s-0.3,0.6-0.5,0.8c-0.2,0.2-0.5,0.4-0.8,0.5s-0.7,0.2-1,0.2s-0.7-0.1-1-0.2s-0.6-0.3-0.8-0.5
				c-0.2-0.2-0.4-0.5-0.5-0.8c-0.1-0.3-0.2-0.7-0.2-1.1c0-0.4,0.1-0.8,0.2-1.1c0.1-0.3,0.3-0.6,0.5-0.8c0.2-0.2,0.5-0.4,0.8-0.5
				S97.9,23.3,98.3,23.3z M98.3,27.6c0.4,0,0.7-0.1,0.9-0.4c0.2-0.3,0.3-0.7,0.3-1.2s-0.1-1-0.3-1.3c-0.2-0.3-0.5-0.4-0.9-0.4
				c-0.4,0-0.7,0.1-1,0.4C97.1,25,97,25.4,97,26s0.1,1,0.3,1.2C97.5,27.5,97.8,27.6,98.3,27.6z"/>
			<path class="st2" d="M104.7,24.4c0,0.1-0.1,0.1-0.1,0.1c0,0-0.1,0-0.1,0c-0.1,0-0.1,0-0.2,0c-0.1,0-0.1-0.1-0.2-0.1
				c-0.1,0-0.2-0.1-0.3-0.1c-0.1,0-0.2,0-0.4,0c-0.2,0-0.4,0.1-0.6,0.2c-0.1,0.1-0.2,0.2-0.2,0.4c0,0.1,0,0.2,0.1,0.3
				c0.1,0.1,0.2,0.1,0.3,0.2c0.1,0.1,0.2,0.1,0.4,0.2c0.1,0,0.3,0.1,0.5,0.1s0.3,0.1,0.5,0.2c0.1,0.1,0.3,0.2,0.4,0.3
				c0.1,0.1,0.2,0.2,0.3,0.4c0.1,0.1,0.1,0.3,0.1,0.5c0,0.2,0,0.5-0.1,0.7c-0.1,0.2-0.2,0.4-0.4,0.5c-0.2,0.2-0.4,0.3-0.6,0.4
				c-0.3,0.1-0.5,0.1-0.9,0.1c-0.2,0-0.3,0-0.5,0s-0.3-0.1-0.5-0.1s-0.3-0.1-0.4-0.2c-0.1-0.1-0.2-0.2-0.3-0.2l0.3-0.5
				c0-0.1,0.1-0.1,0.1-0.1c0,0,0.1,0,0.2,0c0.1,0,0.1,0,0.2,0.1c0.1,0,0.1,0.1,0.2,0.1c0.1,0,0.2,0.1,0.3,0.1c0.1,0,0.3,0.1,0.5,0.1
				c0.1,0,0.3,0,0.4-0.1s0.2-0.1,0.3-0.1c0.1-0.1,0.1-0.1,0.1-0.2c0-0.1,0-0.2,0-0.2c0-0.1,0-0.2-0.1-0.3c-0.1-0.1-0.2-0.1-0.3-0.2
				s-0.3-0.1-0.4-0.2c-0.2,0-0.3-0.1-0.5-0.1s-0.3-0.1-0.5-0.2c-0.2-0.1-0.3-0.2-0.4-0.3c-0.1-0.1-0.2-0.2-0.3-0.4
				c-0.1-0.2-0.1-0.3-0.1-0.6c0-0.2,0-0.4,0.1-0.6s0.2-0.4,0.4-0.5c0.2-0.1,0.4-0.3,0.6-0.3c0.2-0.1,0.5-0.1,0.8-0.1
				c0.3,0,0.7,0.1,1,0.2c0.3,0.1,0.5,0.3,0.7,0.5L104.7,24.4z"/>
		</g>
		<g>
			<path class="st2" d="M121.9,26.1v2.5h-1.3v-7.2h2.3c0.5,0,0.9,0.1,1.2,0.2c0.3,0.1,0.6,0.3,0.9,0.5c0.2,0.2,0.4,0.4,0.5,0.7
				c0.1,0.3,0.2,0.6,0.2,0.9c0,0.3-0.1,0.7-0.2,1c-0.1,0.3-0.3,0.5-0.5,0.7c-0.2,0.2-0.5,0.4-0.9,0.5c-0.3,0.1-0.8,0.2-1.2,0.2
				H121.9z M121.9,25h1c0.2,0,0.5,0,0.6-0.1c0.2-0.1,0.3-0.1,0.5-0.3c0.1-0.1,0.2-0.3,0.3-0.4c0.1-0.2,0.1-0.3,0.1-0.5
				c0-0.2,0-0.4-0.1-0.5c-0.1-0.2-0.1-0.3-0.3-0.4c-0.1-0.1-0.3-0.2-0.5-0.2c-0.2-0.1-0.4-0.1-0.6-0.1h-1V25z"/>
			<path class="st2" d="M128.6,23.4c0.4,0,0.7,0.1,1,0.2s0.6,0.3,0.8,0.5c0.2,0.2,0.4,0.5,0.5,0.8s0.2,0.7,0.2,1.1
				c0,0.4-0.1,0.8-0.2,1.1s-0.3,0.6-0.5,0.8c-0.2,0.2-0.5,0.4-0.8,0.5s-0.7,0.2-1,0.2s-0.7-0.1-1-0.2s-0.6-0.3-0.8-0.5
				c-0.2-0.2-0.4-0.5-0.5-0.8c-0.1-0.3-0.2-0.7-0.2-1.1c0-0.4,0.1-0.8,0.2-1.1c0.1-0.3,0.3-0.6,0.5-0.8c0.2-0.2,0.5-0.4,0.8-0.5
				S128.3,23.4,128.6,23.4z M128.6,27.7c0.4,0,0.7-0.1,0.9-0.4c0.2-0.3,0.3-0.7,0.3-1.2s-0.1-1-0.3-1.3c-0.2-0.3-0.5-0.4-0.9-0.4
				c-0.4,0-0.7,0.1-1,0.4c-0.2,0.3-0.3,0.7-0.3,1.2s0.1,1,0.3,1.2C127.9,27.6,128.2,27.7,128.6,27.7z"/>
			<path class="st2" d="M132.1,28.6v-5.1h0.7c0.1,0,0.2,0,0.3,0.1s0.1,0.1,0.1,0.2l0.1,0.6c0.2-0.3,0.4-0.6,0.6-0.7s0.5-0.3,0.8-0.3
				c0.3,0,0.5,0.1,0.6,0.2l-0.2,0.9c0,0.1,0,0.1-0.1,0.1s-0.1,0-0.1,0c0,0-0.1,0-0.2,0c-0.1,0-0.2,0-0.3,0c-0.3,0-0.5,0.1-0.7,0.2
				c-0.2,0.1-0.3,0.3-0.5,0.6v3.2H132.1z"/>
			<path class="st2" d="M137.8,28.7c-0.4,0-0.8-0.1-1-0.4s-0.4-0.6-0.4-1v-2.8h-0.5c-0.1,0-0.1,0-0.2-0.1c0,0-0.1-0.1-0.1-0.2v-0.5
				l0.8-0.1l0.3-1.4c0-0.1,0-0.1,0.1-0.2c0,0,0.1-0.1,0.2-0.1h0.6v1.6h1.3v0.9h-1.3v2.8c0,0.2,0,0.3,0.1,0.4
				c0.1,0.1,0.2,0.1,0.3,0.1c0.1,0,0.1,0,0.2,0c0.1,0,0.1,0,0.1-0.1c0,0,0.1,0,0.1-0.1c0,0,0.1,0,0.1,0c0,0,0.1,0,0.1,0
				c0,0,0,0,0.1,0.1l0.4,0.6c-0.2,0.1-0.4,0.3-0.6,0.3S138.1,28.7,137.8,28.7z"/>
			<path class="st2" d="M142.1,23.4c0.4,0,0.7,0.1,1,0.2s0.6,0.3,0.8,0.5c0.2,0.2,0.4,0.5,0.5,0.8s0.2,0.7,0.2,1.1
				c0,0.4-0.1,0.8-0.2,1.1s-0.3,0.6-0.5,0.8c-0.2,0.2-0.5,0.4-0.8,0.5s-0.7,0.2-1,0.2s-0.7-0.1-1-0.2s-0.6-0.3-0.8-0.5
				c-0.2-0.2-0.4-0.5-0.5-0.8c-0.1-0.3-0.2-0.7-0.2-1.1c0-0.4,0.1-0.8,0.2-1.1c0.1-0.3,0.3-0.6,0.5-0.8c0.2-0.2,0.5-0.4,0.8-0.5
				S141.8,23.4,142.1,23.4z M142.1,27.7c0.4,0,0.7-0.1,0.9-0.4c0.2-0.3,0.3-0.7,0.3-1.2s-0.1-1-0.3-1.3c-0.2-0.3-0.5-0.4-0.9-0.4
				c-0.4,0-0.7,0.1-1,0.4c-0.2,0.3-0.3,0.7-0.3,1.2s0.1,1,0.3,1.2C141.4,27.6,141.7,27.7,142.1,27.7z"/>
			<path class="st2" d="M148.6,24.5c0,0.1-0.1,0.1-0.1,0.1c0,0-0.1,0-0.1,0c-0.1,0-0.1,0-0.2,0c-0.1,0-0.1-0.1-0.2-0.1
				c-0.1,0-0.2-0.1-0.3-0.1c-0.1,0-0.2,0-0.4,0c-0.2,0-0.4,0.1-0.6,0.2c-0.1,0.1-0.2,0.2-0.2,0.4c0,0.1,0,0.2,0.1,0.3
				c0.1,0.1,0.2,0.1,0.3,0.2c0.1,0.1,0.2,0.1,0.4,0.2c0.1,0,0.3,0.1,0.5,0.1s0.3,0.1,0.5,0.2c0.1,0.1,0.3,0.2,0.4,0.3
				c0.1,0.1,0.2,0.2,0.3,0.4c0.1,0.1,0.1,0.3,0.1,0.5c0,0.2,0,0.5-0.1,0.7c-0.1,0.2-0.2,0.4-0.4,0.5c-0.2,0.2-0.4,0.3-0.6,0.4
				c-0.3,0.1-0.5,0.1-0.9,0.1c-0.2,0-0.3,0-0.5,0s-0.3-0.1-0.5-0.1s-0.3-0.1-0.4-0.2c-0.1-0.1-0.2-0.2-0.3-0.2l0.3-0.5
				c0-0.1,0.1-0.1,0.1-0.1c0,0,0.1,0,0.2,0c0.1,0,0.1,0,0.2,0.1c0.1,0,0.1,0.1,0.2,0.1c0.1,0,0.2,0.1,0.3,0.1c0.1,0,0.3,0.1,0.5,0.1
				c0.1,0,0.3,0,0.4-0.1s0.2-0.1,0.3-0.1c0.1-0.1,0.1-0.1,0.1-0.2c0-0.1,0-0.2,0-0.2c0-0.1,0-0.2-0.1-0.3c-0.1-0.1-0.2-0.1-0.3-0.2
				s-0.3-0.1-0.4-0.2c-0.2,0-0.3-0.1-0.5-0.1s-0.3-0.1-0.5-0.2c-0.2-0.1-0.3-0.2-0.4-0.3c-0.1-0.1-0.2-0.2-0.3-0.4
				c-0.1-0.2-0.1-0.3-0.1-0.6c0-0.2,0-0.4,0.1-0.6s0.2-0.4,0.4-0.5c0.2-0.1,0.4-0.3,0.6-0.3c0.2-0.1,0.5-0.1,0.8-0.1
				c0.3,0,0.7,0.1,1,0.2c0.3,0.1,0.5,0.3,0.7,0.5L148.6,24.5z"/>
		</g>
		<g>
			<path class="st2" d="M171.8,21.3v1.1h-3.2v2.1h2.7v1.1h-2.7v2.9h-1.3v-7.2H171.8z"/>
			<path class="st2" d="M172.5,28.5v-5.1h0.7c0.1,0,0.2,0,0.3,0.1s0.1,0.1,0.1,0.2l0.1,0.6c0.2-0.3,0.4-0.6,0.6-0.7s0.5-0.3,0.8-0.3
				c0.3,0,0.5,0.1,0.6,0.2l-0.2,0.9c0,0.1,0,0.1-0.1,0.1s-0.1,0-0.1,0c0,0-0.1,0-0.2,0c-0.1,0-0.2,0-0.3,0c-0.3,0-0.5,0.1-0.7,0.2
				c-0.2,0.1-0.3,0.3-0.5,0.6v3.2H172.5z"/>
			<path class="st2" d="M178.7,23.3c0.4,0,0.7,0.1,1,0.2s0.6,0.3,0.8,0.5c0.2,0.2,0.4,0.5,0.5,0.8s0.2,0.7,0.2,1.1
				c0,0.4-0.1,0.8-0.2,1.1s-0.3,0.6-0.5,0.8c-0.2,0.2-0.5,0.4-0.8,0.5s-0.7,0.2-1,0.2s-0.7-0.1-1-0.2s-0.6-0.3-0.8-0.5
				c-0.2-0.2-0.4-0.5-0.5-0.8c-0.1-0.3-0.2-0.7-0.2-1.1c0-0.4,0.1-0.8,0.2-1.1c0.1-0.3,0.3-0.6,0.5-0.8c0.2-0.2,0.5-0.4,0.8-0.5
				S178.3,23.3,178.7,23.3z M178.7,27.6c0.4,0,0.7-0.1,0.9-0.4c0.2-0.3,0.3-0.7,0.3-1.2s-0.1-1-0.3-1.3c-0.2-0.3-0.5-0.4-0.9-0.4
				c-0.4,0-0.7,0.1-1,0.4c-0.2,0.3-0.3,0.7-0.3,1.2s0.1,1,0.3,1.2C178,27.5,178.3,27.6,178.7,27.6z"/>
			<path class="st2" d="M182.2,28.5v-5.1h0.7c0.2,0,0.3,0.1,0.3,0.2l0.1,0.4c0.1-0.1,0.2-0.2,0.3-0.3c0.1-0.1,0.2-0.2,0.4-0.2
				c0.1-0.1,0.3-0.1,0.4-0.1c0.1,0,0.3,0,0.5,0c0.3,0,0.5,0,0.7,0.1c0.2,0.1,0.4,0.2,0.5,0.4s0.3,0.4,0.3,0.6
				c0.1,0.2,0.1,0.5,0.1,0.8v3.2h-1.2v-3.2c0-0.3-0.1-0.6-0.2-0.7s-0.4-0.3-0.6-0.3c-0.2,0-0.4,0-0.6,0.1c-0.2,0.1-0.4,0.2-0.5,0.4
				v3.7H182.2z"/>
			<path class="st2" d="M189.5,28.6c-0.4,0-0.8-0.1-1-0.4s-0.4-0.6-0.4-1v-2.8h-0.5c-0.1,0-0.1,0-0.2-0.1c0,0-0.1-0.1-0.1-0.2v-0.5
				l0.8-0.1l0.3-1.4c0-0.1,0-0.1,0.1-0.2c0,0,0.1-0.1,0.2-0.1h0.6v1.6h1.3v0.9h-1.3v2.8c0,0.2,0,0.3,0.1,0.4
				c0.1,0.1,0.2,0.1,0.3,0.1c0.1,0,0.1,0,0.2,0c0.1,0,0.1,0,0.1-0.1c0,0,0.1,0,0.1-0.1c0,0,0.1,0,0.1,0c0,0,0.1,0,0.1,0
				c0,0,0,0,0.1,0.1l0.4,0.6c-0.2,0.1-0.4,0.3-0.6,0.3S189.7,28.6,189.5,28.6z"/>
			<path class="st2" d="M193.7,23.3c0.3,0,0.6,0.1,0.9,0.2c0.3,0.1,0.5,0.3,0.7,0.4c0.2,0.2,0.3,0.4,0.5,0.7c0.1,0.3,0.2,0.6,0.2,1
				c0,0.1,0,0.2,0,0.2s0,0.1,0,0.1s-0.1,0.1-0.1,0.1c0,0-0.1,0-0.1,0h-3.1c0,0.5,0.2,0.9,0.4,1.1s0.6,0.4,1,0.4c0.2,0,0.4,0,0.5-0.1
				c0.1,0,0.3-0.1,0.4-0.2c0.1-0.1,0.2-0.1,0.3-0.2c0.1,0,0.2-0.1,0.2-0.1c0,0,0.1,0,0.1,0c0,0,0.1,0,0.1,0.1l0.4,0.4
				c-0.1,0.2-0.3,0.3-0.5,0.4c-0.2,0.1-0.3,0.2-0.5,0.3s-0.4,0.1-0.6,0.1c-0.2,0-0.4,0-0.6,0c-0.4,0-0.7-0.1-1-0.2
				c-0.3-0.1-0.6-0.3-0.8-0.5c-0.2-0.2-0.4-0.5-0.5-0.9c-0.1-0.3-0.2-0.7-0.2-1.2c0-0.3,0.1-0.7,0.2-1s0.3-0.6,0.5-0.8
				c0.2-0.2,0.5-0.4,0.8-0.5C193,23.4,193.4,23.3,193.7,23.3z M193.8,24.2c-0.4,0-0.6,0.1-0.8,0.3c-0.2,0.2-0.3,0.5-0.4,0.9h2.3
				c0-0.2,0-0.3-0.1-0.4c0-0.1-0.1-0.3-0.2-0.4c-0.1-0.1-0.2-0.2-0.3-0.2C194.1,24.2,193.9,24.2,193.8,24.2z"/>
			<path class="st2" d="M198.4,21.9c0,0.1,0,0.2-0.1,0.3c0,0.1-0.1,0.2-0.2,0.2c-0.1,0.1-0.2,0.1-0.2,0.2c-0.1,0-0.2,0.1-0.3,0.1
				c-0.1,0-0.2,0-0.3-0.1c-0.1,0-0.2-0.1-0.2-0.2s-0.1-0.1-0.2-0.2c0-0.1-0.1-0.2-0.1-0.3c0-0.1,0-0.2,0.1-0.3
				c0-0.1,0.1-0.2,0.2-0.2s0.2-0.1,0.2-0.2c0.1,0,0.2-0.1,0.3-0.1c0.1,0,0.2,0,0.3,0.1c0.1,0,0.2,0.1,0.2,0.2
				c0.1,0.1,0.1,0.2,0.2,0.2S198.4,21.8,198.4,21.9z M198.2,23.4v5.1H197v-5.1H198.2z"/>
			<path class="st2" d="M199.6,28.5v-5.1h0.7c0.1,0,0.2,0,0.3,0.1s0.1,0.1,0.1,0.2l0.1,0.6c0.2-0.3,0.4-0.6,0.6-0.7s0.5-0.3,0.8-0.3
				c0.3,0,0.5,0.1,0.6,0.2l-0.2,0.9c0,0.1,0,0.1-0.1,0.1s-0.1,0-0.1,0c0,0-0.1,0-0.2,0c-0.1,0-0.2,0-0.3,0c-0.3,0-0.5,0.1-0.7,0.2
				c-0.2,0.1-0.3,0.3-0.5,0.6v3.2H199.6z"/>
			<path class="st2" d="M207.5,28.5h-0.5c-0.1,0-0.2,0-0.3-0.1s-0.1-0.1-0.1-0.2l-0.1-0.4c-0.1,0.1-0.3,0.2-0.4,0.3
				c-0.1,0.1-0.3,0.2-0.4,0.2c-0.1,0.1-0.3,0.1-0.4,0.1s-0.3,0-0.5,0c-0.2,0-0.4,0-0.6-0.1c-0.2-0.1-0.3-0.1-0.5-0.3
				c-0.1-0.1-0.2-0.3-0.3-0.4c-0.1-0.2-0.1-0.4-0.1-0.6c0-0.2,0.1-0.4,0.2-0.6s0.3-0.4,0.5-0.5c0.2-0.2,0.5-0.3,0.9-0.4
				c0.4-0.1,0.9-0.1,1.5-0.1v-0.3c0-0.3-0.1-0.6-0.2-0.8s-0.4-0.2-0.6-0.2c-0.2,0-0.4,0-0.5,0.1s-0.2,0.1-0.3,0.2
				c-0.1,0.1-0.2,0.1-0.3,0.2c-0.1,0-0.2,0.1-0.3,0.1c-0.1,0-0.2,0-0.2-0.1c-0.1,0-0.1-0.1-0.1-0.2l-0.2-0.4
				c0.6-0.5,1.3-0.8,2.1-0.8c0.3,0,0.6,0,0.8,0.1c0.2,0.1,0.4,0.2,0.6,0.4c0.2,0.2,0.3,0.4,0.4,0.6c0.1,0.2,0.1,0.5,0.1,0.8V28.5z
				 M205.1,27.7c0.1,0,0.2,0,0.3,0c0.1,0,0.2-0.1,0.3-0.1c0.1,0,0.2-0.1,0.3-0.2c0.1-0.1,0.2-0.1,0.3-0.2v-0.8c-0.4,0-0.7,0-0.9,0.1
				c-0.2,0-0.4,0.1-0.6,0.2c-0.1,0.1-0.2,0.2-0.3,0.2s-0.1,0.2-0.1,0.3c0,0.2,0.1,0.4,0.2,0.5C204.7,27.7,204.9,27.7,205.1,27.7z"/>
			<path class="st2" d="M211.7,24.4c0,0.1-0.1,0.1-0.1,0.1c0,0-0.1,0-0.1,0c-0.1,0-0.1,0-0.2,0c-0.1,0-0.1-0.1-0.2-0.1
				c-0.1,0-0.2-0.1-0.3-0.1c-0.1,0-0.2,0-0.4,0c-0.2,0-0.4,0.1-0.6,0.2c-0.1,0.1-0.2,0.2-0.2,0.4c0,0.1,0,0.2,0.1,0.3
				c0.1,0.1,0.2,0.1,0.3,0.2c0.1,0.1,0.2,0.1,0.4,0.2c0.1,0,0.3,0.1,0.5,0.1s0.3,0.1,0.5,0.2c0.1,0.1,0.3,0.2,0.4,0.3
				c0.1,0.1,0.2,0.2,0.3,0.4c0.1,0.1,0.1,0.3,0.1,0.5c0,0.2,0,0.5-0.1,0.7c-0.1,0.2-0.2,0.4-0.4,0.5c-0.2,0.2-0.4,0.3-0.6,0.4
				c-0.3,0.1-0.5,0.1-0.9,0.1c-0.2,0-0.3,0-0.5,0s-0.3-0.1-0.5-0.1s-0.3-0.1-0.4-0.2c-0.1-0.1-0.2-0.2-0.3-0.2l0.3-0.5
				c0-0.1,0.1-0.1,0.1-0.1c0,0,0.1,0,0.2,0c0.1,0,0.1,0,0.2,0.1c0.1,0,0.1,0.1,0.2,0.1c0.1,0,0.2,0.1,0.3,0.1c0.1,0,0.3,0.1,0.5,0.1
				c0.1,0,0.3,0,0.4-0.1s0.2-0.1,0.3-0.1c0.1-0.1,0.1-0.1,0.1-0.2c0-0.1,0-0.2,0-0.2c0-0.1,0-0.2-0.1-0.3c-0.1-0.1-0.2-0.1-0.3-0.2
				s-0.3-0.1-0.4-0.2c-0.2,0-0.3-0.1-0.5-0.1s-0.3-0.1-0.5-0.2c-0.2-0.1-0.3-0.2-0.4-0.3c-0.1-0.1-0.2-0.2-0.3-0.4
				c-0.1-0.2-0.1-0.3-0.1-0.6c0-0.2,0-0.4,0.1-0.6s0.2-0.4,0.4-0.5c0.2-0.1,0.4-0.3,0.6-0.3c0.2-0.1,0.5-0.1,0.8-0.1
				c0.3,0,0.7,0.1,1,0.2c0.3,0.1,0.5,0.3,0.7,0.5L211.7,24.4z"/>
			<path class="st2" d="M216.6,28.6c-0.4,0-0.8-0.1-1-0.4s-0.4-0.6-0.4-1v-2.8h-0.5c-0.1,0-0.1,0-0.2-0.1c0,0-0.1-0.1-0.1-0.2v-0.5
				l0.8-0.1l0.3-1.4c0-0.1,0-0.1,0.1-0.2c0,0,0.1-0.1,0.2-0.1h0.6v1.6h1.3v0.9h-1.3v2.8c0,0.2,0,0.3,0.1,0.4
				c0.1,0.1,0.2,0.1,0.3,0.1c0.1,0,0.1,0,0.2,0c0.1,0,0.1,0,0.1-0.1c0,0,0.1,0,0.1-0.1c0,0,0.1,0,0.1,0c0,0,0.1,0,0.1,0
				c0,0,0,0,0.1,0.1l0.4,0.6c-0.2,0.1-0.4,0.3-0.6,0.3S216.8,28.6,216.6,28.6z"/>
			<path class="st2" d="M220.9,23.3c0.3,0,0.6,0.1,0.9,0.2c0.3,0.1,0.5,0.3,0.7,0.4c0.2,0.2,0.3,0.4,0.5,0.7c0.1,0.3,0.2,0.6,0.2,1
				c0,0.1,0,0.2,0,0.2s0,0.1,0,0.1s-0.1,0.1-0.1,0.1c0,0-0.1,0-0.1,0h-3.1c0,0.5,0.2,0.9,0.4,1.1s0.6,0.4,1,0.4c0.2,0,0.4,0,0.5-0.1
				c0.1,0,0.3-0.1,0.4-0.2c0.1-0.1,0.2-0.1,0.3-0.2c0.1,0,0.2-0.1,0.2-0.1c0,0,0.1,0,0.1,0c0,0,0.1,0,0.1,0.1l0.4,0.4
				c-0.1,0.2-0.3,0.3-0.5,0.4c-0.2,0.1-0.3,0.2-0.5,0.3s-0.4,0.1-0.6,0.1c-0.2,0-0.4,0-0.6,0c-0.4,0-0.7-0.1-1-0.2
				c-0.3-0.1-0.6-0.3-0.8-0.5c-0.2-0.2-0.4-0.5-0.5-0.9c-0.1-0.3-0.2-0.7-0.2-1.2c0-0.3,0.1-0.7,0.2-1s0.3-0.6,0.5-0.8
				c0.2-0.2,0.5-0.4,0.8-0.5C220.1,23.4,220.5,23.3,220.9,23.3z M220.9,24.2c-0.4,0-0.6,0.1-0.8,0.3c-0.2,0.2-0.3,0.5-0.4,0.9h2.3
				c0-0.2,0-0.3-0.1-0.4c0-0.1-0.1-0.3-0.2-0.4c-0.1-0.1-0.2-0.2-0.3-0.2C221.2,24.2,221.1,24.2,220.9,24.2z"/>
			<path class="st2" d="M224.1,28.5v-5.1h0.7c0.1,0,0.2,0,0.3,0.1s0.1,0.1,0.1,0.2l0.1,0.6c0.2-0.3,0.4-0.6,0.6-0.7s0.5-0.3,0.8-0.3
				c0.3,0,0.5,0.1,0.6,0.2l-0.2,0.9c0,0.1,0,0.1-0.1,0.1s-0.1,0-0.1,0c0,0-0.1,0-0.2,0c-0.1,0-0.2,0-0.3,0c-0.3,0-0.5,0.1-0.7,0.2
				c-0.2,0.1-0.3,0.3-0.5,0.6v3.2H224.1z"/>
			<path class="st2" d="M228.1,28.5v-5.1h0.7c0.1,0,0.2,0,0.3,0.1s0.1,0.1,0.1,0.2l0.1,0.6c0.2-0.3,0.4-0.6,0.6-0.7s0.5-0.3,0.8-0.3
				c0.3,0,0.5,0.1,0.6,0.2l-0.2,0.9c0,0.1,0,0.1-0.1,0.1s-0.1,0-0.1,0c0,0-0.1,0-0.2,0s-0.2,0-0.3,0c-0.3,0-0.5,0.1-0.7,0.2
				c-0.2,0.1-0.3,0.3-0.5,0.6v3.2H228.1z"/>
			<path class="st2" d="M234.2,23.3c0.3,0,0.6,0.1,0.9,0.2c0.3,0.1,0.5,0.3,0.7,0.4c0.2,0.2,0.3,0.4,0.5,0.7c0.1,0.3,0.2,0.6,0.2,1
				c0,0.1,0,0.2,0,0.2c0,0.1,0,0.1,0,0.1s-0.1,0.1-0.1,0.1c0,0-0.1,0-0.1,0H233c0,0.5,0.2,0.9,0.4,1.1s0.6,0.4,1,0.4
				c0.2,0,0.4,0,0.5-0.1c0.1,0,0.3-0.1,0.4-0.2s0.2-0.1,0.3-0.2c0.1,0,0.2-0.1,0.2-0.1c0,0,0.1,0,0.1,0c0,0,0.1,0,0.1,0.1l0.4,0.4
				c-0.1,0.2-0.3,0.3-0.5,0.4c-0.2,0.1-0.3,0.2-0.5,0.3c-0.2,0.1-0.4,0.1-0.6,0.1s-0.4,0-0.6,0c-0.4,0-0.7-0.1-1-0.2
				c-0.3-0.1-0.6-0.3-0.8-0.5c-0.2-0.2-0.4-0.5-0.5-0.9c-0.1-0.3-0.2-0.7-0.2-1.2c0-0.3,0.1-0.7,0.2-1c0.1-0.3,0.3-0.6,0.5-0.8
				c0.2-0.2,0.5-0.4,0.8-0.5C233.5,23.4,233.9,23.3,234.2,23.3z M234.3,24.2c-0.4,0-0.6,0.1-0.8,0.3c-0.2,0.2-0.3,0.5-0.4,0.9h2.3
				c0-0.2,0-0.3-0.1-0.4c0-0.1-0.1-0.3-0.2-0.4c-0.1-0.1-0.2-0.2-0.3-0.2C234.6,24.2,234.4,24.2,234.3,24.2z"/>
			<path class="st2" d="M240.4,24.4c0,0.1-0.1,0.1-0.1,0.1c0,0-0.1,0-0.1,0c-0.1,0-0.1,0-0.2,0c-0.1,0-0.1-0.1-0.2-0.1
				c-0.1,0-0.2-0.1-0.3-0.1c-0.1,0-0.2,0-0.4,0c-0.2,0-0.4,0.1-0.6,0.2c-0.1,0.1-0.2,0.2-0.2,0.4c0,0.1,0,0.2,0.1,0.3
				c0.1,0.1,0.2,0.1,0.3,0.2c0.1,0.1,0.2,0.1,0.4,0.2c0.1,0,0.3,0.1,0.5,0.1s0.3,0.1,0.5,0.2c0.1,0.1,0.3,0.2,0.4,0.3
				c0.1,0.1,0.2,0.2,0.3,0.4c0.1,0.1,0.1,0.3,0.1,0.5c0,0.2,0,0.5-0.1,0.7c-0.1,0.2-0.2,0.4-0.4,0.5c-0.2,0.2-0.4,0.3-0.6,0.4
				c-0.3,0.1-0.5,0.1-0.9,0.1c-0.2,0-0.3,0-0.5,0c-0.2,0-0.3-0.1-0.5-0.1s-0.3-0.1-0.4-0.2c-0.1-0.1-0.2-0.2-0.3-0.2l0.3-0.5
				c0-0.1,0.1-0.1,0.1-0.1c0,0,0.1,0,0.2,0s0.1,0,0.2,0.1c0.1,0,0.1,0.1,0.2,0.1c0.1,0,0.2,0.1,0.3,0.1s0.3,0.1,0.5,0.1
				c0.1,0,0.3,0,0.4-0.1c0.1,0,0.2-0.1,0.3-0.1c0.1-0.1,0.1-0.1,0.1-0.2s0-0.2,0-0.2c0-0.1,0-0.2-0.1-0.3c-0.1-0.1-0.2-0.1-0.3-0.2
				s-0.2-0.1-0.4-0.2s-0.3-0.1-0.5-0.1c-0.2-0.1-0.3-0.1-0.5-0.2c-0.2-0.1-0.3-0.2-0.4-0.3c-0.1-0.1-0.2-0.2-0.3-0.4
				c-0.1-0.2-0.1-0.3-0.1-0.6c0-0.2,0-0.4,0.1-0.6c0.1-0.2,0.2-0.4,0.4-0.5c0.2-0.1,0.4-0.3,0.6-0.3c0.2-0.1,0.5-0.1,0.8-0.1
				c0.3,0,0.7,0.1,1,0.2c0.3,0.1,0.5,0.3,0.7,0.5L240.4,24.4z"/>
			<path class="st2" d="M243.4,28.6c-0.4,0-0.8-0.1-1-0.4c-0.2-0.2-0.4-0.6-0.4-1v-2.8h-0.5c-0.1,0-0.1,0-0.2-0.1
				c0,0-0.1-0.1-0.1-0.2v-0.5l0.8-0.1l0.3-1.4c0-0.1,0-0.1,0.1-0.2c0,0,0.1-0.1,0.2-0.1h0.6v1.6h1.3v0.9h-1.3v2.8
				c0,0.2,0,0.3,0.1,0.4c0.1,0.1,0.2,0.1,0.3,0.1c0.1,0,0.1,0,0.2,0c0.1,0,0.1,0,0.1-0.1c0,0,0.1,0,0.1-0.1s0.1,0,0.1,0
				c0,0,0.1,0,0.1,0c0,0,0,0,0.1,0.1l0.4,0.6c-0.2,0.1-0.4,0.3-0.6,0.3C243.9,28.5,243.7,28.6,243.4,28.6z"/>
			<path class="st2" d="M245.6,28.5v-5.1h0.7c0.1,0,0.2,0,0.3,0.1c0,0,0.1,0.1,0.1,0.2l0.1,0.6c0.2-0.3,0.4-0.6,0.6-0.7
				s0.5-0.3,0.8-0.3c0.3,0,0.5,0.1,0.6,0.2l-0.2,0.9c0,0.1,0,0.1-0.1,0.1s-0.1,0-0.1,0c0,0-0.1,0-0.2,0c-0.1,0-0.2,0-0.3,0
				c-0.3,0-0.5,0.1-0.7,0.2s-0.3,0.3-0.5,0.6v3.2H245.6z"/>
			<path class="st2" d="M251.7,23.3c0.3,0,0.6,0.1,0.9,0.2c0.3,0.1,0.5,0.3,0.7,0.4c0.2,0.2,0.3,0.4,0.5,0.7c0.1,0.3,0.2,0.6,0.2,1
				c0,0.1,0,0.2,0,0.2s0,0.1,0,0.1s0,0.1-0.1,0.1c0,0-0.1,0-0.1,0h-3.1c0,0.5,0.2,0.9,0.4,1.1s0.6,0.4,1,0.4c0.2,0,0.4,0,0.5-0.1
				c0.1,0,0.3-0.1,0.4-0.2s0.2-0.1,0.3-0.2c0.1,0,0.2-0.1,0.2-0.1c0,0,0.1,0,0.1,0c0,0,0.1,0,0.1,0.1l0.4,0.4
				c-0.1,0.2-0.3,0.3-0.5,0.4c-0.2,0.1-0.3,0.2-0.5,0.3s-0.4,0.1-0.6,0.1s-0.4,0-0.6,0c-0.4,0-0.7-0.1-1-0.2
				c-0.3-0.1-0.6-0.3-0.8-0.5s-0.4-0.5-0.5-0.9c-0.1-0.3-0.2-0.7-0.2-1.2c0-0.3,0.1-0.7,0.2-1s0.3-0.6,0.5-0.8
				c0.2-0.2,0.5-0.4,0.8-0.5C251,23.4,251.3,23.3,251.7,23.3z M251.8,24.2c-0.4,0-0.6,0.1-0.8,0.3c-0.2,0.2-0.3,0.5-0.4,0.9h2.3
				c0-0.2,0-0.3-0.1-0.4c0-0.1-0.1-0.3-0.2-0.4c-0.1-0.1-0.2-0.2-0.3-0.2C252.1,24.2,251.9,24.2,251.8,24.2z"/>
		</g>
		<g>
			<path class="st2" d="M281.2,24.9c0,0.5-0.1,1-0.3,1.4c-0.2,0.4-0.4,0.8-0.7,1.1c-0.3,0.3-0.7,0.6-1.1,0.7s-0.9,0.3-1.5,0.3h-2.7
				v-7.2h2.7c0.5,0,1,0.1,1.5,0.3c0.4,0.2,0.8,0.4,1.1,0.7c0.3,0.3,0.6,0.7,0.7,1.1C281.1,23.9,281.2,24.4,281.2,24.9z M279.8,24.9
				c0-0.4-0.1-0.7-0.2-1.1c-0.1-0.3-0.3-0.6-0.5-0.8c-0.2-0.2-0.4-0.4-0.7-0.5c-0.3-0.1-0.6-0.2-0.9-0.2h-1.4v5h1.4
				c0.3,0,0.7-0.1,0.9-0.2c0.3-0.1,0.5-0.3,0.7-0.5c0.2-0.2,0.3-0.5,0.5-0.8C279.7,25.7,279.8,25.3,279.8,24.9z"/>
			<path class="st2" d="M284.2,23.3c0.3,0,0.6,0.1,0.9,0.2c0.3,0.1,0.5,0.3,0.7,0.4c0.2,0.2,0.3,0.4,0.5,0.7c0.1,0.3,0.2,0.6,0.2,1
				c0,0.1,0,0.2,0,0.2s0,0.1,0,0.1s0,0.1-0.1,0.1c0,0-0.1,0-0.1,0H283c0,0.5,0.2,0.9,0.4,1.1s0.6,0.4,1,0.4c0.2,0,0.4,0,0.5-0.1
				c0.1,0,0.3-0.1,0.4-0.2s0.2-0.1,0.3-0.2c0.1,0,0.2-0.1,0.2-0.1c0,0,0.1,0,0.1,0c0,0,0.1,0,0.1,0.1l0.4,0.4
				c-0.1,0.2-0.3,0.3-0.5,0.4c-0.2,0.1-0.3,0.2-0.5,0.3s-0.4,0.1-0.6,0.1s-0.4,0-0.6,0c-0.4,0-0.7-0.1-1-0.2
				c-0.3-0.1-0.6-0.3-0.8-0.5s-0.4-0.5-0.5-0.9c-0.1-0.3-0.2-0.7-0.2-1.2c0-0.3,0.1-0.7,0.2-1s0.3-0.6,0.5-0.8
				c0.2-0.2,0.5-0.4,0.8-0.5C283.5,23.4,283.9,23.3,284.2,23.3z M284.3,24.2c-0.4,0-0.6,0.1-0.8,0.3c-0.2,0.2-0.3,0.5-0.4,0.9h2.3
				c0-0.2,0-0.3-0.1-0.4c0-0.1-0.1-0.3-0.2-0.4c-0.1-0.1-0.2-0.2-0.3-0.2C284.6,24.2,284.4,24.2,284.3,24.2z"/>
			<path class="st2" d="M290.4,24.4c0,0.1-0.1,0.1-0.1,0.1c0,0-0.1,0-0.1,0c-0.1,0-0.1,0-0.2,0c-0.1,0-0.1-0.1-0.2-0.1
				c-0.1,0-0.2-0.1-0.3-0.1c-0.1,0-0.2,0-0.4,0c-0.2,0-0.4,0.1-0.6,0.2c-0.1,0.1-0.2,0.2-0.2,0.4c0,0.1,0,0.2,0.1,0.3
				c0.1,0.1,0.2,0.1,0.3,0.2c0.1,0.1,0.2,0.1,0.4,0.2c0.1,0,0.3,0.1,0.5,0.1s0.3,0.1,0.5,0.2c0.1,0.1,0.3,0.2,0.4,0.3
				c0.1,0.1,0.2,0.2,0.3,0.4c0.1,0.1,0.1,0.3,0.1,0.5c0,0.2,0,0.5-0.1,0.7c-0.1,0.2-0.2,0.4-0.4,0.5c-0.2,0.2-0.4,0.3-0.6,0.4
				c-0.3,0.1-0.5,0.1-0.9,0.1c-0.2,0-0.3,0-0.5,0c-0.2,0-0.3-0.1-0.5-0.1s-0.3-0.1-0.4-0.2c-0.1-0.1-0.2-0.2-0.3-0.2l0.3-0.5
				c0-0.1,0.1-0.1,0.1-0.1c0,0,0.1,0,0.2,0s0.1,0,0.2,0.1c0.1,0,0.1,0.1,0.2,0.1c0.1,0,0.2,0.1,0.3,0.1s0.3,0.1,0.5,0.1
				c0.1,0,0.3,0,0.4-0.1c0.1,0,0.2-0.1,0.3-0.1c0.1-0.1,0.1-0.1,0.1-0.2s0-0.2,0-0.2c0-0.1,0-0.2-0.1-0.3c-0.1-0.1-0.2-0.1-0.3-0.2
				s-0.2-0.1-0.4-0.2s-0.3-0.1-0.5-0.1c-0.2-0.1-0.3-0.1-0.5-0.2c-0.2-0.1-0.3-0.2-0.4-0.3c-0.1-0.1-0.2-0.2-0.3-0.4
				c-0.1-0.2-0.1-0.3-0.1-0.6c0-0.2,0-0.4,0.1-0.6c0.1-0.2,0.2-0.4,0.4-0.5c0.2-0.1,0.4-0.3,0.6-0.3c0.2-0.1,0.5-0.1,0.8-0.1
				c0.3,0,0.7,0.1,1,0.2c0.3,0.1,0.5,0.3,0.7,0.5L290.4,24.4z"/>
			<path class="st2" d="M293.2,21.9c0,0.1,0,0.2-0.1,0.3c0,0.1-0.1,0.2-0.2,0.2c-0.1,0.1-0.2,0.1-0.2,0.2c-0.1,0-0.2,0.1-0.3,0.1
				c-0.1,0-0.2,0-0.3-0.1c-0.1,0-0.2-0.1-0.2-0.2c-0.1-0.1-0.1-0.1-0.2-0.2c0-0.1-0.1-0.2-0.1-0.3c0-0.1,0-0.2,0.1-0.3
				c0-0.1,0.1-0.2,0.2-0.2c0.1-0.1,0.2-0.1,0.2-0.2c0.1,0,0.2-0.1,0.3-0.1c0.1,0,0.2,0,0.3,0.1c0.1,0,0.2,0.1,0.2,0.2
				c0.1,0.1,0.1,0.2,0.2,0.2S293.2,21.8,293.2,21.9z M293.1,23.4v5.1h-1.2v-5.1H293.1z"/>
			<path class="st2" d="M296.2,23.3c0.2,0,0.4,0,0.6,0.1c0.2,0,0.4,0.1,0.5,0.2h1.5V24c0,0.1,0,0.1-0.1,0.2c0,0-0.1,0.1-0.2,0.1
				l-0.5,0.1c0,0.1,0.1,0.2,0.1,0.3s0,0.2,0,0.3c0,0.3,0,0.5-0.2,0.7c-0.1,0.2-0.2,0.4-0.4,0.5s-0.4,0.3-0.6,0.3
				c-0.2,0.1-0.5,0.1-0.8,0.1c-0.2,0-0.4,0-0.6-0.1c-0.2,0.1-0.2,0.2-0.2,0.3c0,0.1,0,0.2,0.1,0.2c0.1,0,0.2,0.1,0.4,0.1
				c0.2,0,0.3,0,0.5,0s0.4,0,0.6,0s0.4,0,0.6,0.1c0.2,0,0.4,0.1,0.5,0.2s0.3,0.2,0.4,0.4c0.1,0.2,0.1,0.4,0.1,0.6
				c0,0.2-0.1,0.4-0.2,0.7c-0.1,0.2-0.3,0.4-0.5,0.6c-0.2,0.2-0.5,0.3-0.8,0.4c-0.3,0.1-0.7,0.2-1,0.2c-0.4,0-0.7,0-1-0.1
				s-0.5-0.2-0.7-0.3s-0.3-0.3-0.4-0.4c-0.1-0.2-0.1-0.3-0.1-0.5c0-0.2,0.1-0.4,0.2-0.6c0.1-0.2,0.3-0.3,0.6-0.4
				c-0.1-0.1-0.2-0.2-0.3-0.3c-0.1-0.1-0.1-0.3-0.1-0.5c0-0.1,0-0.2,0-0.2c0-0.1,0.1-0.2,0.1-0.2c0.1-0.1,0.1-0.2,0.2-0.2
				c0.1-0.1,0.2-0.1,0.3-0.2c-0.3-0.1-0.5-0.3-0.6-0.6c-0.1-0.2-0.2-0.5-0.2-0.8c0-0.3,0.1-0.5,0.2-0.7c0.1-0.2,0.2-0.4,0.4-0.5
				c0.2-0.1,0.4-0.3,0.6-0.3C295.6,23.4,295.9,23.3,296.2,23.3z M297.5,28.7c0-0.1,0-0.2-0.1-0.2s-0.1-0.1-0.2-0.1
				c-0.1,0-0.2-0.1-0.4-0.1c-0.1,0-0.3,0-0.4,0s-0.3,0-0.5,0c-0.2,0-0.3,0-0.5-0.1c-0.1,0.1-0.2,0.2-0.3,0.3s-0.1,0.2-0.1,0.4
				c0,0.1,0,0.2,0.1,0.2c0,0.1,0.1,0.1,0.2,0.2s0.2,0.1,0.4,0.1c0.2,0,0.3,0,0.6,0c0.2,0,0.4,0,0.6-0.1c0.2,0,0.3-0.1,0.4-0.1
				c0.1-0.1,0.2-0.1,0.2-0.2C297.5,28.9,297.5,28.8,297.5,28.7z M296.2,25.8c0.2,0,0.3,0,0.4-0.1c0.1,0,0.2-0.1,0.3-0.2
				c0.1-0.1,0.1-0.2,0.2-0.3c0-0.1,0.1-0.2,0.1-0.3c0-0.3-0.1-0.4-0.2-0.6c-0.2-0.1-0.4-0.2-0.7-0.2c-0.3,0-0.5,0.1-0.7,0.2
				c-0.2,0.1-0.2,0.3-0.2,0.6c0,0.1,0,0.2,0.1,0.3c0,0.1,0.1,0.2,0.2,0.3s0.2,0.1,0.3,0.2C295.9,25.8,296,25.8,296.2,25.8z"/>
			<path class="st2" d="M299.6,28.5v-5.1h0.7c0.2,0,0.3,0.1,0.3,0.2l0.1,0.4c0.1-0.1,0.2-0.2,0.3-0.3c0.1-0.1,0.2-0.2,0.4-0.2
				c0.1-0.1,0.3-0.1,0.4-0.1c0.1,0,0.3,0,0.5,0c0.3,0,0.5,0,0.7,0.1c0.2,0.1,0.4,0.2,0.5,0.4c0.1,0.2,0.3,0.4,0.3,0.6
				c0.1,0.2,0.1,0.5,0.1,0.8v3.2h-1.2v-3.2c0-0.3-0.1-0.6-0.2-0.7c-0.1-0.2-0.4-0.3-0.6-0.3c-0.2,0-0.4,0-0.6,0.1
				c-0.2,0.1-0.4,0.2-0.5,0.4v3.7H299.6z"/>
			<path class="st2" d="M309.2,28.5h-0.5c-0.1,0-0.2,0-0.3-0.1s-0.1-0.1-0.1-0.2l-0.1-0.4c-0.1,0.1-0.3,0.2-0.4,0.3
				c-0.1,0.1-0.3,0.2-0.4,0.2c-0.1,0.1-0.3,0.1-0.4,0.1s-0.3,0-0.5,0c-0.2,0-0.4,0-0.6-0.1c-0.2-0.1-0.3-0.1-0.5-0.3
				c-0.1-0.1-0.2-0.3-0.3-0.4c-0.1-0.2-0.1-0.4-0.1-0.6c0-0.2,0-0.4,0.2-0.6c0.1-0.2,0.3-0.4,0.5-0.5c0.2-0.2,0.5-0.3,0.9-0.4
				c0.4-0.1,0.9-0.1,1.5-0.1v-0.3c0-0.3-0.1-0.6-0.2-0.8c-0.1-0.2-0.4-0.2-0.6-0.2c-0.2,0-0.4,0-0.5,0.1c-0.1,0-0.2,0.1-0.3,0.2
				c-0.1,0.1-0.2,0.1-0.3,0.2c-0.1,0-0.2,0.1-0.3,0.1c-0.1,0-0.2,0-0.2-0.1c-0.1,0-0.1-0.1-0.1-0.2l-0.2-0.4
				c0.6-0.5,1.3-0.8,2.1-0.8c0.3,0,0.6,0,0.8,0.1c0.2,0.1,0.4,0.2,0.6,0.4c0.2,0.2,0.3,0.4,0.4,0.6c0.1,0.2,0.1,0.5,0.1,0.8V28.5z
				 M306.8,27.7c0.1,0,0.2,0,0.3,0c0.1,0,0.2-0.1,0.3-0.1c0.1,0,0.2-0.1,0.3-0.2c0.1-0.1,0.2-0.1,0.3-0.2v-0.8c-0.4,0-0.7,0-0.9,0.1
				c-0.2,0-0.4,0.1-0.6,0.2c-0.1,0.1-0.2,0.2-0.3,0.2s-0.1,0.2-0.1,0.3c0,0.2,0.1,0.4,0.2,0.5C306.4,27.7,306.6,27.7,306.8,27.7z"/>
			<path class="st2" d="M313.9,28.5c-0.2,0-0.3-0.1-0.3-0.2l-0.1-0.5c-0.1,0.1-0.2,0.2-0.3,0.3c-0.1,0.1-0.2,0.2-0.4,0.2
				c-0.1,0.1-0.3,0.1-0.4,0.2c-0.2,0-0.3,0.1-0.5,0.1c-0.3,0-0.5-0.1-0.8-0.2c-0.2-0.1-0.4-0.3-0.6-0.5c-0.2-0.2-0.3-0.5-0.4-0.8
				c-0.1-0.3-0.1-0.7-0.1-1.1c0-0.4,0.1-0.7,0.2-1c0.1-0.3,0.2-0.6,0.4-0.8c0.2-0.2,0.4-0.4,0.7-0.6c0.3-0.1,0.6-0.2,0.9-0.2
				c0.3,0,0.5,0,0.7,0.1s0.4,0.2,0.5,0.4v-2.7h1.2v7.4H313.9z M312.3,27.6c0.3,0,0.5-0.1,0.6-0.2s0.3-0.3,0.5-0.5v-2.3
				c-0.1-0.2-0.3-0.3-0.5-0.4s-0.3-0.1-0.5-0.1c-0.2,0-0.4,0-0.5,0.1c-0.2,0.1-0.3,0.2-0.4,0.3c-0.1,0.1-0.2,0.3-0.2,0.5
				c-0.1,0.2-0.1,0.5-0.1,0.8c0,0.3,0,0.5,0.1,0.8c0,0.2,0.1,0.4,0.2,0.5c0.1,0.1,0.2,0.2,0.3,0.3C312,27.6,312.2,27.6,312.3,27.6z"
				/>
			<path class="st2" d="M318.2,23.3c0.4,0,0.7,0.1,1,0.2s0.6,0.3,0.8,0.5c0.2,0.2,0.4,0.5,0.5,0.8c0.1,0.3,0.2,0.7,0.2,1.1
				c0,0.4-0.1,0.8-0.2,1.1c-0.1,0.3-0.3,0.6-0.5,0.8c-0.2,0.2-0.5,0.4-0.8,0.5s-0.7,0.2-1,0.2c-0.4,0-0.7-0.1-1-0.2
				s-0.6-0.3-0.8-0.5c-0.2-0.2-0.4-0.5-0.5-0.8c-0.1-0.3-0.2-0.7-0.2-1.1c0-0.4,0.1-0.8,0.2-1.1c0.1-0.3,0.3-0.6,0.5-0.8
				c0.2-0.2,0.5-0.4,0.8-0.5S317.8,23.3,318.2,23.3z M318.2,27.6c0.4,0,0.7-0.1,0.9-0.4c0.2-0.3,0.3-0.7,0.3-1.2s-0.1-1-0.3-1.3
				c-0.2-0.3-0.5-0.4-0.9-0.4c-0.4,0-0.7,0.1-1,0.4c-0.2,0.3-0.3,0.7-0.3,1.2s0.1,1,0.3,1.2C317.4,27.5,317.7,27.6,318.2,27.6z"/>
			<path class="st2" d="M324.6,24.4c0,0.1-0.1,0.1-0.1,0.1c0,0-0.1,0-0.1,0c-0.1,0-0.1,0-0.2,0s-0.1-0.1-0.2-0.1
				c-0.1,0-0.2-0.1-0.3-0.1c-0.1,0-0.2,0-0.4,0c-0.2,0-0.4,0.1-0.6,0.2c-0.1,0.1-0.2,0.2-0.2,0.4c0,0.1,0,0.2,0.1,0.3
				s0.2,0.1,0.3,0.2s0.2,0.1,0.4,0.2s0.3,0.1,0.5,0.1s0.3,0.1,0.5,0.2c0.1,0.1,0.3,0.2,0.4,0.3s0.2,0.2,0.3,0.4
				c0.1,0.1,0.1,0.3,0.1,0.5c0,0.2,0,0.5-0.1,0.7c-0.1,0.2-0.2,0.4-0.4,0.5c-0.2,0.2-0.4,0.3-0.6,0.4c-0.3,0.1-0.5,0.1-0.9,0.1
				c-0.2,0-0.3,0-0.5,0c-0.2,0-0.3-0.1-0.5-0.1s-0.3-0.1-0.4-0.2c-0.1-0.1-0.2-0.2-0.3-0.2l0.3-0.5c0-0.1,0.1-0.1,0.1-0.1
				c0,0,0.1,0,0.2,0c0.1,0,0.1,0,0.2,0.1c0.1,0,0.1,0.1,0.2,0.1c0.1,0,0.2,0.1,0.3,0.1c0.1,0,0.3,0.1,0.5,0.1c0.1,0,0.3,0,0.4-0.1
				c0.1,0,0.2-0.1,0.3-0.1c0.1-0.1,0.1-0.1,0.1-0.2c0-0.1,0-0.2,0-0.2c0-0.1,0-0.2-0.1-0.3c-0.1-0.1-0.2-0.1-0.3-0.2
				s-0.3-0.1-0.4-0.2c-0.2,0-0.3-0.1-0.5-0.1c-0.2-0.1-0.3-0.1-0.5-0.2s-0.3-0.2-0.4-0.3s-0.2-0.2-0.3-0.4c-0.1-0.2-0.1-0.3-0.1-0.6
				c0-0.2,0-0.4,0.1-0.6c0.1-0.2,0.2-0.4,0.4-0.5c0.2-0.1,0.4-0.3,0.6-0.3c0.2-0.1,0.5-0.1,0.8-0.1c0.3,0,0.7,0.1,1,0.2
				c0.3,0.1,0.5,0.3,0.7,0.5L324.6,24.4z"/>
		</g>
		<line class="st4" x1="48.9" y1="16.4" x2="48.9" y2="246.9"/>
		<line class="st4" x1="112.7" y1="16.4" x2="112.7" y2="246.9"/>
		<line class="st4" x1="158.2" y1="16.4" x2="158.2" y2="246.9"/>
		<line class="st4" x1="265.1" y1="16.4" x2="265.1" y2="246.9"/>
		<line class="st4" x1="15" y1="52.7" x2="332" y2="52.7"/>
		<line class="st4" x1="15" y1="67.6" x2="332" y2="67.6"/>
		<line class="st4" x1="15" y1="82.5" x2="332" y2="82.5"/>
		<line class="st4" x1="15" y1="97.4" x2="332" y2="97.4"/>
		<line class="st4" x1="15" y1="112.3" x2="332" y2="112.3"/>
		<line class="st4" x1="15" y1="127.2" x2="332" y2="127.2"/>
		<line class="st4" x1="15" y1="142.1" x2="332" y2="142.1"/>
		<line class="st4" x1="15" y1="157" x2="332" y2="157"/>
		<line class="st4" x1="15" y1="171.8" x2="332" y2="171.8"/>
		<line class="st4" x1="15" y1="186.7" x2="332" y2="186.7"/>
		<line class="st4" x1="15" y1="201.6" x2="332" y2="201.6"/>
		<line class="st4" x1="15" y1="216.5" x2="332" y2="216.5"/>
		<line class="st4" x1="15" y1="231.4" x2="332" y2="231.4"/>
	</g>
</g>
<g id="Camada_2">
</g>
<g id="Camada_1">
</g>
</svg>
